<svg width="94" height="45" viewBox="0 0 94 45" fill="none" xmlns="http://www.w3.org/2000/svg">
<path d="M32.2689 43.4371H33.7183C34.253 43.4371 34.7189 43.2648 34.7189 42.6261C34.7189 41.9963 34.322 41.7464 33.7442 41.7464H32.2689V43.4371ZM32.2689 40.8232H33.6407C34.1152 40.8232 34.4687 40.6076 34.4687 40.0899C34.4687 39.5032 34.02 39.3824 33.5371 39.3824H32.2689V40.8232ZM30.9143 38.3301H33.813C34.9864 38.3301 35.7801 38.7097 35.7801 39.8569C35.7801 40.4609 35.4781 40.8836 34.9432 41.1424C35.6938 41.3581 36.0735 41.9362 36.0735 42.7038C36.0735 43.9548 35.0125 44.4897 33.8996 44.4897H30.9144L30.9143 38.3301Z" fill="white"/>
<path d="M39.0242 43.6888C39.8608 43.6888 40.111 42.973 40.111 42.2655C40.111 41.5494 39.8608 40.8333 39.0242 40.8333C38.1956 40.8333 37.9457 41.5494 37.9457 42.2655C37.9457 42.973 38.1956 43.6888 39.0242 43.6888ZM39.0242 39.9102C40.4299 39.9102 41.3361 40.842 41.3361 42.2656C41.3361 43.6803 40.4299 44.6119 39.0242 44.6119C37.6262 44.6119 36.7206 43.6802 36.7206 42.2656C36.7206 40.842 37.6262 39.9102 39.0242 39.9102Z" fill="white"/>
<path d="M46.3175 44.4904H45.1525V43.8695H45.1269C44.8161 44.3696 44.2814 44.6112 43.7637 44.6112C42.461 44.6112 42.1331 43.8778 42.1331 42.7735V40.0301H43.3583V42.5491C43.3583 43.2827 43.5739 43.6448 44.1434 43.6448C44.8077 43.6448 45.0924 43.2738 45.0924 42.3679V40.03H46.3175V44.4904Z" fill="white"/>
<path d="M47.2831 38.331H48.5082V44.4905H47.2831V38.331Z" fill="white"/>
<path d="M51.5867 40.8314C50.7846 40.8314 50.5082 41.5216 50.5082 42.2547C50.5082 42.9535 50.8277 43.6869 51.5867 43.6869C52.3977 43.6869 52.6392 42.9794 52.6392 42.2464C52.6392 41.5216 52.3804 40.8314 51.5867 40.8314ZM52.6565 43.9198H52.6392C52.3545 44.4029 51.8544 44.61 51.2847 44.61C49.939 44.61 49.2831 43.4539 49.2831 42.2201C49.2831 41.0211 49.9474 39.9081 51.2591 39.9081C51.7854 39.9081 52.3028 40.1325 52.5788 40.5725H52.5961V38.3296H53.821V44.489H52.6565V43.9198Z" fill="white"/>
<path d="M57.745 41.7823C57.6328 41.1611 57.3654 40.8333 56.77 40.8333C55.9936 40.8333 55.7692 41.4372 55.752 41.7823H57.745ZM55.752 42.5588C55.7865 43.335 56.1664 43.6888 56.8477 43.6888C57.3395 43.6888 57.7363 43.3868 57.814 43.1107H58.8925C58.5473 44.1636 57.814 44.6119 56.8046 44.6119C55.3985 44.6119 54.5269 43.6456 54.5269 42.2656C54.5269 40.9283 55.45 39.9102 56.8046 39.9102C58.323 39.9102 59.0561 41.1871 58.9701 42.5588L55.752 42.5588Z" fill="white"/>
<path d="M59.6956 40.0299H60.8606V40.8581H60.8776C61.1019 40.2974 61.7058 39.9091 62.3012 39.9091C62.3874 39.9091 62.491 39.9264 62.5686 39.9522V41.0911C62.4564 41.0652 62.2753 41.048 62.1286 41.048C61.2316 41.048 60.9207 41.695 60.9207 42.4799V44.4901H59.6956V40.0299Z" fill="white"/>
<path d="M0.000187181 25.46H0.678896V29.871C0.66892 31.5279 1.45712 32.157 2.76463 32.157C4.08214 32.157 4.87063 31.5279 4.86066 29.871V25.46H5.53907V30.0207C5.53907 31.4879 4.75087 32.7356 2.76455 32.7356C0.788302 32.7356 0 31.488 0 30.0207L0.000187181 25.46Z" fill="white"/>
<path d="M6.77499 27.4364H7.40382V28.3247H7.42378C7.65335 27.7059 8.34203 27.2867 9.07035 27.2867C10.5176 27.2867 10.9568 28.0452 10.9568 29.2729V32.5864H10.328V29.3726C10.328 28.4843 10.0385 27.8156 9.02044 27.8156C8.02263 27.8156 7.42377 28.5742 7.40382 29.5822V32.5862H6.77499V27.4364Z" fill="white"/>
<path d="M12.1562 27.4365H12.7851V32.586H12.1562V27.4365ZM12.1562 25.4606H12.7851V26.4684H12.1562V25.4606Z" fill="white"/>
<path d="M13.4188 27.4363H14.1174L15.7344 31.9574H15.7543L17.351 27.4363H17.9998L16.0737 32.5864H15.405L13.4188 27.4363Z" fill="white"/>
<path d="M22.3185 29.6526C22.2885 28.7044 21.6997 27.816 20.6819 27.816C19.6539 27.816 19.0849 28.7143 18.9851 29.6526H22.3185ZM18.9851 30.1816C18.995 31.0995 19.4741 32.2077 20.6819 32.2077C21.6001 32.2077 22.0989 31.6684 22.2985 30.8902H22.9273C22.6578 32.0577 21.9791 32.7364 20.6819 32.7364C19.0449 32.7364 18.3563 31.4788 18.3563 30.0117C18.3563 28.6543 19.0449 27.2868 20.6819 27.2868C22.3384 27.2868 22.9971 28.7341 22.9472 30.1813L18.9851 30.1816Z" fill="white"/>
<path d="M23.7938 27.4363H24.3727V28.6441H24.3926C24.712 27.8156 25.4107 27.3266 26.3386 27.3665V27.9953C25.2011 27.9354 24.4226 28.7738 24.4226 29.8418V32.5864H23.7938V27.4363Z" fill="white"/>
<path d="M30.0233 28.9435C29.993 28.165 29.3942 27.8156 28.6758 27.8156C28.1169 27.8156 27.4581 28.0352 27.4581 28.7039C27.4581 29.2629 28.0969 29.4625 28.5261 29.5723L29.3645 29.7619C30.0828 29.8714 30.8317 30.2909 30.8317 31.1892C30.8317 32.3068 29.7238 32.736 28.7657 32.736C27.5679 32.736 26.7495 32.177 26.65 30.9194H27.2785C27.3284 31.7678 27.9572 32.2073 28.7953 32.2073C29.3845 32.2073 30.2026 31.9478 30.2026 31.2288C30.2026 30.6303 29.6437 30.4303 29.0751 30.2909L28.2666 30.111C27.4482 29.8917 26.8296 29.6122 26.8296 28.7339C26.8296 27.6859 27.8574 27.2866 28.7657 27.2866C29.7937 27.2866 30.6121 27.8256 30.6521 28.9435H30.0233Z" fill="white"/>
<path d="M31.75 27.4365H32.3788V32.586H31.75V27.4365ZM31.75 25.4606H32.3788V26.4684H31.75V25.4606Z" fill="white"/>
<path d="M34.5836 27.4364H35.6314V27.9653H34.5836V31.4384C34.5836 31.8477 34.6432 32.0872 35.0927 32.1171C35.272 32.1171 35.4517 32.1072 35.6314 32.0872V32.6262C35.4417 32.6262 35.2624 32.6461 35.0724 32.6461C34.2343 32.6461 33.9445 32.3667 33.9545 31.4883V27.9654H33.0562V27.4364H33.9545V25.8896H34.5836V27.4364Z" fill="white"/>
<path d="M35.9625 27.4363H36.6312L38.3277 31.8277L39.9147 27.4363H40.5435L38.3077 33.3747C37.9484 34.2431 37.7388 34.4922 36.9503 34.4922C36.7008 34.4826 36.571 34.4826 36.4715 34.4427V33.9133C36.6209 33.9433 36.761 33.9636 36.9007 33.9636C37.4594 33.9636 37.5891 33.6342 37.7987 33.1551L38.0183 32.5662L35.9625 27.4363Z" fill="white"/>
<path d="M44.31 30.0109C44.31 31.1085 44.9089 32.2068 46.1166 32.2068C47.324 32.2068 47.9228 31.1085 47.9228 30.0109C47.9228 28.913 47.324 27.8151 46.1166 27.8151C44.9089 27.8151 44.31 28.913 44.31 30.0109ZM48.552 30.0109C48.552 31.4878 47.6936 32.7356 46.1166 32.7356C44.5396 32.7356 43.6813 31.488 43.6813 30.0109C43.6813 28.5337 44.5396 27.286 46.1166 27.286C47.6936 27.286 48.552 28.5337 48.552 30.0109Z" fill="white"/>
<path d="M51.4749 27.9649H50.4568V32.586H49.828V27.9649H48.95V27.4359H49.828V26.9669C49.8181 26.0788 50.0676 25.46 51.0757 25.46C51.255 25.46 51.4051 25.47 51.6047 25.4999V26.0386C51.435 26.009 51.2952 25.989 51.1455 25.989C50.4469 25.989 50.4668 26.4279 50.4568 26.9868V27.4359H51.4749V27.9649Z" fill="white"/>
<path d="M60.1742 27.6144C59.9343 26.5165 59.0264 25.888 57.9883 25.888C56.1019 25.888 55.3037 27.4647 55.3037 29.0217C55.3037 30.5784 56.1019 32.1558 57.9883 32.1558C59.3058 32.1558 60.1439 31.1374 60.2737 29.8699H60.9524C60.7631 31.6165 59.6552 32.7344 57.9883 32.7344C55.7429 32.7344 54.625 30.9678 54.625 29.0217C54.625 27.0754 55.7429 25.3092 57.9883 25.3092C59.3355 25.3092 60.6729 26.1176 60.8529 27.6145L60.1742 27.6144Z" fill="white"/>
<path d="M62.2412 30.0109C62.2412 31.1085 62.8401 32.2068 64.0478 32.2068C65.2552 32.2068 65.854 31.1085 65.854 30.0109C65.854 28.913 65.2552 27.8151 64.0478 27.8151C62.8401 27.8151 62.2412 28.913 62.2412 30.0109ZM66.4829 30.0109C66.4829 31.4878 65.6249 32.7356 64.0479 32.7356C62.4709 32.7356 61.6125 31.488 61.6125 30.0109C61.6125 28.5337 62.4709 27.286 64.0479 27.286C65.6249 27.286 66.4829 28.5337 66.4829 30.0109Z" fill="white"/>
<path d="M67.4313 25.4603H68.0601V32.586H67.4313V25.4603Z" fill="white"/>
<path d="M69.6412 30.0109C69.6412 31.1085 70.2401 32.2068 71.4478 32.2068C72.6552 32.2068 73.254 31.1085 73.254 30.0109C73.254 28.913 72.6552 27.8151 71.4478 27.8151C70.2401 27.8151 69.6412 28.913 69.6412 30.0109ZM73.883 30.0109C73.883 31.4878 73.0246 32.7356 71.4479 32.7356C69.8709 32.7356 69.0125 31.488 69.0125 30.0109C69.0125 28.5337 69.8709 27.286 71.4479 27.286C73.0246 27.286 73.883 28.5337 73.883 30.0109Z" fill="white"/>
<path d="M74.8188 27.4363H75.3977V28.6441H75.4177C75.7371 27.8156 76.4357 27.3266 77.3637 27.3665V27.9953C76.2261 27.9354 75.4476 28.7738 75.4476 29.8418V32.5864H74.8188V27.4363Z" fill="white"/>
<path d="M81.2545 29.7712H81.2342C81.1544 29.921 80.8752 29.9709 80.7052 30.0005C79.6376 30.1905 78.3101 30.1805 78.3101 31.1886C78.3101 31.8174 78.869 32.2066 79.4579 32.2066C80.4158 32.2066 81.2642 31.5974 81.2545 30.5897V29.7712ZM77.9009 29.0127C77.9607 27.805 78.8091 27.286 79.9866 27.286C80.8949 27.286 81.883 27.5654 81.883 28.9428V31.6772C81.883 31.9167 82.0028 32.0565 82.2523 32.0565C82.3225 32.0565 82.402 32.0365 82.4519 32.0165V32.5458C82.3122 32.5755 82.2124 32.5855 82.0427 32.5855C81.4039 32.5855 81.3041 32.2261 81.3041 31.6872H81.2844C80.8449 32.3559 80.3961 32.7352 79.408 32.7352C78.4598 32.7352 77.6813 32.266 77.6813 31.228C77.6813 29.7811 79.0883 29.7312 80.4461 29.5715C80.9648 29.5116 81.2546 29.4417 81.2546 28.8728C81.2546 28.0244 80.6457 27.8148 79.9068 27.8148C79.1286 27.8148 78.5497 28.1741 78.5297 29.0125L77.9009 29.0127Z" fill="white"/>
<path d="M85.2403 32.2058C86.5774 32.2058 87.0465 31.0776 87.0465 30.0099C87.0465 28.942 86.5774 27.8141 85.2403 27.8141C84.0429 27.8141 83.5535 28.942 83.5535 30.0099C83.5535 31.0776 84.0429 32.2058 85.2403 32.2058ZM87.6757 32.5847H87.0968V31.6066H87.0768C86.8073 32.2753 85.9889 32.7344 85.2403 32.7344C83.6736 32.7344 82.925 31.4672 82.925 30.0098C82.925 28.5526 83.6736 27.2849 85.2403 27.2849C86.0088 27.2849 86.7574 27.6741 87.0269 28.4128H87.0465V25.4587H87.6757V32.5844" fill="white"/>
<path d="M89.2409 30.0109C89.2409 31.1085 89.8398 32.2068 91.0475 32.2068C92.2552 32.2068 92.8538 31.1085 92.8538 30.0109C92.8538 28.913 92.2552 27.8151 91.0475 27.8151C89.8398 27.8151 89.2409 28.913 89.2409 30.0109ZM93.4829 30.0109C93.4829 31.4878 92.6246 32.7356 91.0475 32.7356C89.4709 32.7356 88.6125 31.488 88.6125 30.0109C88.6125 28.5337 89.4709 27.286 91.0475 27.286C92.6246 27.286 93.4829 28.5337 93.4829 30.0109Z" fill="white"/>
<path d="M51.6893 5.41113V2.94501L48.7508 -2.67029e-05H38.5689L35.6208 2.94338V13.1078L38.5689 16.05H41.8027V18.5234L44.7741 21.4714H53.3659L56.3449 18.528V10.654H57.862V5.41182H51.6895" fill="#D2D2D2"/>
<path d="M48.6257 0.305048L51.384 3.07157V5.71667H57.5566V10.3492H56.0394V18.3987L53.2415 21.1641H44.8997L42.1092 18.3987V15.7459H38.6953L35.9271 12.9806V3.07111L38.6953 0.304813H48.6257" fill="black"/>
<path d="M39.012 14.9826H42.8726V18.081L45.2143 20.4016H52.9282L55.2762 18.081V9.58544H56.7944V6.48099H52.1378V17.301H45.976V14.9826H48.3079L50.6217 12.665V9.58546H47.518V11.8864H45.9761V6.48102H41.3328V9.58546H42.8726V11.8864H39.787V4.14401H47.5179V6.48102H50.6217V3.38916L48.3079 1.0694H39.0118L36.6896 3.38809V12.6651L39.012 14.9826Z" fill="white"/>
<path d="M45.592 14.6003H48.1488L50.2383 12.5076V9.96739H47.8996V12.2675H45.592V6.86353H41.7134V9.20427H43.2537V12.2675H39.4047V3.76259H47.8997V6.09913H50.2384V3.54633L48.1489 1.45089H39.1693L37.0709 3.54633V12.5077L39.1682 14.6005H43.2535V17.9209L45.3708 20.0207H52.7696L54.8936 17.9199V9.20432H56.4102V6.86358H52.5183V17.6812H45.5919L45.592 14.6003Z" fill="#D2D2D2"/>
</svg>
