<svg width="69" height="49" viewBox="0 0 69 49" fill="none" xmlns="http://www.w3.org/2000/svg">
<path fill-rule="evenodd" clip-rule="evenodd" d="M39.3814 4.1938L39.202 4.27429L38.233 3.40692L37.6677 2.61111L37.6498 1.95836L37.9189 1.9673L37.8741 0.66178L38.0714 0.33988L38.1612 0.0269211L38.4034 0.00012207L38.6726 0.81383L38.9956 0.536634L39.1571 0.661815L38.9777 1.41293L39.1302 1.67224L39.3096 1.48446L39.6775 1.52027L39.3366 2.32503V2.62011H39.516L39.3814 4.1938ZM39.1927 3.91703L38.0532 2.48634L38.3493 2.40585L38.1967 0.805278L38.3941 0.903638L38.4838 1.61003L38.744 1.52956L38.8696 2.03031L39.1388 2.01244L38.9504 3.2464H39.2375L39.1927 3.91703Z" fill="white"/>
<path fill-rule="evenodd" clip-rule="evenodd" d="M36.9766 5.025L37.5239 5.06081L37.5867 4.05035L37.9546 3.62114L37.7931 3.3976H37.497L37.3445 3.11146L37.3534 2.67332L37.1202 2.46765L36.9048 2.70013H36.6985L36.2768 1.76125L36.0524 1.84172L35.9807 3.20088L35.5949 3.58537L35.9358 4.45274L36.5639 4.53321L36.9766 5.025ZM36.2764 3.95257L37.1018 4.46226L37.4338 3.83633L37.0749 3.50548L36.9852 3.17464L36.8057 3.29088L36.2584 2.29834L36.5096 3.6575L36.0969 3.54126L36.2764 3.95257Z" fill="white"/>
<path fill-rule="evenodd" clip-rule="evenodd" d="M39.9914 6.91207L38.7173 6.40238L38.5379 6.14307L38.7891 6.13413V5.91059L38.4751 5.44562L38.52 5.36514H38.7622V5.11476L38.5648 4.67662L38.3226 4.36365L38.3315 4.22059L38.5469 4.27426L39.1929 4.75712L39.5069 4.79285L39.8479 4.43518L40.0363 4.5246L39.9286 4.95381L39.9914 5.13265L40.2158 5.06111L40.3055 5.09684L40.3862 5.4098L40.3055 6.48282L39.9914 6.91207ZM39.2285 6.25077L39.9911 6.50113L40.1167 5.48174L39.7488 5.5622L39.6591 4.96312L39.5514 4.93632L39.3899 5.26716L38.9682 4.91844L39.2105 5.56224L38.9054 5.66954L39.363 5.89309L39.4079 6.14347L39.2285 6.25077Z" fill="white"/>
<path fill-rule="evenodd" clip-rule="evenodd" d="M36.9232 11.0345L36.959 11.4279L36.0798 12.7334L35.2812 13.1179L35.4337 12.6977L35.3351 12.6351L34.5545 12.805L33.7828 12.6351V12.4831L34.8057 11.9644L34.384 11.6694V11.2849L35.5235 11.0702L35.4248 10.6321L35.7388 10.5695L36.9232 11.0345ZM36.0694 12.3672L36.6526 11.4373L36.6436 11.3032L36.0514 11.0349L35.845 11.482L35.0644 11.6877L35.4503 11.9738L35.0914 12.3046L35.8361 12.1526L35.881 12.3672H36.0694Z" fill="white"/>
<path fill-rule="evenodd" clip-rule="evenodd" d="M36.393 9.63939L35.9354 10.0418L35.1369 10.2653H34.9933L34.6075 10.0507H34.3384L33.9256 10.1491L33.7372 9.97918L33.9346 9.61258L32.8669 9.05818L32.7592 8.81675L32.9476 8.64685L34.2217 8.77204L34.2666 8.6558L34.0782 8.32495L34.2397 8.17294L34.5717 8.19974L34.5806 7.85996L34.4281 7.34133L34.7152 7.43969L35.9624 8.50377L36.3661 9.22805L36.3726 9.32655H36.8066L36.376 8.04787L36.5823 7.9942L36.9143 8.07468L37.013 8.04788L36.9592 7.73492L36.7348 7.19841L37.004 7.02851L37.9192 8.32508L37.982 8.31615L38.0268 8.11944H38.4306L38.4222 10.2478L38.9326 10.1935L38.7173 9.01323H38.8967L39.6055 9.72858L39.6863 9.38878H39.9734L40.1887 9.92529L40.5117 9.66598L40.736 10.1578L40.745 10.7569L40.5476 11.4812L40.2156 11.8388L39.453 11.6421L38.3835 10.4079L38.323 10.4354L37.7667 10.4711L36.69 9.84517L36.3856 9.5252L36.393 9.63939ZM37.4245 9.78299L38.0885 10.0781L38.1064 8.96038H37.7027L37.263 8.12879L37.2451 8.62059L37.0836 8.65632L37.4873 9.49685L37.4245 9.78299ZM35.9708 9.5681V9.23725L35.4055 8.43253L34.9838 8.1911L35.0287 9.08528H34.0149L34.1674 9.34459L34.4904 9.38033L34.5262 9.76482L35.0018 9.6754L35.262 9.89894L35.9708 9.5681ZM40.2147 11.3564L39.9006 11.3653L39.1739 10.9003L39.2995 9.88992L39.6494 10.3012L39.9365 10.1403L40.0352 10.4622L40.421 10.2208L40.2147 11.3564Z" fill="white"/>
<path fill-rule="evenodd" clip-rule="evenodd" d="M43.7777 19.1444L42.71 19.7167L42.701 19.9134L42.9522 20.1906L42.378 21.0132L42.7459 21.0669L42.4857 22.3456L42.8894 22.3545L43.661 21.4067L44.002 21.6571L44.0587 21.6458L43.4813 22.7573L43.4633 23.5531L44.1542 23.5442L44.9617 24.7245L45.5449 25.1805L45.7154 25.0375L45.3655 23.6783L46.3345 23.8124L45.4642 22.6589L45.9397 22.6947L45.527 22.1134L44.4682 21.4339L44.3723 21.452L44.1635 20.6735L44.5762 20.7808L44.6839 20.736L43.7777 19.1444ZM43.6696 19.6459L43.4184 19.9052L43.5709 19.9946L43.3286 20.4506L43.4632 20.5222L43.4811 21.0944L43.8311 20.8351L43.8131 20.3702L43.9208 20.236L44.0913 20.2539L43.6696 19.6459ZM44.4412 21.9349L44.0733 22.6056L44.4232 22.5251L44.7732 23.5355L44.8988 23.1421L45.3833 23.312L44.9616 22.4714H45.2666L44.6924 21.9528L44.4412 21.9349Z" fill="white"/>
<path fill-rule="evenodd" clip-rule="evenodd" d="M45.2762 20.9061L45.5633 19.8867L45.644 19.6631L47.0527 20.0476L47.3219 20.4053L47.0796 20.5573L47.1962 20.7719L47.7436 20.7362L47.9858 21.0402L47.4564 21.2995L48.3357 22.1579L47.1424 22.2027L46.9989 22.2742L47.1693 22.7302L47.0527 22.9806L46.6669 22.8465L45.5094 21.7913L45.2762 20.9061ZM45.8053 20.4235L45.7963 21.1388L46.4334 22.194L46.4065 21.738L47.3037 21.7827L46.8731 21.2909H47.0704L47.0076 21.0584L46.3257 20.8527L46.5949 20.5398L46.0566 20.2805L45.8053 20.4235Z" fill="white"/>
<path fill-rule="evenodd" clip-rule="evenodd" d="M33.5307 6.04022C35.8425 6.04022 38.0393 6.53045 40.022 7.41219L40.0362 7.07338L40.4668 7.15386L40.9334 7.40423L41.2746 8.03669C41.5277 8.1771 41.7765 8.32417 42.0209 8.47768L42.1655 8.2903L42.3685 8.4041L42.3812 8.65702L42.4069 8.72803C42.7851 8.98106 43.1517 9.2498 43.5059 9.53331L43.5043 9.50437L43.8088 9.11235L44.1641 9.2072L45.1792 8.13865V9.09972L45.8517 8.94797L45.4267 9.4032L44.8507 10.7405C45.3501 11.2426 45.8161 11.7777 46.245 12.3423L46.5141 12.2773L46.4471 12.6143C46.6759 12.9291 46.8933 13.2526 47.0988 13.5843L47.3126 12.8405L47.4831 12.8047L47.7253 13.073H47.851L48.1291 12.7868L48.1022 12.0983H48.3086L48.6585 12.8673L49.4481 12.8762L48.802 13.6005L49.143 13.7794V14.0297L47.9317 14.602L47.6806 14.606C47.8596 14.9494 48.0263 15.3001 48.1802 15.6577L49.3587 15.7733L49.3856 15.9343L48.8204 16.0595L48.623 16.3098L49.0537 16.8463L48.7282 17.1291C48.8364 17.4712 48.9333 17.8183 49.0185 18.17L49.5379 18.1522L49.4303 18.8675L50.2557 19.0911L49.304 19.6617C49.4077 20.3925 49.4613 21.1394 49.4613 21.8988C49.4613 30.6576 42.3286 37.7574 33.5307 37.7574C24.7327 37.7574 17.6 30.6576 17.6 21.8988C17.6 13.14 24.7327 6.04022 33.5307 6.04022ZM18.184 21.8988C18.184 13.4621 25.0546 6.6222 33.5307 6.6222C35.687 6.6222 37.7395 7.0649 39.6013 7.86396L39.9195 8.42359L39.785 8.55773L39.5337 8.62033V8.74552H39.8029L40.8437 9.44297L41.2564 9.46084L41.4538 9.21942L41.5794 8.92434L41.5672 8.88178C41.5993 8.90144 41.6313 8.92121 41.6632 8.9411L41.658 8.94787L41.6326 10.7309L42.6731 12.4254L42.6477 13.1083L42.658 13.2818L42.4694 12.9566L41.3782 12.1852L39.2972 11.8818L37.9903 11.1357L37.1782 10.4022L37.2797 11.2242L38.1171 12.7164L40.4265 13.3739L41.5177 13.9303L41.5327 13.9503L41.4676 13.9688L40.5921 15.246L40.5945 15.2493L39.6858 14.4233L39.2731 14.459L37.2794 15.5235L36.4168 14.2087L35.8585 13.981L34.6403 13.8293L34.0059 14.3857L33.5745 15.4479H31.7219L31.1129 16.0802L30.6561 17.3448L29.2349 17.3953L28.9304 17.5471L28.499 18.5587L28.3721 20.3797L27.2301 20.582L26.5703 21.1384L25.8343 22.7824L26.1451 24.0792L24.8457 24.5184L24.6034 25.0012L23.8138 25.8328L22.4142 26.4051L21.9655 26.8522L21.6336 27.7911L21.5439 30.0176L22.1899 30.7597H22.5398L22.154 29.7761L22.2168 29.2486L23.114 28.2918L26.021 27.6122L26.5683 27.7285L26.9888 27.6003L27.0524 27.8659L28.1183 30.7238L28.6512 31.2549L30.7322 32.9747L31.1888 36.9987C23.8244 35.8763 18.184 29.543 18.184 21.8988ZM48.4375 18.2528L48.0216 18.3489L47.9947 17.9554L47.8691 17.8749L47.3756 18.483L47.1069 18.4914V18.3402L46.4519 17.8573L47.053 17.5444V17.3924L45.8238 16.8916L44.9176 16.981L45.1778 18.0093L45.5636 18.68L46.2814 18.7873L46.2904 18.3491L47.0756 18.5039L46.7027 18.8496L46.8373 19.2341L47.3038 19.9227L48.1652 20.6827L48.3356 20.325L48.798 20.336C48.8505 20.8498 48.8774 21.3712 48.8774 21.8988C48.8774 27.6593 45.6742 32.6754 40.944 35.2781L40.0711 31.9631L39.3859 30.3192L39.1829 29.9398V29.3834L41.0609 25.438L41.0355 25.0839L40.2995 22.9847L40.2741 21.3661L39.957 20.7095L40.3498 20.4858L41.9827 18.7869L42.2339 17.8748L42.2325 17.8717L42.4313 17.8664L43.4362 17.3746L44.1181 17.8396L43.9746 18.7963L44.3873 19.7621L44.9974 20.0035L45.7601 19.5922L45.9036 19.1093L45.3743 19.0825L45.0871 18.0363L44.8808 16.8381L44.3155 16.2569L43.7752 16.0186L43.9197 15.3727L44.6272 15.3851L45.5281 15.2839L46.264 14.6011L46.0737 14.4746L44.7667 14.5505L44.169 14.2584L44.183 14.1958L44.0688 13.0956L43.1045 10.655L42.7545 9.68825C43.0265 9.89214 43.2914 10.1048 43.5489 10.3259L43.5931 11.142L43.8786 11.2937L44.3256 11.0404C44.6842 11.3937 45.0254 11.7644 45.3478 12.1512L45.0696 12.4025L44.7286 13.5828L44.7197 14.1372L45.6617 14.1461L46.4917 13.7149C46.6254 13.9243 46.7542 14.1372 46.8778 14.3534L46.8012 14.6199L47.0247 14.6164C47.1822 14.9049 47.3306 15.1991 47.4696 15.4985L47.34 15.4693L46.1377 15.5856L45.1417 15.8985L46.0479 16.7569L46.8375 17.1414L47.5822 17.1861L47.4925 16.9089L47.6001 16.8285L48.0584 16.9621C48.2031 17.3843 48.3298 17.8149 48.4375 18.2528ZM42.089 9.4794L42.4062 10.2761L43.269 11.8568L43.5355 12.6914V14.2468L43.4831 14.4326L44.2205 14.8036H45.1594L44.8422 15.1198L43.954 15.0439L43.3745 14.8179L43.2183 15.3723L42.8249 16.1816L42.2897 16.5957L43.6692 16.49L44.3511 16.8029L44.6741 17.3037L44.683 18.7344L45.1765 19.3782L45.0419 19.5928L44.9343 19.5749L44.3959 18.94L44.4767 17.6435L44.1716 17.1248L43.9114 16.9818L43.3192 16.9639L42.2874 17.3573L41.9465 17.2232L41.8747 16.9728L41.9135 16.8869L41.7464 17.0162L41.5814 16.5736L42.5712 15.8022L43.007 14.6746L42.7866 14.5886L42.7132 14.6061L42.7865 15.0059L42.3551 15.9037L41.4795 16.4854L41.3273 16.1313L41.4034 16.0807L42.0505 15.6634L42.4185 14.7909L42.3893 14.6832L41.9365 14.791L41.2767 15.6762L41.0737 15.5244L41.7969 14.361L42.2771 14.2686L42.2028 13.9942L41.6064 13.3746L40.4771 12.7802L39.1829 12.6538L38.6372 12.3882L37.9394 11.5157L39.5255 12.3629L40.7943 12.5147L42.1774 13.1849L42.5708 13.8298L42.6385 14.199L42.9135 14.146L43.1629 14.2715L43.1675 14.2594L43.1929 12.8178L42.698 11.4901L42.0636 10.2381L42.089 9.4794ZM37.2671 16.2194L39.4496 15.0813L40.8073 16.1942L41.391 17.3702L41.4798 18.483L40.4393 19.5705L39.6019 19.8993L38.9685 19.402L39.2976 23.1116L40.0336 24.7049L40.1605 25.5775L40.0336 26.3741L39.0946 28.1445L38.346 29.447L39.1327 31.3439L39.6149 32.7981L40.0336 34.2018L40.3381 35.7698L37.5593 36.9838L33.2324 37.4517L32.0904 37.3126L31.4433 32.3429L29.3243 30.9392L28.6391 29.9781L27.8246 27.6042L27.7708 27.3628L28.4347 27.3717L29.305 26.5133L29.8792 26.7816L31.0367 26.7637L31.6917 25.4492V25.3151L32.3466 25.4761L32.867 25.4135L33.3246 24.7428L33.6387 24.1079L33.6655 23.7145L34.1501 23.8755L34.491 24.0364L35.2895 23.9917L35.5677 23.7413H35.783V24.1795L35.1011 25.0289L34.4372 26.0751L33.9975 26.8084V27.0855L34.1411 27.2733L34.2936 27.2197L34.4551 26.8352L35.3434 25.5565L36.0701 24.7964L36.3752 24.707L36.6354 24.7875L36.8238 24.9753L37.075 25.02L37.1468 24.9306L37.1558 24.7786L36.9943 24.5729L36.2944 24.1258L36.2675 22.4179L36.447 22.0424L36.4739 21.6221L36.7341 21.3896L37.0391 21.3539L37.2006 21.175L37.084 20.9426L36.743 20.9873L36.5098 21.1661L36.2137 21.1393L35.0652 20.585L34.5807 20.0663L34.1949 19.2168L34.177 17.8219L34.3026 17.3838L34.5269 17.2049L34.7424 17.2819L34.6535 18.0912L36.1508 19.5834L36.6076 19.5329L36.8107 18.7868L38.0034 19.0017L38.9476 19.3856L37.927 18.5842L37.2671 16.2194ZM26.5331 23.5287H26.7362L26.9646 23.1873L27.231 23.162L28.1319 23.6046L28.5253 23.9587L29.3247 25.8049L29.9084 26.3234H30.7585L31.228 25.2865L31.1392 24.7806L29.9972 22.77L28.4745 20.8731L27.4467 21.1893L26.5966 22.8332L26.5204 23.3011L26.5331 23.5287ZM29.0703 20.7588L31.1893 23.1741L31.938 24.7928L32.2425 24.9572L32.7373 24.9319L33.2449 23.642L33.2068 22.9592L32.4709 21.2014L32.141 20.822L31.5319 20.3921L30.796 18.2803L30.6056 18.0906L29.451 18.2297L29.286 18.5079L29.0576 20.0254L29.0703 20.7588ZM31.9888 16.0174L31.2528 17.3579V17.8004L31.9253 19.9755L32.9693 21.0026L33.3688 21.6521L33.5622 22.2517L33.7652 22.9472L34.6154 23.3772L35.2117 23.3898L35.5797 23.1622L35.8081 21.8723L35.6178 21.4424L34.3108 20.5319L33.4607 19.5455L33.3592 18.3442L33.8287 17.0417V16.675L33.3972 16.0174H31.9888ZM34.2981 16.5104L34.1586 15.7643L34.793 14.5882L36.1253 14.8032L37.2039 17.1679L37.445 17.8887L37.4703 18.1796L36.8359 18.1543L35.0087 16.7759L34.8437 16.4851L34.2981 16.5104ZM35.1361 17.3829L35.0219 17.6611L35.1488 18.0911L36.1258 18.8625L36.24 18.3566L36.1893 18.0026L35.3138 17.3576L35.1361 17.3829ZM22.0532 28.0305L22.0405 28.6627L22.7384 27.9546L23.5378 27.6385L25.3396 27.1327L25.7583 26.8418L26.3547 25.7796L26.5704 25.6278L26.7607 25.7669L26.7354 26.0198L26.3801 26.9809L26.4943 27.12L26.6465 27.1832L27.2683 26.9935L27.6616 26.0704L27.9789 25.6657L28.1692 25.8681L28.1438 26.3233L27.9662 26.7153L28.0677 26.7533L28.8163 26.3359L28.829 25.9819L28.1692 24.8944L27.6362 24.1988L27.4459 24.1103L25.3523 24.8185L24.6417 26.0704L22.9287 26.6142L22.4212 27.2591L22.0532 28.0305ZM44.9792 13.8425L45.2843 12.8589L45.6252 13.3417L46.0379 12.8768L45.9123 13.3328L46.4955 13.5027L45.7867 13.8961L44.9792 13.8425ZM47.1777 14.361C47.1777 14.3073 47.5366 13.44 47.5366 13.44L47.8416 13.5473L48.2992 12.9393L48.6491 13.3953L48.1287 13.9229L48.4428 14.1911L48.0121 14.3521L47.1777 14.361ZM45.8136 18.349L45.4368 17.3296L45.4817 17.2581L46.2892 17.4637L45.9124 17.8214L46.2264 18.1791L45.9213 18.1523L45.8136 18.349ZM47.222 18.7965L47.0874 19.0737L47.518 19.8338L47.8052 20.0573L47.7693 19.637L48.182 19.7175L48.6935 19.9947L48.5409 19.6281L49.1959 19.3151V19.1631L48.2807 18.868L47.222 18.7965ZM46.0557 16.069L46.1095 16.3104L46.3428 16.5697L46.7107 16.7664L47.0965 16.8112L46.9978 16.534L48.1642 16.6949L47.6707 16.3283L47.7694 16.0869L47.3387 15.9885L47.3477 15.765L46.7825 15.9796H46.5133L46.4864 15.7739H46.4056L46.0557 16.069ZM43.9027 10.7486L44.0194 9.70241L44.4052 9.71134L44.7462 9.00494L44.7102 9.77393L45.0422 9.70239L44.8538 10.1763L44.1809 10.7844L43.9027 10.7486ZM41.0226 9.11263L40.3586 8.69237L40.565 8.65656L40.1612 7.86969L40.5739 8.08429L40.4394 7.54778L40.9059 8.03063L41.0226 8.39725V9.11263Z" fill="white"/>
<path fill-rule="evenodd" clip-rule="evenodd" d="M41.5169 7.81522L41.9475 8.0477L42.3423 5.93742L41.6425 5.92848L41.5169 5.17738L41.4002 5.15058L41.2656 5.47248L41.1939 6.07158L40.7363 6.08945L40.6645 6.20569L41.5169 7.81522ZM41.6235 7.50259L41.3185 6.65312L41.48 6.76936L41.5069 6.21496L41.6684 6.62628L41.8837 6.3938L41.7132 7.43105L41.6235 7.50259Z" fill="white"/>
<path fill-rule="evenodd" clip-rule="evenodd" d="M40.6281 5.06099H40.8075L40.8903 4.83143L41.7151 3.60481L41.7212 2.27702L41.5816 2.19482L41.2073 2.70064L40.987 2.6288L40.9421 2.44102L40.3679 1.77933L40.1705 1.94923L40.3589 2.33372V2.80763L40.018 2.72716L39.9462 2.81658L40.1615 3.21002V3.57663L39.9552 3.55876L39.8834 3.6929L40.6281 5.06099ZM40.6278 4.56948L40.4483 4.18497L40.6906 3.95249V3.51434L40.6098 3.41598V2.70064L40.9508 3.17455L41.4443 2.88842V3.43387L40.6278 4.56948Z" fill="white"/>
<path fill-rule="evenodd" clip-rule="evenodd" d="M42.6732 5.79897L42.8445 6.14039L43.0858 6.1278L43.5363 5.88753L44.1263 5.25525L44.4181 4.19935L44.3801 4.13614L43.8979 4.40802H43.6822L43.5553 4.24994L43.53 3.02964L43.4284 2.97271L43.143 3.71248L42.9145 3.68084L42.6417 3.01062L42.4895 2.96634L42.4705 3.28249L42.5656 3.54804V4.06019L42.369 3.88315L42.2357 3.94008L42.3563 4.65455L42.1215 4.69248L41.9249 4.57234L41.9309 4.87584L42.6732 5.79897ZM42.9243 5.66088L42.4757 5.07967L42.6731 4.99919L42.6642 4.59681L42.8795 4.61467L42.8885 4.30171L42.9602 4.19441L43.0948 4.3643L43.3012 4.10499L43.5165 4.8114L43.9472 4.7041L43.3909 5.5625L42.9243 5.66088Z" fill="white"/>
<path fill-rule="evenodd" clip-rule="evenodd" d="M42.5911 7.22178L42.312 8.24608L42.4896 8.39782L43.3588 8.66969L44.0884 8.56853L44.3548 8.4231L44.3358 8.0374L45.021 7.44938L45.0782 7.25338L44.9767 7.10163L44.6721 7.05106L45.2368 6.03309L45.167 5.95089L43.5809 6.98151L43.4413 6.96258L43.5999 6.31133L43.5301 6.27969L42.5911 7.22178ZM42.7814 8.10213L43.1223 7.39574L43.7952 7.36894L44.1093 7.19009L44.0106 7.70872L44.2439 7.7892L43.4633 8.33465L42.7814 8.10213Z" fill="white"/>
<path fill-rule="evenodd" clip-rule="evenodd" d="M46.3888 12.134L46.03 11.7942L45.8056 10.4172L46.3799 9.39781L46.5952 9.57664L47.0169 8.95965L47.1335 8.64669L47.4027 8.7093L47.5732 10.0685L48.2551 9.8628L48.3897 10.0595L47.8244 10.8285L47.8065 11.0789L48.0487 11.0431L48.0577 11.2309L47.5104 11.7406L46.3888 12.134ZM46.298 11.7587L46.3967 10.3728H46.7287L47.1414 9.60377L47.267 10.2207L47.1414 10.4175L47.2312 10.802L47.5272 10.4801H47.6708L47.3927 10.8914L47.3837 11.3921L46.3967 11.866L46.298 11.7587Z" fill="white"/>
<path fill-rule="evenodd" clip-rule="evenodd" d="M48.5775 12.0356L48.5057 11.3471L48.73 9.94323L48.8736 9.93429L49.0441 10.0684L49.3043 9.75546L49.2863 8.92387H49.403L49.8695 9.46038L50.0938 9.14741L50.372 9.35307L50.3092 10.4619L50.7757 10.5155L50.7667 10.909L50.0938 11.6422L49.053 12.0446L48.5775 12.0356ZM48.936 11.553L49.0526 10.5068L49.4564 10.3638C49.4564 10.3638 49.4205 10.1671 49.4564 10.1492C49.4922 10.1313 49.9588 9.90774 49.9588 9.90774L49.9947 10.2028L49.7255 10.6588L49.8331 10.9897L50.1562 10.8913V11.1149L49.1333 11.5888L48.936 11.553Z" fill="white"/>
<path d="M3.77773 42.1408C3.62304 42.1408 3.52775 42.18 3.49188 42.2585C3.46498 42.3168 3.4392 42.4311 3.41454 42.6015C3.39212 42.7719 3.38091 42.9266 3.38091 43.0656C3.38091 43.1485 3.40781 43.2057 3.46162 43.2371C3.51542 43.2685 3.61631 43.2842 3.76428 43.2842C3.86293 43.2842 3.93579 43.2662 3.98287 43.2304C4.02995 43.1945 4.06246 43.134 4.08039 43.0488C4.13196 42.8044 4.23733 42.6822 4.39651 42.6822C4.67003 42.6822 4.80678 43.0095 4.80678 43.6642C4.80678 44.0789 4.74737 44.3838 4.62855 44.5789C4.55681 44.6977 4.45816 44.7571 4.33261 44.7571C4.20034 44.7571 4.12411 44.6686 4.10393 44.4914C4.09272 44.3771 4.07815 44.2964 4.06022 44.2493C4.04452 44.2022 4.01314 44.1574 3.96606 44.1148C3.89207 44.0453 3.78446 44.0106 3.64321 44.0106C3.54233 44.0106 3.47395 44.0285 3.43808 44.0644C3.40221 44.1002 3.38651 44.1686 3.391 44.2695C3.391 44.2874 3.38988 44.3917 3.38763 44.5822C3.38763 44.9701 3.42799 45.2066 3.5087 45.2918C3.5356 45.3255 3.5625 45.3479 3.58941 45.3591C3.61855 45.368 3.69254 45.3815 3.81136 45.3994C3.86965 45.4084 3.91897 45.4387 3.95933 45.4902C3.99968 45.5418 4.01986 45.6012 4.01986 45.6685C4.01986 45.8411 3.91897 45.9521 3.7172 46.0014C3.42575 46.0709 3.01659 46.1056 2.48973 46.1056C2.02789 46.1056 1.70954 46.0787 1.53467 46.0249C1.4562 46.0003 1.3923 45.9554 1.34298 45.8904C1.29366 45.8254 1.26899 45.7537 1.26899 45.6752C1.26899 45.5766 1.30487 45.497 1.37661 45.4364C1.39454 45.423 1.4562 45.395 1.56157 45.3524C1.68712 45.303 1.76222 45.1887 1.78688 45.0093C1.82724 44.7336 1.84742 44.1047 1.84742 43.1227C1.84742 42.699 1.83284 42.4244 1.8037 42.2988C1.77455 42.1733 1.70393 42.0858 1.59183 42.0365C1.47974 41.9872 1.40575 41.9446 1.36988 41.9087C1.33625 41.8706 1.31944 41.8168 1.31944 41.7473C1.31944 41.6487 1.36764 41.5668 1.46404 41.5018C1.56045 41.4346 1.67927 41.4009 1.82051 41.4009C1.91019 41.4009 2.04134 41.4077 2.21397 41.4211C2.57941 41.4502 3.01659 41.4648 3.52551 41.4648C4.33934 41.4648 4.88749 41.4424 5.16998 41.3976C5.20809 41.3931 5.23724 41.3908 5.25742 41.3908C5.33588 41.3908 5.41099 41.4357 5.48273 41.5254C5.68002 41.7765 5.77867 42.0545 5.77867 42.3594C5.77867 42.4984 5.74616 42.6093 5.68114 42.6923C5.61613 42.7752 5.53093 42.8167 5.42556 42.8167C5.34709 42.8167 5.28768 42.801 5.24733 42.7696C5.20697 42.7382 5.10384 42.6284 4.93794 42.4401C4.83705 42.3235 4.71486 42.2473 4.57138 42.2114C4.43014 42.1755 4.16559 42.152 3.77773 42.1408ZM8.37484 41.3538C8.95102 41.3538 9.45434 41.5186 9.88479 41.8482C10.1762 42.0746 10.4128 42.3683 10.5944 42.7293C10.7715 43.088 10.86 43.4467 10.86 43.8054C10.86 44.3345 10.6852 44.8076 10.3354 45.2246C10.0395 45.5788 9.65275 45.8333 9.17521 45.9879C8.88152 46.0821 8.5867 46.1292 8.29077 46.1292C7.90291 46.1292 7.53187 46.0485 7.17764 45.8871C6.74943 45.692 6.41426 45.3972 6.17213 45.0026C5.93672 44.6215 5.81902 44.2011 5.81902 43.7415C5.81902 43.2079 5.97035 42.7371 6.27302 42.3291C6.54205 41.9659 6.90412 41.6991 7.35924 41.5287C7.66414 41.4121 8.00268 41.3538 8.37484 41.3538ZM8.05536 42.319C7.86704 42.319 7.71795 42.4031 7.60809 42.5712C7.5229 42.6968 7.4803 42.8459 7.4803 43.0185C7.4803 43.2718 7.53187 43.5655 7.635 43.8996C7.73813 44.2314 7.86816 44.5262 8.0251 44.784C8.0946 44.8939 8.17979 44.9813 8.28068 45.0463C8.38381 45.1113 8.48806 45.1439 8.59343 45.1439C8.76382 45.1439 8.90058 45.08 9.00371 44.9522C9.10908 44.8244 9.16176 44.6562 9.16176 44.4477C9.16176 44.1765 9.11804 43.8839 9.03061 43.57C8.94317 43.2561 8.82995 42.9882 8.69095 42.7663C8.60576 42.6295 8.50711 42.5219 8.39502 42.4434C8.28292 42.365 8.1697 42.3235 8.05536 42.319ZM13.7353 41.3538C14.3115 41.3538 14.8148 41.5186 15.2453 41.8482C15.5367 42.0746 15.7733 42.3683 15.9549 42.7293C16.132 43.088 16.2205 43.4467 16.2205 43.8054C16.2205 44.3345 16.0457 44.8076 15.6959 45.2246C15.4 45.5788 15.0132 45.8333 14.5357 45.9879C14.242 46.0821 13.9472 46.1292 13.6513 46.1292C13.2634 46.1292 12.8924 46.0485 12.5381 45.8871C12.1099 45.692 11.7748 45.3972 11.5326 45.0026C11.2972 44.6215 11.1795 44.2011 11.1795 43.7415C11.1795 43.2079 11.3308 42.7371 11.6335 42.3291C11.9025 41.9659 12.2646 41.6991 12.7197 41.5287C13.0246 41.4121 13.3632 41.3538 13.7353 41.3538ZM13.4159 42.319C13.2275 42.319 13.0784 42.4031 12.9686 42.5712C12.8834 42.6968 12.8408 42.8459 12.8408 43.0185C12.8408 43.2718 12.8924 43.5655 12.9955 43.8996C13.0986 44.2314 13.2287 44.5262 13.3856 44.784C13.4551 44.8939 13.5403 44.9813 13.6412 45.0463C13.7443 45.1113 13.8486 45.1439 13.9539 45.1439C14.1243 45.1439 14.2611 45.08 14.3642 44.9522C14.4696 44.8244 14.5223 44.6562 14.5223 44.4477C14.5223 44.1765 14.4785 43.8839 14.3911 43.57C14.3037 43.2561 14.1904 42.9882 14.0514 42.7663C13.9663 42.6295 13.8676 42.5219 13.7555 42.4434C13.6434 42.365 13.5302 42.3235 13.4159 42.319ZM17.9222 46.0384H17.68C17.5388 46.0384 17.3807 46.0451 17.2059 46.0586C17.096 46.0675 17.0198 46.072 16.9772 46.072C16.827 46.072 16.7048 46.0373 16.6106 45.9678C16.5165 45.8983 16.4694 45.8075 16.4694 45.6954C16.4694 45.6169 16.4896 45.5564 16.5299 45.5138C16.5725 45.4689 16.6409 45.4331 16.7351 45.4062C16.8247 45.3837 16.8853 45.3479 16.9167 45.2985C16.948 45.247 16.9727 45.1483 16.9906 45.0026C17.0086 44.8345 17.0243 44.5071 17.0377 44.0206C17.0534 43.5341 17.0613 43.051 17.0613 42.5712C17.0613 42.3829 17.0467 42.2574 17.0175 42.1946C16.9884 42.1318 16.92 42.0814 16.8124 42.0432C16.6577 41.985 16.5804 41.8852 16.5804 41.7439C16.5804 41.6341 16.633 41.5489 16.7384 41.4884C16.846 41.4256 16.9951 41.3942 17.1857 41.3942C17.2485 41.3942 17.3224 41.3953 17.4076 41.3976C17.596 41.4043 17.7327 41.4077 17.8179 41.4077C18.1385 41.4077 18.5006 41.3976 18.9041 41.3774C18.9893 41.3729 19.0958 41.3707 19.2236 41.3707C19.737 41.3707 20.1428 41.429 20.441 41.5455C20.8849 41.7204 21.2189 42.0141 21.4431 42.4266C21.6427 42.7898 21.7424 43.2225 21.7424 43.7247C21.7424 43.978 21.7054 44.2325 21.6315 44.4881C21.5575 44.7414 21.4577 44.9611 21.3322 45.1472C21.0721 45.5239 20.7134 45.7884 20.256 45.9409C19.987 46.0305 19.7 46.0754 19.3951 46.0754L18.9882 46.0619L18.6385 46.0518C18.3672 46.0429 18.1284 46.0384 17.9222 46.0384ZM18.6284 42.393V44.9959C18.6284 45.1371 18.6586 45.238 18.7192 45.2985C18.7797 45.3568 18.8806 45.386 19.0218 45.386C19.6765 45.386 20.0038 44.8883 20.0038 43.8928C20.0038 43.3436 19.9276 42.9176 19.7751 42.6149C19.607 42.2809 19.3223 42.1139 18.921 42.1139C18.8133 42.1139 18.7371 42.1352 18.6923 42.1778C18.6497 42.2204 18.6284 42.2921 18.6284 42.393ZM25.6132 41.6094L27.2879 43.0757C27.4448 43.2124 27.558 43.2808 27.6275 43.2808C27.7441 43.2808 27.8024 43.1564 27.8024 42.9075C27.8024 42.625 27.7856 42.4322 27.752 42.3291C27.7183 42.226 27.6477 42.1486 27.5401 42.0971C27.4527 42.0545 27.391 42.0096 27.3551 41.9625C27.3193 41.9132 27.3013 41.8504 27.3013 41.7742C27.3013 41.5859 27.4303 41.4648 27.6881 41.411C27.7934 41.3886 27.9773 41.3774 28.2396 41.3774C28.5781 41.3774 28.8124 41.3976 28.9424 41.4379C29.1487 41.5007 29.2518 41.6195 29.2518 41.7944C29.2518 41.9401 29.1678 42.05 28.9996 42.124C28.9324 42.1531 28.8864 42.1789 28.8617 42.2013C28.8371 42.2237 28.8158 42.2574 28.7978 42.3022C28.7373 42.4502 28.7059 42.7304 28.7037 43.1429V44.2392C28.7037 44.4074 28.7048 44.6372 28.707 44.9286C28.7093 45.3232 28.6857 45.6079 28.6364 45.7828C28.5759 46.0003 28.466 46.109 28.3069 46.109C28.2374 46.109 28.1768 46.0944 28.1253 46.0653C28.0759 46.0361 27.993 45.9689 27.8764 45.8635L25.8822 44.0778C25.7432 43.9523 25.6277 43.8895 25.5358 43.8895C25.3991 43.8895 25.3307 44.0789 25.3307 44.4578C25.3307 44.7695 25.3475 44.9824 25.3811 45.0968C25.417 45.2111 25.4887 45.2952 25.5963 45.349C25.7466 45.423 25.8217 45.5194 25.8217 45.6382C25.8217 45.9498 25.4865 46.1056 24.8161 46.1056C24.5135 46.1056 24.2781 46.0664 24.1099 45.9879C23.944 45.9072 23.8611 45.794 23.8611 45.6483C23.8611 45.5721 23.8768 45.5149 23.9082 45.4768C23.9395 45.4387 24.0102 45.3871 24.12 45.3221C24.2254 45.2593 24.2893 45.1483 24.3117 44.9892C24.3498 44.6999 24.3689 44.2841 24.3689 43.7415C24.3689 43.1631 24.3352 42.7416 24.268 42.4771C24.2433 42.3807 24.2119 42.3089 24.1738 42.2618C24.1357 42.2148 24.0729 42.1699 23.9855 42.1273C23.8846 42.078 23.814 42.0298 23.7736 41.9827C23.7355 41.9356 23.7165 41.8785 23.7165 41.8112C23.7165 41.596 23.9014 41.4603 24.2714 41.4043C24.3969 41.3864 24.6166 41.3774 24.9305 41.3774C25.1098 41.3774 25.2399 41.392 25.3206 41.4211C25.4035 41.448 25.5011 41.5108 25.6132 41.6094ZM31.9893 41.3538C32.5654 41.3538 33.0687 41.5186 33.4992 41.8482C33.7907 42.0746 34.0272 42.3683 34.2088 42.7293C34.3859 43.088 34.4744 43.4467 34.4744 43.8054C34.4744 44.3345 34.2996 44.8076 33.9498 45.2246C33.6539 45.5788 33.2672 45.8333 32.7896 45.9879C32.4959 46.0821 32.2011 46.1292 31.9052 46.1292C31.5173 46.1292 31.1463 46.0485 30.7921 45.8871C30.3638 45.692 30.0287 45.3972 29.7865 45.0026C29.5511 44.6215 29.4334 44.2011 29.4334 43.7415C29.4334 43.2079 29.5848 42.7371 29.8874 42.3291C30.1565 41.9659 30.5185 41.6991 30.9736 41.5287C31.2786 41.4121 31.6171 41.3538 31.9893 41.3538ZM31.6698 42.319C31.4814 42.319 31.3324 42.4031 31.2225 42.5712C31.1373 42.6968 31.0947 42.8459 31.0947 43.0185C31.0947 43.2718 31.1463 43.5655 31.2494 43.8996C31.3525 44.2314 31.4826 44.5262 31.6395 44.784C31.709 44.8939 31.7942 44.9813 31.8951 45.0463C31.9982 45.1113 32.1025 45.1439 32.2078 45.1439C32.3782 45.1439 32.515 45.08 32.6181 44.9522C32.7235 44.8244 32.7762 44.6562 32.7762 44.4477C32.7762 44.1765 32.7325 43.8839 32.645 43.57C32.5576 43.2561 32.4444 42.9882 32.3054 42.7663C32.2202 42.6295 32.1215 42.5219 32.0094 42.4434C31.8973 42.365 31.7841 42.3235 31.6698 42.319ZM36.1559 41.448H37.9282C38.1187 41.4413 38.2925 41.4155 38.4494 41.3707C38.5167 41.3527 38.5761 41.3438 38.6276 41.3438C38.8092 41.3438 38.9852 41.4783 39.1556 41.7473C39.3283 42.0163 39.4146 42.2932 39.4146 42.5779C39.4146 42.773 39.3552 42.9154 39.2363 43.005C39.1467 43.0723 39.039 43.1059 38.9135 43.1059C38.7947 43.1059 38.6915 43.0734 38.6041 43.0084C38.5167 42.9411 38.4304 42.8313 38.3452 42.6788C38.2712 42.5398 38.2129 42.449 38.1703 42.4064C38.1277 42.3638 38.0761 42.3425 38.0156 42.3425C37.9326 42.3425 37.8732 42.3773 37.8374 42.4468C37.8015 42.5163 37.7836 42.6306 37.7836 42.7898V44.673C37.7836 44.8659 37.8037 45.006 37.8441 45.0934C37.8844 45.1808 37.9607 45.2481 38.0728 45.2952C38.1938 45.3468 38.2757 45.3961 38.3183 45.4432C38.3631 45.488 38.3855 45.5508 38.3855 45.6315C38.3855 45.7929 38.2757 45.9128 38.056 45.9913C37.8385 46.0698 37.5033 46.109 37.0504 46.109C36.4944 46.109 36.0819 46.0631 35.8129 45.9711C35.5865 45.8949 35.4732 45.7716 35.4732 45.6012C35.4732 45.5093 35.5136 45.4375 35.5943 45.386C35.6145 45.3748 35.6941 45.3479 35.8331 45.3053C35.9183 45.2806 35.9765 45.2335 36.0079 45.164C36.0416 45.0945 36.0685 44.9611 36.0886 44.7638C36.1066 44.589 36.1234 44.3065 36.1391 43.9164C36.1548 43.524 36.1626 43.1844 36.1626 42.8974C36.1626 42.6957 36.1469 42.5522 36.1156 42.467C36.0842 42.3818 36.0326 42.3392 35.9609 42.3392C35.8734 42.3392 35.7882 42.402 35.7053 42.5275C35.5551 42.7562 35.4318 42.9075 35.3354 42.9815C35.221 43.0689 35.11 43.1127 35.0024 43.1127C34.8814 43.1127 34.7816 43.0678 34.7031 42.9781C34.6247 42.8862 34.5854 42.7696 34.5854 42.6284C34.5854 42.4894 34.6168 42.3369 34.6796 42.171C34.7424 42.0029 34.8264 41.8482 34.9318 41.707C35.1022 41.4783 35.2703 41.3639 35.4362 41.3639C35.4811 41.3639 35.5326 41.3707 35.5909 41.3841C35.712 41.4088 35.8106 41.4256 35.8869 41.4346C35.9653 41.4435 36.055 41.448 36.1559 41.448ZM43.0936 46.035L42.643 46.0384C42.3269 46.0429 42.0959 46.0496 41.9502 46.0586C41.8202 46.0698 41.7271 46.0754 41.6711 46.0754C41.5343 46.0754 41.4256 46.0406 41.3449 45.9711C41.2664 45.9016 41.2272 45.8187 41.2272 45.7223C41.2272 45.6595 41.2418 45.6102 41.2709 45.5743C41.3 45.5384 41.3707 45.4824 41.4828 45.4062C41.5478 45.3613 41.5926 45.2918 41.6173 45.1977C41.6419 45.1013 41.6688 44.8961 41.698 44.5822C41.7406 44.0935 41.7619 43.4915 41.7619 42.7764C41.7619 42.5141 41.744 42.3403 41.7081 42.2551C41.6745 42.1677 41.5937 42.0959 41.466 42.0399C41.318 41.9771 41.244 41.8852 41.244 41.7641C41.244 41.6655 41.2877 41.5848 41.3752 41.522C41.4648 41.4592 41.5792 41.4278 41.7182 41.4278C41.7944 41.4278 41.8919 41.4312 42.0107 41.4379C42.208 41.4469 42.421 41.4514 42.6497 41.4514C42.8178 41.4514 43.1485 41.4446 43.6418 41.4312C43.7965 41.4267 43.9366 41.4245 44.0621 41.4245C44.3603 41.4245 44.6002 41.4491 44.7818 41.4985C44.9656 41.5455 45.1248 41.6262 45.2593 41.7406C45.479 41.9267 45.5889 42.1755 45.5889 42.4871C45.5889 42.6418 45.5564 42.7932 45.4914 42.9411C45.4263 43.0869 45.3389 43.2035 45.2291 43.2909C45.1506 43.3537 45.1114 43.4108 45.1114 43.4624C45.1114 43.5184 45.1584 43.5655 45.2526 43.6036C45.4364 43.6776 45.6035 43.8021 45.7537 43.9769C45.9084 44.1585 45.9857 44.3861 45.9857 44.6596C45.9857 44.9824 45.868 45.2773 45.6326 45.544C45.321 45.896 44.8603 46.072 44.2504 46.072C44.1675 46.072 43.9635 46.0664 43.6384 46.0552C43.3425 46.044 43.1609 46.0373 43.0936 46.035ZM43.3256 42.3863V43.079C43.3256 43.1889 43.3391 43.2662 43.366 43.3111C43.3951 43.3559 43.4445 43.3783 43.514 43.3783C43.6799 43.3783 43.8021 43.3279 43.8805 43.227C43.959 43.1239 43.9982 42.9636 43.9982 42.7461C43.9982 42.5354 43.9579 42.3728 43.8772 42.2585C43.7965 42.1419 43.6821 42.0836 43.5341 42.0836C43.4557 42.0836 43.4008 42.106 43.3694 42.1509C43.3402 42.1935 43.3256 42.2719 43.3256 42.3863ZM43.3256 44.3233V44.6428C43.3256 44.9365 43.3469 45.1315 43.3895 45.2279C43.4321 45.3243 43.5185 45.3725 43.6485 45.3725C43.9893 45.3725 44.1597 45.173 44.1597 44.7739C44.1597 44.2762 43.9691 44.0274 43.588 44.0274C43.4893 44.0274 43.4209 44.0487 43.3828 44.0913C43.3447 44.1339 43.3256 44.2112 43.3256 44.3233ZM48.8038 41.3538C49.38 41.3538 49.8833 41.5186 50.3138 41.8482C50.6052 42.0746 50.8418 42.3683 51.0234 42.7293C51.2005 43.088 51.289 43.4467 51.289 43.8054C51.289 44.3345 51.1142 44.8076 50.7644 45.2246C50.4685 45.5788 50.0818 45.8333 49.6042 45.9879C49.3105 46.0821 49.0157 46.1292 48.7198 46.1292C48.3319 46.1292 47.9609 46.0485 47.6066 45.8871C47.1784 45.692 46.8433 45.3972 46.6011 45.0026C46.3657 44.6215 46.248 44.2011 46.248 43.7415C46.248 43.2079 46.3994 42.7371 46.702 42.3291C46.9711 41.9659 47.3331 41.6991 47.7882 41.5287C48.0931 41.4121 48.4317 41.3538 48.8038 41.3538ZM48.4844 42.319C48.296 42.319 48.147 42.4031 48.0371 42.5712C47.9519 42.6968 47.9093 42.8459 47.9093 43.0185C47.9093 43.2718 47.9609 43.5655 48.064 43.8996C48.1671 44.2314 48.2972 44.5262 48.4541 44.784C48.5236 44.8939 48.6088 44.9813 48.7097 45.0463C48.8128 45.1113 48.9171 45.1439 49.0224 45.1439C49.1928 45.1439 49.3296 45.08 49.4327 44.9522C49.5381 44.8244 49.5908 44.6562 49.5908 44.4477C49.5908 44.1765 49.547 43.8839 49.4596 43.57C49.3722 43.2561 49.259 42.9882 49.12 42.7663C49.0348 42.6295 48.9361 42.5219 48.824 42.4434C48.7119 42.365 48.5987 42.3235 48.4844 42.319ZM54.9109 44.6461L54.5073 45.5508C54.4378 45.7032 54.3818 45.8063 54.3392 45.8602C54.2966 45.9117 54.2495 45.9375 54.198 45.9375C54.1486 45.9375 54.1049 45.9162 54.0668 45.8736C54.0421 45.8467 53.985 45.7481 53.8953 45.5777C53.8079 45.4073 53.735 45.256 53.6767 45.1237L53.2328 44.1249C53.1723 43.9859 53.1084 43.9164 53.0411 43.9164C52.9694 43.9164 52.9301 43.9758 52.9234 44.0946C52.9077 44.3592 52.8999 44.6035 52.8999 44.8277C52.8999 45.0609 52.9111 45.219 52.9335 45.3019C52.9492 45.3512 52.9694 45.3871 52.994 45.4095C53.0209 45.4319 53.0916 45.4723 53.2059 45.5306C53.2799 45.5687 53.3169 45.6348 53.3169 45.729C53.3169 45.9801 52.9952 46.1056 52.3517 46.1056C51.8092 46.1056 51.5379 45.9835 51.5379 45.7391C51.5379 45.6763 51.5513 45.6315 51.5782 45.6046C51.6074 45.5754 51.6803 45.5328 51.7968 45.4768C51.8708 45.4432 51.9201 45.3972 51.9448 45.3389C51.9717 45.2806 51.9941 45.1674 52.0121 44.9992C52.0322 44.8199 52.0513 44.5262 52.0692 44.1182C52.0872 43.7079 52.0961 43.357 52.0961 43.0656C52.0961 42.7001 52.0681 42.4524 52.0121 42.3224C51.9919 42.2775 51.9683 42.2439 51.9414 42.2215C51.9168 42.1991 51.8686 42.1699 51.7968 42.134C51.6377 42.0578 51.5581 41.9592 51.5581 41.8381C51.5581 41.7596 51.5872 41.6879 51.6455 41.6229C51.706 41.5579 51.7856 41.5119 51.8843 41.485C51.9829 41.4559 52.1141 41.4312 52.2777 41.411C52.4436 41.3886 52.5838 41.3774 52.6981 41.3774C52.9851 41.3774 53.188 41.4009 53.3068 41.448C53.3651 41.4704 53.411 41.5007 53.4447 41.5388C53.4783 41.5769 53.5265 41.6554 53.5893 41.7742L54.2888 43.0622C54.365 43.2035 54.4177 43.2898 54.4468 43.3212C54.476 43.3525 54.5163 43.3682 54.5679 43.3682C54.6127 43.3682 54.652 43.3514 54.6856 43.3178C54.7215 43.2842 54.7629 43.2214 54.81 43.1295L55.2842 42.2047C55.3425 42.0858 55.3806 42.0085 55.3985 41.9726C55.5084 41.7484 55.6171 41.5993 55.7247 41.5254C55.8615 41.429 56.1103 41.3807 56.4713 41.3807C57.1058 41.3807 57.423 41.5254 57.423 41.8146C57.423 41.8796 57.4107 41.9323 57.386 41.9726C57.3613 42.0107 57.3109 42.0578 57.2347 42.1139C57.1315 42.1923 57.0665 42.3056 57.0396 42.4535C56.9881 42.7629 56.9623 43.1396 56.9623 43.5835C56.9623 44.1552 56.9892 44.6562 57.043 45.0867C57.0564 45.1921 57.0766 45.2638 57.1035 45.3019C57.1327 45.34 57.2055 45.3972 57.3221 45.4734C57.4028 45.5272 57.4432 45.599 57.4432 45.6886C57.4432 45.8456 57.3389 45.9566 57.1304 46.0216C57.0228 46.0574 56.9096 46.081 56.7908 46.0922C56.6719 46.1034 56.4892 46.109 56.2426 46.109C55.8637 46.109 55.5812 46.0821 55.3952 46.0283C55.1889 45.9678 55.0858 45.8646 55.0858 45.7189C55.0858 45.6651 55.0992 45.6214 55.1261 45.5878C55.153 45.5519 55.2225 45.488 55.3346 45.3961C55.3929 45.349 55.4322 45.2582 55.4523 45.1237C55.4747 44.9892 55.486 44.7605 55.486 44.4376C55.486 44.2583 55.477 44.1406 55.4591 44.0845C55.4434 44.0285 55.4086 44.0005 55.3548 44.0005C55.292 44.0005 55.2315 44.0442 55.1732 44.1316C55.1149 44.2168 55.0275 44.3883 54.9109 44.6461ZM59.4912 46.035L59.0406 46.0384C58.7245 46.0429 58.4935 46.0496 58.3478 46.0586C58.2178 46.0698 58.1247 46.0754 58.0687 46.0754C57.9319 46.0754 57.8232 46.0406 57.7425 45.9711C57.664 45.9016 57.6248 45.8187 57.6248 45.7223C57.6248 45.6595 57.6393 45.6102 57.6685 45.5743C57.6976 45.5384 57.7683 45.4824 57.8804 45.4062C57.9454 45.3613 57.9902 45.2918 58.0149 45.1977C58.0395 45.1013 58.0664 44.8961 58.0956 44.5822C58.1382 44.0935 58.1595 43.4915 58.1595 42.7764C58.1595 42.5141 58.1415 42.3403 58.1057 42.2551C58.072 42.1677 57.9913 42.0959 57.8635 42.0399C57.7156 41.9771 57.6416 41.8852 57.6416 41.7641C57.6416 41.6655 57.6853 41.5848 57.7727 41.522C57.8624 41.4592 57.9768 41.4278 58.1158 41.4278C58.192 41.4278 58.2895 41.4312 58.4083 41.4379C58.6056 41.4469 58.8186 41.4514 59.0473 41.4514C59.2154 41.4514 59.5461 41.4446 60.0394 41.4312C60.194 41.4267 60.3342 41.4245 60.4597 41.4245C60.7579 41.4245 60.9978 41.4491 61.1794 41.4985C61.3632 41.5455 61.5224 41.6262 61.6569 41.7406C61.8766 41.9267 61.9865 42.1755 61.9865 42.4871C61.9865 42.6418 61.954 42.7932 61.889 42.9411C61.8239 43.0869 61.7365 43.2035 61.6266 43.2909C61.5482 43.3537 61.5089 43.4108 61.5089 43.4624C61.5089 43.5184 61.556 43.5655 61.6502 43.6036C61.834 43.6776 62.0011 43.8021 62.1513 43.9769C62.306 44.1585 62.3833 44.3861 62.3833 44.6596C62.3833 44.9824 62.2656 45.2773 62.0302 45.544C61.7186 45.896 61.2578 46.072 60.648 46.072C60.5651 46.072 60.3611 46.0664 60.036 46.0552C59.7401 46.044 59.5585 46.0373 59.4912 46.035ZM59.7232 42.3863V43.079C59.7232 43.1889 59.7367 43.2662 59.7636 43.3111C59.7927 43.3559 59.8421 43.3783 59.9116 43.3783C60.0775 43.3783 60.1997 43.3279 60.2781 43.227C60.3566 43.1239 60.3958 42.9636 60.3958 42.7461C60.3958 42.5354 60.3555 42.3728 60.2748 42.2585C60.194 42.1419 60.0797 42.0836 59.9317 42.0836C59.8533 42.0836 59.7983 42.106 59.767 42.1509C59.7378 42.1935 59.7232 42.2719 59.7232 42.3863ZM59.7232 44.3233V44.6428C59.7232 44.9365 59.7445 45.1315 59.7871 45.2279C59.8297 45.3243 59.916 45.3725 60.0461 45.3725C60.3869 45.3725 60.5572 45.173 60.5572 44.7739C60.5572 44.2762 60.3667 44.0274 59.9855 44.0274C59.8869 44.0274 59.8185 44.0487 59.7804 44.0913C59.7423 44.1339 59.7232 44.2112 59.7232 44.3233ZM64.6432 41.3538C64.8741 41.3538 65.1768 41.411 65.5512 41.5254C65.596 41.5388 65.6319 41.5455 65.6588 41.5455C65.6812 41.5455 65.7485 41.5254 65.8606 41.485C65.8964 41.4715 65.9345 41.4648 65.9749 41.4648C66.1251 41.4648 66.2832 41.5836 66.4491 41.8213C66.6172 42.0589 66.7013 42.2854 66.7013 42.5006C66.7013 42.6262 66.6632 42.7326 66.587 42.8201C66.513 42.9053 66.4222 42.9479 66.3146 42.9479C66.2249 42.9479 66.152 42.9299 66.096 42.8941C66.0399 42.8582 65.9166 42.7517 65.726 42.5746C65.457 42.3235 65.1925 42.1979 64.9324 42.1979C64.8068 42.1979 64.706 42.2282 64.6297 42.2887C64.5557 42.3493 64.5188 42.4289 64.5188 42.5275C64.5188 42.7226 64.6903 42.8694 65.0333 42.968C65.4974 43.1048 65.7944 43.2046 65.9245 43.2673C66.4962 43.5453 66.782 43.9545 66.782 44.4948C66.782 44.9723 66.587 45.3624 66.1969 45.6651C65.7978 45.9745 65.2765 46.1292 64.6331 46.1292C64.3461 46.1292 64.0435 46.0956 63.7251 46.0283C63.4068 45.9588 63.177 45.8781 63.0357 45.7862C62.9281 45.7144 62.8306 45.5586 62.7431 45.3187C62.6579 45.0766 62.6153 44.8412 62.6153 44.6125C62.6153 44.5027 62.6378 44.4197 62.6826 44.3637C62.7387 44.2919 62.8093 44.256 62.8945 44.256C62.9797 44.256 63.0615 44.2998 63.14 44.3872C63.187 44.4365 63.298 44.5946 63.4729 44.8614C63.5558 44.9869 63.687 45.0912 63.8664 45.1741C64.0479 45.2571 64.2352 45.2985 64.428 45.2985C64.5939 45.2985 64.7284 45.2683 64.8315 45.2078C64.9346 45.145 64.9862 45.0654 64.9862 44.969C64.9862 44.8793 64.9458 44.802 64.8651 44.7369C64.7844 44.6719 64.6533 44.6114 64.4717 44.5553C64.1511 44.4545 63.9067 44.3625 63.7386 44.2796C63.5704 44.1944 63.4135 44.0879 63.2678 43.9601C62.9135 43.6462 62.7364 43.2898 62.7364 42.8907C62.7364 42.6934 62.7824 42.5017 62.8743 42.3156C62.9662 42.1273 63.0962 41.9648 63.2644 41.828C63.641 41.5119 64.1006 41.3538 64.6432 41.3538Z" fill="white"/>
</svg>
