<svg width="51" height="51" viewBox="0 0 51 51" fill="none" xmlns="http://www.w3.org/2000/svg">
<path d="M25.1307 0.63855C38.657 0.63855 49.6239 11.5879 49.6239 25.0966C49.6236 38.605 38.6568 49.5536 25.1307 49.5536C11.6048 49.5533 0.638814 38.6048 0.63855 25.0966C0.63855 11.5881 11.6047 0.638805 25.1307 0.63855Z" stroke="white" stroke-width="1.27624"/>
<path d="M34.9014 40.6464C43.4655 35.2784 46.0501 23.9945 40.6742 15.443L9.6608 34.8821C15.0367 43.4336 26.3373 46.0144 34.9014 40.6464Z" fill="white"/>
<path d="M29.3784 9.94714V17.8323L36.1317 13.5184L40.2523 19.9502L32.6144 24.8293L40.2523 29.7084L36.1317 36.1402L29.3784 31.8263V40.314H21.7319V31.781L14.6344 36.3147L10.5137 29.883L18.4249 24.8293L10.5137 19.7757L14.6344 13.3438L21.7319 17.8776V9.94714C24.3442 9.94695 26.9566 9.94666 29.569 9.94637" fill="white"/>
<path d="M29.3784 9.94714V17.8323L36.1317 13.5184L40.2523 19.9502L32.6144 24.8293L40.2523 29.7084L36.1317 36.1402L29.3784 31.8263V40.314H21.7319V31.781L14.6344 36.3147L10.5137 29.883L18.4249 24.8293L10.5137 19.7757L14.6344 13.3438L21.7319 17.8776V9.94714C24.3442 9.94695 26.9566 9.94666 29.569 9.94637" stroke="black" stroke-width="1.27624" stroke-miterlimit="10"/>
<path d="M25.4977 36.972C25.5362 36.4257 25.6361 35.8932 25.8267 35.2348C25.9559 34.7883 26.1649 34.2097 26.3402 33.8092C26.3725 33.7325 26.4047 33.6373 26.4109 33.599C26.4217 33.5314 26.4201 33.5284 26.3556 33.4762C26.208 33.358 25.6914 33.0327 24.7522 32.468C24.4401 32.2807 24.1649 32.1135 24.1419 32.0966C24.0988 32.0674 24.0988 32.0674 24.0988 32.2178C24.0988 32.6137 24.1434 33.2752 24.2003 33.7263C24.2402 34.0517 24.397 34.8558 24.4985 35.2609C24.6845 35.9991 24.9889 36.705 25.3947 37.3388C25.4747 37.4631 25.4747 37.4631 25.4778 37.3403C25.4793 37.2728 25.4885 37.107 25.4977 36.972ZM26.826 34.0486C27.2349 33.5836 27.4947 33.1601 27.633 32.7365C27.7453 32.3912 27.7622 32.1242 27.6915 31.8526C27.5854 31.4475 27.2426 30.9364 26.8536 30.6034C26.7368 30.5052 26.7276 30.4914 26.7276 30.4392C26.7276 30.3901 26.7414 30.3656 26.8106 30.2904C27.1811 29.8883 27.5008 29.3727 27.633 28.9645C27.7453 28.6131 27.7622 28.3507 27.6899 28.0714C27.5977 27.7169 27.2948 27.2411 26.9597 26.9235C26.8306 26.8007 26.8321 26.7869 26.9981 26.5797C27.5193 25.9275 27.7898 25.2554 27.7253 24.7704C27.6699 24.3469 27.4009 23.8712 26.9874 23.4645C26.6353 23.1192 26.2418 22.8583 25.4593 22.4547C24.56 21.9898 24.2341 21.7611 24.0204 21.4434C23.9328 21.313 23.9097 21.2163 23.9174 21.0276C23.9236 20.8925 23.9312 20.8572 23.9743 20.7652C24.002 20.7084 24.0419 20.6363 24.0635 20.6086C24.1034 20.5565 24.1034 20.5565 24.0588 20.5841C23.7268 20.7928 23.4624 21.1058 23.3609 21.4066C23.2994 21.5892 23.2794 21.7442 23.2794 22.0404C23.281 22.6773 23.4777 23.2113 23.8897 23.7008C23.9512 23.776 24.0281 23.8604 24.0588 23.8881C24.0896 23.9172 24.1142 23.951 24.1142 23.9617C24.1142 23.9725 24.1265 23.9817 24.1419 23.9817C24.1572 23.9817 24.1895 24.0031 24.2156 24.0292C24.2817 24.0983 24.5292 24.284 24.7106 24.4021C24.9566 24.5617 25.2241 24.706 25.6822 24.9285C26.4263 25.2891 26.5892 25.3812 26.726 25.5178C26.8137 25.6068 26.8459 25.6743 26.8675 25.8094C26.8951 25.9843 26.8552 26.2958 26.7752 26.5521C26.7476 26.6396 26.7445 26.6442 26.6938 26.6488C26.6538 26.6519 26.6261 26.6411 26.5708 26.5997C26.3571 26.437 26.0481 26.2559 25.4363 25.9352C24.9059 25.6559 24.786 25.5884 24.5984 25.4641C24.3402 25.2937 24.1388 25.1096 24.0204 24.9377C23.8774 24.7321 23.8774 24.3975 24.0204 24.1673C24.0481 24.1213 24.0604 24.0891 24.0481 24.0891C24.0173 24.0891 23.8221 24.2425 23.7068 24.3576C23.5807 24.4819 23.4885 24.6124 23.4132 24.7689C23.2302 25.1541 23.2287 25.814 23.4086 26.3495C23.5392 26.7455 23.7252 27.0324 24.0711 27.3777C24.2049 27.5112 24.314 27.6309 24.314 27.6432C24.314 27.6555 24.3279 27.6647 24.3448 27.6647C24.3617 27.6647 24.4616 27.723 24.5661 27.7951C24.8721 28.0054 25.0904 28.1281 25.6054 28.3798C26.4739 28.8064 26.5785 28.8647 26.7214 29.0059C26.8475 29.1318 26.8736 29.207 26.8721 29.4448C26.8721 29.5415 26.8629 29.6735 26.8521 29.7364C26.8306 29.8561 26.7522 30.1292 26.6968 30.2796C26.6661 30.361 26.6615 30.3656 26.6107 30.3656C26.5723 30.3656 26.5231 30.3426 26.4232 30.275C26.1342 30.0817 25.9943 30.0019 25.2825 29.629C24.683 29.3128 24.4401 29.1548 24.2203 28.9384C23.9743 28.6975 23.9143 28.5762 23.9143 28.3261C23.9143 28.1772 23.9558 28.0361 24.0296 27.9256C24.0588 27.8811 24.0834 27.8427 24.0834 27.8381C24.0834 27.8274 23.9143 27.9501 23.8036 28.0407C23.5869 28.2202 23.3947 28.5179 23.3317 28.7711C23.2594 29.0566 23.2594 29.4909 23.3302 29.8346C23.4762 30.539 23.9128 31.1375 24.6338 31.6209C24.8859 31.7912 25.1764 31.9493 25.7944 32.2516C26.7076 32.7012 26.826 32.7918 26.8675 33.0772C26.9059 33.3335 26.8336 33.7048 26.6599 34.1468C26.6061 34.2819 26.6061 34.2819 26.6461 34.2466C26.6676 34.2266 26.7491 34.1376 26.826 34.0486ZM29.6515 22.1263C29.6469 22.045 29.6484 22.0343 29.6792 22.0251C29.6976 22.0189 29.7084 22.0112 29.7053 22.0082C29.7007 22.0036 29.63 21.9913 29.547 21.979C29.4624 21.9667 29.361 21.9499 29.3194 21.9407C29.2779 21.9314 29.2426 21.9268 29.2395 21.9299C29.2364 21.933 29.2933 21.9713 29.3671 22.0159C29.4686 22.0742 29.6561 22.2061 29.6561 22.2153C29.6561 22.2169 29.653 22.1754 29.6515 22.1263ZM26.3263 20.7022C26.3233 19.2935 26.3233 19.2935 26.9105 19.2889C27.4962 19.2858 27.4962 19.2858 27.4962 19.1339C27.4962 18.9835 27.4962 18.9835 27.2164 18.9743C27.0642 18.9681 26.7983 18.9635 26.6277 18.9635C26.3171 18.9635 26.3171 18.9635 26.3079 17.6637C26.3017 16.9471 26.2971 15.8775 26.2971 15.2867C26.2971 14.2094 26.2971 14.2094 26.3509 14.1204C26.5354 13.815 26.5293 13.5188 26.3325 13.2211C26.2157 13.0431 26.0189 12.9019 25.8113 12.8482C25.5377 12.7776 25.2241 12.8773 25.012 13.106C24.8459 13.2825 24.7475 13.5326 24.7675 13.729C24.7798 13.8564 24.8244 13.9915 24.8921 14.102C24.9443 14.1879 24.9443 14.1879 24.9443 14.4641C24.9443 14.7403 24.9443 14.7403 24.9981 14.7588C25.0735 14.7833 25.1918 14.8953 25.2364 14.9828C25.2687 15.0473 25.2748 15.078 25.2748 15.2115C25.2748 15.3358 25.2687 15.3787 25.2426 15.4355C25.1949 15.5353 25.1226 15.6105 25.0273 15.658C24.9443 15.6979 24.9443 15.6979 24.9443 15.7885C24.9443 15.8775 24.9443 15.8775 25.0273 15.9174C25.1226 15.9619 25.1949 16.0371 25.2426 16.1384C25.2917 16.2458 25.2887 16.4882 25.2379 16.5911C25.1903 16.6862 25.1011 16.7737 25.0135 16.8105C24.9443 16.8381 24.9443 16.8381 24.9443 16.9563C24.9443 17.0745 24.9443 17.0745 25.0181 17.1067C25.1134 17.1497 25.1949 17.231 25.2395 17.3277C25.2687 17.3921 25.2748 17.432 25.2748 17.5594C25.2748 17.6883 25.2687 17.7236 25.2395 17.785C25.1964 17.8709 25.0735 17.9875 24.9981 18.0121C24.9443 18.0305 24.9443 18.0305 24.9443 18.4894C24.9443 18.8438 24.9397 18.9513 24.9259 18.9559C24.9151 18.9589 24.6153 18.9666 24.2602 18.9743C23.6146 18.9866 23.6146 18.9866 23.6146 19.1323C23.6146 19.2781 23.6146 19.2781 24.1818 19.2827C24.6138 19.2858 24.7537 19.2904 24.7629 19.3058C24.7691 19.315 24.7752 19.7508 24.7752 20.271C24.7752 21.0092 24.7798 21.2225 24.7952 21.2347C24.8198 21.2578 26.3017 22.1079 26.3171 22.1079C26.3248 22.1095 26.3279 21.4757 26.3263 20.7022ZM28.3571 21.847C28.3955 21.8394 28.4447 21.8256 28.4693 21.8148C28.5201 21.7949 28.6646 21.6184 28.6646 21.5754C28.6646 21.5417 28.5339 21.4465 28.2941 21.3069C28.0942 21.1902 28.0958 21.1902 28.0958 21.2486C28.0958 21.2931 28.0912 21.2961 28.0435 21.2961C27.9958 21.2961 27.9882 21.2885 27.9513 21.2133C27.859 21.026 27.733 20.937 27.3471 20.7912C27.1703 20.7253 26.7168 20.5749 26.6907 20.5749C26.6738 20.5749 26.6799 21.6015 26.6968 21.6337C26.723 21.6828 26.8367 21.7381 26.9428 21.755C27.2103 21.7979 27.6776 21.8516 27.9343 21.8701C28.0389 21.8777 28.2726 21.8655 28.3571 21.847Z" fill="black"/>
<path d="M25.498 36.972C25.5365 36.4257 25.6364 35.8932 25.827 35.2348C25.9562 34.7883 26.1652 34.2097 26.3405 33.8092C26.3728 33.7325 26.4051 33.6373 26.4112 33.599C26.422 33.5314 26.4204 33.5284 26.3559 33.4762C26.2083 33.358 25.6917 33.0327 24.7525 32.468C24.4404 32.2807 24.1652 32.1135 24.1422 32.0966C24.0991 32.0674 24.0991 32.0674 24.0991 32.2178C24.0991 32.6137 24.1437 33.2752 24.2006 33.7263C24.2405 34.0517 24.3973 34.8558 24.4988 35.2609C24.6848 35.9991 24.9892 36.705 25.3951 37.3388C25.475 37.4631 25.475 37.4631 25.4781 37.3403C25.4796 37.2728 25.4888 37.107 25.498 36.972ZM26.3266 20.7022C26.3236 19.2935 26.3236 19.2935 26.9108 19.2889C27.4965 19.2858 27.4965 19.2858 27.4965 19.1339C27.4965 18.9835 27.4965 18.9835 27.2167 18.9743C27.0645 18.9681 26.7986 18.9635 26.628 18.9635C26.3174 18.9635 26.3174 18.9635 26.3082 17.6637C26.3021 16.9471 26.2974 15.8775 26.2974 15.2867C26.2974 14.2094 26.2974 14.2094 26.3512 14.1204C26.5357 13.815 26.5296 13.5188 26.3328 13.2211C26.216 13.0431 26.0192 12.9019 25.8117 12.8482C25.538 12.7776 25.2244 12.8773 25.0123 13.106C24.8462 13.2825 24.7479 13.5326 24.7678 13.729C24.7801 13.8564 24.8247 13.9915 24.8924 14.102C24.9446 14.1879 24.9446 14.1879 24.9446 14.4641C24.9446 14.7403 24.9446 14.7403 24.9984 14.7588C25.0738 14.7833 25.1921 14.8953 25.2367 14.9828C25.269 15.0473 25.2751 15.078 25.2751 15.2115C25.2751 15.3358 25.269 15.3787 25.2429 15.4355C25.1952 15.5353 25.1229 15.6105 25.0276 15.658C24.9446 15.6979 24.9446 15.6979 24.9446 15.7885C24.9446 15.8775 24.9446 15.8775 25.0276 15.9174C25.1229 15.9619 25.1952 16.0371 25.2429 16.1384C25.2921 16.2458 25.289 16.4882 25.2382 16.5911C25.1906 16.6862 25.1014 16.7737 25.0138 16.8105C24.9446 16.8381 24.9446 16.8381 24.9446 16.9563C24.9446 17.0745 24.9446 17.0745 25.0184 17.1067C25.1137 17.1497 25.1952 17.231 25.2398 17.3277C25.269 17.3921 25.2751 17.432 25.2751 17.5594C25.2751 17.6883 25.269 17.7236 25.2398 17.785C25.1967 17.8709 25.0738 17.9875 24.9984 18.0121C24.9446 18.0305 24.9446 18.0305 24.9446 18.4894C24.9446 18.8438 24.94 18.9513 24.9262 18.9559C24.9154 18.9589 24.6156 18.9666 24.2605 18.9743C23.6149 18.9866 23.6149 18.9866 23.6149 19.1323C23.6149 19.2781 23.6149 19.2781 24.1821 19.2827C24.6141 19.2858 24.754 19.2904 24.7632 19.3058C24.7694 19.315 24.7755 19.7508 24.7755 20.271C24.7755 21.0092 24.7801 21.2225 24.7955 21.2347C24.8201 21.2578 26.3021 22.1079 26.3174 22.1079C26.3251 22.1095 26.3282 21.4757 26.3266 20.7022Z" fill="black"/>
<path d="M8.24469 16.6861L5.4151 14.9504L6.14053 13.7713C6.27078 13.5596 6.40973 13.4007 6.55738 13.2948C6.7056 13.1879 6.85567 13.1316 7.00761 13.126C7.16012 13.1193 7.3073 13.1595 7.44914 13.2466C7.55691 13.3127 7.63929 13.3943 7.69628 13.4913C7.75235 13.5879 7.78367 13.6927 7.79023 13.8057C7.7968 13.9188 7.77913 14.0341 7.73725 14.1517L7.76488 14.1686C7.84063 14.0579 7.93633 13.9714 8.05198 13.9092C8.16819 13.8461 8.29462 13.8159 8.43126 13.8186C8.56698 13.8207 8.70301 13.8636 8.83933 13.9472C8.99131 14.0404 9.10338 14.1624 9.17556 14.3132C9.24681 14.4634 9.27195 14.6329 9.25099 14.8216C9.22911 15.0098 9.15389 15.2083 9.02534 15.4173L8.24469 16.6861ZM8.1139 15.6645L8.37383 15.242C8.46501 15.0938 8.50402 14.9675 8.49087 14.8631C8.47829 14.7578 8.4218 14.6743 8.3214 14.6127C8.24864 14.5681 8.17553 14.5467 8.10207 14.5485C8.0277 14.5498 7.95698 14.573 7.88991 14.6181C7.82193 14.6626 7.76104 14.7286 7.70724 14.816L7.43966 15.2509L8.1139 15.6645ZM6.99892 14.9806L7.23167 14.6022C7.27754 14.5277 7.30588 14.4538 7.31669 14.3805C7.32749 14.3073 7.31932 14.2402 7.29217 14.1791C7.26558 14.1172 7.21912 14.0659 7.1528 14.0252C7.05793 13.967 6.96265 13.9548 6.86697 13.9887C6.77128 14.0225 6.68833 14.0965 6.61811 14.2107L6.37856 14.6L6.99892 14.9806Z" fill="white"/>
<path d="M10.6752 10.6461C10.9483 10.8886 11.1331 11.1465 11.2296 11.4201C11.3261 11.6936 11.3438 11.9637 11.2829 12.2304C11.2226 12.4963 11.0937 12.7402 10.8961 12.9622C10.6977 13.185 10.4694 13.3415 10.2112 13.4316C9.95301 13.5217 9.68264 13.5354 9.40012 13.4724C9.11751 13.408 8.84004 13.2549 8.56771 13.0131C8.29457 12.7707 8.10941 12.5131 8.01221 12.2404C7.91573 11.9668 7.89761 11.6971 7.95784 11.4312C8.01807 11.1653 8.14737 10.921 8.34571 10.6982C8.54334 10.4762 8.77086 10.3198 9.02827 10.229C9.2864 10.1373 9.55713 10.1233 9.84046 10.1869C10.1238 10.2506 10.402 10.4036 10.6752 10.6461ZM10.1297 11.2587C9.96808 11.1153 9.81103 11.017 9.65855 10.964C9.50679 10.9102 9.36413 10.9007 9.23058 10.9353C9.09774 10.9691 8.97815 11.0458 8.87179 11.1652C8.76614 11.2839 8.70392 11.4114 8.68512 11.5479C8.66632 11.6844 8.6922 11.8252 8.76275 11.9702C8.83402 12.1144 8.95047 12.2582 9.11209 12.4017C9.27371 12.5452 9.4304 12.6438 9.58216 12.6976C9.73465 12.7506 9.87766 12.7598 10.0112 12.7251C10.1448 12.6905 10.2644 12.6139 10.37 12.4952C10.4764 12.3757 10.5386 12.2482 10.5567 12.1125C10.5755 11.976 10.5492 11.8356 10.478 11.6914C10.4074 11.5464 10.2913 11.4022 10.1297 11.2587Z" fill="white"/>
<path d="M11.6931 7.64666L12.3232 7.15236L13.6472 8.83508C13.8002 9.02954 13.8872 9.23532 13.9081 9.45239C13.9283 9.66862 13.8866 9.88126 13.7829 10.0903C13.6786 10.2985 13.5168 10.4887 13.2974 10.6608C13.0754 10.8349 12.8508 10.9479 12.6236 10.9999C12.3956 11.051 12.1793 11.0408 11.9745 10.9693C11.7691 10.897 11.5899 10.7636 11.4368 10.5691L10.1128 8.88642L10.7442 8.39112L12.0251 10.0191C12.0959 10.1091 12.1786 10.174 12.2732 10.2138C12.3686 10.2529 12.4677 10.2644 12.5706 10.2483C12.6734 10.2322 12.772 10.1871 12.8664 10.113C12.9608 10.039 13.0276 9.95434 13.0667 9.85906C13.1067 9.76311 13.119 9.66422 13.1035 9.56238C13.088 9.46054 13.0449 9.36462 12.974 9.2746L11.6931 7.64666Z" fill="white"/>
<path d="M14.8133 9.47186L13.1942 6.57394L13.8953 6.18344L15.1965 8.51253L16.4031 7.8404L16.7209 8.40923L14.8133 9.47186Z" fill="white"/>
<path d="M18.1024 7.82096L16.9509 8.24506L15.8006 5.13113L16.9507 4.70758C17.2681 4.59068 17.5644 4.55236 17.8397 4.59263C18.1155 4.63151 18.3589 4.74455 18.5698 4.93175C18.7802 5.11794 18.9452 5.37271 19.0646 5.69606C19.1845 6.02043 19.2251 6.32215 19.1864 6.60123C19.1488 6.87994 19.038 7.12402 18.8538 7.33349C18.6693 7.54194 18.4188 7.70443 18.1024 7.82096ZM17.4669 7.3261L17.8365 7.18996C18.0109 7.12572 18.1476 7.04198 18.2466 6.93874C18.3462 6.83412 18.4022 6.70351 18.4147 6.54693C18.4277 6.38895 18.3929 6.19796 18.3101 5.97394C18.2274 5.74993 18.1301 5.5831 18.0181 5.47347C17.9058 5.36283 17.7775 5.3007 17.633 5.28711C17.4893 5.27212 17.3281 5.29749 17.1496 5.36323L16.7906 5.49545L17.4669 7.3261Z" fill="white"/>
<path d="M20.1626 7.09851L19.543 3.83721L21.8173 3.40633L21.939 4.04649L20.453 4.32801L20.5801 4.99683L21.9498 4.73734L22.0717 5.37909L20.702 5.63858L20.8294 6.309L22.3154 6.02747L22.437 6.66763L20.1626 7.09851Z" fill="white"/>
<path d="M22.859 6.58258L22.7446 3.26483L24.1152 3.21773C24.3636 3.20919 24.5795 3.24665 24.763 3.33009C24.9475 3.41241 25.0917 3.53505 25.1957 3.69799C25.2997 3.85985 25.3556 4.05418 25.3634 4.28098C25.3714 4.51102 25.3279 4.70823 25.233 4.8726C25.138 5.03589 24.9997 5.16283 24.8179 5.25342C24.6361 5.34292 24.4188 5.39202 24.1661 5.4007L23.2994 5.43049L23.2776 4.79869L23.9953 4.77403C24.1162 4.76987 24.2167 4.75074 24.2966 4.71663C24.3776 4.68141 24.438 4.63068 24.4779 4.56443C24.5177 4.49711 24.5359 4.41214 24.5323 4.30954C24.5288 4.20694 24.5048 4.12289 24.4604 4.05737C24.4159 3.99078 24.3521 3.94216 24.2688 3.9115C24.1856 3.87976 24.084 3.86595 23.9641 3.87007L23.5688 3.88365L23.6609 6.55503L22.859 6.58258ZM24.6746 5.00208L25.5531 6.49L24.6783 6.52006L23.816 5.03158L24.6746 5.00208Z" fill="white"/>
<path d="M30.712 5.14785L29.9195 4.97789C29.9264 4.89428 29.9206 4.8162 29.9019 4.74368C29.8832 4.67115 29.852 4.60586 29.8081 4.54782C29.7642 4.48977 29.7079 4.44067 29.6392 4.40051C29.5717 4.35951 29.4936 4.3295 29.4048 4.31046C29.2474 4.2767 29.1033 4.28614 28.9726 4.33879C28.843 4.39167 28.7319 4.48444 28.6392 4.61709C28.5476 4.74997 28.4796 4.91995 28.435 5.12703C28.3886 5.34256 28.3804 5.5298 28.4103 5.68874C28.4415 5.84685 28.5052 5.97489 28.6013 6.07287C28.6987 6.17002 28.8245 6.23514 28.9787 6.26822C29.0654 6.2868 29.1465 6.29259 29.2221 6.28559C29.2987 6.27881 29.3685 6.26007 29.4314 6.22937C29.4957 6.19783 29.5519 6.15517 29.5999 6.10137C29.6492 6.04674 29.6892 5.98181 29.7197 5.90657L30.5112 6.08128C30.4665 6.22202 30.3943 6.35465 30.2946 6.47915C30.1959 6.60388 30.074 6.71091 29.9287 6.80023C29.7838 6.8885 29.6173 6.94786 29.4295 6.97832C29.2427 7.009 29.0379 7.00043 28.8149 6.95261C28.5212 6.88961 28.272 6.76874 28.0673 6.58999C27.8638 6.41041 27.7217 6.18209 27.6409 5.90503C27.5601 5.62797 27.558 5.31142 27.6346 4.95537C27.7115 4.59827 27.8447 4.3102 28.0344 4.09115C28.2241 3.8721 28.4491 3.72306 28.7092 3.64402C28.9694 3.56498 29.2437 3.55639 29.5322 3.61825C29.7287 3.6604 29.9045 3.72685 30.0597 3.8176C30.215 3.90728 30.3448 4.01802 30.4491 4.14981C30.5537 4.28054 30.6293 4.42994 30.676 4.59802C30.7228 4.7661 30.7348 4.94938 30.712 5.14785Z" fill="white"/>
<path d="M34.1923 6.9782C34.0509 7.31499 33.8662 7.57335 33.6383 7.75326C33.4104 7.93318 33.1603 8.0376 32.888 8.06653C32.6167 8.09587 32.3439 8.05317 32.0698 7.93842C31.7947 7.82325 31.5728 7.65827 31.4039 7.44349C31.2351 7.22871 31.1348 6.97761 31.1032 6.69019C31.0729 6.4022 31.1283 6.09031 31.2693 5.75451C31.4107 5.41771 31.5948 5.15915 31.8217 4.97881C32.0496 4.7989 32.2992 4.69427 32.5706 4.66492C32.8419 4.63557 33.1151 4.67849 33.3902 4.79366C33.6643 4.90841 33.886 5.07268 34.0553 5.28647C34.2255 5.50067 34.3263 5.75198 34.3575 6.04039C34.3888 6.3288 34.3337 6.6414 34.1923 6.9782ZM33.4357 6.66148C33.5194 6.46219 33.5617 6.2819 33.5626 6.1206C33.5646 5.95973 33.5275 5.8218 33.4516 5.70682C33.3766 5.59226 33.2654 5.5041 33.1179 5.44234C32.9713 5.381 32.8304 5.36359 32.695 5.3901C32.5597 5.41662 32.4347 5.48673 32.3202 5.60046C32.2066 5.7146 32.108 5.87131 32.0243 6.0706C31.9406 6.26989 31.8978 6.44997 31.8959 6.61085C31.895 6.77214 31.9325 6.91028 32.0085 7.02526C32.0844 7.14023 32.1957 7.22839 32.3422 7.28974C32.4897 7.35149 32.6307 7.36891 32.765 7.34197C32.9004 7.31546 33.0249 7.24513 33.1384 7.13099C33.253 7.01727 33.3521 6.86076 33.4357 6.66148Z" fill="white"/>
<path d="M37.4397 7.01435L38.1104 7.45182L36.9379 9.24382C36.8025 9.45092 36.6351 9.59917 36.4358 9.68856C36.2372 9.77705 36.0221 9.80578 35.7906 9.77476C35.5597 9.74284 35.3275 9.65072 35.094 9.4984C34.8578 9.34431 34.6786 9.1681 34.5566 8.96978C34.4351 8.77055 34.3755 8.56263 34.3778 8.34603C34.3806 8.12853 34.4498 7.91623 34.5853 7.70913L35.7577 5.91712L36.4297 6.35548L35.2954 8.08915C35.2327 8.18502 35.1976 8.28406 35.1902 8.38628C35.1836 8.48909 35.2044 8.58654 35.2526 8.67864C35.3008 8.77074 35.3752 8.84955 35.4756 8.91508C35.5761 8.98062 35.6778 9.01663 35.7807 9.02313C35.8845 9.03021 35.9823 9.0101 36.0739 8.96278C36.1656 8.91547 36.2428 8.84388 36.3055 8.74802L37.4397 7.01435Z" fill="white"/>
<path d="M40.921 9.91154L38.6555 12.3384L38.1572 11.8746L38.4978 9.5739L38.4824 9.55955L37.1748 10.9602L36.5875 10.4136L38.8531 7.9867L39.3585 8.45715L39.0094 10.7455L39.0296 10.7643L40.3349 9.36601L40.921 9.91154Z" fill="white"/>
<path d="M41.1227 11.0474L41.6419 10.6535L43.3406 12.8865L42.8214 13.2804L42.212 12.4793L40.086 14.0918L39.6071 13.4623L41.7331 11.8497L41.1227 11.0474Z" fill="white"/>
<path d="M43.7998 13.5139L44.2121 14.3098L43.3006 15.5706L43.314 15.5965L44.8712 15.5821L45.2835 16.378L42.7605 16.3147L41.7753 16.8236L41.4085 16.1155L42.3937 15.6067L43.7998 13.5139Z" fill="white"/>
<path d="M8.88696 38.4233C8.97342 38.341 9.01592 38.246 9.01449 38.1382C9.01457 38.0306 8.96587 37.9155 8.86839 37.7928C8.80385 37.7116 8.73948 37.6523 8.67528 37.6149C8.61108 37.5775 8.54959 37.5601 8.4908 37.5625C8.43287 37.5643 8.37985 37.5836 8.33174 37.6203C8.29143 37.6495 8.26317 37.6843 8.24697 37.7247C8.23144 37.7659 8.22535 37.8121 8.2287 37.8632C8.23356 37.9145 8.24635 37.9706 8.26706 38.0314C8.28776 38.0922 8.31529 38.1572 8.34964 38.2265L8.4763 38.4901C8.55053 38.6409 8.60334 38.7838 8.63474 38.9188C8.6668 39.0547 8.6772 39.1816 8.66594 39.2994C8.65534 39.4181 8.62189 39.528 8.5656 39.6292C8.5093 39.7303 8.4294 39.8226 8.32588 39.9059C8.16088 40.0353 7.9869 40.1056 7.80395 40.1168C7.621 40.128 7.437 40.0814 7.25197 39.9771C7.06761 39.8736 6.88937 39.7136 6.71727 39.497C6.5445 39.2796 6.42653 39.0642 6.36335 38.851C6.30017 38.6377 6.29944 38.4335 6.36117 38.2385C6.4229 38.0434 6.5544 37.8641 6.75568 37.7005L7.23366 38.3021C7.15384 38.3736 7.10177 38.4514 7.07746 38.5354C7.05315 38.6195 7.05416 38.7076 7.08048 38.7998C7.10748 38.8928 7.15762 38.9855 7.2309 39.0777C7.29812 39.1623 7.3667 39.2252 7.43663 39.2663C7.50723 39.3082 7.57564 39.3292 7.64184 39.3291C7.70805 39.329 7.76774 39.3086 7.82093 39.2679C7.86939 39.2281 7.89922 39.1796 7.91042 39.1225C7.92247 39.0647 7.91666 38.9949 7.893 38.913C7.87085 38.8313 7.83314 38.7343 7.77987 38.6221L7.62761 38.3002C7.50045 38.0342 7.44305 37.7908 7.45539 37.5701C7.46859 37.3487 7.5742 37.1603 7.77224 37.0048C7.93251 36.8764 8.10783 36.8078 8.2982 36.799C8.48857 36.7902 8.67882 36.8359 8.86894 36.9362C9.05905 37.0365 9.23243 37.1852 9.38907 37.3824C9.54907 37.5837 9.65359 37.7856 9.70262 37.988C9.75318 38.1906 9.74964 38.3816 9.69203 38.561C9.63442 38.7403 9.52539 38.895 9.36494 39.0248L8.88696 38.4233Z" fill="white"/>
<path d="M10.0132 39.2707L10.453 38.7899L12.5262 40.6806L12.0863 41.1614L11.3426 40.4831L9.54176 42.452L8.95729 41.919L10.7581 39.9501L10.0132 39.2707Z" fill="white"/>
<path d="M11.1262 43.8071L12.9462 41.0307L14.0941 41.7809C14.3022 41.9169 14.4571 42.0718 14.559 42.2455C14.6624 42.419 14.7096 42.6022 14.7007 42.7952C14.6924 42.9873 14.626 43.1782 14.5016 43.368C14.3754 43.5605 14.2261 43.6966 14.0537 43.7763C13.8819 43.8551 13.6955 43.8791 13.4946 43.8485C13.2943 43.817 13.0883 43.7321 12.8767 43.5938L12.1508 43.1193L12.4974 42.5906L13.0985 42.9834C13.1998 43.0497 13.2929 43.0918 13.3779 43.11C13.4645 43.1278 13.5431 43.1211 13.614 43.0899C13.6854 43.0579 13.7492 42.9989 13.8055 42.913C13.8618 42.8272 13.8907 42.7447 13.8921 42.6656C13.8942 42.5856 13.87 42.5091 13.8196 42.4362C13.7699 42.3623 13.6948 42.2926 13.5943 42.227L13.2633 42.0106L11.7978 44.2461L11.1262 43.8071ZM13.5224 43.5607L13.3826 45.2819L12.6499 44.803L12.8033 43.0907L13.5224 43.5607Z" fill="white"/>
<path d="M14.274 45.7808L15.6426 42.7562L17.7526 43.7081L17.4839 44.3018L16.1054 43.6798L15.8247 44.3001L17.0954 44.8734L16.8261 45.4686L15.5554 44.8953L15.2741 45.517L16.6526 46.139L16.384 46.7327L14.274 45.7808Z" fill="white"/>
<path d="M17.4679 47.1568L18.3675 43.9612L20.5961 44.5868L20.4195 45.214L18.9634 44.8053L18.7789 45.4607L20.1211 45.8374L19.944 46.4662L18.6019 46.0895L18.417 46.7464L19.873 47.1551L19.6965 47.7824L17.4679 47.1568Z" fill="white"/>
<path d="M21.0529 45.3892L21.1294 44.7421L23.916 45.0706L23.8395 45.7177L22.8398 45.5999L22.5265 48.2495L21.7409 48.1569L22.0542 45.5072L21.0529 45.3892Z" fill="white"/>
<path d="M25.9119 45.1598L26.8953 45.0175L28.0248 46.9308L28.0633 46.9252L28.6023 44.7704L29.5857 44.6281L30.0625 47.9134L29.2893 48.0253L28.9964 46.0073L28.9691 46.0112L28.4697 48.1226L27.9755 48.1942L26.8947 46.3L26.8675 46.3039L27.162 48.3332L26.3887 48.4451L25.9119 45.1598Z" fill="white"/>
<path d="M31.3557 47.5743L30.2797 44.4338L32.4702 43.6855L32.6815 44.3019L31.2503 44.7909L31.4709 45.4349L32.7901 44.9842L33.0019 45.6022L31.6827 46.0529L31.9039 46.6985L33.335 46.2095L33.5463 46.826L31.3557 47.5743Z" fill="white"/>
<path d="M35.7429 45.817L34.6617 46.3973L33.0881 43.4742L34.1679 42.8947C34.466 42.7347 34.7541 42.6555 35.0323 42.657C35.3109 42.6571 35.5677 42.7351 35.8026 42.8911C36.037 43.0462 36.2359 43.2755 36.3993 43.579C36.5633 43.8835 36.6456 44.1766 36.6462 44.4583C36.6479 44.7395 36.5721 44.9966 36.419 45.2297C36.2653 45.4618 36.04 45.6575 35.7429 45.817ZM35.0444 45.4155L35.3915 45.2292C35.5553 45.1413 35.679 45.0394 35.7626 44.9234C35.8466 44.8059 35.8839 44.6688 35.8743 44.512C35.8653 44.3538 35.8041 44.1695 35.6909 43.9592C35.5777 43.7489 35.458 43.5973 35.3319 43.5043C35.2053 43.4104 35.0695 43.3668 34.9246 43.3735C34.7801 43.3786 34.624 43.4262 34.4564 43.5162L34.1194 43.6971L35.0444 45.4155Z" fill="white"/>
<path d="M36.8806 41.2192L38.8153 43.9168L38.1626 44.3835L36.2279 41.6859L36.8806 41.2192Z" fill="white"/>
<path d="M40.4357 39.7423L39.8416 40.2937C39.777 40.2401 39.7095 40.2002 39.6393 40.1739C39.5691 40.1477 39.4976 40.1359 39.4249 40.1386C39.3521 40.1413 39.2795 40.1593 39.2071 40.1925C39.1348 40.2243 39.0653 40.271 38.9988 40.3327C38.8808 40.4423 38.8058 40.5656 38.774 40.7028C38.743 40.8392 38.7554 40.9833 38.811 41.1351C38.8675 41.2861 38.9678 41.4392 39.1121 41.5942C39.2623 41.7556 39.4112 41.8695 39.5588 41.936C39.7064 42.001 39.8479 42.0222 39.9834 41.9997C40.119 41.9756 40.2446 41.9099 40.3602 41.8026C40.4252 41.7423 40.4765 41.6792 40.5141 41.6134C40.5525 41.5468 40.5772 41.4789 40.5881 41.4098C40.5991 41.3391 40.5963 41.2687 40.5798 41.1986C40.5633 41.1269 40.5329 41.057 40.4887 40.9889L41.0861 40.4412C41.176 40.5583 41.2433 40.6933 41.2882 40.8463C41.3339 40.9985 41.3518 41.1596 41.3417 41.3296C41.3309 41.4988 41.2841 41.669 41.2013 41.8402C41.1194 42.0107 40.9948 42.1734 40.8276 42.3286C40.6074 42.5329 40.3653 42.6677 40.1012 42.7329C39.8372 42.7966 39.5683 42.7822 39.2947 42.6897C39.0211 42.5972 38.7602 42.4176 38.5121 42.1511C38.2633 41.8837 38.1034 41.6097 38.0326 41.3289C37.9617 41.0482 37.9686 40.7787 38.053 40.5205C38.1374 40.2623 38.2878 40.0328 38.504 39.8321C38.6514 39.6954 38.8068 39.5895 38.9702 39.5145C39.1329 39.4387 39.2982 39.3959 39.4662 39.3859C39.6334 39.3752 39.7993 39.3989 39.964 39.4569C40.1287 39.5149 40.2859 39.61 40.4357 39.7423Z" fill="white"/>
<path d="M41.9617 37.5467C41.8605 37.4834 41.7578 37.4657 41.6536 37.4936C41.5491 37.5201 41.4494 37.5956 41.3543 37.7202C41.2914 37.8027 41.2497 37.8796 41.2293 37.951C41.2088 38.0223 41.2071 38.0861 41.2239 38.1424C41.2399 38.198 41.2717 38.2446 41.3192 38.2821C41.3575 38.3139 41.3982 38.3327 41.4414 38.3384C41.4853 38.3432 41.5316 38.3377 41.5804 38.3219C41.629 38.3045 41.6802 38.2783 41.7341 38.2433C41.788 38.2082 41.8444 38.1655 41.9032 38.1152L42.1278 37.9276C42.2558 37.8186 42.3815 37.7322 42.5048 37.6685C42.6288 37.604 42.7494 37.5626 42.8665 37.5445C42.9843 37.5254 43.0992 37.5307 43.2113 37.5602C43.3233 37.5898 43.4325 37.6443 43.539 37.7239C43.7052 37.8517 43.8163 38.0027 43.8723 38.177C43.9282 38.3513 43.9284 38.5408 43.8728 38.7456C43.8178 38.9495 43.7064 39.1615 43.5387 39.3814C43.3702 39.6023 43.1903 39.7695 42.9989 39.8833C42.8075 39.997 42.6095 40.0481 42.405 40.0365C42.2005 40.0249 41.994 39.9418 41.7856 39.7874L42.2516 39.1765C42.3407 39.2361 42.429 39.2673 42.5166 39.2701C42.6042 39.2729 42.6894 39.2502 42.7724 39.2019C42.8561 39.1529 42.9336 39.0815 43.0051 38.9878C43.0706 38.9019 43.1147 38.8201 43.1373 38.7422C43.1607 38.6636 43.1641 38.5922 43.1477 38.5282C43.1314 38.4641 43.0968 38.4114 43.0442 38.37C42.9936 38.3329 42.9392 38.316 42.881 38.3192C42.822 38.3218 42.7556 38.3447 42.682 38.3878C42.6081 38.4294 42.5233 38.4898 42.4275 38.569L42.1526 38.7958C41.9258 38.9844 41.7038 39.1 41.4865 39.1425C41.2684 39.1843 41.0595 39.1286 40.8597 38.9753C40.6957 38.8519 40.5859 38.6992 40.5304 38.5171C40.4749 38.3351 40.4724 38.1397 40.5228 37.931C40.5733 37.7223 40.6749 37.5178 40.8276 37.3176C40.9836 37.1131 41.1538 36.9622 41.3381 36.8648C41.5223 36.7659 41.7085 36.7222 41.8968 36.7337C42.0851 36.7452 42.2621 36.8126 42.4277 36.9358L41.9617 37.5467Z" fill="white"/>
<path d="M46.2743 25.1995C46.2743 25.2334 46.2743 25.2672 46.2741 25.3011M3.83612 25.1995C3.83612 25.2334 3.8362 25.2674 3.83636 25.3013" stroke="white" stroke-width="1.44087" stroke-linecap="round" stroke-dasharray="0.07 6.75"/>
</svg>
