<svg width="24" height="24" viewBox="0 0 24 24" fill="none" xmlns="http://www.w3.org/2000/svg">
  <path
    d="M9.0577 17.5C8.55256 17.5 8.125 17.325 7.77502 16.975C7.42502 16.625 7.25002 16.1974 7.25002 15.6923V4.3077C7.25002 3.80257 7.42502 3.375 7.77502 3.025C8.125 2.675 8.55256 2.5 9.0577 2.5H17.4423C17.9474 2.5 18.3749 2.675 18.7249 3.025C19.0749 3.375 19.2499 3.80257 19.2499 4.3077V15.6923C19.2499 16.1974 19.0749 16.625 18.7249 16.975C18.3749 17.325 17.9474 17.5 17.4423 17.5H9.0577ZM9.0577 16H17.4423C17.5192 16 17.5897 15.9679 17.6538 15.9038C17.7179 15.8397 17.75 15.7692 17.75 15.6923V4.3077C17.75 4.23077 17.7179 4.16024 17.6538 4.09613C17.5897 4.03203 17.5192 3.99998 17.4423 3.99998H9.0577C8.98076 3.99998 8.91025 4.03203 8.84615 4.09613C8.78203 4.16024 8.74997 4.23077 8.74997 4.3077V15.6923C8.74997 15.7692 8.78203 15.8397 8.84615 15.9038C8.91025 15.9679 8.98076 16 9.0577 16ZM5.55772 20.9999C5.0526 20.9999 4.62505 20.8249 4.27505 20.4749C3.92505 20.1249 3.75005 19.6973 3.75005 19.1922V6.3077H5.25002V19.1922C5.25002 19.2692 5.28207 19.3397 5.34617 19.4038C5.41029 19.4679 5.4808 19.5 5.55772 19.5H15.4423V20.9999H5.55772Z"
    fill="currentColor"
  />
</svg>
