<svg width="24" height="24" viewBox="0 0 24 24" fill="none" xmlns="http://www.w3.org/2000/svg">
<g clip-path="url(#clip0_19787_11971)">
<path d="M5 3.75H19C19.6858 3.75 20.25 4.31421 20.25 5V19C20.25 19.6858 19.6858 20.25 19 20.25H5C4.31421 20.25 3.75 19.6858 3.75 19V5C3.75 4.31421 4.31421 3.75 5 3.75Z" stroke="white" stroke-width="1.5"/>
<path d="M10.7496 15.298L9.39281 13.7098C9.18897 13.4712 8.81826 13.4772 8.62221 13.7222L6.64988 16.1877C6.38797 16.515 6.62106 17 7.04031 17H16.9828C17.398 17 17.6323 16.5233 17.3787 16.1946L14.532 12.5045C14.334 12.2477 13.9477 12.2445 13.7454 12.498L11.5205 15.2852C11.3246 15.5306 10.9536 15.5368 10.7496 15.298Z" fill="white"/>
</g>
<defs>
<clipPath id="clip0_19787_11971">
<rect width="24" height="24" fill="white"/>
</clipPath>
</defs>
</svg>
