<svg width="24" height="24" viewBox="0 0 24 24" fill="none" xmlns="http://www.w3.org/2000/svg">
  <path
    d="M1.67315 3.48079C1.67315 2.97566 1.84815 2.54809 2.19815 2.19809C2.54813 1.84809 2.97569 1.67309 3.48082 1.67309L13.8654 1.6731C14.3705 1.6731 14.7981 1.8481 15.1481 2.1981C15.4981 2.5481 15.6731 2.97566 15.6731 3.4808L15.6731 9.03845L14.1731 9.03845L14.1731 3.4808C14.1731 3.40386 14.141 3.33334 14.0769 3.26922C14.0128 3.20512 13.9423 3.17307 13.8654 3.17307L3.48082 3.17307C3.40389 3.17307 3.33337 3.20512 3.26925 3.26922C3.20515 3.33334 3.1731 3.40386 3.1731 3.48079L3.1731 20.8653C3.1731 20.9423 3.20515 21.0128 3.26925 21.0769C3.33337 21.141 3.40389 21.1731 3.48082 21.1731L13.8654 21.1731C13.9423 21.1731 14.0128 21.141 14.0769 21.0769C14.141 21.0128 14.1731 20.9423 14.1731 20.8653L14.1731 15.3077L15.6731 15.3077L15.6731 20.8653C15.6731 21.3705 15.4981 21.798 15.1481 22.148C14.7981 22.498 14.3705 22.673 13.8654 22.673L3.48082 22.673C2.97569 22.673 2.54812 22.498 2.19812 22.148C1.84812 21.798 1.67312 21.3705 1.67312 20.8653L1.67315 3.48079ZM8.4231 11.4231L19.4538 11.4231L17.6038 9.57307L18.6731 8.51924L22.3269 12.1731L18.6731 15.8269L17.6038 14.7731L19.4539 12.923L8.42312 12.923L8.4231 11.4231Z"
    fill="currentColor"
  />
</svg>
