<svg
  width="24"
  height="24"
  viewBox="0 0 17 20"
  fill="none"
  xmlns="http://www.w3.org/2000/svg"
  preserveAspectRatio="xMidYMid meet"
>
  <path
    d="M6 16C5.45 16 4.97917 15.8042 4.5875 15.4125C4.19583 15.0208 4 14.55 4 14V2C4 1.45 4.19583 0.979167 4.5875 0.5875C4.97917 0.195833 5.45 0 6 0H15C15.55 0 16.0208 0.195833 16.4125 0.5875C16.8042 0.979167 17 1.45 17 2V14C17 14.55 16.8042 15.0208 16.4125 15.4125C16.0208 15.8042 15.55 16 15 16H6ZM6 14H15V2H6V14ZM2 20C1.45 20 0.979167 19.8042 0.5875 19.4125C0.195833 19.0208 0 18.55 0 18V4H2V18H13V20H2ZM7.25 11H8.75V6.5H9.75V9.5H11.25V6.5H12.25V11H13.75V6C13.75 5.71667 13.6542 5.47917 13.4625 5.2875C13.2708 5.09583 13.0333 5 12.75 5H8.25C7.96667 5 7.72917 5.09583 7.5375 5.2875C7.34583 5.47917 7.25 5.71667 7.25 6V11Z"
    fill="currentColor"
  />
</svg>
