<svg width="24" height="24" viewBox="0 0 24 24" fill="none" xmlns="http://www.w3.org/2000/svg">
<path d="M7.51299 10.462C7.32099 10.654 7.08332 10.75 6.79999 10.75C6.51665 10.75 6.27899 10.654 6.08699 10.462C5.89565 10.2707 5.79999 10.0333 5.79999 9.75C5.79999 9.46667 5.89565 9.229 6.08699 9.037C6.27899 8.84567 6.51665 8.75 6.79999 8.75C7.08332 8.75 7.32099 8.84567 7.51299 9.037C7.70432 9.229 7.79999 9.46667 7.79999 9.75C7.79999 10.0333 7.70432 10.2707 7.51299 10.462Z" fill="white"/>
<path d="M12.8 14.75H6.79999C6.51665 14.75 6.27899 14.654 6.08699 14.462C5.89565 14.2707 5.79999 14.0333 5.79999 13.75C5.79999 13.4667 5.89565 13.229 6.08699 13.037C6.27899 12.8457 6.51665 12.75 6.79999 12.75H12.8C13.0833 12.75 13.321 12.8457 13.513 13.037C13.7043 13.229 13.8 13.4667 13.8 13.75C13.8 14.0333 13.7043 14.2707 13.513 14.462C13.321 14.654 13.0833 14.75 12.8 14.75Z" fill="white"/>
<path d="M17.512 14.462C17.3207 14.654 17.0833 14.75 16.8 14.75C16.5167 14.75 16.2793 14.654 16.088 14.462C15.896 14.2707 15.8 14.0333 15.8 13.75C15.8 13.4667 15.896 13.229 16.088 13.037C16.2793 12.8457 16.5167 12.75 16.8 12.75C17.0833 12.75 17.3207 12.8457 17.512 13.037C17.704 13.229 17.8 13.4667 17.8 13.75C17.8 14.0333 17.704 14.2707 17.512 14.462Z" fill="white"/>
<path d="M16.8 10.75H10.8C10.5167 10.75 10.2793 10.654 10.088 10.462C9.89599 10.2707 9.79999 10.0333 9.79999 9.75C9.79999 9.46667 9.89599 9.229 10.088 9.037C10.2793 8.84567 10.5167 8.75 10.8 8.75H16.8C17.0833 8.75 17.3207 8.84567 17.512 9.037C17.704 9.229 17.8 9.46667 17.8 9.75C17.8 10.0333 17.704 10.2707 17.512 10.462C17.3207 10.654 17.0833 10.75 16.8 10.75Z" fill="white"/>
<path d="M3.875 4.5H19.875C20.2243 4.5 20.5052 4.61557 20.7578 4.86816C21.0095 5.11983 21.125 5.4003 21.125 5.75V17.75C21.125 18.0993 21.0092 18.3796 20.7578 18.6318C20.5053 18.8839 20.2247 19 19.875 19H3.875C3.5253 19 3.24483 18.8845 2.99316 18.6328C2.74057 18.3802 2.625 18.0993 2.625 17.75V5.75C2.625 5.40073 2.74099 5.1209 2.99316 4.86914L2.99414 4.86816C3.2459 4.61599 3.52573 4.5 3.875 4.5Z" stroke="white" stroke-width="1.5"/>
</svg>
