<svg width="305" height="305" viewBox="0 0 305 305" fill="none" xmlns="http://www.w3.org/2000/svg">
<g clip-path="url(#clip0_22877_2962)">
<path d="M0 23.0933C0 10.3392 10.3392 0 23.0933 0H281.907C294.661 0 305 10.3392 305 23.0933V281.907C305 294.661 294.661 305 281.907 305H23.0933C10.3392 305 0 294.661 0 281.907V23.0933Z" fill="#E5E5E5"/>
<path d="M300.076 111.766C299.913 110.885 299.26 110.173 298.518 109.714C298.968 109.007 299.818 108.39 299.579 107.477C299.506 107.195 299.267 106.928 299.032 106.768C298.364 106.313 297.805 106.21 298.398 104.88C298.613 104.397 298.828 103.914 299.051 103.433C299.122 103.28 299.097 103.076 298.929 102.993C298.681 102.672 298.432 102.351 298.183 102.031C297.854 101.475 297.917 101.213 298.37 101.245C298.582 101.335 298.715 101.564 298.946 101.633C299.233 101.717 299.591 101.798 299.842 101.557C300.122 101.289 300.378 100.914 300.33 100.496C300.288 100.127 300.279 100.075 300.155 99.7041C299.556 97.9185 301.635 97.748 302.727 97.9317C302.737 97.9333 302.743 97.9207 302.735 97.9153C301.7 97.3244 300.789 96.9375 299.737 97.724C299.488 97.9103 299.23 98.3241 299.237 98.6465C299.245 99.0433 299.855 101.107 298.72 100.629C296.854 99.8429 297.237 102.508 298.354 103.388C297.899 104.258 297.03 105.566 297.53 106.446C297.717 106.774 298.109 106.987 298.412 107.182C299.404 107.818 297.989 109.087 297.745 109.677C297.675 109.847 297.692 110.06 297.877 110.155C299.154 110.812 299.609 111.951 299.385 113.337C299.267 114.064 299.169 114.712 299.333 115.441C299.365 115.582 299.551 115.535 299.566 115.411C299.713 114.123 300.321 113.091 300.076 111.766Z" fill="#2D2D2D"/>
<path d="M308.483 108.562C306.697 107.823 304.742 107.538 302.971 106.747C302.951 106.738 302.933 106.769 302.954 106.778C304.725 107.556 306.475 108.542 308.44 108.724C308.524 108.732 308.563 108.594 308.483 108.562Z" fill="#2D2D2D"/>
<path d="M252.431 26.5132C252.979 29.0186 253.523 31.5267 253.817 34.0769C254.256 37.8798 254.017 41.7389 253.699 45.5407C253.379 49.3611 252.94 53.1705 252.858 57.0067C252.816 58.9589 252.905 60.909 253.138 62.8476C253.337 64.5102 253.566 66.3903 254.356 67.8873C254.477 68.1158 254.888 68.0283 254.86 67.754C254.678 65.97 254.124 64.226 253.915 62.4344C253.69 60.4953 253.663 58.5348 253.703 56.5853C253.782 52.7513 254.245 48.9331 254.562 45.1144C254.881 41.2662 255.029 37.4037 254.565 33.561C254.292 31.2906 253.784 29.0558 253.266 26.8313C252.675 24.2893 251.803 21.8321 251.195 19.3054C251.19 19.2885 251.165 19.2956 251.168 19.3125C251.672 21.6927 251.91 24.1254 252.431 26.5132Z" fill="#2D2D2D"/>
<path d="M208.081 7.08557C208.065 7.06152 208.026 7.08339 208.042 7.10743C209.51 9.351 211.128 11.4284 212.874 13.4621C214.715 15.6057 216.378 17.8771 218.186 20.0387C218.325 20.2054 218.54 19.9939 218.467 19.8245C217.499 17.5705 215.605 15.6538 213.975 13.8638C211.961 11.6525 209.736 9.59312 208.081 7.08557Z" fill="#2D2D2D"/>
<path d="M224.482 0.393887C225.024 2.62325 225.658 4.78484 226.567 6.89396C226.603 6.97539 226.737 6.91855 226.711 6.83548C226.025 4.67279 225.266 2.53197 224.603 0.362187C224.58 0.285124 224.463 0.315731 224.482 0.393887Z" fill="#2D2D2D"/>
<path d="M207.364 68.5148C211.039 67.7535 214.905 67.355 218.636 66.9446C222.425 66.5276 226.242 66.3745 230.052 66.4735C233.808 66.5708 237.548 66.9757 241.239 67.6693C243.021 68.0038 244.783 68.4339 246.527 68.9242C248.415 69.4554 250.241 70.255 252.147 70.7037C252.397 70.7628 252.543 70.4168 252.317 70.2862C249.247 68.505 245.315 67.7404 241.873 67.0348C238.135 66.268 234.319 65.8788 230.508 65.7455C226.546 65.6072 222.575 65.8121 218.636 66.2374C214.763 66.6549 211.122 67.5616 207.352 68.4716C207.324 68.4787 207.336 68.5208 207.364 68.5148Z" fill="#2D2D2D"/>
<path d="M246.946 70.1402C245.056 69.3482 242.847 69.1345 240.829 68.8492C238.577 68.5306 236.325 68.5229 234.065 68.3355C234.028 68.3327 234.028 68.3907 234.065 68.3934C236.277 68.5771 238.484 69.0771 240.675 69.4395C242.71 69.7762 244.797 70.3938 246.86 70.4654C247.025 70.4708 247.11 70.209 246.946 70.1402Z" fill="#2D2D2D"/>
<path d="M240.266 85.0702C243.514 84.4854 246.664 83.6082 249.963 83.2699C253.224 82.9348 256.642 82.69 259.905 83.078C259.934 83.0813 259.934 83.037 259.905 83.0332C253.387 82.2336 246.262 81.892 240.134 84.7466C239.942 84.8363 240.081 85.1035 240.266 85.0702Z" fill="#2D2D2D"/>
<path d="M190.611 51.24C190.581 51.245 190.581 51.2947 190.611 51.3002C192.679 51.6827 194.964 51.4838 197.056 51.3871C199.39 51.2789 201.718 51.0132 204.032 50.6919C206.323 50.3738 208.598 49.9518 210.852 49.4343C213.08 48.9221 215.457 48.4002 217.532 47.4202C217.695 47.3432 217.576 47.1196 217.42 47.1459C215.318 47.5006 213.245 48.1963 211.168 48.6849C208.918 49.214 206.645 49.6529 204.363 50.0125C201.94 50.3951 199.5 50.6323 197.056 50.8285C194.93 50.999 192.712 50.8946 190.611 51.24Z" fill="#2D2D2D"/>
<path d="M209.245 50.7749C208.742 50.9274 208.907 51.7193 209.352 51.4521C209.365 51.4444 209.366 51.4247 209.352 51.4171C209.687 51.2761 210.034 51.2023 210.395 51.1946C210.678 51.1662 210.961 51.1345 211.244 51.099C211.81 51.0318 212.376 50.9651 212.942 50.893C213.95 50.7656 214.994 50.6907 215.97 50.4032C216.204 50.3344 216.153 50.0048 215.917 49.9912C214.789 49.9245 213.637 50.1267 212.517 50.2584C211.437 50.3863 210.289 50.459 209.245 50.7749Z" fill="#2D2D2D"/>
<path d="M268.073 71.7948C268.037 72.0188 268.327 72.0904 268.41 71.8828C270.191 67.3814 270.579 62.3608 271.509 57.6359C272.43 52.9608 273.847 48.1146 276.358 44.028C276.374 44.0029 276.335 43.9717 276.316 43.9958C273.425 47.7107 271.96 51.8786 270.921 56.4406C269.771 61.4918 268.908 66.6835 268.073 71.7948Z" fill="#2D2D2D"/>
<path d="M272.086 69.1849C272.098 69.204 272.11 69.2231 272.122 69.2422C272.139 69.2707 272.176 69.2619 272.187 69.2335C271.631 70.6469 271.238 72.4188 271.246 73.9628C271.247 74.1628 271.506 74.171 271.571 74.0048C271.953 73.0314 272.087 71.9733 272.256 70.9469C272.33 70.4998 272.664 69.4297 272.314 69.0504C272.271 69.0034 272.205 69.0143 272.16 69.0504C272.139 69.0679 272.118 69.0848 272.097 69.1018C272.074 69.1204 272.071 69.1608 272.086 69.1849Z" fill="#2D2D2D"/>
<path d="M301.209 124.527C301.209 123.995 300.857 123.296 300.739 122.764C300.558 121.952 300.478 121.115 300.453 120.284C300.398 118.538 300.899 116.951 301.249 115.268C301.294 115.046 300.994 114.913 300.876 115.117C299.496 117.496 299.527 120.769 300.1 123.378C300.321 124.382 300.334 124.584 299.559 125.323C298.663 126.178 297.535 126.756 296.379 127.165C295.517 127.468 294.295 127.579 294.164 128.727C294.051 129.717 293.996 130.559 293.473 131.447C292.836 132.532 291.607 132.95 290.46 133.213C288.9 133.571 287.421 133.79 285.955 134.473C284.58 135.112 280.552 137.732 281.965 139.64C282.017 139.711 282.132 139.674 282.112 139.58C281.766 137.958 284.373 136.292 285.483 135.591C286.94 134.67 288.563 134.347 290.228 134.052C292.71 133.613 294.599 132.229 294.875 129.598C295.05 127.938 297.592 127.603 298.86 126.82C299.486 126.433 301.209 125.324 301.209 124.527Z" fill="#2D2D2D"/>
<path d="M298.685 130.689C298.378 130.452 298.051 130.24 297.731 130.021C297.693 129.996 297.658 130.057 297.696 130.084C298.014 130.301 298.326 130.529 298.656 130.728C298.679 130.742 298.708 130.706 298.685 130.689Z" fill="#2D2D2D"/>
<path d="M314.404 151.411C312.488 151.111 311.012 149.61 309.804 148.212C307.46 145.5 305.403 142.622 302.88 140.053C301.323 138.468 299.518 136.598 297.215 136.534C297.7 135.671 298.574 134.987 299.441 134.541C300.907 133.784 302.601 133.959 304.16 133.584C304.345 133.54 304.361 133.233 304.16 133.2C301.779 132.808 299 133.382 297.238 135.082C295.268 136.983 296.2 139.236 296.949 141.429C297.687 143.59 296.273 145.027 294.094 145.064C292.318 145.094 290.415 144.222 288.709 143.803C286.748 143.32 283.869 142.563 282.776 144.727C282.052 144.404 280.513 143.664 279.44 143.576C279.65 143.45 279.853 143.296 280.041 143.106C280.157 142.989 280.042 142.738 279.87 142.807C278.765 143.247 277.672 143.351 276.603 142.757C274.823 141.768 275.318 139.544 276.394 138.31C277.705 136.806 278.649 135.787 278.664 133.706C278.665 133.693 278.664 133.678 278.664 133.664C278.893 133.728 279.164 133.609 279.165 133.289C279.168 132.658 278.912 132.203 278.52 131.862C278.343 130.519 278.107 129.197 278.466 127.823C278.563 127.452 278.701 127.113 278.87 126.801C279.021 126.725 279.089 126.583 279.091 126.439C280.402 124.485 283.059 123.664 284.895 122.339C284.911 122.327 284.908 122.294 284.884 122.297C282.375 122.595 279.844 123.953 278.39 126.055C277.629 126.108 277.476 125.028 277.546 124.551C277.634 123.943 278.377 123.361 278.811 122.967C279.416 122.418 279.957 121.898 280.387 121.202C281.09 120.063 281.08 118.633 280.859 117.364C280.315 114.238 277.783 111.782 275.259 110.107C272.379 108.198 268.726 107.251 265.287 107.539C262.464 107.776 259.381 109.348 258.987 112.408C258.806 113.821 259.385 115.246 259.784 116.57C260.315 118.329 260.018 122.342 257.179 120.944C256.101 120.414 255.254 119.642 254.004 120.12C252.953 120.522 252.813 121.794 252.758 122.759C252.64 124.805 252.608 126.488 250.25 127.067C247.611 127.715 245.559 125.27 244.245 123.364C242.294 120.536 240.491 117.172 236.654 116.867C234.532 116.697 232.416 117.21 230.566 118.256C229.666 118.764 229.068 119.577 228.616 120.483C227.95 121.818 227.696 123.485 226.092 124.025C224.851 124.444 223.467 123.657 222.64 122.797C221.451 121.561 221.122 119.63 220.803 118.016C220.64 117.191 220.678 116.545 221.156 115.819C221.328 115.558 221.512 115.237 221.547 114.92C221.661 113.863 221.061 113.097 220.453 112.289C217.765 108.724 214.327 105.028 209.442 106.07C207.653 106.452 206.233 107.664 205.56 109.343C205.264 110.081 205.291 111.135 204.228 111.259C203.544 111.339 202.633 110.92 202.039 110.652C200.6 110.001 199.5 108.808 198.756 107.443C198.604 107.163 198.216 107.123 197.994 107.339C196.583 108.713 194.598 108.77 192.849 108.036C191.13 107.315 190.12 105.628 189.584 103.925C188.65 100.96 190.212 97.7184 188.849 94.919C188.27 93.7275 186.888 92.9558 185.72 92.4814C183.937 91.7577 182.1 91.2658 180.411 90.3181C177.088 88.4544 174.515 83.6842 177.784 80.5153C177.982 80.3235 177.958 80.0234 177.784 79.8294C176.591 78.4996 175.456 77.083 174.8 75.4034C174.493 74.6192 174.383 73.7731 174.498 72.9391C174.626 72.011 175.287 71.324 175.568 70.4594C175.806 69.727 175.882 68.993 175.96 68.2306C176.101 66.8467 176.717 65.7471 177.695 64.7824C179.148 63.3488 181.25 62.6104 183.22 62.0333C183.24 62.4077 183.363 62.7782 183.559 63.0958C184.586 64.7589 187.109 64.7059 188.155 66.3548C186.041 68.5202 184.01 71.2278 185.564 74.3196C185.84 74.8673 186.328 75.2608 186.827 75.5909C188.038 76.3938 187.722 77.0398 187.604 78.1569C187.456 79.5528 188.253 80.541 189.407 81.2252C190.729 82.009 192.465 81.8275 193.93 81.898C194.81 81.9407 196.241 82.0751 195.934 83.6333C195.871 83.9563 195.828 84.2099 195.791 84.5362C195.708 85.2489 195.96 85.9676 196.233 86.6093C197.3 89.1092 200.795 89.7311 202.752 87.9122C203.293 87.4094 203.646 86.8902 203.929 86.2048C204.349 85.1872 204.536 83.9574 205.854 83.841C207.597 83.6869 209.646 85.7091 210.241 87.1782C210.688 88.2817 209.419 89.1267 208.884 89.9514C208.594 90.4012 208.518 90.9598 208.471 91.479C208.351 92.7989 209.111 94.1084 209.878 95.1075C211.85 97.6741 215.521 98.7382 218.619 98.4256C220.561 98.2299 222.458 97.514 224.369 98.2906C226.237 99.0498 225.658 101.351 227.276 102.361C227.526 102.517 227.799 102.625 228.087 102.694C227.022 104.106 226.626 106.379 226.214 107.888C225.924 108.948 225.78 109.982 225.886 111.078C225.996 112.215 226.278 113.273 225.951 114.402C225.913 114.534 226.106 114.611 226.172 114.492C227.106 112.825 226.345 110.808 226.706 108.999C226.929 107.882 227.308 106.776 227.66 105.695C227.988 104.688 228.582 103.767 228.972 102.792C231.051 102.788 233.613 101.38 235.121 100.741C236.037 100.354 236.938 99.9352 237.825 99.4908C239.5 99.2181 241.166 98.8672 242.854 98.6699C243.477 98.5967 244.103 98.5387 244.728 98.4928C242.568 100.58 241.324 103.611 240.97 106.551C240.622 109.445 240.497 113.717 242.61 116.016C242.629 116.037 242.663 116.01 242.649 115.987C241.807 114.625 241.789 112.887 241.637 111.342C241.497 109.907 241.53 108.459 241.674 107.027C242.008 103.689 243.526 100.782 245.898 98.4551C245.907 98.4458 245.914 98.4354 245.922 98.4261C246.333 98.4065 246.744 98.3923 247.155 98.3835C245.837 99.7236 244.843 101.343 244.106 103.078C244.084 103.13 244.151 103.17 244.184 103.122C245.367 101.387 246.748 99.8636 248.198 98.3644C248.823 98.3633 249.447 98.3731 250.072 98.395C255 98.5655 259.869 99.6143 264.384 101.602C269.545 103.872 274.306 107.233 278.696 110.732C280.823 112.428 282.859 114.234 284.821 116.118C286.711 117.933 288.395 119.938 290.217 121.811C289.329 122.033 288.406 122.154 287.487 122.211C287.246 122.225 287.181 122.579 287.432 122.64C288.719 122.957 290.005 122.874 291.209 122.506C291.216 122.504 291.223 122.502 291.23 122.499C293.581 121.772 295.612 119.936 296.692 117.719C298.669 113.662 296.627 109.814 294.88 106.134C293.801 103.859 293.05 101.227 294.246 98.8486C295.344 96.6635 297.954 95.6284 300.269 95.6169C302.837 95.6043 305.266 96.9969 307.158 98.618C308.23 99.5362 309.149 100.619 310.026 101.72C310.889 102.8 311.609 104.094 312.667 104.998C312.763 105.08 312.945 105.007 312.898 104.866C312.608 103.99 312.135 103.126 311.57 102.298C311.821 102.32 312.073 102.309 312.315 102.256C312.723 102.167 313.101 102.029 313.497 101.896C314.245 101.645 314.805 102.401 315.307 102.774C316.038 103.318 316.709 103.451 317.606 103.46C318.129 103.466 318.588 103.436 319.098 103.652C320.176 104.109 319.865 106.096 319.144 106.534C318.556 106.892 317.941 107.113 317.64 107.775C317.57 107.93 317.578 108.088 317.565 108.258C317.494 109.173 317.886 109.944 317.078 110.245C317.02 110.235 316.963 110.227 316.908 110.223C316.824 110.216 316.754 110.266 316.711 110.335C316.6 110.352 316.481 110.366 316.342 110.374C315.177 110.435 314.203 109.653 313.032 109.784C312.927 109.796 312.845 109.961 312.972 110.014C313.969 110.43 315.97 111.424 317.328 111.06C317.438 111.119 317.548 111.177 317.657 111.235C318.698 111.63 318.844 112.401 318.096 113.549C317.696 113.6 317.422 113.684 317.125 113.981C316.42 114.686 316.885 115.766 317.286 116.471C317.712 117.22 318.656 119.042 319.774 120.01C316.927 119.4 314.232 118.147 311.532 117.1C311.277 117.001 311.109 117.423 311.352 117.543C313.948 118.822 316.688 119.952 319.493 120.682C320.834 121.031 322.192 121.253 323.575 121.319C325.228 121.4 326.938 120.906 328.561 121.313C330.684 121.845 330.025 125.181 329.874 126.73C329.708 128.442 329.405 130.137 329.035 131.816C328.283 135.216 327.078 138.504 325.545 141.627C324.01 144.754 322.102 148.21 319.196 150.242C317.806 151.214 316.082 151.674 314.404 151.411ZM277.105 131.134C276.249 130.851 275.754 130.714 275.236 129.859C275.058 129.563 274.928 129.238 274.705 128.969C274.17 128.324 273.569 127.926 272.817 127.559C271.277 126.808 267.464 125.632 269.533 123.24C270.518 122.101 271.95 121.635 272.417 120.084C272.709 119.112 272.028 118.177 271.301 117.64C271.097 117.489 270.535 117.226 270.286 117.409C269.318 118.121 268.227 117.473 267.305 117.01C266.302 116.507 265.138 116.234 264.175 116.935C263.452 117.461 263.425 119.12 262.109 118.855C261.674 118.767 261.366 118.461 261.026 118.228C260.917 116.067 259.53 114.07 260.04 111.864C260.74 108.84 264.957 108.326 267.449 108.459C272.706 108.737 279.382 112.503 280.051 118.213C280.229 119.735 279.614 120.945 278.539 121.976C277.739 122.743 276.799 123.452 276.642 124.618C276.516 125.556 277.073 126.579 277.922 126.838C277.885 126.909 277.845 126.977 277.811 127.049C277.163 128.408 277.308 129.838 277.501 131.276C277.371 131.225 277.239 131.177 277.105 131.134ZM169.33 61.2463C168.234 59.6012 166.685 58.0976 167.133 55.9453C167.477 54.2909 168.726 52.9125 169.221 51.2904C170.138 48.2822 167.346 45.7593 166.614 43.0638C166.155 41.3711 167.113 39.6643 167.514 38.0569C167.65 37.5092 167.72 36.8884 167.629 36.3309C167.578 36.0144 166.719 33.7506 166.634 33.2527C166.646 33.297 166.695 33.3325 166.74 33.3303C166.882 33.3238 166.958 33.2926 167.036 33.2041C168.071 33.3336 169.221 33.0554 170.08 32.6362C170.3 32.5291 170.2 32.1662 169.959 32.1777C168.714 32.2373 167.514 32.6237 166.342 31.9924C164.44 30.9665 166.422 29.4198 167.074 28.3601C168.226 26.4898 165.891 24.4096 167.599 22.5935C168.872 21.2396 170.938 20.8625 171.77 19.0639C172.085 18.3818 171.972 17.6363 171.772 16.9433C171.352 15.484 170.872 14.4838 171.352 12.9168C172.309 9.79169 175.547 9.48618 178.137 8.61443C180.214 7.9154 179.59 5.25373 179.229 3.701C178.345 -0.104608 182.971 -0.423791 185.438 -1.44311C186.743 -1.98255 187.888 -3.19314 188.018 -4.59011C188.436 -3.34672 189.151 -2.06617 189.436 -1.27422C189.527 -1.02064 189.973 -0.942483 190.022 -1.27422C190.183 -2.35093 189.632 -3.22703 189.124 -4.14631C188.481 -5.311 188.306 -7.0053 190.084 -7.22119C191.137 -7.34908 192.225 -7.34142 193.284 -7.39826C196.673 -7.58082 200.506 -7.2906 203.746 -8.43562C204.825 -8.8171 205.674 -9.51612 206.221 -10.5141C206.519 -11.0579 206.561 -11.7313 206.673 -12.3292C206.952 -13.8076 208.609 -14.1618 209.853 -14.2077C210.883 -14.2449 212.67 -13.6333 213.518 -14.481C213.951 -14.9144 213.963 -15.5812 214.369 -16.0506C215.255 -17.0743 216.913 -16.4288 218.013 -15.9452C218.036 -15.1729 218.447 -14.364 219.036 -13.9421C219.297 -13.7551 219.664 -14.1284 219.484 -14.3886C219.179 -14.8291 218.81 -15.2773 218.814 -15.8074C218.995 -15.9271 219.081 -16.1725 218.954 -16.3562C219.012 -16.472 219.091 -16.5917 219.192 -16.7158C219.673 -17.3028 220.995 -16.783 221.588 -16.6229C222.795 -16.2977 223.996 -15.949 225.203 -15.62C225.505 -15.5369 225.758 -15.7752 225.78 -16.0654C226.064 -19.9027 230.149 -15.6495 231.787 -16.0769C232.7 -16.3157 232.52 -17.2787 232.995 -17.8925C233.665 -18.7582 235.016 -18.1936 235.617 -17.6274C236.306 -16.9781 236.485 -15.8872 236.674 -15.0067C236.695 -14.9073 236.755 -14.8242 236.834 -14.7635C236.48 -14.5116 236.144 -14.1235 236.019 -13.7409C235.73 -12.8534 236.223 -11.3154 235.354 -10.7021C234.215 -9.89872 232.756 -11.1487 231.899 -11.7991C231.168 -12.3549 230.401 -12.8058 229.561 -13.1775C228.072 -13.8355 226.458 -13.9896 224.868 -13.7016C223.493 -13.4524 222.046 -12.5866 221.23 -11.4465C221.027 -11.1623 220.86 -10.8672 220.707 -10.565C220.524 -10.976 220.363 -11.4881 220.014 -11.7613C219.996 -11.7756 219.968 -11.7723 219.962 -11.7471C219.851 -11.3181 220.072 -10.8421 220.227 -10.4447C220.29 -10.2851 220.353 -10.1212 220.424 -9.95994C220.334 -9.74952 220.247 -9.53636 220.162 -9.31884C219.868 -8.56953 219.592 -7.95301 218.892 -7.47314C218.268 -7.04574 217.367 -7.31465 216.714 -7.49282C214.137 -8.19569 211.837 -8.78704 209.403 -7.23814C207.125 -5.78814 207.28 -2.898 206.571 -0.606348C205.984 1.29181 204.238 1.28252 202.587 1.53066C201.736 1.658 200.433 2.32697 200.282 3.29217C200.079 4.59022 201.195 5.674 200.648 6.93818C200.008 8.41877 198.145 8.98279 196.71 9.44736C196.621 9.14676 196.436 8.87186 196.27 8.60569C196.007 8.18595 195.705 7.75254 195.306 7.45576C195.251 7.41477 195.14 7.41477 195.085 7.45576C195.075 7.46342 195.065 7.47106 195.055 7.4787C194.782 7.69295 195.653 8.99865 196.166 9.631C194.96 10.0535 193.842 10.6142 193.047 11.6522C192.343 12.5698 192.326 13.8219 192.24 14.9227C192.154 16.0289 191.874 16.7809 190.912 17.4188C190.448 17.7264 189.885 17.9997 189.566 18.4818C189.055 19.2535 188.963 20.2045 189.361 21.0588C190.524 23.5543 193.317 23.4575 195.683 23.2641C196.699 23.181 197.767 23.1373 198.707 23.422C198.916 23.6603 199.073 23.9587 199.187 24.2927C199.576 25.4311 198.799 26.4537 197.932 27.0899C196.643 28.0343 194.955 27.8632 193.509 28.3644C192.721 28.6383 192.127 29.2799 191.846 30.0554C191.782 30.2309 191.724 30.3992 191.666 30.5615C191.048 30.6085 190.371 30.8419 189.822 30.9348C188.571 31.1463 187.179 31.2808 185.921 31.1004C185.881 31.095 185.865 31.1545 185.905 31.1611C187.048 31.3486 188.127 31.5836 189.292 31.5967C189.825 31.6022 190.584 31.6169 191.259 31.4923C191.004 31.9241 190.644 32.2733 190.009 32.5247C189.317 32.7975 188.523 32.863 187.798 33.0024C185.199 33.5025 182.433 34.5956 180.345 36.2423C178.596 37.6213 179.938 41.3154 180.642 42.9009C180.898 43.4786 181.18 44.0328 181.491 44.5832C182.15 45.7495 182.112 46.6655 181.552 47.8608C181.025 48.9856 180.708 50.0552 180.704 51.3057C180.696 53.7788 182.255 55.36 183.789 57.0701C184.233 57.5664 184.61 58.1282 184.672 58.8076C184.745 59.5891 183.834 60.3784 183.456 61.0145C181.274 61.6289 179.162 62.4137 177.351 63.82C175.281 65.4268 175.279 67.4742 174.768 69.8085C174.626 70.4588 174.27 71.03 173.97 71.6279C172.772 68.0163 171.452 64.4315 169.33 61.2463ZM293.635 105.961C293.278 107.07 292.593 107.86 291.457 108.224C290.522 108.523 289.554 108.006 288.623 107.967C286.741 107.89 285.943 109.238 285.096 110.715C284.346 112.02 282.314 113.03 282.323 110.541C282.326 109.663 282.12 108.813 281.815 107.995C281.287 106.581 280.258 105.428 279.015 104.604C280.693 101.807 278.999 98.2851 275.688 97.8506C273.571 97.573 271.709 99.5903 269.624 98.6595C268.641 98.2212 267.923 97.0756 267.24 96.2902C266.507 95.448 265.629 94.872 264.612 94.4287C260.82 92.7798 255.945 93.2591 251.981 93.886C249.669 94.2522 247.401 94.8348 245.168 95.5327C244.748 95.6639 244.319 95.7962 243.886 95.9339C244.295 95.659 244.702 95.3786 245.105 95.0939C248.015 93.0383 250.844 90.8395 254.224 89.6022C257.132 88.5386 260.276 88.2773 263.342 88.5708C265.618 88.7884 267.847 89.4202 269.929 90.364C269.965 90.405 270 90.4466 270.035 90.4876C270.166 90.6384 270.322 90.6652 270.458 90.6198C270.969 90.8674 271.473 91.127 271.963 91.4107C273.341 92.2075 274.589 93.2017 275.73 94.3079C276.537 95.0906 277.547 96.4274 278.832 96.3575C280.205 96.2826 281.14 95.3901 282.311 94.7752C283.639 94.0773 285.236 93.9838 286.693 94.2008C289.485 94.6162 292.015 96.5105 292.964 99.1853C292.059 101.465 292.678 103.743 293.635 105.961ZM248.654 97.5413C248.552 97.3981 248.336 97.327 248.155 97.4735C248.13 97.4943 248.105 97.5161 248.079 97.5369C245.515 97.5293 242.824 97.6998 240.269 98.184C240.57 98.0119 240.868 97.8342 241.166 97.6566C242.266 97.2784 243.346 96.8209 244.44 96.4531C246.365 95.806 248.326 95.2759 250.315 94.8577C254.286 94.0232 258.586 93.7658 262.582 94.5823C264.77 95.0294 266.135 96.258 267.512 97.9173C268.531 99.1443 269.72 99.9466 271.356 99.745C273.095 99.5302 274.404 98.3994 276.241 98.8289C278.847 99.4373 279.442 102.558 278.028 104.52C277.888 104.715 278.005 105.005 278.193 105.116C279.374 105.811 280.206 106.73 280.84 107.942C281.49 109.184 281.32 110.481 281.557 111.8C281.561 111.823 281.569 111.842 281.574 111.865C280.692 111.134 279.807 110.424 278.931 109.733C274.451 106.198 269.572 102.931 264.331 100.639C259.983 98.7371 255.249 97.8036 250.522 97.5948C249.911 97.5675 249.287 97.5495 248.654 97.5413ZM291.146 121.532C288.827 118.388 285.891 115.537 282.846 112.935C283.542 112.998 284.346 112.724 284.827 112.328C285.626 111.668 286.029 110.744 286.569 109.878C287.622 108.193 289.276 109.048 290.81 109.147C292.26 109.24 293.536 108.236 294.088 106.963C294.836 108.559 295.665 110.118 296.12 111.62C296.926 114.277 296.235 117.149 294.491 119.27C293.581 120.377 292.419 121.084 291.146 121.532ZM242.116 -14.839C244.147 -14.8329 245.59 -13.9437 246.58 -12.1789C246.795 -11.7947 246.981 -11.399 247.157 -11.0006C247.016 -10.8235 247.036 -10.5256 247.316 -10.4748C247.341 -10.4704 247.364 -10.4699 247.39 -10.466C247.765 -9.58883 248.134 -8.71162 248.701 -7.91421C249.281 -7.09932 250.033 -6.55276 250.955 -6.1986C252.322 -5.67282 253.849 -6.62492 255.069 -5.56134C256.712 -4.12939 255.272 -1.82077 253.972 -0.835354C252.864 0.00360449 251.446 0.245182 250.472 1.27596C250.334 1.42189 250.23 1.56563 250.14 1.70882C249.974 1.75309 249.837 1.887 249.841 2.11547C249.844 2.23406 249.856 2.351 249.861 2.46906C249.845 2.61991 249.856 2.76638 249.884 2.90958C250.065 5.53955 250.851 8.06787 251.681 10.564C252.796 13.9159 253.868 17.2805 254.866 20.6696C255.875 24.0959 256.796 27.5468 257.652 31.0141C258.08 32.7472 258.487 34.4852 258.911 36.2194C259.334 37.9552 259.953 39.6326 260.304 41.3842C260.309 41.4066 260.343 41.3974 260.339 41.3749C259.693 38.0268 259.322 34.6705 258.538 31.3354C257.762 28.0327 256.906 24.749 255.992 21.4823C255.077 18.2145 254.08 14.9724 253.018 11.75C252.215 9.31018 251.38 6.89827 250.966 4.38253C251.372 4.68039 251.839 4.91977 252.284 5.07936C254.408 5.83742 256.821 5.47617 259.027 5.67948C262.753 6.02271 264.348 9.03693 265.012 12.3922C265.05 12.5824 265.261 12.7469 265.455 12.7338C268.127 12.5501 269.872 14.8467 271.168 16.8722C272.626 19.1502 274.098 21.7064 274.21 24.4675C274.242 25.2688 273.857 26.2591 274.494 26.9341C275.224 27.7075 276.077 28.1742 277.099 28.4541C278.071 28.7202 279.113 28.5956 280.054 28.2874C281.079 27.9518 281.997 27.1571 283.08 27.1598C284.113 28.0381 284.526 29.6138 285.678 30.4074C287.333 31.5486 289.47 31.7929 291.217 32.8281C293.069 33.9255 294.372 35.7029 294.794 37.8082C294.918 38.428 294.862 39.0789 294.745 39.6921C294.533 40.7934 293.965 40.9016 292.952 41.0508C292.373 41.1361 291.77 41.3657 291.479 41.9275C290.865 43.1141 291.085 44.2104 291.595 45.3893C292.066 46.4808 292.582 47.4148 292.365 48.6402C292.188 49.642 291.489 50.5498 290.873 51.3226C288.527 54.262 286.21 57.1051 284.972 60.7418C284.494 62.147 285.496 63.5521 285.566 64.948C285.646 66.5767 284.963 68.224 284.485 69.7505C283.58 72.6439 283.442 75.5603 285.883 77.7416C288.432 80.0185 291.908 78.751 294.816 78.146C296.833 77.7263 299.744 77.9689 300.544 80.23C300.84 81.0668 300.631 82.1172 300.709 82.9911C300.774 83.7252 301.095 84.2903 301.536 84.8549C303.021 86.7585 306.282 86.2267 308.212 87.4586C309.918 88.5473 308.744 89.8678 308.549 91.3435C308.436 92.1977 308.754 93.0312 309.224 93.7264C309.728 94.4719 310.522 94.8271 311.36 95.0496C312.629 95.3868 315.282 95.477 313.965 97.4997C313.301 98.5212 311.78 100.153 312.665 101.316C312.396 101.411 312.125 101.499 311.839 101.525C311.52 101.553 311.208 101.49 310.903 101.384C310.152 100.417 309.317 99.5138 308.555 98.718C307.008 97.1024 305.105 95.8721 302.996 95.1359C299.557 93.9346 295.362 95.0452 293.46 98.1873C291.33 93.6154 285.201 91.7621 280.9 94.5664C279.616 95.4032 278.538 95.7196 277.282 94.5943C276.656 94.0336 276.101 93.3963 275.473 92.8361C274.227 91.7255 272.814 90.8089 271.342 90.0312C271.067 89.8858 270.788 89.7492 270.507 89.6175C260.801 77.5169 250.251 66.0723 240.931 53.6635C236.746 48.092 232.935 42.2145 230.008 35.8783C228.541 32.7029 227.361 29.3974 226.467 26.0165C225.978 24.1675 225.133 21.6239 226.975 20.2581C228.248 19.3136 230.281 19.7683 231.734 19.8951C231.825 19.9028 231.823 19.7787 231.753 19.7503C229.528 18.8551 226.397 18.614 225.271 21.2069C224.721 22.4721 225.109 24.0183 225.401 25.2923C225.832 27.1779 226.391 29.0328 227.016 30.8621C229.485 38.0891 233.429 44.7362 237.808 50.9548C242.347 57.403 247.463 63.4243 252.505 69.4783C257.877 75.9281 263.157 82.4719 268.623 88.8446C266.534 88.1074 264.329 87.6947 262.121 87.5641C258.914 87.3744 255.701 87.9789 252.742 89.2032C248.83 90.8226 245.587 93.7477 242.046 96.0033C238.404 98.3228 234.27 100.464 230.075 101.555C228.758 101.898 227.341 101.775 226.939 100.249C226.773 99.6193 226.66 98.9885 226.208 98.4835C225.156 97.3101 223.694 96.9253 222.158 96.9538C220.674 96.9811 219.227 97.4484 217.745 97.5309C216.1 97.6227 214.469 97.1494 213.021 96.4023C211.665 95.7033 210.547 94.638 209.847 93.2864C209.471 92.5617 209.354 91.7331 209.517 90.9379C209.701 90.0405 210.654 89.4262 211.109 88.6517C212.147 86.8869 209.836 84.7772 208.615 83.8776C206.918 82.6261 204.668 82.3932 203.554 84.4439C203.205 85.0871 203.087 85.8337 202.734 86.4814C202.303 87.2706 201.426 87.7095 200.601 87.9363C198.632 88.479 196.948 86.7514 196.756 84.9139C196.659 83.9831 197.445 82.6867 196.593 81.8795C195.614 80.9525 194.294 80.9312 193.011 80.8968C191.358 80.8525 188.66 80.7279 188.535 78.4974C188.486 77.6088 189.35 76.3337 188.506 75.5423C187.982 75.0515 187.327 74.8301 186.79 74.3535C186.084 73.725 185.953 72.6483 185.967 71.7706C186 69.7576 187.776 68.0989 189.091 66.7795C189.252 66.6172 189.26 66.398 189.169 66.2002C188.274 64.2386 185.911 64.079 184.478 62.7099C184.167 62.412 184.128 62.0808 184.225 61.7332C184.418 61.631 184.477 61.425 184.437 61.2408C184.837 60.5281 185.557 59.7815 185.609 59.1284C185.683 58.1894 185.299 57.386 184.704 56.6728C183.813 55.6054 182.775 54.7347 182.152 53.4662C181.336 51.8085 181.626 49.9344 182.384 48.3336C182.912 47.2164 183.188 46.2649 182.785 45.0609C182.285 43.5737 181.336 42.3041 180.9 40.7595C180.655 39.8938 180.538 38.9937 180.497 38.0979C180.441 36.8561 181.942 36.2648 182.816 35.7876C184.296 34.9782 185.896 34.4251 187.53 34.025C188.01 33.9687 188.49 33.8834 188.969 33.8403C190.154 33.7337 191.35 33.7703 192.534 33.8665C195.182 34.0829 197.586 35.0766 200.087 35.8822C202.512 36.6632 205.078 36.7572 207.603 36.8282C210.656 36.914 213.938 37.2977 216.971 36.9195C217.176 36.8944 217.263 36.5752 217.021 36.5293C214.171 35.9866 211.051 36.144 208.154 36.0407C205.137 35.933 202.244 35.7515 199.366 34.7694C196.954 33.9468 194.645 33.2221 192.089 33.0276C191.817 33.0068 191.518 32.986 191.205 32.9685C191.217 32.9603 191.228 32.9532 191.239 32.945C191.898 32.4395 192.153 31.6929 192.438 30.978C192.448 30.9687 192.46 30.9605 192.469 30.9507C192.517 30.9015 192.529 30.8392 192.519 30.7813C192.744 30.2435 193.009 29.7384 193.51 29.3892C194.627 28.6104 196.341 28.9192 197.573 28.3289C198.598 27.8381 199.688 27.0642 200.031 25.9093C200.197 25.3491 200.213 24.7676 200.096 24.2276C200.224 24.3533 200.348 24.4894 200.462 24.6457C201.566 26.1564 201.364 28.3972 200.005 29.6428C199.786 29.8428 200.105 30.15 200.327 29.9642C202.36 28.2568 202.332 25.095 200.401 23.3269C200.023 22.9809 199.603 22.7503 199.155 22.5973C198.752 22.2497 198.238 22.019 197.63 21.9666C197.359 21.9436 197.215 22.1267 197.195 22.3344C194.748 22.3606 192.029 23.2367 190.476 21.1954C188.903 19.1289 191.87 18.3462 192.724 16.8799C193.616 15.3462 192.847 13.4377 193.987 11.9527C195.135 10.4579 197.565 10.3049 199.179 9.51459C200.361 8.93581 201.376 7.95475 201.74 6.6731C201.89 6.1435 201.762 5.57291 201.593 5.06954C201.401 4.50004 200.979 4.05024 201.291 3.33317C201.532 2.7828 202.313 2.57346 202.828 2.44994C204.261 2.10671 205.797 2.33791 206.786 0.991766C207.649 -0.182215 207.81 -1.63877 208.075 -3.03356C208.502 -5.29188 209.663 -6.75826 211.971 -7.24853C214.897 -7.86939 218.264 -4.67483 220.458 -7.72947C220.735 -8.11424 220.927 -8.57389 221.103 -9.03901C221.176 -9.02589 221.259 -9.06304 221.249 -9.15322C221.242 -9.21772 221.231 -9.28059 221.218 -9.34289C221.333 -9.65168 221.447 -9.9561 221.581 -10.2359C222.06 -11.2449 222.99 -11.9166 223.957 -12.403C226.136 -13.4983 228.727 -12.7173 230.663 -11.5154C232.362 -10.4606 234.592 -8.33232 236.449 -10.4207C237.033 -11.0776 236.805 -12.0833 236.784 -12.8665C236.73 -14.9739 240.802 -14.8433 242.116 -14.839ZM251.395 1.65908C252.039 0.978092 253.255 0.689502 254.06 0.224399C254.738 -0.168561 255.315 -0.712384 255.807 -1.31576C255.857 -1.37588 255.904 -1.4382 255.949 -1.5005C255.969 -0.926632 255.992 -0.352749 256.017 0.220584C256.079 1.61974 255.898 3.29708 256.363 4.6323C256.256 4.6312 256.149 4.63011 256.042 4.62847C254.877 4.60717 249.061 4.12728 251.395 1.65908ZM250.358 -12.7009C251.778 -15.0209 253.839 -13.125 255.652 -12.5385C257.365 -11.9838 258.514 -13.1485 259.532 -14.3678C261.226 -16.3977 263.682 -15.9337 265.874 -15.1445C263.079 -13.7158 261.928 -10.5415 261.61 -7.46714C261.397 -5.40393 261.466 -3.28552 261.489 -1.21466C261.506 0.331531 261.475 2.13021 261.887 3.70208C261.266 3.38835 260.67 3.02983 260.117 2.57019C259.31 1.89957 258.601 1.04641 257.52 0.890628C257.496 0.886814 257.468 0.911411 257.485 0.936008C258.709 2.72376 260.405 3.85018 262.257 4.76401C262.263 4.77603 262.267 4.78916 262.273 4.80118C262.332 4.92963 262.453 4.9504 262.558 4.9094C263.114 5.17502 263.682 5.42479 264.254 5.66909C266.403 6.58565 269.416 8.51714 271.846 7.8804C272.101 7.81319 272.124 7.40274 271.846 7.34973C269.13 6.82941 266.724 5.76747 264.175 4.70664C263.697 4.50769 263.223 4.31476 262.757 4.11035C262.76 3.32332 262.683 2.521 262.603 1.72139C263.296 1.89466 264.237 1.7378 264.761 1.64106C266.511 1.31694 267.571 -0.217755 268.946 -1.17912C271.216 -2.76739 273.586 0.897204 274.803 2.37671C275.973 3.80046 276.911 5.41275 277.999 6.89334C276.792 6.87258 275.486 7.13056 274.692 7.17209C274.645 7.17482 274.646 7.23824 274.692 7.2437C275.355 7.32021 277.404 7.38471 278.752 7.85857C278.775 7.88588 278.796 7.91429 278.819 7.94162C278.936 8.07935 279.074 8.09302 279.19 8.04054C279.863 8.37393 280.216 8.86255 279.84 9.58892C279.384 10.4699 278.308 10.999 278.406 12.0522C276.8 12.0407 275.223 12.3435 273.607 12.5605C273.566 12.566 273.576 12.6321 273.616 12.6304C274.665 12.5982 275.734 12.7655 276.786 12.8168C277.508 12.8518 281.111 12.6523 280.762 14.2012C280.568 15.0653 279.487 15.6917 278.931 16.3207C278.293 17.0422 278.376 18.0336 277.898 18.842C277.471 19.5656 277.059 20.1925 276.786 20.9948C276.4 22.1289 276.275 23.2777 275.712 24.3571C275.442 24.8747 275.169 25.4142 275.055 25.9514C274.967 25.4951 275.021 24.9879 275.036 24.4675C275.074 23.1619 274.667 21.8605 274.193 20.663C272.864 17.3045 270.034 11.8522 265.826 11.8101C265.141 8.61663 263.625 5.75109 260.22 4.93071C259.149 4.67275 258.023 4.64978 256.915 4.63884C257.34 2.96096 256.887 0.813037 256.787 -0.898205C256.744 -1.64532 256.812 -2.5925 256.656 -3.43034C256.699 -3.98564 256.626 -4.55404 256.438 -5.10606C256.103 -6.08984 255.176 -6.90257 254.131 -7.00586C253.371 -7.08128 252.62 -6.97961 251.859 -6.98562C250.395 -6.9971 249.45 -8.35255 248.817 -9.48881C248.626 -9.83259 248.457 -10.1824 248.297 -10.5338C249.227 -10.8388 249.828 -11.834 250.358 -12.7009ZM326.996 140.799C328.499 137.567 329.567 134.142 330.263 130.65C330.584 129.041 330.789 127.408 330.931 125.774C331.048 124.432 331.272 122.562 330.319 121.436C329.459 120.422 328.351 120.192 327.062 120.209C325.336 120.231 323.703 120.465 321.971 120.334C322.051 120.201 322 120.009 321.827 119.962C320.187 119.522 319.49 118.264 318.606 116.904C318.39 116.571 316.977 114.661 318.208 114.418C318.683 114.325 318.953 114.225 319.304 113.879C320.515 112.688 319.357 111.286 318.1 110.615C318.209 110.501 318.308 110.368 318.392 110.21C318.612 109.793 318.696 109.486 318.654 109.014C318.577 108.143 318.406 107.89 319.267 107.418C319.904 107.071 320.772 106.557 320.725 105.697C320.674 104.768 320.466 103.916 319.875 103.189C319.299 102.482 318.019 102.631 317.241 102.627C315.824 102.619 315.188 101.04 313.811 101.04C313.718 101.04 313.627 101.048 313.537 101.062C312.46 100.172 314.971 97.9217 315.284 96.9576C315.621 95.9191 314.779 94.914 313.845 94.6134C312.073 94.0423 309.807 94.2177 309.507 91.825C309.395 90.9341 310.075 90.1443 310.197 89.2797C310.275 88.7255 310.083 88.209 309.822 87.7324C307.999 84.4067 301.745 86.7262 301.642 82.1697C301.609 80.7082 301.595 79.5572 300.569 78.422C299.554 77.3 297.795 77.0283 296.372 76.9955C292.565 76.9075 288.325 79.9682 285.511 75.8407C283.539 72.9484 286.021 69.1171 286.468 66.1215C286.673 64.7474 286.367 63.597 285.942 62.3038C285.561 61.1441 286.311 60.0171 286.797 59.0098C287.344 57.8763 287.93 56.7679 288.587 55.6939C290.156 53.1306 293.419 50.9947 293.352 47.6974C293.327 46.4436 292.495 45.3188 292.092 44.176C291.636 42.884 292.304 42.0849 293.576 41.9095C294.124 41.834 294.466 41.6526 294.892 41.3044C296.608 39.9058 295.594 36.6539 294.741 35.1143C293.438 32.7608 290.866 31.4081 288.399 30.6211C287.484 30.3293 286.625 30.1259 285.881 29.4673C285.288 28.9427 284.883 28.1622 284.413 27.5277C283.837 26.751 283.175 26.3094 282.22 26.2351C281.971 26.2159 281.944 26.5843 282.166 26.6521C282.196 26.6608 282.223 26.6745 282.252 26.6843C280.844 26.8789 279.466 27.8791 277.99 27.825C277.315 27.8004 276.671 27.5419 276.087 27.22C275.411 26.0072 276.548 24.9769 276.93 23.8849C277.322 22.7662 277.497 21.5845 277.954 20.4881C278.342 19.5557 279.035 18.9453 279.222 17.9183C279.446 16.688 280.605 16.0846 281.287 15.1276C281.985 14.1482 281.779 12.5425 280.432 12.2594C279.998 12.1675 279.567 12.1101 279.139 12.0795C279.905 10.7755 281.451 9.67035 280.609 8.05805C280.322 7.50931 279.819 7.20215 279.214 7.04256C278.305 5.12418 276.766 3.35556 275.452 1.7274C274.375 0.392733 272.899 -1.84865 271.127 -2.33561C269.467 -2.79252 268.299 -1.9268 267.13 -0.832608C266.142 0.0905027 265.217 0.772586 263.835 0.922336C263.388 0.970431 262.939 0.8185 262.516 0.802646C262.486 0.457782 262.46 0.114001 262.447 -0.225964C262.378 -2.01152 262.406 -3.80528 262.439 -5.5914C262.504 -9.13574 263.318 -13.5343 267.229 -14.7116C267.701 -14.8537 267.638 -15.4303 267.229 -15.5954C265.27 -16.3846 263.341 -17.0448 261.226 -16.5502C259.08 -16.049 258.199 -12.8353 255.876 -13.3944C254.44 -13.7398 253.317 -14.8428 251.765 -14.74C249.734 -14.6061 249.586 -11.8963 247.975 -11.2607C247.495 -12.3658 247.017 -13.4529 246.14 -14.3733C245.007 -15.5631 243.215 -15.779 241.667 -15.785C240.303 -15.7905 238.849 -15.6724 237.575 -15.1466C237.575 -15.1773 237.572 -15.209 237.567 -15.2407C237.349 -16.6688 236.717 -18.6478 235.126 -19.0993C233.853 -19.46 232.46 -19.1834 231.886 -17.881C231.328 -16.6136 230.333 -17.4684 229.473 -17.9455C228.831 -18.3019 228.181 -18.5188 227.454 -18.6008C226.182 -18.744 225.247 -17.7548 224.953 -16.6349C223.73 -16.9497 222.505 -17.2552 221.284 -17.5777C220.43 -17.8029 219.782 -17.981 218.965 -17.5881C218.581 -17.4039 218.326 -17.1301 218.177 -16.8114C217.036 -17.3656 215.885 -17.6963 214.591 -17.2733C214.153 -17.1295 213.587 -16.7464 213.359 -16.3234C213.193 -16.0151 213.123 -15.8582 213.016 -15.532C212.769 -14.7821 211.315 -15.1046 210.787 -15.1396C209.166 -15.2472 207.629 -15.0565 206.419 -13.8885C205.943 -13.4289 205.778 -12.7626 205.661 -12.1407C205.366 -10.5721 204.582 -9.74787 203.08 -9.21662C201.089 -8.51213 198.743 -8.6526 196.661 -8.54055C194.351 -8.41538 191.996 -8.41265 189.699 -8.13337C187.994 -7.92623 187.587 -6.9665 187.729 -5.7936C187.501 -5.87997 187.19 -5.7548 187.208 -5.45638C187.423 -1.93061 182.937 -1.85301 180.612 -0.766473C178.429 0.253928 177.915 2.18432 178.423 4.37487C178.613 5.19742 178.775 5.94018 178.611 6.79279C178.386 7.96241 176.624 7.99247 175.766 8.20397C174.635 8.48272 173.445 9.01723 172.546 9.76327C170.765 11.24 169.781 13.3776 170.309 15.6878C170.632 17.1039 171.565 18.2129 170.312 19.5038C169.546 20.293 168.428 20.7625 167.542 21.4042C165.77 22.6875 165.802 24.2582 166.252 26.2165C166.457 27.1085 166.437 27.7496 165.807 28.4918C165.375 28.9995 164.968 29.3597 164.679 29.9729C164.37 30.6288 164.623 31.3781 164.971 31.9536C165.262 32.434 165.665 32.7543 166.125 32.9571C165.624 33.7107 166.336 35.0602 166.598 35.7958C167.269 37.6787 165.844 39.7353 165.605 41.5897C165.153 45.0947 169.087 47.5438 168.301 51.0494C167.929 52.7054 166.679 54.0652 166.19 55.6977C165.69 57.3674 166.493 58.9316 167.422 60.268C168.65 62.0349 169.784 63.7593 170.7 65.7165C171.765 67.9912 172.54 70.3949 173.343 72.7702C173.379 72.874 173.438 72.9511 173.509 73.0052C173.408 73.7764 173.544 74.5722 173.75 75.3127C174.258 77.1453 175.53 78.7467 176.784 80.1628C174.741 82.4982 174.96 86.1573 176.886 88.5446C178.185 90.1547 179.911 91.3156 181.828 92.0786C184.115 92.9891 187.389 93.4384 188.305 96.0864C188.65 97.0838 188.419 98.2933 188.31 99.3154C188.201 100.33 188.199 101.332 188.298 102.347C188.46 103.996 189.028 105.753 190.095 107.047C192.062 109.432 195.692 110.361 198.212 108.425C198.96 109.61 199.942 110.55 201.164 111.285C202.19 111.901 204.006 112.652 205.166 111.993C206.447 111.265 206.382 109.313 207.333 108.268C208.683 106.784 211.061 106.607 212.886 107.042C215.012 107.55 216.715 109.275 218.102 110.861C218.828 111.691 219.494 112.579 220.142 113.47C220.97 114.608 220.112 115.374 219.781 116.472C219.374 117.826 220.187 119.897 220.623 121.147C221.148 122.656 222.106 123.909 223.537 124.632C224.477 125.107 225.805 125.267 226.778 124.792C228.341 124.027 228.791 122.442 229.445 120.954C230.377 118.835 232.855 118.061 234.988 117.813C237.373 117.537 239.359 118.499 240.932 120.249C243.364 122.953 244.649 127.331 248.714 128.038C249.961 128.255 251.271 127.907 252.289 127.183C253.392 126.397 253.623 125.132 253.678 123.869C253.727 122.735 253.516 120.256 255.465 121.06C256.29 121.4 256.995 122.14 257.932 122.186C259.676 122.271 260.776 120.729 260.993 119.124C261.286 119.347 261.623 119.511 261.918 119.585C263.114 119.883 263.752 119.252 264.265 118.215C265.325 116.074 267.647 118.531 269.206 118.549C269.662 118.554 270.53 118.151 270.907 118.332C272.636 119.164 271.098 120.926 270.215 121.598C269.368 122.243 268.202 122.999 268.114 124.182C268.027 125.371 268.673 126.372 269.653 127.024C271.38 128.173 273.405 128.294 274.48 130.288C274.826 130.931 275.265 131.33 275.919 131.652C276.417 131.897 277.112 131.999 277.633 132.28C277.744 133.193 277.807 134.103 277.628 134.993C277.304 136.605 275.594 137.57 274.816 138.961C274.339 139.813 274.371 141.098 274.801 141.96C275.482 143.328 276.987 144.161 278.395 143.951C278.339 144.051 278.302 144.171 278.291 144.32C278.289 144.353 278.334 144.354 278.344 144.327C278.612 143.59 282.403 145.389 282.875 145.57C283.077 145.647 283.267 145.478 283.33 145.304C284.391 142.383 290.625 145.198 292.646 145.679C294.595 146.143 296.866 145.777 297.808 143.818C298.617 142.137 297.239 140.137 296.893 138.519C296.788 138.026 296.823 137.564 296.955 137.137C298.617 137.184 299.943 138.308 301.109 139.437C302.724 141.004 304.232 142.683 305.667 144.416C307.9 147.112 309.783 150.638 313.176 152.026C319.941 154.793 324.774 145.573 326.996 140.799Z" fill="#2D2D2D"/>
<path d="M253.097 99.9534C253.224 99.8212 253.101 99.5566 252.909 99.625C251.074 100.275 249.866 102.132 249.117 103.831C249.093 103.886 249.164 103.927 249.199 103.877C250.296 102.302 251.795 101.309 253.097 99.9534Z" fill="#2D2D2D"/>
<path d="M226.786 102.459C226.106 103.33 225.577 104.308 224.915 105.189C224.894 105.218 224.94 105.251 224.964 105.226C225.764 104.417 226.497 103.614 226.924 102.539C226.954 102.464 226.836 102.396 226.786 102.459Z" fill="#2D2D2D"/>
<path d="M192.593 3.56395C192.293 3.02724 191.894 2.55557 191.55 2.04674C191.204 1.53408 190.945 0.973321 190.615 0.452463C190.558 0.362283 190.42 0.417484 190.443 0.522421C190.699 1.68547 191.454 3.02342 192.425 3.73119C192.528 3.80607 192.648 3.66233 192.593 3.56395Z" fill="#2D2D2D"/>
<path d="M181.327 31.0075C179.838 30.8921 178.331 31.1304 176.847 31.2512C175.55 31.3567 174.011 31.1993 172.84 31.8311C172.824 31.8398 172.82 31.8699 172.84 31.8776C174.064 32.3908 175.558 32.0617 176.847 31.965C178.354 31.8519 179.919 31.7901 181.37 31.3365C181.556 31.278 181.515 31.0222 181.327 31.0075Z" fill="#2D2D2D"/>
<path d="M75.7789 111.66V113.622H52.9503V111.66H57.5986V37.079H52.9503V35.1163H90.757V64.9692H89.3109L88.4845 59.7011C84.9724 39.0416 81.7702 37.079 74.5394 37.079H71.0273V72.6132C75.6757 72.6132 78.9812 67.5516 80.0141 55.0527L80.1174 53.8131H81.5636V93.9957H80.1174L80.0141 91.8265C79.3943 79.4308 75.5724 74.266 71.0273 74.266V111.66H75.7789ZM122.046 85.4221C122.046 107.941 115.332 114.758 107.068 114.758C98.7012 114.758 92.0902 107.941 92.0902 85.4221C92.0902 62.9033 98.7012 56.0857 107.068 56.0857C115.332 56.0857 122.046 62.9033 122.046 85.4221ZM110.684 108.767V62.0769C110.684 59.2879 109.444 57.7384 107.068 57.7384C104.589 57.7384 103.453 59.2879 103.453 62.0769V108.767C103.453 111.66 104.589 113.106 107.068 113.106C109.444 113.106 110.684 111.66 110.684 108.767ZM157.656 85.4221C157.656 107.941 150.941 114.758 142.678 114.758C134.311 114.758 127.699 107.941 127.699 85.4221C127.699 62.9033 134.311 56.0857 142.678 56.0857C150.941 56.0857 157.656 62.9033 157.656 85.4221ZM146.293 108.767V62.0769C146.293 59.2879 145.053 57.7384 142.678 57.7384C140.198 57.7384 139.062 59.2879 139.062 62.0769V108.767C139.062 111.66 140.198 113.106 142.678 113.106C145.053 113.106 146.293 111.66 146.293 108.767ZM192.129 35.1163V111.66H195.228V113.622H181.283V109.18C179.526 113.002 177.461 114.345 174.878 114.345C168.68 114.345 163.309 108.044 163.309 84.8023C163.309 60.734 168.887 56.0857 174.362 56.0857C176.531 56.0857 178.39 56.8087 180.663 60.0109V37.079H176.634V35.1163H192.129ZM180.663 104.429V66.622C180.663 62.4901 178.803 59.0813 176.634 59.0813C174.775 59.0813 174.671 62.1802 174.671 63.4198V105.875C174.671 109.903 175.808 111.04 177.151 111.04C178.7 111.04 180.663 108.871 180.663 104.429Z" fill="#2D2D2D"/>
<path d="M137.661 167.847V131.775C137.661 127.102 136.514 126.528 133.48 126.036V124.478H144.056V126.036C140.285 126.528 139.629 127.184 139.629 131.775V186.784H132.251L118.314 129.151V179.488C118.314 184.079 119.051 184.817 122.741 185.227V186.784H112.739V185.227C115.772 184.817 116.428 184.161 116.428 179.488V126.036H112.739V124.478H127.168L137.661 167.847ZM170.539 164.403C170.539 182.275 165.21 187.686 158.652 187.686C152.011 187.686 146.765 182.275 146.765 164.403C146.765 146.531 152.011 141.121 158.652 141.121C165.21 141.121 170.539 146.531 170.539 164.403ZM161.521 182.931V145.875C161.521 143.662 160.537 142.432 158.652 142.432C156.684 142.432 155.783 143.662 155.783 145.875V182.931C155.783 185.227 156.684 186.375 158.652 186.375C160.537 186.375 161.521 185.227 161.521 182.931ZM185.766 127.102H186.503V142.022H192.734V143.58H186.503V182.275C186.503 184.161 187.241 184.899 188.307 184.899C189.783 184.899 191.668 181.947 191.668 172.438V171.29H193.226C193.226 171.782 193.226 172.848 193.226 172.848C193.226 185.309 190.193 187.686 185.11 187.686C181.011 187.686 177.403 185.145 177.403 179.406V143.58H175.026V142.596C180.109 138.661 184.126 132.184 185.766 127.102Z" fill="#2D2D2D"/>
<path d="M96.4542 240.711C96.4542 256.42 88.1052 263.78 77.2295 263.78H55.8076V261.693H60.7511V182.377H55.8076V180.29H76.4605C87.9953 180.29 95.7951 186.991 95.7951 200.284C95.7951 212.148 90.522 217.311 81.2941 219.948C91.1811 223.573 96.4542 227.528 96.4542 240.711ZM82.3927 213.576V187.98C82.3927 184.135 80.7448 182.377 77.0097 182.377C77.0097 182.377 75.5816 182.377 75.0323 182.377V219.179H77.0097C80.7448 219.179 82.3927 217.421 82.3927 213.576ZM82.3927 256.09V226.649C82.3927 222.914 80.7448 221.156 77.0097 221.156H75.0323V261.693H77.0097C80.7448 261.693 82.3927 259.935 82.3927 256.09ZM134.333 233.79C134.333 257.738 127.192 264.989 118.404 264.989C109.506 264.989 102.475 257.738 102.475 233.79C102.475 209.841 109.506 202.591 118.404 202.591C127.192 202.591 134.333 209.841 134.333 233.79ZM122.249 258.617V208.962C122.249 205.996 120.931 204.348 118.404 204.348C115.767 204.348 114.559 205.996 114.559 208.962V258.617C114.559 261.693 115.767 263.231 118.404 263.231C120.931 263.231 122.249 261.693 122.249 258.617ZM173.961 261.693H175.499V263.78H160.119V261.693H161.657V210.061C161.657 208.084 160.778 206.985 159.46 206.985C158.032 206.985 155.725 209.731 155.725 212.917V261.693H157.373V263.78H140.345V261.693H143.531V205.886H140.345V203.799H155.725V207.864C158.801 203.799 161.327 202.591 164.623 202.591C169.127 202.591 172.203 204.458 173.302 208.303C176.597 204.129 179.564 202.591 182.749 202.591C188.682 202.591 192.087 205.886 192.087 212.368V261.693H195.273V263.78H178.245V261.693H179.783V210.061C179.783 208.084 178.904 206.985 177.586 206.985C176.158 206.985 173.961 209.622 173.961 212.917V261.693ZM201.388 180.29H216.768V207.095C219.294 203.579 221.382 202.591 223.579 202.591C229.401 202.591 235.333 207.534 235.333 233.131C235.333 257.848 229.621 264.549 223.029 264.549C220.173 264.549 217.976 263.121 216.109 259.057V263.78H201.388V261.693C201.608 261.693 204.574 261.693 204.574 261.693V182.377H201.388V180.29ZM216.768 213.796V254.003C216.768 258.727 218.855 261.034 220.503 261.034C221.931 261.034 223.249 259.826 223.249 255.541V210.391C223.249 209.072 223.139 205.777 221.162 205.777C218.745 205.777 216.768 209.402 216.768 213.796ZM267.882 251.586C267.882 259.716 262.938 264.989 255.248 264.989C252.282 264.989 249.975 263.78 246.789 260.265L242.395 264.989H241.296V237.635H242.615L243.054 240.381C245.141 257.299 249.975 262.902 254.15 262.902C256.676 262.902 258.983 261.254 258.983 257.628C258.983 253.015 254.809 245.105 252.172 240.711L247.998 234.009C243.713 227.198 241.626 222.365 241.626 217.092C241.626 208.303 246.24 202.591 252.941 202.591C255.907 202.591 258.214 203.799 260.961 207.205L264.696 202.591H265.904V227.858H264.476L264.146 225.111C262.059 208.303 257.335 204.458 254.479 204.458C253.051 204.458 250.964 206.326 250.964 210.061C250.964 214.455 253.93 219.618 256.347 223.903L261.18 232.362C264.696 238.733 267.882 245.434 267.882 251.586Z" fill="#2D2D2D"/>
<path d="M1.84173 232.561C1.95541 232.693 2.16802 232.553 2.1243 232.396C1.58595 230.456 -0.35593 228.908 -1.6977 227.506C-3.52754 225.594 -5.34371 223.724 -7.39544 222.047C-7.43643 222.014 -7.51186 222.058 -7.47524 222.108C-4.69769 225.885 -1.20909 229.023 1.84173 232.561Z" fill="#2D2D2D"/>
<path d="M-1.93029 224.054C-1.22688 224.922 -0.538233 225.866 0.354823 226.547C0.530811 226.68 0.714997 226.431 0.632468 226.269C0.178289 225.373 -0.545885 224.601 -1.19081 223.837C-1.91116 222.986 -2.63478 222.155 -3.43821 221.381C-3.60053 221.225 -3.88801 221.429 -3.75739 221.627C-3.19335 222.477 -2.57302 223.262 -1.93029 224.054Z" fill="#2D2D2D"/>
<path d="M16.3003 228.659C18.0323 230.43 19.8282 232.137 21.552 233.917C23.2458 235.666 24.6203 237.82 26.4004 239.454C26.589 239.627 26.9809 239.46 26.8688 239.182C26.1255 237.325 24.4864 235.734 23.1501 234.286C22.9228 234.04 22.6888 233.8 22.4582 233.558C21.7521 232.074 20.6174 230.756 19.8632 229.272C19.0844 227.739 18.4318 226.141 17.7043 224.583C16.2981 221.572 14.5994 219.188 11.6973 217.535C11.683 217.527 11.6727 217.547 11.6847 217.555C14.4032 219.54 16.033 222.954 17.3671 225.943C18.0722 227.522 18.7493 229.107 19.5599 230.636C19.0095 230.096 18.4586 229.556 17.9109 229.014C16.2779 227.395 14.6885 225.736 13.2331 223.954C11.7377 222.124 10.7687 219.772 9.15855 218.071C9.13614 218.048 9.09024 218.065 9.09242 218.099C9.21157 220.042 10.6058 221.893 11.7109 223.409C13.0811 225.29 14.6765 226.998 16.3003 228.659Z" fill="#2D2D2D"/>
<path d="M40.605 267.878C40.6256 267.878 40.6256 267.845 40.605 267.845C40.5839 267.845 40.5839 267.878 40.605 267.878Z" fill="#2D2D2D"/>
<path d="M43.5049 268.452C42.5052 268.135 41.4274 268.208 40.4016 268.049C40.3983 268.048 40.3972 268.053 40.3999 268.053C41.428 268.213 42.432 268.61 43.483 268.613C43.5775 268.613 43.5923 268.479 43.5049 268.452Z" fill="#2D2D2D"/>
<path d="M25.6545 260.421C27.3751 260.988 29.2475 261.229 31.026 261.566C32.6028 261.865 34.0533 262.161 35.6618 262.016C35.6771 262.015 35.6826 261.992 35.6656 261.988C32.3831 261.297 29.0825 260.141 25.7354 259.824C25.378 259.79 25.3441 260.319 25.6545 260.421Z" fill="#2D2D2D"/>
<path d="M38.3383 263.74C38.3416 263.74 38.3416 263.735 38.3383 263.735H38.1317C38.1285 263.735 38.1285 263.74 38.1317 263.74H38.3383Z" fill="#2D2D2D"/>
<path d="M52.922 292.441C52.9056 293.122 53.2374 293.792 53.4609 294.425C53.679 295.042 53.8501 295.787 54.249 296.31C54.2562 296.319 54.2747 296.321 54.2775 296.306C54.3972 295.64 54.1386 294.926 53.9971 294.277C53.8539 293.621 53.632 292.839 53.1652 292.341C53.0778 292.247 52.9248 292.322 52.922 292.441Z" fill="#2D2D2D"/>
<path d="M50.7173 285.534C50.6036 285.249 50.1445 285.361 50.2467 285.664C50.4599 286.299 50.6381 286.944 50.855 287.578C51.0327 288.097 51.1748 288.642 51.5448 289.058C51.6738 289.202 51.9033 289.083 51.9077 288.907C51.9213 288.374 51.6874 287.89 51.4961 287.401C51.2496 286.773 50.9665 286.161 50.7173 285.534Z" fill="#2D2D2D"/>
<path d="M68.6378 279.177C68.6045 279.268 68.6914 279.377 68.7859 279.372C69.1991 279.346 69.5839 278.846 69.8621 278.576C70.1681 278.279 70.7606 277.839 70.7398 277.372C70.7344 277.262 70.648 277.158 70.5294 277.162C70.0856 277.181 69.7599 277.689 69.5003 278.006C69.3598 278.179 69.2183 278.35 69.0854 278.527C68.9985 278.643 68.9144 278.759 68.8362 278.881C68.7974 278.942 68.7023 279.013 68.7193 279.058C68.7171 279.058 68.7143 279.057 68.7122 279.059C68.6488 279.111 68.6712 279.086 68.6378 279.177Z" fill="#2D2D2D"/>
<path d="M56.152 285.808C56.1651 285.861 56.2307 285.861 56.258 285.822C56.8248 285.017 57.0483 284.033 57.55 283.178C58.3157 281.873 59.4258 281.472 60.7572 280.955C61.8841 280.516 63.121 279.423 63.1893 278.162C63.198 278.005 62.9963 277.939 62.8925 278.039C62.1722 278.731 61.7437 279.541 60.8659 280.097C60.0149 280.636 58.924 280.659 58.1512 281.352C57.0111 282.375 55.7557 284.211 56.152 285.808Z" fill="#2D2D2D"/>
<path d="M72.6487 263.992C71.5425 265.266 70.8757 267.012 69.911 268.417C68.7562 270.099 67.3969 271.584 66.0787 273.131C65.977 273.25 66.1142 273.468 66.2568 273.362C67.6544 272.326 68.9229 271.022 69.9777 269.64C71.1391 268.117 72.7482 266.178 73.1051 264.257C73.1504 264.012 72.8438 263.767 72.6487 263.992Z" fill="#2D2D2D"/>
<path d="M32.3086 231.875C31.192 230.458 30.6187 229.474 30.4706 227.637C30.2744 225.198 29.6518 222.818 28.7593 220.546C27.8209 218.158 26.3261 216.418 24.7854 214.431C24.7624 214.401 24.722 214.442 24.7444 214.472C26.2414 216.403 27.253 218.987 28.1051 221.257C28.9954 223.628 29.3534 226.082 29.5863 228.59C29.7847 230.725 31.2789 232.04 32.4769 233.69C34.0286 235.827 34.6161 237.996 35.1583 240.524C35.2211 240.816 35.6895 240.819 35.7502 240.524C36.1831 238.42 35.1889 236.276 34.1587 234.491C33.6247 233.565 32.9688 232.713 32.3086 231.875Z" fill="#2D2D2D"/>
<path d="M40.5314 258.28C40.48 258.458 40.5719 258.684 40.8123 258.684C41.1998 258.684 41.2053 258.098 40.8336 258.074C40.5937 256.448 39.8865 254.896 39.3356 253.357C38.6999 251.583 38.1069 249.79 37.4013 248.042C36.1153 244.855 33.5384 242.461 31.826 239.526C31.6877 239.288 31.3483 239.496 31.4631 239.738C32.9792 242.928 35.5136 245.465 36.8652 248.752C37.5123 250.326 38.0435 251.954 38.6218 253.554C39.1924 255.132 39.6373 256.847 40.5314 258.28Z" fill="#2D2D2D"/>
<path d="M60.1894 255.468C60.3217 255.456 60.4206 255.25 60.2665 255.184C58.024 254.227 55.3066 254.232 52.9034 254.081C51.3589 253.984 49.8958 254.179 48.8486 252.824C48.3496 252.179 47.6353 251.851 46.8346 251.917C46.81 251.919 46.8094 251.958 46.8346 251.956C48.2676 251.851 48.3217 253.869 49.3421 254.362C50.1018 254.729 50.8457 254.751 51.683 254.803C54.4616 254.976 57.4217 255.724 60.1894 255.468Z" fill="#2D2D2D"/>
<path d="M61.7684 239.796C61.605 240.967 61.3033 242.129 61.212 243.308C61.1995 243.472 61.4383 243.526 61.5137 243.39C62.1226 242.295 62.1554 241.004 61.9406 239.796C61.9258 239.712 61.7804 239.709 61.7684 239.796Z" fill="#2D2D2D"/>
<path d="M102.523 207.946C102.402 207.341 102.353 206.36 101.993 205.842C101.77 205.521 101.604 205.244 101.178 205.16C99.8189 204.893 99.9653 204.007 99.8495 202.938C99.8293 202.752 99.539 202.605 99.4439 202.828C99.1811 203.445 98.9892 204.446 99.4314 205.045C99.674 205.375 99.7325 205.433 100.073 205.666C100.23 205.736 100.394 205.787 100.564 205.82C101.47 206.084 101.465 206.913 101.628 207.617C101.865 208.636 102.387 210.206 101.551 211.106C101.256 211.424 101.138 211.86 101.049 212.269C100.785 213.481 101.707 215.244 100.796 216.277C100.773 216.303 100.81 216.34 100.833 216.315C101.484 215.624 101.705 214.857 101.73 213.914C101.756 212.903 101.655 212.109 102.432 211.296C102.71 211.005 102.955 210.592 102.905 210.167C102.816 209.419 102.671 208.684 102.523 207.946Z" fill="#2D2D2D"/>
<path d="M48.5354 223.102C48.6677 223.043 48.6524 222.837 48.5354 222.773C48.2179 222.599 47.8659 222.539 47.5587 222.334C47.2188 222.108 46.9668 221.792 46.8417 221.403C46.7531 221.129 46.3706 221.244 46.4176 221.52C46.5646 222.385 47.5609 223.541 48.5354 223.102Z" fill="#2D2D2D"/>
<path d="M62.8596 208.357C62.4333 208.419 61.7802 208.437 61.4922 208.836C60.8112 209.778 60.3925 210.22 59.2076 210.519C58.0888 210.801 56.9198 210.913 56.1223 211.833C55.69 212.331 55.66 213.087 55.5545 213.702C55.2878 215.253 53.1295 215.323 51.9642 215.404C51.9221 215.407 51.9096 215.469 51.9538 215.48C53.0764 215.753 54.0837 215.833 55.1511 215.328C55.5009 215.163 55.901 214.717 56.0059 214.345C56.3524 213.112 56.2874 211.987 57.674 211.456C58.8605 211.001 60.1624 211.06 61.2118 210.263C61.7441 209.858 61.8157 209.227 62.5705 209.062C63.803 208.792 65.2989 208.734 66.4575 209.286C66.5843 209.347 66.7456 209.176 66.6188 209.077C65.4677 208.183 64.2817 208.149 62.8596 208.357Z" fill="#2D2D2D"/>
<path d="M63.7235 216.158C63.7132 216.333 63.9088 216.404 64.0433 216.341C64.4324 216.16 64.61 215.752 64.8456 215.406C65.0746 215.071 65.2675 214.718 65.3708 214.325C65.5452 213.664 65.1948 213.078 64.5384 212.97C64.4925 212.962 64.4674 213.018 64.5067 213.045C65.1079 213.458 64.7882 214.292 64.4942 214.763C64.2143 215.212 63.7563 215.612 63.7235 216.158Z" fill="#2D2D2D"/>
<path d="M45.5084 234.395C45.5756 234.657 45.8314 234.758 46.0757 234.717C47.3951 234.495 47.8121 235.857 48.2832 236.645C48.328 236.721 48.3909 236.757 48.4559 236.768C48.4849 237.358 48.515 237.948 48.51 238.526C48.4942 240.426 48.6352 242.481 48.3936 244.356C48.3887 244.396 48.4587 244.406 48.4652 244.365C49.0058 240.98 50.1114 237.195 49.0866 233.766C49.0074 233.501 48.5439 233.45 48.4991 233.766C48.4428 234.167 48.4177 234.573 48.4106 234.983C47.9602 234.274 47.1546 233.81 46.2834 233.798C45.8014 232.378 44.7356 231.381 43.2474 230.995C42.8566 230.894 41.9766 230.967 42.1116 230.192C42.1832 229.783 42.4833 229.316 42.6472 228.923C42.8757 228.374 42.7943 227.846 42.5172 227.344C42.2586 226.874 41.5749 226.684 41.1136 226.531C39.1417 225.882 40.0823 224.189 40.2031 222.796C40.2299 222.487 40.1763 222.204 40.0659 221.962C40.766 222.076 41.4798 221.979 42.1023 221.541C42.2417 221.443 42.2166 221.148 42.0034 221.176C41.1317 221.292 39.4024 221.659 39.2516 220.447C39.2308 220.279 39.1319 220.158 38.9548 220.149C38.2082 220.113 37.4791 220.143 36.8621 220.599C36.8047 220.642 36.8232 220.73 36.8987 220.734C37.4862 220.767 38.0612 220.694 38.6465 220.72C38.6389 220.866 38.6296 221.011 38.6285 221.157C38.4749 221.181 38.3197 221.228 38.165 221.309C38.1333 221.325 38.1574 221.366 38.1874 221.362C38.3809 221.334 38.5394 221.346 38.6689 221.392C38.6995 221.45 38.7449 221.5 38.8007 221.529C38.8542 221.557 38.9089 221.583 38.9635 221.609C39.6462 222.505 38.5635 225.436 39.1433 226.266C39.9123 227.368 42.333 227.481 41.5219 229.213C41.1257 230.059 40.9617 230.817 41.7208 231.484C42.0521 231.775 42.5893 231.812 43.003 231.883C44.3087 232.107 45.1931 233.169 45.5084 234.395Z" fill="#2D2D2D"/>
<path d="M49.249 185.119C50.9417 185.274 52.0987 184.357 53.2432 183.205C55.2036 181.232 57.0947 179.856 60.0078 179.924C61.1719 179.952 62.2486 180.458 63.4084 180.533C64.1883 180.582 64.995 180.136 65.6596 179.791C67.2145 178.984 68.4246 178.657 70.0916 179.404C71.3934 179.989 72.5335 181.001 73.6665 181.849C75.8614 183.492 78.0564 185.134 80.271 186.751C82.1577 188.127 84.581 187.937 86.6503 188.931C87.6849 189.428 88.4407 190.224 88.7282 191.345C88.9966 192.392 89.2431 192.822 90.2416 193.345C92.6781 194.622 94.984 196.289 97.456 197.458C97.8217 197.631 98.2288 197.183 97.9069 196.874C96.0672 195.107 93.4957 193.884 91.2494 192.717C90.6707 192.417 90.0279 192.233 89.7973 191.513C89.6601 191.085 89.6519 190.652 89.4371 190.243C89.0419 189.49 88.5036 188.947 87.8182 188.451C85.9857 187.125 83.6672 187.354 81.6876 186.479C80.3448 185.885 79.1221 184.703 77.9449 183.838C76.6758 182.907 75.4023 181.983 74.1278 181.059C72.2564 179.701 70.3774 178.046 67.9458 178.04C66.9779 178.037 66.0471 178.607 65.2284 179.053C63.5472 179.97 62.3115 179.406 60.574 179.169C58.6239 178.903 56.6542 179.495 55.0266 180.55C53.1213 181.785 51.7899 184.807 49.249 184.747C49.0058 184.742 49.0146 185.098 49.249 185.119Z" fill="#2D2D2D"/>
<path d="M94.005 208.92C93.8422 210.398 93.4093 211.988 93.5886 213.468C93.6115 213.657 93.8979 213.804 93.9985 213.579C94.4904 212.48 94.5554 211.245 94.7145 210.059C94.9232 208.501 95.2758 206.874 95.1675 205.299C95.0692 203.873 93.4984 202.889 92.4151 204.008C92.2227 204.207 92.4824 204.576 92.7196 204.403C94.0263 203.45 94.3373 205.764 94.2526 206.639C94.1788 207.4 94.0887 208.16 94.005 208.92Z" fill="#2D2D2D"/>
<path d="M76.5375 221.25C77.136 220.057 79.2445 219.853 80.3535 219.296C80.8295 219.057 81.182 218.649 81.4799 218.221C81.9986 217.476 81.6712 216.332 82.4845 215.736C82.5194 215.711 82.4861 215.652 82.4506 215.678C81.3509 216.465 81.0809 217.868 79.9119 218.54C78.8543 219.149 77.5049 219.199 76.5353 219.98C75.4045 220.891 75.4269 222.145 75.1187 223.465C74.67 225.389 71.4809 226.374 70.0172 227.365C69.8101 227.505 69.9369 227.832 70.1883 227.771C71.8153 227.38 73.3834 226.44 74.7006 225.43C76.1751 224.299 75.786 222.747 76.5375 221.25Z" fill="#2D2D2D"/>
<path d="M46.4474 195.679C46.4763 195.653 46.4386 195.606 46.4064 195.626C44.605 196.734 42.9238 197.908 43.1484 200.261C43.3342 202.201 42.1739 202.29 40.819 203.001C40.2834 203.282 39.8883 203.761 39.9025 204.373C39.9074 204.602 40.1845 204.652 40.3075 204.483C41.2317 203.211 43.1255 203.317 43.8529 201.862C44.2716 201.024 43.7715 199.913 43.9305 199.034C44.1628 197.746 45.5013 196.506 46.4474 195.679Z" fill="#2D2D2D"/>
<path d="M36.8054 204.471C36.2298 205.034 35.9593 206.406 36.3107 207.134C36.3698 207.256 36.5774 207.258 36.6359 207.134C36.8092 206.768 36.8294 206.359 36.8693 205.961C36.9158 205.503 37.0857 205.029 37.0404 204.568C37.0289 204.452 36.8972 204.38 36.8054 204.471Z" fill="#2D2D2D"/>
<path d="M65.8096 193.309C65.8637 193.425 66.0446 193.413 66.1014 193.309C66.8688 191.91 65.3467 190.263 64.3055 189.518C64.2667 189.491 64.2219 189.551 64.2552 189.582C64.8307 190.116 65.1723 190.83 65.4062 191.57C65.5893 192.149 65.5522 192.756 65.8096 193.309Z" fill="#2D2D2D"/>
<path d="M74.1219 190.35C74.0486 191.341 74.2935 192.879 75.3401 193.307C75.5494 193.393 75.6948 193.153 75.6669 192.98C75.5986 192.552 75.3297 192.153 75.1876 191.744C75.0297 191.291 74.9777 190.827 75.0012 190.35C75.0291 189.78 74.1634 189.791 74.1219 190.35Z" fill="#2D2D2D"/>
<path d="M90.8203 218.395C90.8285 218.677 90.7612 218.929 90.6913 219.199C90.6213 219.473 90.4738 219.748 90.4885 220.036C90.4967 220.189 90.6252 220.281 90.7733 220.252C91.1192 220.185 91.3619 219.833 91.4783 219.524C91.6297 219.121 91.6171 218.715 91.5466 218.297C91.4761 217.881 90.8082 217.984 90.8203 218.395Z" fill="#2D2D2D"/>
<path d="M85.872 194.894C85.8463 194.904 85.8321 194.936 85.8551 194.958C86.1863 195.278 86.412 195.66 86.5907 196.086C86.7782 196.532 86.964 197.023 87.375 197.311C87.5073 197.404 87.6494 197.252 87.6237 197.119C87.4816 196.398 86.9257 194.471 85.872 194.894Z" fill="#2D2D2D"/>
<path d="M101.219 219.014C101.242 219.014 101.242 218.978 101.219 218.978C101.196 218.978 101.196 219.014 101.219 219.014Z" fill="#2D2D2D"/>
<path d="M101.622 220.229C101.618 220.253 101.654 220.264 101.66 220.239C102.208 217.734 104.579 216.522 106.662 215.51C106.782 215.451 106.707 215.297 106.601 215.285C105.303 215.129 104.13 215.803 103.222 216.706C102.197 217.726 101.858 218.855 101.622 220.229Z" fill="#2D2D2D"/>
<path d="M117.237 208.623C117.193 208.153 117.24 207.713 117.156 207.245C116.926 205.951 115.379 204.849 114.21 204.526C114.033 204.478 113.9 204.704 114.031 204.834C114.589 205.383 115.269 205.77 115.835 206.313C116.81 207.249 116.34 208.448 116.78 209.561C117.006 210.132 117.794 210.413 118.286 210.653C119.282 211.139 120.319 211.572 121.393 211.85C121.407 211.853 121.412 211.835 121.402 211.828C120.527 211.16 119.574 210.626 118.611 210.097C117.965 209.742 117.326 209.585 117.237 208.623Z" fill="#2D2D2D"/>
<path d="M101.018 182.3C101.021 182.276 100.986 182.265 100.98 182.289C100.838 182.846 100.513 183.293 99.9753 183.523C99.9573 183.53 99.9704 183.561 99.9879 183.553C100.509 183.339 100.936 182.869 101.018 182.3Z" fill="#2D2D2D"/>
<path d="M101.423 181.397C100.894 181.461 100.438 181.512 99.9065 181.458C99.7207 181.439 99.5934 181.594 99.5305 181.744C98.5981 183.972 96.0862 185.636 93.6164 185.292C93.5715 185.286 93.5502 185.354 93.5972 185.362C95.2456 185.675 96.5923 185.551 98.0641 184.663C98.7074 184.275 99.2212 183.722 99.6743 183.132C99.8688 182.878 99.9869 182.246 100.421 182.293C100.9 182.345 101.182 182.146 101.563 181.914C101.781 181.782 101.712 181.361 101.423 181.397Z" fill="#2D2D2D"/>
<path d="M134.14 216.058C133.957 215.186 133.616 214.47 133.048 213.777C132.544 213.162 132.019 212.593 131.756 211.823C131.529 211.157 132.085 210.062 132.263 209.406C133.609 204.445 129.154 199.266 126.587 195.511C123.586 191.122 120.338 186.772 116.166 183.422C114.614 182.175 112.488 180.733 110.261 179.919C109.834 179.236 109.542 178.573 109.484 177.71C109.423 176.799 108.824 176.16 108.624 175.242C108.415 174.28 108.067 173.399 107.935 172.41C107.879 171.992 107.761 171.352 107.394 171.067C107.014 170.772 106.672 170.607 106.213 170.463C104.977 170.077 104.529 169.33 104.068 168.205C103.452 166.705 102.779 165.528 101.523 164.463C101.012 164.03 100.441 163.668 99.8783 163.31C98.6694 162.541 97.6113 161.884 97.8217 160.27C97.9878 159 97.3013 157.975 96.358 157.205C95.248 156.299 93.7816 155.998 92.4453 155.597C91.5938 155.341 90.8942 154.978 90.258 154.461C88.8829 152.587 86.6656 151.21 85.197 149.523C84.1739 148.347 83.77 146.767 82.5009 145.787C81.1252 144.726 79.4818 144.188 77.8733 143.582C73.6982 142.009 69.5232 140.435 65.3475 138.864C61.5736 137.444 58.1621 136.198 54.069 136.618C50.0984 137.025 46.1354 137.927 42.2035 138.607C38.4968 139.248 34.465 139.531 31.0452 141.196C27.8824 142.736 25.3907 145.405 22.3016 147.094C22.2201 147.139 22.1781 147.21 22.1633 147.286C21.2189 147.444 20.2936 147.765 19.5661 148.078C18.244 148.648 17.1569 149.722 16.025 150.58C14.6467 151.625 13.048 151.99 11.3444 152.049C8.71445 152.141 6.52935 152.33 4.48582 154.153C3.11016 155.38 1.85365 156.216 0.0615273 156.724C-1.37043 157.131 -2.83243 157.372 -4.24033 157.869C-6.35874 158.617 -8.03501 160.199 -9.18275 162.094C-9.81948 163.147 -10.1813 164.353 -10.3649 165.56C-10.6136 167.194 -10.2933 168.651 -11.6652 169.884C-13.6874 171.699 -15.6795 173.127 -16.6393 175.794C-17.0497 176.936 -16.9759 178.24 -16.6349 179.504C-16.6606 179.501 -16.6874 179.499 -16.7169 179.505C-18.1078 179.793 -19.1927 180.44 -20.0082 181.618C-20.4476 182.253 -20.599 183.033 -20.7285 183.776C-20.9827 185.236 -21.8916 185.616 -22.9246 186.467C-24.1772 187.499 -24.9211 188.83 -25.4381 190.352C-26.1749 192.522 -25.6311 195.224 -27.7227 196.673C-29.0278 197.577 -30.3002 198.072 -31.1309 199.501C-31.9999 200.995 -31.9852 202.929 -32.3525 204.578C-32.7859 206.526 -34.3304 207.735 -35.1983 209.451C-35.9788 210.993 -35.4651 212.798 -35.0163 214.349C-34.7157 215.389 -34.4529 216.389 -34.4698 217.482C-34.4851 218.447 -35.0562 219.312 -35.1737 220.257C-35.3585 221.738 -34.7496 222.765 -33.6144 223.672C-32.265 224.75 -30.6232 225.365 -29.9449 227.085C-29.2033 228.967 -29.7001 230.925 -28.4961 232.682C-27.6943 233.852 -26.3399 234.528 -24.9697 234.723C-23.0071 235.003 -21.1696 233.788 -19.2266 233.745C-17.5875 233.709 -16.4835 234.637 -14.8258 234.014C-13.5076 233.519 -12.4369 232.437 -11.3307 231.604C-10.4092 230.909 -9.41284 230.394 -8.23886 230.693C-8.02242 230.748 -7.86611 230.648 -7.79342 230.502C-2.47061 231.88 2.0832 235.118 6.1976 238.916C6.0719 238.897 5.94401 238.885 5.81174 238.886C5.79917 238.886 5.79261 238.902 5.80136 238.91C7.2508 240.346 8.34662 241.743 9.43807 243.479C10.5088 245.183 11.8451 246.264 13.5694 247.276C18.1123 249.944 20.551 255.001 23.2263 259.376C22.1999 260.023 21.7703 261.188 21.8572 262.429C21.9622 263.932 23.2586 265.072 24.449 265.798C25.1327 266.216 25.8913 266.498 26.6794 266.704C26.798 267.187 26.9193 267.67 27.039 268.153C27.3254 269.305 27.6113 270.457 27.8977 271.609C28.5136 274.084 29.1443 276.556 29.763 279.03C30.1483 280.571 30.1035 281.802 29.3958 283.243C28.9995 284.051 28.6705 284.807 28.4754 285.69C28.1551 287.139 28.3945 288.636 28.9591 289.986C27.6206 290.267 26.5231 291.242 26.0285 292.57C25.2453 294.673 25.9334 296.604 27.2642 298.31C28.8645 300.359 31.4622 301.674 33.8107 302.636C35.839 303.467 38.4875 304.205 40.8087 304.03C40.8136 304.181 40.8377 304.325 40.9634 304.451C41.5793 305.066 43.53 304.729 44.3176 304.755C47.3476 304.853 50.3804 305.015 53.394 304.598C54.4702 304.448 55.4321 304.532 55.7649 303.431C56.0776 302.398 55.8655 301.175 55.3255 300.269C55.1282 299.938 54.6205 300.158 54.7118 300.527C54.9752 301.594 55.5545 303.261 54.1182 303.563C52.7486 303.853 51.3456 303.93 49.9497 303.964C47.3405 304.026 44.716 303.869 42.1073 303.803C42.0789 303.802 42.0554 303.8 42.0302 303.797C42.174 303.65 42.1368 303.348 41.904 303.299C41.7881 303.275 41.6723 303.256 41.5558 303.235C41.5236 303.115 41.4711 302.986 41.3525 302.861C40.571 302.04 39.6353 301.769 39.1991 300.6C38.4558 298.604 37.2157 297.302 35.6663 295.894C35.657 295.886 35.6439 295.899 35.6526 295.907C36.6845 296.949 37.3064 298.249 37.9547 299.545C38.417 300.471 38.5411 301.759 39.4232 302.421C39.6867 302.618 40.078 302.808 40.3775 303.056C39.1275 302.899 37.8689 302.806 36.6287 302.512C34.5715 302.024 32.6357 301.137 30.8403 300.034C29.0432 298.929 27.4194 297.423 26.7925 295.357C26.199 293.4 27.5774 290.937 29.7144 290.919C30.1144 290.915 30.3292 290.493 30.1538 290.153C29.0481 288.014 29.217 285.867 30.2779 283.758C31.1299 282.065 31.166 280.589 30.7506 278.758C29.851 274.794 28.7535 270.858 27.6976 266.928C28.5322 267.082 29.3783 267.177 30.1861 267.272C32.8281 267.585 35.4815 267.683 38.1192 267.955C38.375 267.982 38.3673 267.59 38.1192 267.559C34.9984 267.166 31.8333 266.7 28.7208 266.221C28.2879 266.154 27.86 266.066 27.4386 265.959C27.4074 265.842 27.3757 265.724 27.344 265.607C27.3069 265.466 27.1779 265.317 27.0276 265.29C26.5581 265.208 26.1946 265.195 25.8891 265.449C25.4245 265.256 24.9715 265.031 24.537 264.764C22.8656 263.737 21.8097 260.953 24.1303 259.966C24.179 259.945 24.2178 259.912 24.2511 259.874C24.5014 259.986 24.831 260.102 25.0518 259.939C25.1464 259.868 25.1791 259.767 25.125 259.658C24.9835 259.371 24.6244 259.388 24.344 259.349C24.3342 259.347 24.3222 259.346 24.3118 259.345C24.3074 259.337 24.3047 259.328 24.2998 259.32C21.6457 255.033 19.2311 249.843 14.8893 246.998C13.8017 246.285 12.6539 245.741 11.6674 244.876C10.7684 244.088 10.1524 242.974 9.51896 241.976C9.1402 241.379 8.69477 240.679 8.15751 240.095C5.94127 236.879 2.71392 234.325 -0.625473 232.396C-2.6231 231.242 -4.77213 230.339 -6.97088 229.647C-9.0647 228.988 -11.4859 228.457 -13.525 229.521C-13.6557 229.589 -13.5923 229.792 -13.4524 229.791C-12.3997 229.787 -11.3766 229.86 -10.3786 229.995C-11.7105 230.526 -12.9042 231.728 -14.018 232.506C-14.6701 232.962 -15.3877 233.314 -16.1873 233.392C-17.0683 233.479 -17.8881 232.949 -18.7511 232.872C-20.7302 232.697 -22.4731 233.718 -24.4205 233.829C-26.9963 233.975 -28.3753 231.594 -28.648 229.393C-28.8398 227.849 -28.9874 226.435 -30.0406 225.217C-30.9888 224.12 -32.4416 223.55 -33.5106 222.589C-35.1951 221.076 -33.586 218.874 -33.5538 217.018C-33.5254 215.406 -34.2862 213.817 -34.5988 212.257C-35.0879 209.818 -33.1887 208.416 -32.0896 206.532C-31.2774 205.14 -31.2151 203.376 -30.9271 201.829C-30.4959 199.512 -29.1295 198.625 -27.2554 197.472C-26.0093 196.704 -25.3884 195.553 -25.2004 194.119C-24.9282 192.044 -24.6194 190.069 -23.4372 188.29C-22.5715 186.987 -20.5558 186.486 -20.0929 184.901C-19.4562 182.722 -19.1687 180.649 -16.5999 179.929C-16.5688 179.921 -16.5442 179.907 -16.5229 179.89C-16.1206 181.17 -15.4615 182.385 -14.7635 183.317C-14.634 183.49 -14.3728 183.391 -14.4148 183.17C-14.6515 181.924 -15.2899 180.77 -15.7287 179.584C-16.3348 177.946 -16.0944 176.356 -15.3046 174.837C-14.0858 172.493 -11.5936 171.527 -10.1452 169.464C-9.673 168.792 -9.64512 167.829 -9.60085 167.045C-9.51778 165.563 -9.29315 164.276 -8.64003 162.929C-7.34744 160.263 -4.88088 158.851 -2.11645 158.143C0.0686417 157.584 2.15862 157.203 3.97097 155.774C5.24223 154.772 6.12545 153.69 7.74651 153.208C9.02051 152.828 10.4935 152.8 11.8161 152.642C14.1269 152.365 15.7824 151.737 17.6237 150.291C18.8889 149.296 20.1537 148.568 21.7381 148.215C23.0137 147.931 24.2861 148.313 25.5382 148.059C25.606 148.045 25.6355 147.943 25.5809 147.897C25.0294 147.44 24.3353 147.239 23.5942 147.197C25.8629 146.081 27.7566 144.365 29.8625 142.957C32.9324 140.903 36.561 140.532 40.1146 139.924C43.8218 139.289 47.5285 138.655 51.2357 138.021C53.1672 137.691 55.0818 137.411 57.0461 137.482C59.048 137.555 60.9992 138.291 62.8547 138.982C66.4494 140.322 70.0309 141.698 73.619 143.055C76.9567 144.317 81.4176 145.135 83.2852 148.452C84.8795 151.284 87.7816 152.768 89.6005 155.387C90.0241 155.996 90.2903 156.684 90.487 157.394C90.7789 158.447 90.3345 159.271 90.1979 160.272C90.1411 160.688 90.3952 161.044 90.6155 161.367C91.262 162.316 91.5511 163.179 91.4604 164.326C91.4457 164.519 91.7539 164.609 91.8343 164.427C92.3261 163.319 92.201 162.357 91.5921 161.31C90.9658 160.233 91.2768 159.816 91.4899 158.723C91.6222 158.046 91.497 157.344 91.3358 156.686C91.2844 156.479 91.221 156.278 91.1489 156.082C92.5333 156.743 94.1254 156.89 95.4671 157.684C96.5728 158.337 97.021 159.35 96.8494 160.615C96.7832 161.104 96.6663 161.863 96.992 162.31C97.8616 163.503 99.399 164.07 100.583 164.913C102.175 166.049 102.763 167.583 103.525 169.288C104.023 170.404 104.815 171.031 105.966 171.359C107.207 171.714 107.138 172.958 107.356 173.939C107.608 175.072 108.174 175.832 108.608 176.881C108.871 177.518 108.779 178.417 108.97 179.104C109.014 179.265 109.072 179.42 109.142 179.569C107.336 179.103 105.516 179.133 103.925 180.088C103.731 180.204 103.858 180.52 104.08 180.454C108.854 179.043 113.643 182.34 117.039 185.378C120.604 188.568 123.375 192.559 126.056 196.486C128.689 200.344 132.692 205.103 131.013 210.076C130.447 211.753 130.969 212.832 132.05 214.139C133.82 216.278 133.067 218.433 132.088 220.628C131.38 219.072 129.889 217.822 128.23 217.589C127.984 217.555 127.773 217.904 128.044 218.031C130.232 219.051 131.855 220.93 131.504 223.494C131.316 224.875 130.393 226.044 129.257 226.787C128.246 227.449 126.98 227.572 125.956 228.245C124.177 229.412 123.541 231.671 121.695 232.799C120.736 233.385 119.562 232.774 118.612 233.338C117.554 233.966 116.827 234.917 115.546 234.89C115.611 234.668 115.529 234.408 115.238 234.337C114.983 234.275 114.617 233.125 114.217 232.872C113.653 232.515 113.094 233.122 112.699 232.062C112.506 231.544 112.494 230.942 112.364 230.405C112.185 229.668 111.688 229.229 111.02 228.928C109.83 228.392 108.862 227.905 107.548 227.82C104.975 227.654 106.716 226.033 105.356 225.521C104.723 225.282 104.197 225.186 103.637 224.76C103.195 224.425 102.766 224.259 102.222 224.176C101.599 224.081 100.733 224.291 100.105 224.719C100.363 224.085 100.91 223.579 101.155 222.893C101.407 222.188 100.957 221.402 100.601 220.843C100.547 220.758 100.398 220.786 100.403 220.897C100.457 222.088 100.231 222.987 99.4837 223.913C99.2465 224.206 99.0913 224.711 99.0918 225.086C99.0929 226.007 99.3662 226.978 98.9585 227.856C98.6267 228.573 97.8025 229.053 97.1877 229.489C96.4181 230.034 95.4835 230.683 95.1797 231.628C94.9058 232.48 95.1168 233.592 94.538 234.334C93.9516 235.085 92.8033 235.214 92.0037 235.623C91.2014 236.034 90.1241 236.715 90.0613 237.736C90.0246 237.913 90.0219 238.089 90.0531 238.263C90.2241 239.347 89.6628 239.514 88.9206 239.938C87.6685 240.655 87.1126 239.576 86.0163 239.806C85.4746 239.92 85.0505 240.144 84.5821 240.435C84.0498 240.764 83.5891 241.128 82.8764 241.029C82.2265 240.939 81.7499 240.062 81.4395 239.573C80.8481 238.641 80.2595 237.796 79.2413 237.519C79.5927 236.821 80.06 236.166 80.8 235.592C80.9214 235.498 80.8629 235.359 80.7585 235.293C81.346 234.72 81.9002 234.117 82.3151 233.464C83.0305 233.372 83.7459 233.278 84.4603 233.178C85.4473 233.04 87.0126 233.18 87.7324 232.423C88.5812 231.531 88.1992 230.329 89.7984 230.077C90.5548 229.957 91.1915 229.437 91.7572 228.96C92.2748 228.525 92.7169 228.026 93.2585 227.614C93.9079 227.121 94.761 226.93 95.5234 226.676C96.4023 226.384 97.0696 225.895 97.5927 225.141C97.966 224.601 97.4533 222.524 98.0988 222.402C98.1425 222.394 98.1261 222.336 98.0889 222.331C97.5653 222.264 97.3959 222.429 97.1177 222.863C96.9658 223.099 97.0527 223.495 97.0844 223.746C97.2636 225.179 95.8869 225.752 94.8047 226.093C93.7718 226.418 92.9355 226.805 92.0971 227.496C91.5823 227.92 91.1106 228.384 90.5679 228.775C89.9847 229.195 89.266 229.221 88.5998 229.411C88.0664 229.564 87.7619 230.166 87.5614 230.624C87.3105 231.196 87.2782 231.841 86.4814 231.954L84.2116 232.276C82.7031 232.49 81.1979 232.725 79.6927 232.962C78.24 233.192 77.259 233.675 75.9921 234.342C75.9702 234.353 75.9855 234.389 76.0085 234.382C77.3431 233.92 78.9724 233.891 80.3628 233.713C80.6558 233.676 80.9476 233.638 81.24 233.601C80.2464 234.463 79.3801 235.593 78.5237 236.505C77.3207 237.786 76.1309 239.084 75.0646 240.482C75.0323 240.524 75.0979 240.563 75.1329 240.535C76.132 239.724 77.0704 238.846 77.9908 237.948C77.7071 238.67 77.4995 239.425 77.2967 240.068C76.6731 242.04 75.4264 242.854 73.7255 243.815C73.2604 244.078 72.8341 244.398 72.4996 244.786C72.5887 243.896 73.1036 243.223 73.4233 242.409C73.4873 242.245 73.2823 242.137 73.1533 242.202C71.9165 242.82 71.4399 244.675 71.676 245.96C71.7345 246.278 71.7886 246.581 71.9159 246.881C72.3401 247.881 71.9618 248.507 71.441 249.299C70.8802 250.152 70.5348 251.125 70.349 252.122C70.1779 253.04 70.3555 253.923 70.6102 254.801C70.9409 255.942 71.1289 257.045 71.2748 258.225C71.371 259.001 71.5219 260.321 72.0968 261.086C71.8252 261.045 71.5765 261.012 71.3716 260.985C71.0568 260.943 70.942 261.441 71.212 261.575C71.9028 261.919 72.621 262.127 73.3577 262.358C74.7924 262.808 75.3444 263.608 75.2783 265.142C75.1968 267.027 73.7534 268.144 72.8423 269.622C72.5756 270.055 72.5286 270.539 72.5395 271.031C72.562 272.042 72.4696 272.746 72.0733 273.676C71.5722 274.85 71.4219 276.123 71.7345 277.359C71.7952 277.6 72.1056 277.517 72.1329 277.305C72.2072 276.728 72.2805 276.171 72.3854 275.623C72.486 275.683 72.6188 275.695 72.7636 275.621C74.4781 274.751 74.1682 277.524 73.8611 278.436C73.5556 279.343 73.2265 280.243 72.9096 281.146C72.3461 282.75 71.77 284.351 71.2267 285.962C70.2145 288.964 70.2686 291.44 71.6897 294.266C72.5587 295.993 73.5763 298.041 71.6093 299.481C70.3965 300.368 68.5109 300.537 67.0845 300.839C63.4007 301.619 59.5602 302.186 55.9754 303.342C55.7649 303.41 55.7895 303.769 56.03 303.746C58.2435 303.534 60.4139 302.993 62.5946 302.574C65.0398 302.104 67.5026 301.654 69.9298 301.098C71.3317 300.777 72.6035 300.157 73.3566 298.894C74.1513 297.563 73.4993 295.915 72.9205 294.655C72.4718 293.679 71.9427 292.761 71.6011 291.736C71.1759 290.459 71.3907 289.056 71.6771 287.781C72.2061 285.424 73.1861 283.125 73.9726 280.844C74.4322 279.512 75.6866 277.283 74.9509 275.844C74.4891 274.941 73.4911 274.324 72.5696 274.824C72.6778 274.427 72.8117 274.032 72.9915 273.638C73.2976 272.966 73.6589 272.564 73.613 271.801C73.525 270.329 73.666 269.853 74.6093 268.758C75.0531 268.242 75.4586 267.677 75.7057 267.038C76.2566 265.613 76.4211 264.055 75.6937 262.667C75.2974 261.911 74.1622 261.503 73.0823 261.266C73.0057 260.968 72.8631 260.732 72.686 260.414C72.1936 259.528 72.1591 258.344 72.0493 257.364C71.8421 255.523 70.9628 253.746 71.2983 251.886C71.4661 250.955 71.9613 250.111 72.4674 249.328C72.7308 248.921 73.2686 248.42 73.1713 247.871C73.0506 247.187 72.7696 246.601 72.6062 245.96C73.7895 244.078 76.3298 243.746 77.5109 241.728C78.1826 240.58 78.4674 239.387 78.9068 238.273C78.9992 238.305 79.1178 238.354 79.2828 238.435C79.9048 238.739 80.2967 239.479 80.6301 240.046C80.9367 240.566 81.3247 241.186 81.8319 241.535C83.1398 242.434 84.1897 241.807 85.3867 241.06C86.3283 240.473 87.2187 241.146 88.2079 241.16C88.89 241.171 89.7727 240.616 90.2695 240.209C90.6056 239.934 91.0981 239.484 91.0647 238.98C90.9396 237.076 92.0305 236.573 93.5477 235.959C94.6348 235.518 95.7366 234.781 95.8273 233.498C95.9104 232.325 96.0219 231.601 96.9084 230.807C97.5003 230.276 98.2059 229.869 98.8229 229.367C99.9767 228.428 100.091 227.316 100.002 225.974C100.515 225.549 100.99 225.145 101.753 225.049C102.729 224.928 103.429 225.829 104.267 226.168C104.809 226.387 104.962 226.306 105.149 227.092C105.222 227.4 105.301 227.789 105.566 228.004C106.493 228.752 107.379 228.646 108.532 228.807C109.608 228.957 111.34 229.923 111.585 230.971C111.738 231.627 111.688 232.516 112.196 233.039C112.595 233.45 113.906 233.636 114.08 234.105C114.284 234.651 114.379 235.079 114.994 235.223C115.064 235.239 115.129 235.24 115.188 235.229C115.489 235.77 116.051 235.778 116.71 235.673C117.214 235.593 117.644 235.211 118.026 234.91C119.009 234.138 119.687 234.178 120.811 234.025C122.146 233.844 123.096 233.06 123.95 232.062C125.336 230.442 126.039 228.992 128.206 228.254C130.737 227.394 132.397 225.461 132.52 222.731C132.533 222.448 132.514 222.165 132.47 221.885C133.493 220.258 134.553 218.023 134.14 216.058Z" fill="#2D2D2D"/>
<path d="M2.21192 199.364C2.15945 199.375 2.17421 199.452 2.22394 199.455C3.95649 199.526 5.69834 199.364 7.40356 199.749C9.41375 200.202 9.85044 201.974 10.9818 203.384C11.8836 204.508 13.3751 204.851 14.8841 205.166C14.7617 205.893 14.648 206.471 14.1031 207.038C13.7796 207.375 13.5839 208.022 13.5806 208.47C13.5653 210.513 14.2709 212.858 12.1159 214.159C12.1044 214.166 12.1121 214.185 12.1252 214.181C13.4697 213.801 14.1403 212.782 14.3862 211.439C14.5868 210.341 14.1873 209.258 14.3813 208.157C14.6704 206.518 14.9147 207.248 15.1847 207.141C16.3035 208.843 17.3354 210.613 18.317 212.39C18.3279 212.409 18.3574 212.396 18.3525 212.375C17.7879 210.136 16.8391 208.159 15.5312 206.249C15.54 206.181 15.5487 206.114 15.5553 206.045C16.1193 206.788 16.8025 207.481 17.2556 208.303C18.0891 209.817 18.6291 211.494 19.2581 213.099C20.5841 216.483 22.0051 219.889 24.0694 222.882C24.0825 222.901 24.1175 222.889 24.1087 222.865C22.8353 219.108 21.0825 215.525 19.6741 211.808C19.1122 210.324 18.5569 208.85 17.8049 207.45C17.4808 206.847 17.0561 206.111 16.521 205.538C17.1747 205.716 17.7896 205.945 18.3115 206.293C18.481 206.407 18.6968 206.184 18.5892 206.016C17.8535 204.866 16.6861 204.508 15.3979 204.228C14.6021 204.054 13.8113 203.909 13.0357 203.656C11.8131 203.259 11.2245 202.279 10.6216 201.22C8.89836 198.193 5.0955 198.777 2.21192 199.364Z" fill="#2D2D2D"/>
<path d="M20.7924 206.023C20.7192 206.053 20.6722 206.151 20.7421 206.213C21.2149 206.636 21.8921 206.76 22.4774 206.976C23.3754 207.309 24.2105 207.757 24.9986 208.297C25.009 208.407 25.0199 208.518 25.0374 208.627C25.0828 208.917 25.3752 209.436 25.6463 209.564C26.0475 209.753 26.1589 209.799 26.5913 209.906C27.5745 210.151 27.169 211.425 27.0241 211.987C26.8383 212.709 26.6601 213.814 27.222 214.433C27.5505 214.795 27.8259 214.913 28.3069 214.996C29.6175 215.223 29.2682 216.439 29.3306 217.412C29.3409 217.576 29.5 217.706 29.6519 217.714C30.0318 218.445 30.8084 219.009 31.6151 219.111C32.1158 219.174 32.635 219.09 32.8383 219.674C32.9137 219.892 33.1657 220.172 33.3755 220.27C34.1423 220.627 34.7632 220.508 35.4464 220.028C35.5503 219.955 35.5136 219.796 35.3819 219.789C35.0928 219.768 34.8031 219.76 34.5135 219.765C32.9869 219.755 33.6986 219.361 33.3608 218.785C33.1946 218.5 32.9307 218.441 32.6388 218.398C31.9955 218.304 31.5539 218.393 30.9516 218.06C30.5504 217.838 30.2712 217.487 30.0465 217.1C30.228 216.431 30.2455 215.612 29.8913 215.051C29.6563 214.679 29.4415 214.464 29.0496 214.259C28.8911 214.184 28.7223 214.144 28.5424 214.142C27.4767 213.947 27.756 212.833 27.9035 212.229C28.0861 211.481 28.4413 210.155 27.7286 209.537C27.2837 209.151 26.1027 208.841 25.9196 208.384C25.4255 207.148 26.4612 205.548 27.2214 204.68C28.3566 203.386 30.0449 203.111 31.2626 202.031C31.702 201.64 31.8075 201.37 31.907 200.785C32.1136 199.572 31.9097 198.842 32.7738 197.797C33.7947 196.561 35.5891 196.88 36.774 195.912C37.8162 195.061 38.3606 193.976 38.336 192.623C38.3305 192.305 37.8097 192.209 37.7621 192.545C37.6211 193.541 37.2347 194.323 36.5247 195.047C35.8 195.785 34.6331 195.861 33.6964 196.155C32.6557 196.483 31.8955 197.363 31.4085 198.294C31.1937 198.705 31.0445 199.235 31.0309 199.699C30.985 201.258 30.3122 201.562 29.1813 202.153C27.7609 202.894 26.5459 203.894 25.6818 205.248C25.2965 205.851 25.0784 206.53 25.003 207.227C23.8088 206.469 22.0216 205.53 20.7924 206.023Z" fill="#2D2D2D"/>
<path d="M33.5442 159.847C32.8971 162.399 32.2636 164.519 33.4015 167.051C33.965 168.305 35.2396 168.974 35.8911 170.167C36.6857 171.623 37.2405 173.183 38.2532 174.516C38.3642 174.661 38.6047 174.582 38.5582 174.387C38.0734 172.343 37.0661 169.727 35.5178 168.264C33.2031 166.075 33.1796 162.846 33.5677 159.851C33.5699 159.837 33.5475 159.834 33.5442 159.847Z" fill="#2D2D2D"/>
<path d="M41.8899 175.062C43.0371 176.049 44.2876 176.908 45.5381 177.757C46.7044 178.549 48.0642 179.693 49.4721 179.935C49.7126 179.976 49.8635 179.725 49.705 179.535C48.8813 178.553 47.516 177.995 46.4432 177.306C45.044 176.407 43.7137 175.413 42.3321 174.489C41.9888 174.259 41.5756 174.792 41.8899 175.062Z" fill="#2D2D2D"/>
<path d="M91.5321 166.405C91.5109 166.405 91.5109 166.438 91.5321 166.438C91.5527 166.438 91.5527 166.405 91.5321 166.405Z" fill="#2D2D2D"/>
<path d="M91.2161 169.082C90.9406 170.132 90.9275 171.383 91.1554 172.441C91.1904 172.603 91.4112 172.578 91.4582 172.441C91.8222 171.391 91.7522 170.074 91.256 169.077C91.2472 169.06 91.2205 169.065 91.2161 169.082Z" fill="#2D2D2D"/>
<path d="M-0.353915 171.575C-0.698786 173.589 -0.961128 175.394 0.804762 176.793C1.59397 177.419 2.52966 177.8 3.27132 178.495C4.13979 179.308 3.79929 180.442 3.71785 181.517C3.55717 181.808 3.38227 182.091 3.16912 182.353C2.55371 183.11 1.51691 183.378 0.627681 183.659C0.592702 183.67 0.597075 183.728 0.636426 183.725C1.81369 183.654 2.98165 183.451 3.77852 182.555C3.7971 182.628 3.81732 182.701 3.84465 182.771C3.92062 182.967 4.23762 183.016 4.29173 182.771C4.39393 182.312 4.48903 181.841 4.5497 181.372C4.68196 181.129 4.8104 180.884 4.94157 180.638C5.31486 179.942 5.82479 179.553 6.37024 179.017C6.49923 178.891 6.39975 178.681 6.22868 178.675C5.48046 178.648 4.96562 179.248 4.58522 179.877C4.49777 179.081 4.20264 178.339 3.53039 177.73C2.85978 177.122 1.97164 176.752 1.22287 176.251C-0.291609 175.236 -0.402558 173.229 -0.292156 171.583C-0.28997 171.548 -0.347903 171.54 -0.353915 171.575Z" fill="#2D2D2D"/>
<path d="M8.31752 185.006C8.30441 184.975 8.25795 184.968 8.24756 185.006C8.03824 185.786 8.26287 186.599 8.78482 187.221C9.11329 187.611 9.4926 187.905 9.91398 188.188C10.3436 188.477 10.7365 188.888 11.2066 189.097C11.3951 189.181 11.5891 189.046 11.5476 188.835C11.4121 188.149 10.6256 187.784 10.0878 187.43C9.17341 186.829 8.72743 185.989 8.31752 185.006Z" fill="#2D2D2D"/>
<path d="M14.9743 172.356C14.9448 172.398 14.9935 172.44 15.0344 172.434C16.4762 172.209 17.783 171.088 19.0341 170.372C20.5945 169.479 22.2439 169.033 23.9142 168.426C24.1525 168.339 24.1055 168.017 23.8557 167.994C22.1505 167.84 20.5813 168.645 19.1144 169.431C17.7322 170.172 15.8849 171.048 14.9743 172.356Z" fill="#2D2D2D"/>
<path d="M32.33 179.928C33.3291 180.183 32.9739 181.082 33.1078 181.739C33.2389 182.385 33.5013 182.974 33.7057 183.597C34.079 184.735 32.9843 185.699 33.5947 186.82C33.7057 187.024 33.9757 186.909 33.9954 186.712C34.1478 185.183 34.8431 184.056 34.0916 182.591C33.604 181.64 33.5226 180.163 32.3442 179.877C32.3109 179.869 32.2967 179.92 32.33 179.928Z" fill="#2D2D2D"/>
<path d="M38.7288 183.938C38.4282 184.809 38.2905 185.739 38.0834 186.637C37.8724 187.547 37.5729 188.429 37.3712 189.343C37.334 189.51 37.5461 189.594 37.6407 189.457C38.6758 187.954 39.2486 185.738 38.7709 183.938C38.7649 183.916 38.7354 183.919 38.7288 183.938Z" fill="#2D2D2D"/>
<path d="M43.5031 141.611C39.1051 141.735 38.7001 147.388 36.7352 150.278C36.7199 150.301 36.7555 150.329 36.773 150.308C37.9781 148.893 38.9509 147.728 39.709 145.988C40.0091 145.299 40.3102 144.628 40.7064 143.988C41.3705 142.912 42.5844 142.581 43.596 141.953C43.7463 141.86 43.6911 141.606 43.5031 141.611Z" fill="#2D2D2D"/>
<path d="M48.0806 145.049C46.3617 145.888 44.6718 148.619 44.7986 150.531C44.8095 150.696 45.0341 150.78 45.1227 150.619C45.6075 149.744 45.8485 148.774 46.3049 147.881C46.8175 146.879 47.6182 146.113 48.203 145.172C48.2533 145.09 48.1566 145.012 48.0806 145.049Z" fill="#2D2D2D"/>
<path d="M73.6289 152.588C73.5978 151.922 73.642 150.923 72.9807 150.494C72.4281 150.136 71.8636 150.121 71.3821 150.586C71.1301 150.829 71.5089 151.204 71.7652 150.969C72.9015 149.923 72.8042 153.011 72.8342 153.175C72.9506 153.811 73.1529 154.216 73.5808 154.688C74.5952 155.809 76.2961 155.966 76.8606 157.547C76.9147 157.698 77.1858 157.744 77.2148 157.547C77.5886 154.986 73.7426 155.028 73.6289 152.588Z" fill="#2D2D2D"/>
<path d="M85.3513 170.161C84.3058 172.259 81.7184 173.029 80.1318 174.626C79.6361 175.126 79.3388 175.754 79.1327 176.415C78.8725 177.251 78.9955 177.369 78.3533 177.804C77.8467 178.147 77.4062 178.468 76.9831 178.905C76.8219 179.072 76.9815 179.415 77.2253 179.321C77.9549 179.04 79.0245 178.6 79.5213 177.986C80.1646 177.191 79.9842 176.062 80.6909 175.186C81.4451 174.252 82.6377 173.666 83.5701 172.919C84.5457 172.137 84.8441 171.261 85.3928 170.186C85.4071 170.158 85.365 170.133 85.3513 170.161Z" fill="#2D2D2D"/>
<path d="M84.1728 176.734C83.7191 176.4 83.0381 175.688 82.4386 175.726C82.3375 175.732 82.2156 175.778 82.1708 175.879C82.0746 176.098 82.08 176.329 82.3233 176.442C82.4495 176.5 82.5643 176.457 82.6342 176.377C82.6987 176.767 83.4961 177.191 83.7814 177.403C84.299 177.788 84.7598 178.181 85.3943 178.342C85.555 178.383 85.7025 178.207 85.6124 178.058C85.2582 177.474 84.7138 177.134 84.1728 176.734Z" fill="#2D2D2D"/>
<path d="M107.508 194.622C107.968 194.981 108.347 195.507 108.904 195.711C109.079 195.775 109.214 195.586 109.183 195.431C109.058 194.804 108.442 194.398 107.965 194.03C107.349 193.555 106.602 193.23 105.874 192.97C105.478 192.828 105.318 193.448 105.702 193.594C106.358 193.845 106.954 194.191 107.508 194.622Z" fill="#2D2D2D"/>
<path d="M114.886 218.302C114.815 218.462 114.931 218.691 115.134 218.625C115.933 218.361 116.453 217.445 116.542 216.642C116.581 216.295 116.643 215.875 116.336 215.635C116.154 215.494 115.914 215.533 115.801 215.734C115.745 215.834 115.786 215.931 115.87 215.996C115.995 216.091 115.551 217.07 115.499 217.187C115.325 217.575 115.056 217.913 114.886 218.302Z" fill="#2D2D2D"/>
<path d="M120.627 198.033C120.77 198.16 121.009 198.079 121.01 197.874C121.013 197.115 120.452 196.404 120.024 195.817C119.533 195.143 118.915 194.575 118.271 194.051C118.032 193.857 117.694 194.174 117.926 194.396C118.489 194.938 118.96 195.538 119.41 196.175C119.827 196.764 120.083 197.555 120.627 198.033Z" fill="#2D2D2D"/>
<path d="M46.4928 152.188C46.3026 153.527 46.1643 155.011 46.5933 156.31C46.6431 156.461 46.8803 156.482 46.9196 156.31C47.3322 154.498 47.1705 152.548 47.4727 150.701C47.5902 149.983 48.3128 148.505 47.711 147.892C47.6498 147.83 47.5629 147.841 47.5006 147.892C47.3907 147.981 47.3989 147.989 47.4 148.134C47.4006 148.158 47.417 148.183 47.441 148.188C47.4662 148.193 47.4907 148.198 47.5159 148.203C47.5214 148.204 47.5257 148.2 47.5306 148.198C47.4399 148.421 46.9453 149.813 46.9065 149.956C46.7081 150.687 46.5988 151.44 46.4928 152.188Z" fill="#2D2D2D"/>
<path d="M29.5108 149.29C30.018 148.249 30.5635 147.263 30.9832 146.182C31.0313 146.058 30.8504 145.964 30.7651 146.055C29.3004 147.617 28.0597 150.114 27.957 152.282C27.9559 152.31 27.9931 152.316 28.0067 152.295C28.6178 151.367 29.0244 150.289 29.5108 149.29Z" fill="#2D2D2D"/>
<path d="M19.4487 154.503C19.8668 154.123 20.2576 153.673 20.5909 153.216C20.909 152.779 21.2424 152.011 21.7627 151.803C21.9529 151.727 21.959 151.484 21.7627 151.41C21.2348 151.211 20.8287 151.783 20.5489 152.142C20.0286 152.811 19.5241 153.515 19.1716 154.289C19.0896 154.468 19.294 154.643 19.4487 154.503Z" fill="#2D2D2D"/>
<path d="M13.7147 155.493C13.765 155.366 13.5863 155.287 13.5005 155.368C12.1953 156.607 11.698 158.23 10.724 159.683C10.7207 159.687 10.7289 159.692 10.7322 159.687C11.7286 158.232 13.0403 157.177 13.7147 155.493Z" fill="#2D2D2D"/>
<path d="M7.34083 222.472C7.87535 223.32 8.42299 224.158 8.9526 225.009C9.58714 226.029 10.4671 226.943 10.9333 228.055C10.9437 228.079 10.9847 228.07 10.9754 228.043C10.3058 226.08 9.27943 224.432 8.24154 222.642C7.3228 221.057 6.42263 218.753 4.8617 217.714C4.73107 217.627 4.51628 217.773 4.58132 217.93C5.2492 219.532 6.41498 221.004 7.34083 222.472Z" fill="#2D2D2D"/>
<path d="M4.30897 212.933C4.79758 213.681 5.49552 215.349 6.60337 214.309C6.72033 214.199 6.6378 213.957 6.46509 213.974C5.09873 214.115 5.17032 212.049 4.03351 211.704C3.47002 211.532 2.91309 211.532 2.33211 211.446C1.60739 211.337 0.857531 210.771 0.205501 210.453C0.188558 210.444 0.168882 210.461 0.17872 210.479C0.561302 211.141 0.981596 211.632 1.66369 211.991C2.53761 212.451 3.66951 211.955 4.30897 212.933Z" fill="#2D2D2D"/>
<path d="M3.87052 188.233C3.84155 188.165 3.74809 188.121 3.67814 188.123C3.6448 188.123 3.612 188.124 3.57867 188.125C3.43328 188.129 3.33327 188.218 3.28462 188.349C2.79383 189.67 4.23835 191.185 5.41779 191.504C5.55443 191.541 5.6938 191.383 5.60854 191.256C5.32215 190.829 4.95815 190.51 4.59852 190.148C4.3717 189.919 4.18752 189.659 4.03612 189.375C3.98092 189.25 3.93665 189.121 3.90277 188.989C3.90605 189 3.89074 188.742 3.84046 188.556C3.93009 188.479 3.92682 188.366 3.87052 188.233Z" fill="#2D2D2D"/>
<path d="M52.3447 171.196C53.0913 171.438 54.5134 171.524 54.9774 170.751C55.0523 170.626 54.9889 170.418 54.8315 170.392C54.1494 170.281 53.4897 170.611 52.7689 170.475C51.8791 170.307 51.221 169.723 50.6718 169.043C50.4936 168.822 50.0995 169.059 50.1952 169.32C50.551 170.291 51.3866 170.887 52.3447 171.196Z" fill="#2D2D2D"/>
<path d="M63.207 168.338C64.5936 168.285 66.1474 168.713 67.2662 167.681C67.3985 167.559 67.2575 167.367 67.1012 167.398C65.6266 167.697 64.2444 167.6 62.7567 167.676C62.2828 167.7 61.7395 167.839 61.3236 168.071C60.5371 168.511 59.8315 168.736 58.9609 168.907C58.933 168.912 58.927 168.957 58.9532 168.969C60.3398 169.62 61.7964 168.393 63.207 168.338Z" fill="#2D2D2D"/>
<path d="M71.2933 164.732C72.6339 165.222 74.5949 165.584 76.0072 165.271C76.1734 165.234 76.1641 164.987 76.0072 164.944C75.2929 164.752 74.5447 164.767 73.8101 164.723C72.9794 164.672 72.1524 164.539 71.3211 164.528C71.1976 164.526 71.1872 164.693 71.2933 164.732Z" fill="#2D2D2D"/>
<path d="M24.9032 178.344C25.7351 177.87 26.1608 176.766 26.5625 175.94C26.9795 175.082 27.5173 174.072 27.5458 173.108C27.5512 172.913 27.302 172.875 27.2036 173.015C26.5997 173.875 26.3308 175.001 25.8613 175.946C25.488 176.697 24.8901 177.441 24.8048 178.287C24.7999 178.338 24.8639 178.366 24.9032 178.344Z" fill="#2D2D2D"/>
<path d="M44.6541 188.449C45.2592 187.939 45.9937 187.493 46.4244 186.817C46.5069 186.687 46.3714 186.527 46.2304 186.565C45.5002 186.76 44.9066 187.321 44.3431 187.803C43.8917 188.189 42.9265 188.823 42.9527 189.487C42.9538 189.517 42.9751 189.536 43.0036 189.538C43.596 189.581 44.2355 188.803 44.6541 188.449Z" fill="#2D2D2D"/>
<path d="M54.1713 236.754C54.7063 235.302 54.9326 233.736 55.3376 232.242C55.8262 230.442 56.4777 228.687 57.2193 226.976C58.5316 223.951 60.6855 221.372 61.988 218.375C62.0071 218.331 61.9617 218.261 61.912 218.299C59.3509 220.244 57.7708 223.687 56.4738 226.541C55.1053 229.554 53.5668 233.33 53.7012 236.691C53.7127 236.969 54.0789 237.004 54.1713 236.754Z" fill="#2D2D2D"/>
<path d="M65.7772 233.322C66.2189 232.957 66.8889 232.477 66.9277 231.858C66.9348 231.738 66.8124 231.606 66.6883 231.619C66.162 231.676 65.7986 232.163 65.4269 232.5C64.9651 232.92 64.4158 233.197 63.9316 233.575C63.99 231.848 64.7918 229.73 65.1099 228.596C65.6248 226.762 66.5058 224.862 66.5211 222.94C66.5216 222.898 66.4708 222.891 66.449 222.92C65.1974 224.604 60.4583 237.117 65.1443 236.744C65.5045 236.716 65.5641 236.252 65.228 236.127C64.3453 235.8 63.9955 235.025 63.9376 234.073C63.9704 234.09 64.0053 234.102 64.0425 234.103C64.6738 234.121 65.3072 233.71 65.7772 233.322Z" fill="#2D2D2D"/>
</g>
<defs>
<clipPath id="clip0_22877_2962">
<path d="M0 23.0933C0 10.3392 10.3392 0 23.0933 0H281.907C294.661 0 305 10.3392 305 23.0933V281.907C305 294.661 294.661 305 281.907 305H23.0933C10.3392 305 0 294.661 0 281.907V23.0933Z" fill="white"/>
</clipPath>
</defs>
</svg>
