<svg width="261" height="257" viewBox="0 0 261 257" fill="none" xmlns="http://www.w3.org/2000/svg">
<path d="M237.187 128.398C237.187 128.718 237.187 129.038 237.186 129.358M23.5743 128.398C23.5743 128.719 23.5747 129.04 23.5756 129.361" stroke="black" stroke-width="7.26321" stroke-linecap="round" stroke-dasharray="0.36 34.03"/>
<path d="M130.381 4.90393C198.572 4.90393 253.875 59.9672 253.875 127.918C253.875 195.868 198.572 250.93 130.381 250.93C62.189 250.93 6.88667 195.868 6.88647 127.918C6.88647 59.9673 62.1889 4.90408 130.381 4.90393Z" stroke="black" stroke-width="6.43333"/>
<circle cx="130.862" cy="127.917" r="90.2838" stroke="black" stroke-width="3.21666"/>
<path d="M180.016 206.533C223.18 179.509 236.206 122.703 209.111 79.6534L52.8018 177.514C79.8967 220.564 136.852 233.556 180.016 206.533Z" fill="black"/>
<path d="M152.177 51.9861V91.6816L186.214 69.9647L206.982 102.344L168.487 126.906L206.982 151.468L186.214 183.848L152.177 162.13V204.859H113.638V161.902L77.8664 184.726L57.0977 152.347L96.971 126.906L57.0977 101.465L77.8664 69.0858L113.638 91.9097V51.9861C126.804 51.9851 139.971 51.9836 153.138 51.9822" fill="black"/>
<path d="M152.177 51.9861V91.6816L186.214 69.9647L206.982 102.344L168.487 126.906L206.982 151.468L186.214 183.848L152.177 162.13V204.859H113.638V161.902L77.8664 184.726L57.0977 152.347L96.971 126.906L57.0977 101.465L77.8664 69.0858L113.638 91.9097V51.9861C126.804 51.9851 139.971 51.9836 153.138 51.9822" stroke="#FDA8B7" stroke-width="6.43333" stroke-miterlimit="10"/>
<path d="M132.619 188.035C132.813 185.285 133.316 182.604 134.277 179.29C134.928 177.042 135.982 174.129 136.865 172.113C137.028 171.726 137.19 171.247 137.221 171.054C137.276 170.714 137.268 170.699 136.942 170.436C136.199 169.841 133.595 168.204 128.861 165.361C127.288 164.418 125.901 163.576 125.785 163.491C125.568 163.344 125.568 163.344 125.568 164.101C125.568 166.095 125.793 169.424 126.08 171.696C126.281 173.333 127.071 177.382 127.583 179.421C128.52 183.137 130.054 186.691 132.1 189.881C132.503 190.507 132.503 190.507 132.518 189.889C132.526 189.549 132.573 188.715 132.619 188.035ZM139.313 173.318C141.374 170.977 142.684 168.845 143.381 166.713C143.947 164.974 144.032 163.63 143.675 162.263C143.141 160.223 141.413 157.651 139.453 155.974C138.864 155.48 138.817 155.41 138.817 155.148C138.817 154.9 138.887 154.777 139.236 154.398C141.103 152.374 142.715 149.778 143.381 147.723C143.947 145.954 144.032 144.633 143.668 143.227C143.203 141.443 141.676 139.048 139.987 137.449C139.337 136.831 139.344 136.761 140.181 135.718C142.808 132.435 144.171 129.051 143.846 126.61C143.567 124.477 142.211 122.083 140.127 120.035C138.353 118.297 136.369 116.984 132.425 114.952C127.893 112.611 126.25 111.46 125.173 109.861C124.731 109.204 124.615 108.718 124.654 107.767C124.685 107.087 124.724 106.91 124.941 106.446C125.08 106.16 125.282 105.797 125.39 105.658C125.592 105.396 125.592 105.396 125.367 105.535C123.693 106.585 122.361 108.161 121.849 109.675C121.539 110.595 121.439 111.375 121.439 112.866C121.446 116.072 122.438 118.761 124.515 121.225C124.824 121.604 125.212 122.029 125.367 122.168C125.522 122.314 125.646 122.484 125.646 122.538C125.646 122.592 125.708 122.639 125.785 122.639C125.863 122.639 126.025 122.747 126.157 122.878C126.49 123.226 127.738 124.161 128.652 124.756C129.892 125.559 131.24 126.285 133.549 127.405C137.299 129.221 138.12 129.684 138.81 130.372C139.251 130.82 139.414 131.16 139.522 131.84C139.662 132.721 139.461 134.289 139.058 135.579C138.918 136.019 138.903 136.043 138.647 136.066C138.446 136.081 138.306 136.027 138.027 135.818C136.95 135 135.393 134.088 132.309 132.473C129.636 131.067 129.032 130.727 128.086 130.102C126.785 129.244 125.77 128.317 125.173 127.452C124.453 126.417 124.453 124.732 125.173 123.574C125.313 123.342 125.375 123.18 125.313 123.18C125.158 123.18 124.174 123.952 123.593 124.532C122.957 125.157 122.492 125.814 122.113 126.602C121.191 128.541 121.183 131.863 122.089 134.559C122.748 136.552 123.686 137.997 125.429 139.735C126.103 140.407 126.653 141.01 126.653 141.072C126.653 141.134 126.723 141.18 126.808 141.18C126.893 141.18 127.397 141.474 127.924 141.837C129.466 142.895 130.566 143.513 133.161 144.78C137.539 146.928 138.066 147.221 138.786 147.932C139.422 148.565 139.553 148.944 139.546 150.141C139.546 150.628 139.499 151.293 139.445 151.609C139.337 152.212 138.941 153.587 138.662 154.344C138.508 154.754 138.484 154.777 138.229 154.777C138.035 154.777 137.787 154.661 137.283 154.321C135.827 153.348 135.122 152.946 131.534 151.069C128.513 149.477 127.288 148.681 126.18 147.592C124.941 146.379 124.639 145.769 124.639 144.51C124.639 143.76 124.848 143.05 125.22 142.493C125.367 142.269 125.491 142.076 125.491 142.053C125.491 141.999 124.639 142.617 124.081 143.073C122.988 143.977 122.02 145.475 121.702 146.75C121.338 148.187 121.338 150.373 121.694 152.104C122.43 155.65 124.631 158.663 128.265 161.096C129.535 161.954 131 162.749 134.114 164.271C138.717 166.535 139.313 166.991 139.522 168.428C139.716 169.718 139.352 171.587 138.477 173.812C138.205 174.492 138.205 174.492 138.407 174.314C138.515 174.214 138.926 173.766 139.313 173.318ZM153.554 113.299C153.531 112.889 153.539 112.835 153.694 112.789C153.787 112.758 153.841 112.719 153.825 112.704C153.802 112.681 153.446 112.619 153.027 112.557C152.601 112.495 152.09 112.41 151.881 112.364C151.671 112.318 151.493 112.294 151.478 112.31C151.462 112.325 151.749 112.518 152.121 112.742C152.632 113.036 153.577 113.7 153.577 113.747C153.577 113.755 153.562 113.546 153.554 113.299ZM136.795 106.129C136.78 99.0375 136.78 99.0375 139.739 99.0143C142.691 98.9989 142.691 98.9989 142.691 98.2341C142.691 97.477 142.691 97.477 141.281 97.4306C140.514 97.3997 139.174 97.3765 138.314 97.3765C136.749 97.3765 136.749 97.3765 136.702 90.8331C136.671 87.2253 136.648 81.8406 136.648 78.8663C136.648 73.443 136.648 73.443 136.919 72.9949C137.849 71.4576 137.818 69.9666 136.826 68.4678C136.237 67.5717 135.246 66.8609 134.2 66.5905C132.82 66.2352 131.24 66.7373 130.171 67.8884C129.334 68.7768 128.838 70.0361 128.939 71.025C129.001 71.6662 129.225 72.346 129.566 72.9022C129.83 73.3349 129.83 73.3349 129.83 74.7255C129.83 76.116 129.83 76.116 130.101 76.2087C130.481 76.3324 131.077 76.8963 131.302 77.3367C131.465 77.6611 131.496 77.8156 131.496 78.4878C131.496 79.1135 131.465 79.3298 131.333 79.6157C131.093 80.1178 130.728 80.4964 130.248 80.7359C129.83 80.9367 129.83 80.9367 129.83 81.3925C129.83 81.8406 129.83 81.8406 130.248 82.0415C130.728 82.2655 131.093 82.6441 131.333 83.1539C131.581 83.6947 131.565 84.9153 131.31 85.433C131.069 85.9119 130.62 86.3523 130.178 86.5377C129.83 86.6768 129.83 86.6768 129.83 87.2716C129.83 87.8665 129.83 87.8665 130.202 88.0287C130.682 88.245 131.093 88.6545 131.317 89.1412C131.465 89.4657 131.496 89.6665 131.496 90.3077C131.496 90.9567 131.465 91.1344 131.317 91.4434C131.1 91.876 130.481 92.4631 130.101 92.5867C129.83 92.6794 129.83 92.6794 129.83 94.9894C129.83 96.7739 129.806 97.3147 129.737 97.3379C129.682 97.3534 128.172 97.392 126.382 97.4306C123.128 97.4924 123.128 97.4924 123.128 98.2263C123.128 98.9603 123.128 98.9603 125.987 98.9834C128.164 98.9989 128.869 99.0221 128.915 99.0993C128.946 99.1457 128.977 101.34 128.977 103.959C128.977 107.675 129.001 108.748 129.078 108.81C129.202 108.926 136.671 113.206 136.749 113.206C136.787 113.214 136.803 110.023 136.795 106.129ZM147.03 111.893C147.224 111.854 147.472 111.785 147.596 111.73C147.852 111.63 148.58 110.742 148.58 110.525C148.58 110.355 147.921 109.876 146.713 109.173C145.705 108.586 145.713 108.586 145.713 108.88C145.713 109.104 145.69 109.119 145.45 109.119C145.21 109.119 145.171 109.081 144.985 108.702C144.52 107.76 143.885 107.311 141.94 106.578C141.049 106.245 138.763 105.488 138.631 105.488C138.546 105.488 138.577 110.657 138.662 110.819C138.794 111.066 139.368 111.344 139.902 111.429C141.25 111.645 143.606 111.916 144.9 112.009C145.427 112.047 146.604 111.985 147.03 111.893Z" fill="#FDA8B7"/>
<path d="M132.621 188.035C132.815 185.285 133.318 182.604 134.279 179.29C134.93 177.042 135.983 174.129 136.867 172.113C137.029 171.726 137.192 171.247 137.223 171.054C137.277 170.714 137.27 170.699 136.944 170.436C136.2 169.841 133.597 168.204 128.863 165.361C127.29 164.418 125.903 163.576 125.787 163.491C125.57 163.344 125.57 163.344 125.57 164.101C125.57 166.095 125.795 169.424 126.081 171.696C126.283 173.333 127.073 177.382 127.585 179.421C128.522 183.137 130.056 186.691 132.102 189.881C132.505 190.507 132.505 190.507 132.52 189.889C132.528 189.549 132.574 188.715 132.621 188.035ZM136.797 106.129C136.782 99.0375 136.782 99.0375 139.741 99.0143C142.693 98.9989 142.693 98.9989 142.693 98.2341C142.693 97.477 142.693 97.477 141.283 97.4306C140.516 97.3997 139.176 97.3765 138.316 97.3765C136.751 97.3765 136.751 97.3765 136.704 90.8331C136.673 87.2253 136.65 81.8406 136.65 78.8663C136.65 73.443 136.65 73.443 136.921 72.9949C137.851 71.4576 137.82 69.9666 136.828 68.4678C136.239 67.5717 135.247 66.8609 134.201 66.5905C132.822 66.2352 131.242 66.7373 130.172 67.8884C129.336 68.7768 128.84 70.0361 128.94 71.025C129.002 71.6662 129.227 72.346 129.568 72.9022C129.832 73.3349 129.832 73.3349 129.832 74.7255C129.832 76.116 129.832 76.116 130.103 76.2087C130.482 76.3324 131.079 76.8963 131.304 77.3367C131.466 77.6611 131.497 77.8156 131.497 78.4878C131.497 79.1135 131.466 79.3298 131.335 79.6157C131.094 80.1178 130.73 80.4964 130.25 80.7359C129.832 80.9367 129.832 80.9367 129.832 81.3925C129.832 81.8406 129.832 81.8406 130.25 82.0415C130.73 82.2655 131.094 82.6441 131.335 83.1539C131.583 83.6947 131.567 84.9153 131.311 85.433C131.071 85.9119 130.622 86.3523 130.18 86.5377C129.832 86.6768 129.832 86.6768 129.832 87.2716C129.832 87.8665 129.832 87.8665 130.203 88.0287C130.684 88.245 131.094 88.6545 131.319 89.1412C131.466 89.4657 131.497 89.6665 131.497 90.3077C131.497 90.9567 131.466 91.1344 131.319 91.4434C131.102 91.876 130.482 92.4631 130.103 92.5867C129.832 92.6794 129.832 92.6794 129.832 94.9894C129.832 96.7739 129.808 97.3147 129.739 97.3379C129.684 97.3534 128.173 97.392 126.384 97.4306C123.129 97.4924 123.129 97.4924 123.129 98.2263C123.129 98.9603 123.129 98.9603 125.988 98.9834C128.166 98.9989 128.871 99.0221 128.917 99.0993C128.948 99.1457 128.979 101.34 128.979 103.959C128.979 107.675 129.002 108.748 129.08 108.81C129.204 108.926 136.673 113.206 136.751 113.206C136.789 113.214 136.805 110.023 136.797 106.129Z" fill="#FDA8B7"/>
<path d="M42.9432 84.2425L28.6759 75.5007L32.3359 69.5585C32.9931 68.4916 33.6941 67.6911 34.4388 67.1571C35.1864 66.6184 35.9433 66.3347 36.7096 66.3058C37.4787 66.2723 38.2209 66.4746 38.9361 66.9128C39.4795 67.2458 39.8948 67.6568 40.1821 68.1459C40.4647 68.6321 40.6225 69.1601 40.6554 69.7298C40.6884 70.2994 40.5991 70.8805 40.3877 71.473L40.5271 71.5583C40.9092 71.0002 41.392 70.5644 41.9753 70.2509C42.5614 69.9328 43.1991 69.7804 43.8882 69.7937C44.5726 69.8042 45.2585 70.02 45.9459 70.4411C46.7122 70.9106 47.2772 71.5252 47.641 72.2848C48.0001 73.0415 48.1267 73.8954 48.0207 74.8463C47.9101 75.7945 47.5305 76.795 46.8819 77.848L42.9432 84.2425ZM42.2851 79.0951L43.5965 76.966C44.0565 76.2191 44.2535 75.5827 44.1873 75.0565C44.124 74.5258 43.8393 74.1053 43.333 73.7951C42.9661 73.5703 42.5974 73.4626 42.227 73.4721C41.8519 73.4786 41.4952 73.5955 41.157 73.8228C40.8141 74.0471 40.5069 74.3797 40.2355 74.8203L38.8854 77.0121L42.2851 79.0951ZM36.6631 75.6505L37.8374 73.744C38.0689 73.3682 38.2119 72.9958 38.2665 72.6268C38.3211 72.2577 38.28 71.9194 38.1431 71.6119C38.0091 71.2998 37.7749 71.0413 37.4405 70.8364C36.9622 70.5433 36.4817 70.4821 35.9991 70.6529C35.5165 70.8236 35.0981 71.1966 34.7438 71.7718L33.5352 73.734L36.6631 75.6505Z" fill="black"/>
<path d="M55.5351 53.3753C56.9126 54.5967 57.8445 55.8964 58.331 57.2743C58.8174 58.6521 58.9068 60.013 58.5992 61.3567C58.2953 62.6963 57.6448 63.9254 56.6479 65.0438C55.6473 66.1663 54.4959 66.9547 53.1934 67.409C51.891 67.8634 50.5273 67.9321 49.1024 67.6152C47.6771 67.2907 46.2777 66.5196 44.9043 65.3018C43.5268 64.0804 42.593 62.7828 42.103 61.409C41.6165 60.0311 41.5253 58.6723 41.8293 57.3327C42.1332 55.993 42.7855 54.7619 43.7861 53.6394C44.783 52.521 45.9306 51.7328 47.229 51.2749C48.531 50.8129 49.8965 50.7421 51.3254 51.0626C52.7544 51.383 54.1576 52.154 55.5351 53.3753ZM52.7836 56.4622C51.9685 55.7395 51.1765 55.2447 50.4074 54.9778C49.642 54.7069 48.9225 54.6587 48.2489 54.8333C47.5789 55.0037 46.9756 55.3899 46.4391 55.9919C45.9062 56.5897 45.5923 57.2325 45.4974 57.9201C45.4025 58.6078 45.5329 59.3169 45.8887 60.0473C46.248 60.7738 46.8353 61.4983 47.6504 62.221C48.4654 62.9438 49.2557 63.4406 50.0211 63.7115C50.7901 63.9783 51.5114 64.0245 52.1851 63.85C52.8587 63.6754 53.4619 63.2892 53.9948 62.6914C54.5314 62.0895 54.8453 61.4467 54.9366 60.7631C55.0315 60.0755 54.8993 59.3684 54.5399 58.642C54.1841 57.9115 53.5987 57.1849 52.7836 56.4622Z" fill="black"/>
<path d="M61.0729 37.8893L64.2506 35.3993L70.9292 43.8773C71.701 44.8571 72.1397 45.8938 72.2452 46.9874C72.3474 48.0768 72.1371 49.1481 71.6143 50.2013C71.0882 51.2502 70.2719 52.2081 69.1655 53.0751C68.0462 53.9522 66.9134 54.5215 65.7671 54.7832C64.6174 55.0405 63.5262 54.9891 62.4935 54.629C61.4573 54.2645 60.5534 53.5924 59.7815 52.6126L53.103 44.1346L56.2871 41.6395L62.7483 49.8416C63.1055 50.2951 63.5227 50.6221 63.9997 50.8227C64.481 51.0199 64.9809 51.0779 65.4996 50.9967C66.0182 50.9155 66.5155 50.6884 66.9915 50.3154C67.4675 49.9424 67.8043 49.5159 68.0018 49.0359C68.2036 48.5525 68.2655 48.0543 68.1873 47.5413C68.1091 47.0282 67.8913 46.5449 67.5341 46.0914L61.0729 37.8893Z" fill="black"/>
<path d="M77.2204 46.819L69.0522 32.2158L72.587 30.249L79.1519 41.9857L85.2362 38.6004L86.8395 41.4668L77.2204 46.819Z" fill="black"/>
<path d="M94.25 38.3035L88.4442 40.4392L82.6404 24.7453L88.4385 22.6123C90.0388 22.0236 91.533 21.8309 92.9209 22.0342C94.312 22.2305 95.5393 22.8004 96.6027 23.7441C97.6643 24.6826 98.4964 25.9668 99.099 27.5964C99.7036 29.2312 99.9087 30.7518 99.7144 32.1582C99.5251 33.5626 98.9663 34.7926 98.0381 35.8479C97.1079 36.8981 95.8452 37.7166 94.25 38.3035ZM91.0447 35.8089L92.9084 35.1233C93.7878 34.7998 94.4769 34.3779 94.9758 33.8578C95.4779 33.3307 95.7602 32.6726 95.8227 31.8835C95.8884 31.0874 95.7125 30.1249 95.295 28.9958C94.8775 27.8668 94.3865 27.026 93.822 26.4734C93.2556 25.9156 92.6083 25.6024 91.88 25.5337C91.155 25.458 90.3425 25.5856 89.4427 25.9167L87.6327 26.5825L91.0447 35.8089Z" fill="black"/>
<path d="M105.139 34.5293L102.012 18.0907L113.478 15.921L114.092 19.1477L106.6 20.5653L107.242 23.9365L114.147 22.6298L114.762 25.8646L107.857 27.1712L108.5 30.5505L115.991 29.1329L116.605 32.3596L105.139 34.5293Z" fill="black"/>
<path d="M119.212 31.8789L118.635 15.1548L125.544 14.9177C126.796 14.8747 127.885 15.0635 128.81 15.4842C129.74 15.8992 130.467 16.5174 130.991 17.3388C131.515 18.1547 131.797 19.1343 131.837 20.2776C131.877 21.4371 131.658 22.4312 131.179 23.2597C130.701 24.0828 130.003 24.7227 129.087 25.1793C128.17 25.6304 127.075 25.8779 125.801 25.9216L121.432 26.0716L121.322 22.8868L124.94 22.7626C125.55 22.7417 126.056 22.6453 126.459 22.4734C126.867 22.2959 127.172 22.0401 127.373 21.7062C127.574 21.3668 127.665 20.9385 127.647 20.4214C127.63 19.9042 127.509 19.4805 127.285 19.1502C127.06 18.8145 126.739 18.5694 126.319 18.4148C125.899 18.2548 125.387 18.1852 124.783 18.2059L122.79 18.2743L123.255 31.7402L119.212 31.8789ZM128.365 23.9123L132.793 31.4128L128.383 31.5642L124.036 24.0609L128.365 23.9123Z" fill="black"/>
<path d="M159.575 24.7121L155.58 23.8563C155.615 23.4349 155.585 23.0413 155.491 22.6758C155.397 22.3102 155.24 21.9812 155.019 21.6887C154.797 21.3962 154.514 21.1487 154.167 20.9464C153.827 20.7398 153.433 20.5886 152.986 20.4928C152.192 20.3228 151.466 20.3705 150.807 20.6361C150.153 20.9027 149.593 21.3704 149.126 22.0392C148.664 22.7091 148.321 23.5659 148.096 24.6097C147.862 25.6961 147.82 26.6399 147.971 27.441C148.128 28.2379 148.449 28.8833 148.933 29.377C149.424 29.8666 150.058 30.1946 150.836 30.3612C151.272 30.4548 151.681 30.4839 152.062 30.4485C152.449 30.4142 152.8 30.3197 153.118 30.1649C153.442 30.0059 153.725 29.7907 153.967 29.5195C154.216 29.2441 154.418 28.9168 154.572 28.5375L158.561 29.4172C158.336 30.1267 157.972 30.7952 157.469 31.4229C156.971 32.0517 156.357 32.5913 155.624 33.0417C154.893 33.4868 154.054 33.7862 153.107 33.9399C152.166 34.0948 151.133 34.0518 150.009 33.811C148.528 33.4938 147.272 32.8849 146.24 31.9841C145.215 31.0792 144.499 29.9285 144.092 28.5321C143.685 27.1357 143.675 25.5401 144.061 23.7454C144.449 21.9454 145.121 20.4932 146.078 19.3889C147.034 18.2846 148.168 17.5331 149.48 17.1344C150.792 16.7357 152.175 16.6921 153.629 17.0036C154.619 17.2158 155.506 17.5505 156.288 18.0078C157.071 18.4596 157.725 19.0177 158.251 19.6818C158.777 20.3406 159.159 21.0936 159.394 21.9408C159.63 22.7879 159.69 23.7117 159.575 24.7121Z" fill="black"/>
<path d="M177.681 34.1064C176.968 35.8039 176.036 37.1062 174.887 38.0133C173.737 38.9203 172.476 39.447 171.103 39.5932C169.735 39.7415 168.36 39.5267 166.978 38.9489C165.591 38.3689 164.472 37.5379 163.621 36.4557C162.77 35.3736 162.265 34.1084 162.106 32.66C161.953 31.2087 162.233 29.6368 162.945 27.9443C163.658 26.2468 164.587 24.9435 165.732 24.0343C166.881 23.1273 168.14 22.5996 169.508 22.4513C170.876 22.303 172.254 22.5188 173.641 23.0987C175.022 23.6766 176.14 24.5041 176.993 25.5812C177.851 26.6604 178.359 27.9267 178.516 29.3801C178.673 30.8335 178.395 32.4089 177.681 34.1064ZM173.867 32.5115C174.289 31.5071 174.503 30.5984 174.508 29.7856C174.518 28.9749 174.331 28.2798 173.948 27.7005C173.571 27.1233 173.01 26.6792 172.266 26.3682C171.527 26.0593 170.817 25.9718 170.134 26.1056C169.452 26.2395 168.821 26.593 168.244 27.1663C167.671 27.7417 167.173 28.5316 166.751 29.5361C166.329 30.5405 166.113 31.4481 166.103 32.2588C166.098 33.0717 166.287 33.7678 166.67 34.3471C167.053 34.9264 167.613 35.3705 168.352 35.6794C169.096 35.9904 169.807 36.0779 170.484 35.942C171.167 35.8081 171.794 35.4535 172.367 34.8781C172.945 34.3048 173.445 33.516 173.867 32.5115Z" fill="black"/>
<path d="M194.565 34.5512L197.947 36.7545L192.031 45.7851C191.348 46.8287 190.504 47.5759 189.499 48.0265C188.497 48.4726 187.412 48.6177 186.245 48.4617C185.08 48.3012 183.909 47.8373 182.732 47.0702C181.541 46.2941 180.637 45.4065 180.022 44.4074C179.41 43.4037 179.11 42.3562 179.121 41.2649C179.136 40.169 179.485 39.0992 180.169 38.0556L186.084 29.025L189.472 31.2328L183.75 39.9694C183.433 40.4525 183.256 40.9516 183.218 41.4666C183.185 41.9846 183.29 42.4756 183.533 42.9396C183.776 43.4036 184.151 43.8006 184.657 44.1306C185.164 44.4607 185.677 44.642 186.196 44.6746C186.719 44.7102 187.212 44.6087 187.674 44.3702C188.137 44.1317 188.526 43.7709 188.842 43.2878L194.565 34.5512Z" fill="black"/>
<path d="M212.546 49.4778L201.118 61.7054L198.605 59.369L200.324 47.778L200.247 47.7057L193.651 54.7629L190.689 52.0092L202.117 39.7816L204.666 42.1514L202.904 53.6804L203.006 53.7749L209.591 46.7297L212.546 49.4778Z" fill="black"/>
<path d="M213.921 55.595L216.54 53.6111L225.108 64.862L222.49 66.8458L219.416 62.8096L208.694 70.9325L206.278 67.7607L217 59.6377L213.921 55.595Z" fill="black"/>
<path d="M227.71 68.4754L229.79 72.4861L225.195 78.8377L225.262 78.9682L233.115 78.8975L235.195 82.9082L222.472 82.5868L217.504 85.1497L215.654 81.5814L220.621 79.0185L227.71 68.4754Z" fill="black"/>
<path d="M51.4135 193.365C51.8495 192.95 52.0638 192.472 52.0565 191.929C52.0568 191.387 51.8111 190.806 51.3194 190.188C50.9938 189.779 50.6691 189.48 50.3453 189.292C50.0215 189.104 49.7113 189.016 49.4148 189.028C49.1226 189.037 48.8552 189.134 48.6126 189.319C48.4093 189.466 48.2668 189.641 48.1852 189.845C48.1069 190.053 48.0762 190.285 48.0931 190.543C48.1177 190.801 48.1822 191.084 48.2867 191.39C48.3911 191.696 48.53 192.024 48.7033 192.373L49.3423 193.701C49.7168 194.461 49.9833 195.181 50.1417 195.861C50.3035 196.546 50.3561 197.185 50.2993 197.779C50.246 198.377 50.0773 198.93 49.7935 199.44C49.5096 199.949 49.1067 200.414 48.5846 200.834C47.7525 201.486 46.8751 201.84 45.9523 201.896C45.0296 201.952 44.1016 201.718 43.1683 201.192C42.2383 200.671 41.3393 199.864 40.4711 198.773C39.5996 197.677 39.0044 196.592 38.6856 195.518C38.3668 194.443 38.3631 193.415 38.6743 192.432C38.9855 191.449 39.6486 190.546 40.6636 189.722L43.0748 192.753C42.6722 193.113 42.4097 193.505 42.2871 193.929C42.1646 194.352 42.1697 194.796 42.3026 195.26C42.4388 195.729 42.6917 196.196 43.0614 196.661C43.4005 197.087 43.7464 197.404 44.0992 197.611C44.4553 197.822 44.8003 197.928 45.1342 197.927C45.4681 197.927 45.7692 197.824 46.0374 197.619C46.2818 197.419 46.4322 197.175 46.4887 196.887C46.5494 196.596 46.52 196.244 46.4006 195.831C46.2889 195.419 46.0987 194.931 45.8299 194.366L45.0617 192.744C44.4202 191.403 44.1305 190.177 44.1926 189.065C44.259 187.95 44.7916 187.001 45.7903 186.217C46.5985 185.571 47.4828 185.225 48.4429 185.181C49.4031 185.137 50.3626 185.367 51.3216 185.873C52.2805 186.378 53.1551 187.128 53.9452 188.121C54.7523 189.135 55.2796 190.153 55.5271 191.172C55.7822 192.193 55.7645 193.155 55.474 194.059C55.1836 194.963 54.6338 195.742 53.8247 196.396L51.4135 193.365Z" fill="black"/>
<path d="M56.7361 197.251L58.9545 194.829L69.4107 204.354L67.1923 206.776L63.4411 203.359L54.3578 213.278L51.41 210.593L60.4933 200.674L56.7361 197.251Z" fill="black"/>
<path d="M61.9331 219.786L71.1152 205.796L76.9035 209.574C77.9526 210.259 78.734 211.039 79.2477 211.915C79.7689 212.789 80.0069 213.712 79.9616 214.684C79.9194 215.652 79.5845 216.614 78.9568 217.57C78.3201 218.54 77.567 219.226 76.6975 219.628C75.8309 220.025 74.891 220.146 73.8779 219.992C72.8678 219.834 71.829 219.406 70.7617 218.709L67.1012 216.32L68.8498 213.655L71.8808 215.634C72.3916 215.968 72.8615 216.18 73.2902 216.271C73.7266 216.361 74.1234 216.327 74.4806 216.17C74.8408 216.009 75.1629 215.711 75.4468 215.279C75.7308 214.846 75.8765 214.43 75.8839 214.032C75.8943 213.629 75.7725 213.244 75.5185 212.876C75.2675 212.504 74.8888 212.153 74.3825 211.822L72.7131 210.732L65.3199 221.997L61.9331 219.786ZM74.0184 218.542L73.3113 227.215L69.6166 224.803L70.3922 216.175L74.0184 218.542Z" fill="black"/>
<path d="M77.3637 229.487L84.2692 214.244L94.9072 219.038L93.5517 222.03L86.6013 218.898L85.1851 222.024L91.5917 224.911L90.2328 227.91L83.8262 225.023L82.4067 228.157L89.3571 231.289L88.0016 234.281L77.3637 229.487Z" fill="black"/>
<path d="M93.0112 236.253L97.5509 220.146L108.786 223.296L107.895 226.458L100.554 224.4L99.6233 227.703L106.39 229.6L105.496 232.769L98.73 230.872L97.7968 234.184L105.137 236.242L104.246 239.403L93.0112 236.253Z" fill="black"/>
<path d="M110.594 227.242L110.98 223.98L125.027 225.634L124.641 228.896L119.601 228.303L118.02 241.659L114.06 241.193L115.641 227.837L110.594 227.242Z" fill="black"/>
<path d="M134.25 226.094L139.207 225.377L144.902 235.023L145.096 234.995L147.812 224.134L152.769 223.417L155.176 239.977L151.278 240.541L149.799 230.369L149.662 230.388L147.146 241.031L144.655 241.391L139.205 231.842L139.068 231.862L140.554 242.091L136.656 242.654L134.25 226.094Z" fill="black"/>
<path d="M161.116 238.407L155.687 222.578L166.73 218.81L167.796 221.917L160.581 224.379L161.694 227.625L168.345 225.356L169.413 228.471L162.763 230.74L163.879 233.994L171.094 231.532L172.16 234.639L161.116 238.407Z" fill="black"/>
<path d="M182.752 229.764L177.3 232.687L169.361 217.956L174.806 215.037C176.308 214.231 177.761 213.833 179.164 213.841C180.569 213.842 181.864 214.235 183.049 215.021C184.232 215.803 185.235 216.959 186.059 218.488C186.886 220.023 187.302 221.5 187.306 222.919C187.314 224.336 186.933 225.632 186.161 226.806C185.386 227.975 184.25 228.961 182.752 229.764ZM179.229 227.74L180.979 226.802C181.805 226.36 182.429 225.846 182.85 225.262C183.274 224.67 183.462 223.979 183.413 223.189C183.367 222.392 183.059 221.463 182.487 220.403C181.916 219.343 181.313 218.579 180.676 218.111C180.038 217.637 179.353 217.417 178.622 217.451C177.893 217.477 177.107 217.716 176.262 218.169L174.562 219.08L179.229 227.74Z" fill="black"/>
<path d="M188.13 206.819L197.89 220.412L194.598 222.763L184.838 209.17L188.13 206.819Z" fill="black"/>
<path d="M205.74 199.638L202.744 202.415C202.418 202.145 202.078 201.944 201.724 201.812C201.37 201.68 201.009 201.62 200.642 201.634C200.275 201.647 199.909 201.738 199.544 201.906C199.179 202.065 198.829 202.301 198.493 202.612C197.898 203.164 197.52 203.785 197.36 204.476C197.203 205.163 197.266 205.889 197.546 206.654C197.831 207.415 198.338 208.186 199.065 208.967C199.823 209.78 200.574 210.354 201.318 210.689C202.063 211.017 202.777 211.124 203.46 211.01C204.144 210.889 204.777 210.558 205.36 210.017C205.688 209.714 205.947 209.396 206.136 209.064C206.33 208.729 206.455 208.387 206.51 208.038C206.565 207.682 206.551 207.328 206.468 206.974C206.384 206.613 206.231 206.261 206.008 205.918L209.021 203.159C209.475 203.749 209.814 204.429 210.041 205.2C210.271 205.966 210.361 206.778 210.311 207.635C210.256 208.487 210.02 209.345 209.603 210.207C209.189 211.066 208.561 211.886 207.718 212.667C206.607 213.697 205.386 214.376 204.054 214.704C202.722 215.025 201.367 214.952 199.986 214.486C198.606 214.02 197.291 213.115 196.039 211.772C194.784 210.425 193.978 209.045 193.62 207.631C193.263 206.216 193.297 204.859 193.723 203.558C194.149 202.257 194.907 201.101 195.998 200.09C196.741 199.401 197.525 198.868 198.349 198.49C199.17 198.108 200.003 197.892 200.851 197.842C201.694 197.788 202.531 197.908 203.362 198.2C204.192 198.492 204.985 198.971 205.74 199.638Z" fill="black"/>
<path d="M213.061 188.988C212.55 188.669 212.032 188.58 211.507 188.721C210.98 188.854 210.477 189.235 209.997 189.862C209.68 190.278 209.47 190.666 209.366 191.025C209.263 191.384 209.254 191.706 209.339 191.989C209.42 192.27 209.58 192.504 209.82 192.693C210.013 192.853 210.218 192.948 210.436 192.977C210.657 193.001 210.891 192.973 211.137 192.893C211.382 192.806 211.641 192.674 211.912 192.497C212.184 192.321 212.469 192.106 212.765 191.852L213.898 190.907C214.544 190.357 215.178 189.922 215.8 189.601C216.425 189.276 217.033 189.067 217.624 188.976C218.218 188.88 218.798 188.906 219.363 189.055C219.928 189.204 220.479 189.479 221.016 189.879C221.854 190.523 222.414 191.284 222.696 192.162C222.979 193.04 222.979 193.995 222.699 195.026C222.421 196.054 221.859 197.122 221.013 198.23C220.163 199.343 219.256 200.186 218.29 200.759C217.325 201.332 216.326 201.59 215.295 201.531C214.263 201.473 213.222 201.055 212.171 200.277L214.522 197.199C214.971 197.499 215.416 197.656 215.858 197.67C216.3 197.684 216.73 197.569 217.149 197.326C217.57 197.079 217.962 196.72 218.322 196.248C218.653 195.815 218.875 195.402 218.989 195.01C219.107 194.614 219.125 194.254 219.042 193.932C218.959 193.609 218.785 193.343 218.52 193.135C218.265 192.948 217.991 192.863 217.697 192.879C217.399 192.892 217.064 193.007 216.693 193.225C216.32 193.434 215.893 193.739 215.409 194.138L214.023 195.28C212.879 196.231 211.759 196.814 210.663 197.028C209.563 197.239 208.509 196.958 207.502 196.186C206.674 195.564 206.121 194.795 205.841 193.878C205.561 192.961 205.549 191.976 205.803 190.925C206.058 189.873 206.571 188.843 207.341 187.834C208.128 186.804 208.986 186.043 209.916 185.553C210.845 185.054 211.785 184.834 212.734 184.892C213.684 184.95 214.576 185.289 215.411 185.91L213.061 188.988Z" fill="black"/>
</svg>
