<svg width="38" height="38" viewBox="0 0 38 38" fill="none" xmlns="http://www.w3.org/2000/svg">
<path d="M32.1897 7.0116C29.693 5.86857 27.0574 5.05767 24.35 4.59961C23.9795 5.2619 23.6443 5.94331 23.3457 6.64098C20.4618 6.20641 17.5291 6.20641 14.6452 6.64098C14.3465 5.94338 14.0113 5.26198 13.641 4.59961C10.9319 5.06154 8.29447 5.87436 5.79531 7.01757C0.833855 14.3581 -0.511119 21.5164 0.161368 28.573C3.06692 30.7198 6.31907 32.3524 9.77644 33.4C10.5556 32.3534 11.2445 31.2426 11.8357 30.0794C10.7114 29.6595 9.6263 29.1414 8.59286 28.5312C8.86484 28.3339 9.13085 28.1307 9.38789 27.9334C12.3949 29.3476 15.677 30.0808 19 30.0808C22.323 30.0808 25.605 29.3476 28.6121 27.9334C28.8721 28.1456 29.1381 28.3489 29.4071 28.5312C28.3716 29.1424 27.2845 29.6615 26.1582 30.0824C26.7494 31.2446 27.4383 32.3545 28.2175 33.4C31.6778 32.3566 34.9325 30.7248 37.8386 28.576C38.2092 21.618 36.0961 14.3791 31.4186 7.0116H32.1897ZM12.6876 24.2332C10.8136 24.2332 9.26535 22.5326 9.26535 20.4404C9.26535 18.3482 10.7598 16.6326 12.6816 16.6326C14.6034 16.6326 16.1397 18.3482 16.1068 20.4404C16.0739 22.5326 14.5974 24.2332 12.6876 24.2332ZM25.3124 24.2332C23.4354 24.2332 21.8932 22.5326 21.8932 20.4404C21.8932 18.3482 23.3876 16.6326 25.3124 16.6326C27.2372 16.6326 28.7615 18.3482 28.7286 20.4404C28.6957 22.5326 27.2222 24.2332 25.3124 24.2332Z" fill="white"/>
</svg>
