<svg width="34" height="34" viewBox="0 0 34 34" fill="none" xmlns="http://www.w3.org/2000/svg">
<path d="M12.9186 0.496282L13.3001 2.04183C11.7963 2.41349 10.357 3.00941 9.03056 3.80954L8.21432 2.4427C9.67434 1.55853 11.2607 0.902177 12.9186 0.496282ZM21.081 0.496282L20.6994 2.04183C22.2032 2.41349 23.6425 3.00941 24.969 3.80954L25.7949 2.4427C24.331 1.5593 22.7416 0.903036 21.081 0.496282ZM2.44268 8.20951C1.55933 9.67167 0.903051 11.2594 0.496262 12.9186L2.04181 13.3001C2.41347 11.7963 3.00939 10.357 3.80952 9.03058L2.44268 8.20951ZM1.59263 16.9998C1.59251 16.227 1.65064 15.4552 1.76651 14.6911L0.191983 14.4496C-0.0639943 16.1385 -0.0639943 17.8563 0.191983 19.5451L1.76651 19.3084C1.65082 18.5443 1.5927 17.7726 1.59263 16.9998ZM25.7852 31.552L24.969 30.19C23.6446 30.9909 22.2068 31.5869 20.7042 31.9577L21.0858 33.5033C22.7417 33.0935 24.3261 32.4356 25.7852 31.552ZM32.4069 16.9998C32.4068 17.7726 32.3487 18.5443 32.233 19.3084L33.8075 19.5451C34.0635 17.8563 34.0635 16.1385 33.8075 14.4496L32.233 14.6911C32.3489 15.4552 32.407 16.227 32.4069 16.9998ZM33.5033 21.0762L31.9577 20.6946C31.5869 22.2002 30.991 23.6413 30.19 24.969L31.5569 25.7901C32.4411 24.3266 33.0974 22.7371 33.5033 21.0762ZM19.3084 32.233C17.778 32.4649 16.2215 32.4649 14.6911 32.233L14.4544 33.8076C16.1417 34.0636 17.8579 34.0636 19.5451 33.8076L19.3084 32.233ZM29.4028 26.1378C28.4847 27.3827 27.384 28.4818 26.1378 29.3979L27.0844 30.6827C28.4571 29.6722 29.6715 28.4627 30.6875 27.0941L29.4028 26.1378ZM26.1378 4.5968C27.3841 5.51471 28.4848 6.61542 29.4028 7.86176L30.6875 6.90546C29.675 5.53563 28.4639 4.32451 27.0941 3.31207L26.1378 4.5968ZM4.59678 7.86176C5.51469 6.61542 6.6154 5.51471 7.86174 4.5968L6.90544 3.31207C5.53561 4.32451 4.32448 5.53563 3.31205 6.90546L4.59678 7.86176ZM31.5569 8.20951L30.19 9.03058C30.9909 10.3549 31.5869 11.7927 31.9577 13.2953L33.5033 12.9138C33.0964 11.2562 32.4402 9.66997 31.5569 8.20951ZM14.6911 1.76653C16.2215 1.53467 17.778 1.53467 19.3084 1.76653L19.5451 0.192003C17.8579 -0.0640011 16.1417 -0.0640011 14.4544 0.192003L14.6911 1.76653ZM5.41302 31.1077L2.12391 31.8708L2.89185 28.5817L1.34148 28.2195L0.573539 31.5086C0.52549 31.7125 0.518116 31.9239 0.551839 32.1307C0.585562 32.3374 0.659721 32.5355 0.770073 32.7136C0.880425 32.8917 1.0248 33.0463 1.19495 33.1685C1.3651 33.2908 1.55768 33.3783 1.76168 33.426C2.00024 33.4791 2.24758 33.4791 2.48615 33.426L5.77526 32.6677L5.41302 31.1077ZM1.66991 26.7995L3.22511 27.1569L3.75639 24.8772C2.98055 23.5758 2.40269 22.1661 2.04181 20.6946L0.496262 21.0762C0.843904 22.4847 1.36977 23.8432 2.06112 25.1187L1.66991 26.7995ZM9.10784 30.248L6.82816 30.7793L7.1904 32.3345L8.86634 31.9433C10.1409 32.6367 11.4996 33.1627 12.9089 33.5081L13.2905 31.9626C11.8235 31.597 10.4189 31.0159 9.12232 30.2383L9.10784 30.248ZM16.9998 3.18649C9.36865 3.19132 3.1913 9.37833 3.1913 17.0046C3.19551 19.6022 3.93025 22.1461 5.31159 24.3459L3.98339 30.0162L9.64877 28.688C16.1062 32.7498 24.6357 30.8131 28.6976 24.3604C32.7595 17.9078 30.8275 9.37833 24.3749 5.31162C22.1659 3.92246 19.6093 3.18579 16.9998 3.18649Z" fill="white"/>
</svg>
