<svg width="32" height="32" viewBox="0 0 32 32" fill="none" xmlns="http://www.w3.org/2000/svg">
<path d="M6.6249 19.8498C6.6249 21.6748 5.1499 23.1498 3.3249 23.1498C1.4999 23.1498 0.0249023 21.6748 0.0249023 19.8498C0.0249023 18.0248 1.4999 16.5498 3.3249 16.5498H6.6249V19.8498ZM8.2749 19.8498C8.2749 18.0248 9.7499 16.5498 11.5749 16.5498C13.3999 16.5498 14.8749 18.0248 14.8749 19.8498V28.0998C14.8749 29.9248 13.3999 31.3998 11.5749 31.3998C9.7499 31.3998 8.2749 29.9248 8.2749 28.0998V19.8498Z" fill="white"/>
<path d="M11.575 6.6C9.75 6.6 8.275 5.125 8.275 3.3C8.275 1.475 9.75 0 11.575 0C13.4 0 14.875 1.475 14.875 3.3V6.6H11.575ZM11.575 8.275C13.4 8.275 14.875 9.75 14.875 11.575C14.875 13.4 13.4 14.875 11.575 14.875H3.3C1.475 14.875 0 13.4 0 11.575C0 9.75 1.475 8.275 3.3 8.275H11.575Z" fill="white"/>
<path d="M24.7998 11.575C24.7998 9.75 26.2748 8.275 28.0998 8.275C29.9248 8.275 31.3998 9.75 31.3998 11.575C31.3998 13.4 29.9248 14.875 28.0998 14.875H24.7998V11.575ZM23.1498 11.575C23.1498 13.4 21.6748 14.875 19.8498 14.875C18.0248 14.875 16.5498 13.4 16.5498 11.575V3.3C16.5498 1.475 18.0248 0 19.8498 0C21.6748 0 23.1498 1.475 23.1498 3.3V11.575Z" fill="white"/>
<path d="M19.8498 24.7998C21.6748 24.7998 23.1498 26.2748 23.1498 28.0998C23.1498 29.9248 21.6748 31.3998 19.8498 31.3998C18.0248 31.3998 16.5498 29.9248 16.5498 28.0998V24.7998H19.8498ZM19.8498 23.1498C18.0248 23.1498 16.5498 21.6748 16.5498 19.8498C16.5498 18.0248 18.0248 16.5498 19.8498 16.5498H28.1248C29.9498 16.5498 31.4248 18.0248 31.4248 19.8498C31.4248 21.6748 29.9498 23.1498 28.1248 23.1498H19.8498Z" fill="white"/>
</svg>
