<svg width="320" height="226" viewBox="0 0 320 226" fill="none" xmlns="http://www.w3.org/2000/svg">
<g clip-path="url(#clip0_19543_18310)">
<rect width="320" height="225.5" fill="#FFE8DC"/>
<path d="M310.019 189.996H276V210.704C275.99 212.596 277.645 214.492 280.967 215.933C287.59 218.806 298.428 218.806 305.052 215.933C308.719 214.342 310.351 212.197 309.958 210.115L310.019 210.114V189.996Z" fill="#EAE345"/>
<path d="M280.968 195.208C274.344 192.335 274.344 187.652 280.968 184.802C287.591 181.953 298.429 181.953 305.053 184.802C311.676 187.652 311.676 192.335 305.053 195.208C298.429 198.081 287.591 198.081 280.968 195.208Z" fill="#EAE345"/>
<path d="M310.019 168.644H276V189.352C275.99 191.244 277.645 193.141 280.967 194.581C287.59 197.455 298.428 197.455 305.052 194.581C308.719 192.991 310.351 190.846 309.958 188.764L310.019 188.763V168.644Z" fill="#D96043"/>
<path d="M280.968 173.862C274.344 170.989 274.344 166.307 280.968 163.457C287.591 160.607 298.429 160.607 305.053 163.457C311.676 166.307 311.676 170.989 305.053 173.862C298.429 176.735 287.591 176.735 280.968 173.862Z" fill="#D96043"/>
<path d="M310.019 147.403H276V168.111C275.99 170.003 277.645 171.899 280.967 173.34C287.59 176.213 298.428 176.213 305.052 173.34C308.719 171.75 310.351 169.605 309.958 167.523L310.019 167.522V147.403Z" fill="#D93529"/>
<path d="M280.968 152.616C274.344 149.742 274.344 145.06 280.968 142.21C287.591 139.36 298.429 139.36 305.053 142.21C311.676 145.06 311.676 149.742 305.053 152.616C298.429 155.489 287.591 155.489 280.968 152.616Z" fill="#D93529"/>
<path d="M292.056 116C293.153 116.269 294.018 117.054 294.658 117.946C295.228 118.974 295.569 119.961 295.536 121.139C295.534 121.33 295.531 121.522 295.529 121.714C295.523 122.012 295.517 122.31 295.51 122.608C295.479 124.102 295.517 125.255 296.516 126.462C296.598 126.502 296.68 126.542 296.764 126.583C296.773 126.406 296.773 126.406 296.783 126.226C296.911 124.58 297.557 123.308 298.498 121.961C298.913 122.164 298.951 122.593 299.095 123.007C300.102 126.01 300.915 129.15 299.555 132.177C298.714 133.803 297.399 134.969 295.649 135.585C295.319 135.683 294.996 135.76 294.658 135.828C294.701 135.756 294.744 135.685 294.789 135.61C294.845 135.514 294.902 135.418 294.96 135.319C295.016 135.225 295.072 135.13 295.13 135.033C295.434 134.416 295.514 133.705 295.401 133.031C295.1 132.345 294.635 131.778 294.154 131.206C293.372 130.275 292.904 129.355 292.916 128.142C292.917 127.987 292.918 127.832 292.919 127.673C292.92 127.554 292.922 127.435 292.923 127.313C292.44 127.742 292.105 128.239 291.754 128.773C291.694 128.864 291.634 128.956 291.572 129.05C290.615 130.535 290.19 131.875 290.322 133.639C290.514 134.436 290.874 135.137 291.313 135.828C289.267 135.269 287.889 133.959 286.853 132.179C286.778 132.055 286.778 132.055 286.702 131.929C285.847 130.402 285.753 128.49 286.11 126.804C286.695 124.879 287.914 123.568 289.351 122.205C289.466 122.095 289.581 121.985 289.699 121.871C289.928 121.652 290.159 121.435 290.391 121.22C291.321 120.334 292.138 119.26 292.196 117.944C292.196 117.809 292.196 117.674 292.195 117.536C292.196 117.402 292.196 117.268 292.196 117.13C292.181 116.743 292.13 116.38 292.056 116Z" fill="#F9B0A6"/>
<path d="M104 199C113.57 199 123.14 199 133 199C133 200.98 133 202.96 133 205C123.43 205 113.86 205 104 205C104 203.02 104 201.04 104 199Z" fill="#F9B0A6"/>
<path d="M104 186C113.57 186 123.14 186 133 186C133 187.65 133 189.3 133 191C123.43 191 113.86 191 104 191C104 189.35 104 187.7 104 186Z" fill="#F9B0A6"/>
<path d="M104 172C113.57 172 123.14 172 133 172C133 173.65 133 175.3 133 177C123.43 177 113.86 177 104 177C104 175.35 104 173.7 104 172Z" fill="#F9B0A6"/>
<path d="M23 192.965C34.88 192.965 46.76 192.965 59 192.965C59 197.881 59 202.797 59 207.861C47.12 207.861 35.24 207.861 23 207.861C23 202.946 23 198.03 23 192.965Z" fill="#D96043"/>
<path d="M23 170C27.9159 170 32.8317 170 37.8966 170C37.8966 177.579 37.8966 185.157 37.8966 192.966C32.9807 192.966 28.0648 192.966 23 192.966C23 185.387 23 177.808 23 170Z" fill="#D96043"/>
<path d="M23 192.965C27.9159 192.965 32.8317 192.965 37.8966 192.965C37.8966 197.881 37.8966 202.797 37.8966 207.861C32.9807 207.861 28.0648 207.861 23 207.861C23 202.946 23 198.03 23 192.965Z" fill="#8C3D0B"/>
<path d="M46.5859 170C50.6825 170 54.779 170 58.9997 170C58.9997 174.711 58.9997 179.422 58.9997 184.276C54.9032 184.276 50.8066 184.276 46.5859 184.276C46.5859 179.565 46.5859 174.854 46.5859 170Z" fill="#8C3D0B"/>
<path d="M281.88 21.9009C282.798 22.7263 283.646 23.6277 284.503 24.5173C284.846 24.871 285.189 25.2241 285.533 25.5768C285.745 25.7947 285.957 26.0132 286.168 26.2323C287.075 27.1685 288.023 28.0446 289.068 28.8217C289.145 28.7435 289.221 28.6652 289.3 28.5845C289.651 28.2271 290.002 27.8703 290.353 27.5135C290.474 27.3904 290.594 27.2672 290.719 27.1403C291.314 26.536 291.906 25.9638 292.579 25.4457C293.124 24.9252 293.619 24.3682 294.114 23.7999C295.634 22.1007 297.535 20.2279 299.935 20.0142C302.862 19.9287 305.123 20.4424 307.33 22.5339C309.218 24.5616 310.048 26.9314 309.998 29.6809C309.864 32.2352 308.657 34.5386 306.787 36.249C305.02 37.6078 303.231 38.3045 301.031 38.3062C300.889 38.3083 300.748 38.3103 300.602 38.3125C299.858 38.3142 299.272 38.2915 298.596 37.937C298.651 38.1041 298.707 38.2712 298.763 38.4434C299.016 40.8033 298.142 43.3818 296.683 45.2237C295.326 46.8383 293.728 47.8965 291.743 48.5714C291.443 48.6758 291.443 48.6758 291.137 48.7824C288.787 49.3156 286.325 48.8345 284.224 47.7155C281.889 46.2104 280.15 43.9199 279.477 41.1864C279.288 40.1389 279.315 39.1433 279.54 38.1058C279.415 38.1301 279.289 38.1545 279.16 38.1796C276.343 38.6956 274.129 38.3499 271.683 36.7554C269.636 35.2253 268.584 33.2567 268.048 30.7735C267.861 28.0946 268.172 25.7969 269.869 23.6397C270.238 23.2143 270.619 22.8078 271.015 22.4073C271.109 22.3101 271.203 22.2128 271.301 22.1126C274.302 19.2668 278.74 19.3957 281.88 21.9009Z" fill="#D96043"/>
<path d="M288.655 29C289.256 29.252 289.638 29.5882 290.095 30.0438C290.242 30.1897 290.389 30.3356 290.54 30.4859C290.777 30.7229 290.777 30.7229 291.018 30.9647C291.184 31.1287 291.349 31.2927 291.515 31.4565C292.216 32.1508 292.915 32.8473 293.614 33.5443C294.042 33.9713 294.471 34.3971 294.901 34.8221C295.142 35.0612 295.382 35.3018 295.622 35.5424C296.66 36.5684 297.663 37.3057 298.979 37.9422C299.141 40.8415 298.37 43.5625 296.366 45.7561C295.064 47.1147 293.544 47.9801 291.752 48.5716C291.546 48.6412 291.341 48.7108 291.129 48.7825C288.71 49.3154 286.175 48.8346 284.013 47.7161C281.609 46.2118 279.82 43.9223 279.127 41.1901C278.988 40.4411 278.983 39.7127 279.019 38.9545C279.016 38.7422 279.012 38.53 279.009 38.3113C279.191 37.7735 279.191 37.7735 279.499 37.5922C279.77 37.4839 280.043 37.3791 280.317 37.2772C281.55 36.7565 282.357 35.6529 283.186 34.6607C284.391 33.2439 285.766 31.9783 287.106 30.6872C287.663 30.1506 288.177 29.6074 288.655 29Z" fill="#F9B0A6"/>
<path d="M298.952 18.2468C298.472 15.5056 296.962 13.2919 294.66 11.6294C290.001 8.85459 284.092 9.62205 280.757 13.9455C279.408 15.9188 278.735 18.0764 279.097 20.4381C279.212 20.7283 279.212 20.7283 279.727 21.0592C280.997 21.7691 282.047 22.5577 283.072 23.5714C283.495 23.9953 283.921 24.4161 284.349 24.8355L284.607 25.0877C286.004 26.4622 287.465 27.7644 288.996 29C289.806 28.2045 290.612 27.4147 291.496 26.6943C291.829 26.4312 291.829 26.4312 292.086 26.1876L293.116 25.195L293.371 24.9391C294.624 23.4812 296.015 22.0193 297.782 21.1522C298.24 20.9564 298.24 20.9564 298.609 20.7283C299.061 19.9205 299.034 19.141 298.952 18.2468Z" fill="#FDC4BD"/>
<path d="M175 187.605C181.465 187.605 187.93 187.605 194.592 187.605C194.592 195.239 194.592 202.873 194.592 210.738C198.866 210.738 203.141 210.738 207.545 210.738C207.545 203.104 207.545 195.47 207.545 187.605C211.125 187.605 214.704 187.605 218.393 187.605C218.393 201.925 218.393 216.245 218.393 230.998C204.073 230.998 189.754 230.998 175 230.998C175 216.679 175 202.359 175 187.605Z" fill="#D93529"/>
<path d="M206.894 186C210.601 186 215.379 186 219.198 186C219.198 200.85 219.198 215.7 219.198 231C211.065 231 202.933 231 194.555 231C194.555 224.121 194.555 217.242 194.555 210.154C198.98 210.154 202.335 210.154 206.894 210.154C206.894 202.183 206.894 194.212 206.894 186Z" fill="#D96043"/>
</g>
<defs>
<clipPath id="clip0_19543_18310">
<rect width="320" height="225.5" fill="white"/>
</clipPath>
</defs>
</svg>
