<svg width="1920" height="672" viewBox="0 0 1920 672" fill="none" xmlns="http://www.w3.org/2000/svg">
<g clip-path="url(#clip0_19543_18250)">
<rect width="1920" height="672" fill="#FDE6DA"/>
<path d="M1840.12 568.472H1762.66V615.623C1762.64 619.931 1766.4 624.248 1773.97 627.529C1789.05 634.071 1813.73 634.071 1828.81 627.529C1837.16 623.907 1840.88 619.023 1839.98 614.283L1840.12 614.28V568.472Z" fill="#EAE345"/>
<path d="M1773.97 580.345C1758.89 573.803 1758.89 563.142 1773.97 556.653C1789.05 550.164 1813.73 550.164 1828.81 556.653C1843.89 563.142 1843.89 573.803 1828.81 580.345C1813.73 586.887 1789.05 586.887 1773.97 580.345Z" fill="#EAE345"/>
<path d="M1840.12 519.869H1762.66V567.019C1762.64 571.327 1766.4 575.644 1773.97 578.925C1789.05 585.467 1813.73 585.467 1828.81 578.925C1837.16 575.303 1840.88 570.42 1839.98 565.679L1840.12 565.677V519.869Z" fill="#D96043"/>
<path d="M1773.97 531.748C1758.89 525.206 1758.89 514.545 1773.97 508.056C1789.05 501.568 1813.73 501.568 1828.81 508.056C1843.89 514.545 1843.89 525.206 1828.81 531.748C1813.73 538.29 1789.05 538.29 1773.97 531.748Z" fill="#D96043"/>
<path d="M1840.12 471.498H1762.66V518.648C1762.64 522.956 1766.4 527.273 1773.97 530.554C1789.05 537.096 1813.73 537.096 1828.81 530.554C1837.16 526.932 1840.88 522.049 1839.98 517.308L1840.12 517.306V471.498Z" fill="#D93529"/>
<path d="M1773.97 483.37C1758.89 476.828 1758.89 466.167 1773.97 459.678C1789.05 453.19 1813.73 453.19 1828.81 459.678C1843.89 466.167 1843.89 476.828 1828.81 483.37C1813.73 489.912 1789.05 489.912 1773.97 483.37Z" fill="#D93529"/>
<path d="M1799.12 400C1801.64 400.611 1803.63 402.392 1805.1 404.417C1806.41 406.748 1807.19 408.989 1807.12 411.661C1807.11 412.097 1807.1 412.532 1807.1 412.967C1807.09 413.644 1807.07 414.321 1807.06 414.997C1806.99 418.386 1807.07 421.003 1809.37 423.742C1809.56 423.833 1809.74 423.924 1809.94 424.018C1809.96 423.616 1809.96 423.616 1809.98 423.207C1810.28 419.471 1811.76 416.585 1813.92 413.527C1814.88 413.989 1814.96 414.962 1815.3 415.903C1817.61 422.717 1819.48 429.843 1816.35 436.713C1814.42 440.403 1811.4 443.049 1807.38 444.447C1806.62 444.669 1805.87 444.843 1805.1 445C1805.2 444.836 1805.3 444.673 1805.4 444.505C1805.53 444.286 1805.66 444.068 1805.79 443.843C1805.92 443.629 1806.05 443.414 1806.18 443.193C1806.88 441.794 1807.06 440.18 1806.81 438.65C1806.11 437.094 1805.05 435.808 1803.94 434.509C1802.14 432.396 1801.07 430.308 1801.09 427.555C1801.1 427.204 1801.1 426.853 1801.1 426.491C1801.1 426.221 1801.11 425.952 1801.11 425.674C1800 426.648 1799.23 427.776 1798.42 428.987C1798.29 429.195 1798.15 429.403 1798 429.617C1795.81 432.986 1794.83 436.028 1795.13 440.03C1795.57 441.838 1796.4 443.43 1797.41 445C1792.71 443.729 1789.54 440.757 1787.16 436.717C1786.99 436.437 1786.99 436.437 1786.81 436.15C1784.85 432.684 1784.63 428.344 1785.45 424.518C1786.8 420.151 1789.6 417.175 1792.9 414.081C1793.16 413.831 1793.43 413.582 1793.7 413.324C1794.23 412.827 1794.76 412.334 1795.29 411.846C1797.43 409.835 1799.31 407.399 1799.44 404.41C1799.44 404.105 1799.44 403.8 1799.44 403.485C1799.44 403.181 1799.44 402.877 1799.44 402.564C1799.4 401.686 1799.29 400.861 1799.12 400Z" fill="#F9B0A6"/>
<path d="M1532.76 36.7062C1533.47 37.4143 1533.47 37.4143 1533.53 39.3423C1533.52 40.513 1533.52 40.513 1533.51 41.7073C1533.5 42.4896 1533.5 43.2719 1533.49 44.0779C1533.48 44.9856 1533.48 44.9856 1533.47 45.9118C1534.29 45.8994 1534.29 45.8994 1535.13 45.8869C1535.85 45.8805 1536.56 45.8741 1537.29 45.8675C1538 45.8593 1538.71 45.8511 1539.45 45.8426C1541.21 45.9118 1541.21 45.9118 1541.91 46.6199C1541.98 47.7847 1542 48.9524 1542 50.1192C1542 51.2557 1542 51.2557 1542 52.4151C1542 53.2535 1541.99 54.0919 1541.99 54.9557C1541.99 55.8329 1541.99 56.7102 1541.99 57.614C1541.99 60.0265 1541.99 62.4389 1541.98 64.8514C1541.98 67.37 1541.98 69.8887 1541.98 72.4073C1541.98 77.1797 1541.97 81.9522 1541.96 86.7247C1541.96 92.1566 1541.95 97.5886 1541.95 103.021C1541.94 114.197 1541.93 125.374 1541.91 136.551C1541.48 136.488 1541.04 136.426 1540.6 136.361C1538.59 136.073 1536.59 135.791 1534.58 135.508C1533.9 135.409 1533.22 135.311 1532.51 135.209C1526.18 134.323 1519.96 134.061 1513.58 134.117C1512.76 134.121 1512.76 134.121 1511.93 134.125C1496.66 134.229 1483.7 137.078 1471.67 147.065C1469.41 148.246 1468.3 147.925 1465.89 147.173C1464.19 146.096 1462.61 145.003 1461 143.809C1443.47 131.536 1420.25 133.478 1400.17 136.356C1398.13 136.57 1396.14 136.564 1394.09 136.551C1394.07 124.93 1394.06 113.309 1394.05 101.688C1394.05 96.2926 1394.04 90.8971 1394.03 85.5016C1394.03 80.8006 1394.02 76.0996 1394.02 71.3986C1394.02 68.9079 1394.02 66.4173 1394.01 63.9266C1394.01 61.1507 1394.01 58.3747 1394.01 55.5988C1394.01 54.767 1394 53.9353 1394 53.0783C1394 51.9508 1394 51.9508 1394 50.8004C1394 50.1431 1394 49.4858 1394 48.8086C1394.09 47.328 1394.09 47.328 1394.79 46.6199C1397.81 46.6199 1400.83 46.6199 1403.94 46.6199C1403.94 71.8573 1403.94 97.0946 1403.94 123.097C1408.12 122.396 1408.12 122.396 1412.39 121.681C1431.11 120.395 1449.82 124.683 1464.61 136.643C1465.56 137.411 1465.56 137.411 1466.53 138.196C1467.26 138.784 1467.26 138.784 1468 139.384C1467.99 138.967 1467.99 138.55 1467.98 138.12C1467.84 127.954 1467.74 117.788 1467.67 107.621C1467.64 102.704 1467.59 97.7872 1467.52 92.8707C1467.45 88.1231 1467.42 83.3763 1467.4 78.6282C1467.39 76.8196 1467.36 75.011 1467.33 73.2027C1467.04 57.2408 1467.04 57.2408 1471.07 52.6624C1472.75 51.2528 1472.75 51.2528 1474.34 50.1605C1475.08 49.4845 1475.82 48.8047 1476.56 48.1191C1492.57 35.6739 1512.97 30.3228 1532.76 36.7062Z" fill="#F9B0A6"/>
<path d="M1423.82 34.0091C1424.47 34.0135 1425.12 34.018 1425.8 34.0226C1437.88 34.3309 1449.85 38.9966 1458.88 47.3476C1460.52 48.8708 1460.52 48.8708 1462.34 49.9849C1465.13 52.1039 1466.94 53.9864 1467.67 57.4929C1468.22 63.0049 1467.97 68.5441 1467.81 74.0727C1467.79 75.8726 1467.76 77.6725 1467.74 79.4724C1467.68 83.7123 1467.59 87.9507 1467.49 92.1896C1467.37 97.0195 1467.29 101.85 1467.22 106.681C1467.07 116.609 1466.86 126.535 1466.63 136.462C1464.27 135.307 1462.44 133.887 1460.41 132.193C1444.73 119.746 1424.3 118.979 1405.39 120.593C1405.39 92.8175 1405.39 65.0415 1405.39 36.4238C1418.17 33.9673 1418.17 33.9673 1423.82 34.0091Z" fill="#F9B0A6"/>
<path d="M1533.47 45.3789C1536.02 45.3789 1538.58 45.3789 1541.21 45.3789C1541.91 46.0907 1541.91 46.0907 1542 47.59C1542 48.256 1542 48.9219 1542 49.6081C1542 50.7505 1542 50.7505 1542 51.9159C1542 52.7586 1541.99 53.6013 1541.99 54.4696C1541.99 55.3514 1541.99 56.2332 1541.99 57.1417C1541.99 59.5666 1541.99 61.9915 1541.98 64.4165C1541.98 66.9481 1541.98 69.4798 1541.98 72.0114C1541.98 76.8086 1541.97 81.6057 1541.96 86.4029C1541.96 91.8629 1541.95 97.323 1541.95 102.783C1541.94 114.018 1541.93 125.252 1541.91 136.487C1541.48 136.424 1541.04 136.361 1540.6 136.296C1538.59 136.007 1536.59 135.723 1534.58 135.439C1533.9 135.339 1533.22 135.24 1532.51 135.138C1526.18 134.247 1519.96 133.984 1513.58 134.04C1512.76 134.044 1512.76 134.044 1511.93 134.048C1496.66 134.153 1483.7 137.016 1471.67 147.055C1469.41 148.243 1468.3 147.92 1465.89 147.164C1464.19 146.081 1462.61 144.983 1461 143.783C1443.47 131.446 1420.25 133.398 1400.17 136.291C1398.13 136.506 1396.14 136.5 1394.09 136.487C1394.07 124.806 1394.06 113.125 1394.05 101.444C1394.05 96.0202 1394.04 90.5969 1394.03 85.1735C1394.03 80.4482 1394.02 75.7229 1394.02 70.9975C1394.02 68.494 1394.02 65.9905 1394.01 63.4869C1394.01 60.6966 1394.01 57.9063 1394.01 55.116C1394.01 54.28 1394 53.4439 1394 52.5825C1394 51.4491 1394 51.4491 1394 50.2928C1394 49.6321 1394 48.9714 1394 48.2907C1394.09 46.8025 1394.09 46.8025 1394.79 46.0907C1397.81 46.0907 1400.83 46.0907 1403.94 46.0907C1403.94 71.4586 1403.94 96.8265 1403.94 122.963C1408.12 122.258 1408.12 122.258 1412.39 121.54C1431.11 120.248 1450.21 124.505 1464.83 136.843C1465.38 137.335 1465.92 137.826 1466.48 138.333C1467.9 139.475 1467.9 139.475 1469.44 139.292C1471.14 138.465 1472.2 137.436 1473.54 136.087C1481.84 128.426 1492.85 123.856 1503.9 122.251C1504.44 122.172 1504.97 122.093 1505.53 122.012C1526.49 119.436 1526.49 119.436 1533.47 122.963C1533.47 97.3603 1533.47 71.7575 1533.47 45.3789Z" fill="#D96043"/>
<path d="M1692.26 121.461C1734.4 121.461 1776.54 121.461 1819.96 121.461C1819.96 138.898 1819.96 156.336 1819.96 174.301C1777.82 174.301 1735.68 174.301 1692.26 174.301C1692.26 156.864 1692.26 139.427 1692.26 121.461Z" fill="#D96043"/>
<path d="M1692.26 40C1709.7 40 1727.14 40 1745.1 40C1745.1 66.8825 1745.1 93.765 1745.1 121.462C1727.66 121.462 1710.23 121.462 1692.26 121.462C1692.26 94.5796 1692.26 67.6971 1692.26 40Z" fill="#D96043"/>
<path d="M1692.26 121.461C1709.7 121.461 1727.14 121.461 1745.1 121.461C1745.1 138.898 1745.1 156.336 1745.1 174.301C1727.66 174.301 1710.23 174.301 1692.26 174.301C1692.26 156.864 1692.26 139.427 1692.26 121.461Z" fill="#8C3D0B"/>
<path d="M1775.93 40C1790.46 40 1804.99 40 1819.96 40C1819.96 56.7107 1819.96 73.4215 1819.96 90.6386C1805.43 90.6386 1790.9 90.6386 1775.93 90.6386C1775.93 73.9279 1775.93 57.2171 1775.93 40Z" fill="#8C3D0B"/>
<path d="M1029 380C1074.14 380 1119.29 380 1165.8 380C1165.8 433.303 1165.8 486.607 1165.8 541.526C1195.65 541.526 1225.5 541.526 1256.25 541.526C1256.25 488.222 1256.25 434.919 1256.25 380C1281.25 380 1306.24 380 1332 380C1332 479.99 1332 579.98 1332 683C1232.01 683 1132.02 683 1029 683C1029 583.01 1029 483.02 1029 380Z" fill="#D93529"/>
<path d="M1252.13 369C1278 369 1311.35 369 1338 369C1338 472.62 1338 576.24 1338 683C1281.24 683 1224.48 683 1166 683C1166 635 1166 586.999 1166 537.544C1196.89 537.544 1220.3 537.544 1252.13 537.544C1252.13 481.925 1252.13 426.305 1252.13 369Z" fill="#D96043"/>
<path d="M1517 598C1533.17 598 1549.34 598 1566 598C1566 601.3 1566 604.6 1566 608C1549.83 608 1533.66 608 1517 608C1517 604.7 1517 601.4 1517 598Z" fill="#F9B0A6"/>
<path d="M1517 576C1533.17 576 1549.34 576 1566 576C1566 578.64 1566 581.28 1566 584C1549.83 584 1533.66 584 1517 584C1517 581.36 1517 578.72 1517 576Z" fill="#F9B0A6"/>
<path d="M1517 552C1533.17 552 1549.34 552 1566 552C1566 554.64 1566 557.28 1566 560C1549.83 560 1533.66 560 1517 560C1517 557.36 1517 554.72 1517 552Z" fill="#F9B0A6"/>
<path d="M1493.52 267.979C1499.77 273.614 1505.54 279.769 1511.37 285.842C1513.71 288.257 1516.05 290.668 1518.39 293.076C1519.84 294.564 1521.28 296.055 1522.71 297.552C1528.89 303.943 1535.35 309.925 1542.46 315.231C1542.99 314.697 1543.51 314.162 1544.05 313.612C1546.43 311.171 1548.82 308.735 1551.21 306.299C1552.04 305.458 1552.86 304.618 1553.7 303.751C1557.76 299.625 1561.79 295.718 1566.37 292.181C1570.08 288.627 1573.45 284.825 1576.83 280.944C1587.18 269.343 1600.12 256.556 1616.46 255.097C1636.39 254.513 1651.79 258.021 1666.82 272.301C1679.68 286.144 1685.33 302.325 1684.99 321.097C1684.07 338.537 1675.85 354.264 1663.12 365.941C1651.09 375.219 1638.91 379.976 1623.92 379.987C1622.96 380.001 1622 380.015 1621 380.03C1615.94 380.042 1611.95 379.887 1607.35 377.466C1607.72 378.607 1608.1 379.748 1608.48 380.924C1610.2 397.036 1604.25 414.641 1594.32 427.217C1585.08 438.241 1574.19 445.466 1560.68 450.074C1558.63 450.787 1558.63 450.787 1556.55 451.514C1540.55 455.155 1523.78 451.87 1509.48 444.23C1493.58 433.954 1481.74 418.315 1477.15 399.652C1475.87 392.5 1476.05 385.702 1477.58 378.619C1476.73 378.785 1475.87 378.951 1474.99 379.123C1455.81 382.646 1440.73 380.285 1424.08 369.399C1410.14 358.952 1402.98 345.512 1399.32 328.557C1398.06 310.267 1400.17 294.579 1411.73 279.85C1414.24 276.946 1416.83 274.171 1419.53 271.436C1420.17 270.772 1420.81 270.108 1421.48 269.424C1441.91 249.994 1472.14 250.874 1493.52 267.979Z" fill="#D96043"/>
<path d="M1539.65 317C1543.74 318.714 1546.34 321 1549.44 324.098C1550.44 325.09 1551.44 326.082 1552.47 327.104C1554.08 328.716 1554.08 328.716 1555.72 330.36C1556.85 331.475 1557.97 332.59 1559.1 333.704C1563.87 338.426 1568.62 343.161 1573.37 347.901C1576.28 350.805 1579.2 353.7 1582.13 356.59C1583.77 358.216 1585.4 359.852 1587.03 361.488C1594.09 368.465 1600.91 373.479 1609.86 377.807C1610.96 397.522 1605.72 416.025 1592.09 430.941C1583.24 440.18 1572.9 446.065 1560.72 450.087C1559.32 450.56 1557.92 451.033 1556.47 451.521C1540.03 455.145 1522.79 451.875 1508.09 444.27C1491.74 434.04 1479.57 418.472 1474.86 399.892C1473.92 394.799 1473.88 389.846 1474.13 384.691C1474.11 383.247 1474.08 381.804 1474.06 380.317C1475.3 376.66 1475.3 376.66 1477.39 375.427C1479.24 374.69 1481.09 373.978 1482.96 373.285C1491.34 369.744 1496.82 362.24 1502.47 355.493C1510.66 345.858 1520.01 337.253 1529.12 328.473C1532.91 324.824 1536.4 321.13 1539.65 317Z" fill="#F9B0A6"/>
<path d="M1609.67 243.425C1606.41 224.67 1596.14 209.524 1580.49 198.148C1548.81 179.163 1508.63 184.414 1485.94 213.995C1476.78 227.497 1472.2 242.259 1474.66 258.419C1475.44 260.404 1475.44 260.404 1478.94 262.668C1487.58 267.526 1494.72 272.921 1501.69 279.857C1504.56 282.757 1507.46 285.637 1510.37 288.506L1512.13 290.232C1521.63 299.636 1531.56 308.546 1541.97 317C1547.48 311.557 1552.96 306.153 1558.97 301.224C1561.24 299.424 1561.24 299.424 1562.98 297.757L1569.99 290.966L1571.72 289.215C1580.24 279.239 1589.71 269.237 1601.72 263.305C1604.83 261.965 1604.83 261.965 1607.34 260.404C1610.41 254.877 1610.23 249.543 1609.67 243.425Z" fill="#FDC4BD"/>
</g>
<defs>
<clipPath id="clip0_19543_18250">
<rect width="1920" height="672" fill="white"/>
</clipPath>
</defs>
</svg>
