<svg width="260" height="390" viewBox="0 0 260 390" fill="none" xmlns="http://www.w3.org/2000/svg">
<g opacity="0.99">
<rect width="260" height="390" fill="#FFE8DC"/>
<path d="M241.019 343.995H207V364.704C206.99 366.595 208.645 368.492 211.967 369.933C218.59 372.806 229.428 372.806 236.052 369.933C239.719 368.342 241.351 366.197 240.958 364.115L241.019 364.114V343.995Z" fill="#EAE345"/>
<path d="M211.968 349.208C205.344 346.334 205.344 341.652 211.968 338.802C218.591 335.953 229.429 335.953 236.053 338.802C242.676 341.652 242.676 346.334 236.053 349.208C229.429 352.081 218.591 352.081 211.968 349.208Z" fill="#EAE345"/>
<path d="M241.019 322.644H207V343.352C206.99 345.244 208.645 347.141 211.967 348.581C218.59 351.455 229.428 351.455 236.052 348.581C239.719 346.991 241.351 344.846 240.958 342.764L241.019 342.763V322.644Z" fill="#D96043"/>
<path d="M211.968 327.862C205.344 324.989 205.344 320.307 211.968 317.457C218.591 314.607 229.429 314.607 236.053 317.457C242.676 320.307 242.676 324.989 236.053 327.862C229.429 330.735 218.591 330.735 211.968 327.862Z" fill="#D96043"/>
<path d="M241.019 301.403H207V322.111C206.99 324.003 208.645 325.899 211.967 327.34C218.59 330.213 229.428 330.213 236.052 327.34C239.719 325.75 241.351 323.605 240.958 321.523L241.019 321.522V301.403Z" fill="#D93529"/>
<path d="M211.968 306.615C205.344 303.742 205.344 299.06 211.968 296.21C218.591 293.36 229.429 293.36 236.053 296.21C242.676 299.06 242.676 303.742 236.053 306.615C229.429 309.489 218.591 309.489 211.968 306.615Z" fill="#D93529"/>
<path d="M223.056 270C224.153 270.269 225.018 271.054 225.658 271.946C226.228 272.974 226.569 273.961 226.536 275.139C226.534 275.33 226.531 275.522 226.529 275.714C226.523 276.012 226.517 276.31 226.51 276.608C226.479 278.102 226.517 279.255 227.516 280.462C227.598 280.502 227.68 280.542 227.764 280.583C227.773 280.406 227.773 280.406 227.783 280.226C227.911 278.58 228.557 277.308 229.498 275.961C229.913 276.164 229.951 276.593 230.095 277.007C231.102 280.01 231.915 283.15 230.555 286.177C229.714 287.803 228.399 288.969 226.649 289.585C226.319 289.683 225.996 289.76 225.658 289.828C225.701 289.756 225.744 289.685 225.789 289.61C225.845 289.514 225.902 289.418 225.96 289.319C226.016 289.225 226.072 289.13 226.13 289.033C226.434 288.416 226.514 287.705 226.401 287.031C226.1 286.345 225.635 285.778 225.154 285.206C224.372 284.275 223.904 283.355 223.916 282.142C223.917 281.987 223.918 281.832 223.919 281.673C223.92 281.554 223.922 281.435 223.923 281.313C223.44 281.742 223.105 282.239 222.754 282.773C222.694 282.864 222.634 282.956 222.572 283.05C221.615 284.535 221.19 285.875 221.322 287.639C221.514 288.436 221.874 289.137 222.313 289.828C220.267 289.269 218.889 287.959 217.853 286.179C217.778 286.055 217.778 286.055 217.702 285.929C216.847 284.402 216.753 282.49 217.11 280.804C217.695 278.879 218.914 277.568 220.351 276.205C220.466 276.095 220.581 275.985 220.699 275.871C220.928 275.652 221.159 275.435 221.391 275.22C222.321 274.334 223.138 273.26 223.196 271.944C223.196 271.809 223.196 271.674 223.195 271.536C223.196 271.402 223.196 271.268 223.196 271.13C223.181 270.743 223.13 270.38 223.056 270Z" fill="#F9B0A6"/>
<path d="M167.879 244.856C168.101 245.08 168.101 245.08 168.123 245.689C168.119 246.06 168.119 246.06 168.115 246.437C168.113 246.685 168.111 246.932 168.109 247.187C168.105 247.474 168.105 247.474 168.101 247.767C168.362 247.763 168.362 247.763 168.629 247.759C168.854 247.757 169.079 247.755 169.312 247.753C169.536 247.75 169.761 247.748 169.992 247.745C170.55 247.767 170.55 247.767 170.772 247.991C170.794 248.359 170.799 248.728 170.799 249.097C170.8 249.457 170.8 249.457 170.8 249.823C170.799 250.088 170.798 250.353 170.798 250.627C170.798 250.904 170.798 251.181 170.798 251.467C170.798 252.23 170.796 252.993 170.795 253.756C170.793 254.552 170.793 255.349 170.793 256.145C170.792 257.654 170.791 259.163 170.788 260.672C170.786 262.39 170.785 264.108 170.784 265.825C170.781 269.36 170.777 272.894 170.772 276.428C170.635 276.408 170.498 276.389 170.356 276.368C169.722 276.277 169.088 276.188 168.454 276.098C168.238 276.067 168.022 276.036 167.8 276.004C165.799 275.724 163.831 275.641 161.813 275.659C161.555 275.66 161.555 275.66 161.291 275.661C156.461 275.694 152.366 276.595 148.56 279.753C147.847 280.127 147.494 280.025 146.732 279.787C146.196 279.446 145.696 279.101 145.188 278.723C139.642 274.843 132.302 275.457 125.952 276.367C125.307 276.434 124.676 276.432 124.028 276.428C124.023 272.754 124.019 269.079 124.016 265.404C124.015 263.698 124.013 261.992 124.011 260.286C124.009 258.799 124.007 257.313 124.007 255.826C124.006 255.038 124.006 254.251 124.004 253.463C124.002 252.585 124.002 251.708 124.002 250.83C124.002 250.567 124.001 250.304 124 250.033C124 249.676 124 249.676 124.001 249.313C124.001 249.105 124.001 248.897 124 248.683C124.028 248.215 124.028 248.215 124.25 247.991C125.205 247.991 126.16 247.991 127.144 247.991C127.144 255.971 127.144 263.952 127.144 272.174C128.466 271.952 128.466 271.952 129.815 271.726C135.733 271.32 141.65 272.675 146.328 276.457C146.629 276.7 146.629 276.7 146.936 276.948C147.166 277.134 147.166 277.134 147.4 277.324C147.398 277.192 147.396 277.06 147.394 276.925C147.35 273.71 147.317 270.495 147.296 267.28C147.286 265.725 147.272 264.171 147.249 262.616C147.227 261.115 147.215 259.614 147.21 258.112C147.206 257.54 147.199 256.968 147.188 256.397C147.096 251.349 147.096 251.349 148.37 249.901C148.903 249.456 148.903 249.456 149.403 249.11C149.639 248.896 149.874 248.681 150.107 248.465C155.171 244.529 161.62 242.837 167.879 244.856Z" fill="#F9B0A6"/>
<path d="M133.427 244.003C133.634 244.004 133.841 244.006 134.054 244.007C137.875 244.105 141.658 245.58 144.515 248.221C145.034 248.702 145.034 248.702 145.607 249.055C146.492 249.725 147.063 250.32 147.293 251.429C147.469 253.172 147.39 254.923 147.339 256.672C147.331 257.241 147.323 257.81 147.316 258.379C147.298 259.72 147.269 261.06 147.237 262.401C147.2 263.928 147.175 265.455 147.152 266.983C147.103 270.122 147.039 273.261 146.965 276.4C146.218 276.035 145.641 275.586 144.997 275.05C140.041 271.114 133.579 270.872 127.602 271.382C127.602 262.599 127.602 253.816 127.602 244.766C131.642 243.99 131.642 243.99 133.427 244.003Z" fill="#F9B0A6"/>
<path d="M168.101 247.602C168.909 247.602 169.717 247.602 170.55 247.602C170.772 247.827 170.772 247.827 170.8 248.301C170.799 248.511 170.799 248.722 170.799 248.939C170.8 249.3 170.8 249.3 170.8 249.669C170.799 249.935 170.798 250.202 170.798 250.476C170.798 250.755 170.798 251.034 170.798 251.321C170.798 252.088 170.796 252.855 170.795 253.622C170.793 254.422 170.793 255.223 170.793 256.023C170.792 257.54 170.791 259.057 170.788 260.574C170.786 262.301 170.785 264.027 170.784 265.754C170.781 269.306 170.777 272.859 170.772 276.411C170.635 276.391 170.498 276.372 170.356 276.351C169.722 276.26 169.088 276.17 168.454 276.08C168.238 276.048 168.022 276.017 167.8 275.985C165.799 275.703 163.831 275.62 161.813 275.638C161.555 275.639 161.555 275.639 161.291 275.64C156.461 275.673 152.366 276.579 148.56 279.753C147.847 280.129 147.494 280.027 146.732 279.788C146.196 279.445 145.696 279.098 145.188 278.718C139.642 274.817 132.302 275.435 125.952 276.349C125.307 276.417 124.676 276.415 124.028 276.411C124.023 272.718 124.019 269.024 124.016 265.33C124.015 263.615 124.013 261.9 124.011 260.185C124.009 258.691 124.007 257.197 124.007 255.703C124.006 254.911 124.006 254.119 124.004 253.328C124.002 252.445 124.002 251.563 124.002 250.681C124.002 250.416 124.001 250.152 124 249.879C124 249.521 124 249.521 124.001 249.155C124.001 248.946 124.001 248.738 124 248.522C124.028 248.052 124.028 248.052 124.25 247.827C125.205 247.827 126.16 247.827 127.144 247.827C127.144 255.848 127.144 263.87 127.144 272.135C128.466 271.912 128.466 271.912 129.815 271.685C135.734 271.276 141.775 272.623 146.398 276.524C146.57 276.679 146.743 276.835 146.92 276.995C147.368 277.356 147.368 277.356 147.854 277.299C148.393 277.037 148.729 276.711 149.153 276.285C151.776 273.862 155.257 272.417 158.752 271.91C158.922 271.885 159.091 271.86 159.266 271.834C165.895 271.02 165.895 271.02 168.101 272.135C168.101 264.039 168.101 255.943 168.101 247.602Z" fill="#D96043"/>
<path d="M207 203.52C220.2 203.52 233.4 203.52 247 203.52C247 208.982 247 214.444 247 220.071C233.8 220.071 220.6 220.071 207 220.071C207 214.609 207 209.147 207 203.52Z" fill="#D96043"/>
<path d="M207 178C212.462 178 217.924 178 223.552 178C223.552 186.421 223.552 194.841 223.552 203.517C218.09 203.517 212.628 203.517 207 203.517C207 195.097 207 186.676 207 178Z" fill="#D96043"/>
<path d="M207 203.52C212.462 203.52 217.924 203.52 223.552 203.52C223.552 208.982 223.552 214.444 223.552 220.071C218.09 220.071 212.628 220.071 207 220.071C207 214.609 207 209.147 207 203.52Z" fill="#8C3D0B"/>
<path d="M233.207 178C237.759 178 242.31 178 247 178C247 183.234 247 188.469 247 193.862C242.448 193.862 237.897 193.862 233.207 193.862C233.207 188.628 233.207 183.393 233.207 178Z" fill="#8C3D0B"/>
<path d="M207.764 36.6786C208.588 37.4193 209.349 38.2283 210.118 39.0267C210.425 39.344 210.734 39.661 211.042 39.9775C211.233 40.173 211.423 40.3691 211.612 40.5658C212.426 41.4059 213.277 42.1922 214.215 42.8896C214.284 42.8194 214.352 42.7491 214.423 42.6767C214.738 42.3559 215.053 42.0358 215.368 41.7156C215.476 41.605 215.585 41.4945 215.696 41.3806C216.231 40.8383 216.761 40.3248 217.365 39.8599C217.855 39.3927 218.299 38.8929 218.744 38.3828C220.108 36.8579 221.813 35.1772 223.967 34.9854C226.594 34.9087 228.624 35.3697 230.604 37.2467C232.299 39.0664 233.043 41.1931 232.998 43.6607C232.878 45.9529 231.795 48.0201 230.117 49.5551C228.53 50.7746 226.926 51.3998 224.95 51.4013C224.823 51.4032 224.697 51.405 224.566 51.4069C223.898 51.4085 223.372 51.3881 222.766 51.0699C222.815 51.2199 222.865 51.3699 222.916 51.5244C223.142 53.6423 222.358 55.9563 221.049 57.6093C219.831 59.0584 218.396 60.008 216.615 60.6136C216.346 60.7074 216.346 60.7074 216.071 60.803C213.962 61.2815 211.753 60.8498 209.868 59.8455C207.772 58.4949 206.212 56.4392 205.608 53.9861C205.438 53.046 205.462 52.1525 205.664 51.2214C205.551 51.2433 205.439 51.2652 205.323 51.2877C202.795 51.7507 200.808 51.4405 198.613 50.0095C196.776 48.6364 195.832 46.8697 195.35 44.6412C195.183 42.237 195.462 40.175 196.985 38.2391C197.316 37.8573 197.658 37.4925 198.013 37.1331C198.098 37.0458 198.183 36.9585 198.27 36.8686C200.963 34.3146 204.946 34.4303 207.764 36.6786Z" fill="#D96043"/>
<path d="M213.844 43.0508C214.383 43.2769 214.726 43.5787 215.135 43.9876C215.267 44.1185 215.399 44.2494 215.535 44.3843C215.748 44.597 215.748 44.597 215.964 44.8139C216.113 44.9612 216.261 45.1083 216.41 45.2553C217.039 45.8784 217.667 46.5035 218.293 47.129C218.678 47.5122 219.063 47.8943 219.449 48.2758C219.666 48.4903 219.881 48.7062 220.096 48.9221C221.027 49.8429 221.928 50.5046 223.109 51.0758C223.254 53.6778 222.562 56.1197 220.763 58.0883C219.595 59.3076 218.231 60.0842 216.623 60.615C216.438 60.6775 216.254 60.7399 216.063 60.8043C213.892 61.2826 211.618 60.8511 209.678 59.8473C207.521 58.4972 205.914 56.4426 205.293 53.9906C205.168 53.3184 205.163 52.6647 205.196 51.9843C205.193 51.7938 205.19 51.6033 205.186 51.407C205.35 50.9244 205.35 50.9244 205.627 50.7618C205.87 50.6645 206.115 50.5705 206.361 50.479C207.467 50.0118 208.191 49.0213 208.936 48.1309C210.017 46.8594 211.251 45.7236 212.454 44.5649C212.953 44.0834 213.415 43.5959 213.844 43.0508Z" fill="#F9B0A6"/>
<path d="M223.084 33.4009C222.654 30.9409 221.298 28.9543 219.233 27.4623C215.052 24.9721 209.749 25.6608 206.755 29.5408C205.545 31.3117 204.941 33.248 205.266 35.3675C205.369 35.6279 205.369 35.6279 205.831 35.9249C206.971 36.5621 207.913 37.2697 208.833 38.1795C209.212 38.5599 209.595 38.9376 209.979 39.3139L210.21 39.5403C211.465 40.7738 212.775 41.9424 214.149 43.0513C214.877 42.3374 215.6 41.6285 216.393 40.982C216.692 40.746 216.692 40.746 216.922 40.5273L217.847 39.6365L218.076 39.4069C219.2 38.0985 220.449 36.7866 222.035 36.0084C222.446 35.8327 222.446 35.8327 222.776 35.6279C223.182 34.903 223.158 34.2034 223.084 33.4009Z" fill="#FDC4BD"/>
<path d="M18 291C30.0684 291 42.1368 291 54.5709 291C54.5709 305.249 54.5709 319.499 54.5709 334.18C62.55 334.18 70.5291 334.18 78.75 334.18C78.75 319.931 78.75 305.681 78.75 291C85.4325 291 92.115 291 99 291C99 317.73 99 344.46 99 372C72.27 372 45.54 372 18 372C18 345.27 18 318.54 18 291Z" fill="#D93529"/>
<path d="M77.534 288C84.4528 288 93.3716 288 100.5 288C100.5 315.72 100.5 343.44 100.5 372C85.32 372 70.14 372 54.5 372C54.5 359.159 54.5 346.318 54.5 333.088C62.7612 333.088 69.0224 333.088 77.534 333.088C77.534 318.209 77.534 303.33 77.534 288Z" fill="#D96043"/>
<path d="M139 362C148.57 362 158.14 362 168 362C168 363.98 168 365.96 168 368C158.43 368 148.86 368 139 368C139 366.02 139 364.04 139 362Z" fill="#F9B0A6"/>
<path d="M139 349C148.57 349 158.14 349 168 349C168 350.65 168 352.3 168 354C158.43 354 148.86 354 139 354C139 352.35 139 350.7 139 349Z" fill="#F9B0A6"/>
<path d="M139 335C148.57 335 158.14 335 168 335C168 336.65 168 338.3 168 340C158.43 340 148.86 340 139 340C139 338.35 139 336.7 139 335Z" fill="#F9B0A6"/>
</g>
</svg>
