<svg width="320" height="226" viewBox="0 0 320 226" fill="none" xmlns="http://www.w3.org/2000/svg">
<g clip-path="url(#clip0_19568_7243)">
<rect width="320" height="225.5" fill="#FFF1D4"/>
<path d="M296.269 85.1514C304.099 85.1514 311.93 85.1514 319.999 85.1514C319.999 100.308 319.999 115.465 319.999 131.081C312.168 131.081 304.337 131.081 296.269 131.081C296.269 115.924 296.269 100.767 296.269 85.1514Z" fill="#F9B0A6"/>
<path d="M274.069 85.1514C281.395 85.1514 288.721 85.1514 296.268 85.1514C296.268 100.308 296.268 115.465 296.268 131.081C288.943 131.081 281.617 131.081 274.069 131.081C274.069 115.924 274.069 100.767 274.069 85.1514Z" fill="#8D5AC4"/>
<path d="M296.269 53.001C304.099 53.001 311.93 53.001 319.999 53.001C319.999 63.6106 319.999 74.2203 319.999 85.1514C312.168 85.1514 304.337 85.1514 296.269 85.1514C296.269 74.5418 296.269 63.9321 296.269 53.001Z" fill="#A8ADFD"/>
<g clip-path="url(#clip1_19568_7243)">
<mask id="mask0_19568_7243" style="mask-type:luminance" maskUnits="userSpaceOnUse" x="79" y="168" width="58" height="55">
<path d="M137 168H79V223H137V168Z" fill="white"/>
</mask>
<g mask="url(#mask0_19568_7243)">
<path d="M108 223C106.087 223 104.325 222.547 102.714 221.639C101.153 220.78 99.8941 219.61 98.9375 218.13C98.0312 216.602 97.5781 214.931 97.5781 213.117C97.5781 210.825 98.1319 208.916 99.2396 207.388C100.347 205.86 102.059 204.07 104.375 202.017C106.087 200.537 106.943 199.128 106.943 197.792V196.503H105.583C104.023 196.503 101.883 197.983 99.164 200.943C96.4957 203.903 93.2483 205.383 89.4219 205.383C87.5087 205.383 85.7465 204.953 84.1354 204.094C82.5747 203.187 81.316 201.993 80.3594 200.513C79.4531 198.985 79 197.314 79 195.5C79 193.686 79.4531 192.039 80.3594 190.559C81.316 189.031 82.5747 187.837 84.1354 186.978C85.7465 186.071 87.5087 185.617 89.4219 185.617C93.1979 185.617 96.4201 187.073 99.0885 189.986C101.757 192.898 103.922 194.354 105.583 194.354H106.943V193.208C106.943 191.872 106.087 190.463 104.375 188.983L102.638 187.479C101.379 186.381 100.221 185.068 99.164 183.54C98.1068 181.965 97.5781 180.079 97.5781 177.883C97.5781 176.069 98.0312 174.421 98.9375 172.941C99.8941 171.414 101.153 170.22 102.714 169.361C104.325 168.454 106.087 168 108 168C109.913 168 111.65 168.454 113.211 169.361C114.822 170.268 116.081 171.461 116.987 172.941C117.944 174.421 118.422 176.069 118.422 177.883C118.422 181.464 116.886 184.519 113.815 187.049C110.744 189.58 109.208 191.633 109.208 193.208V194.354H110.417C112.128 194.354 114.293 192.898 116.911 189.986C119.479 187.073 122.701 185.617 126.578 185.617C128.491 185.617 130.228 186.071 131.789 186.978C133.4 187.837 134.659 189.007 135.565 190.487C136.522 191.967 137 193.638 137 195.5C137 197.314 136.522 198.985 135.565 200.513C134.659 201.993 133.4 203.187 131.789 204.094C130.228 204.953 128.491 205.383 126.578 205.383C124.212 205.383 122.173 204.834 120.461 203.736C118.8 202.638 116.937 201.038 114.872 198.938C113.312 197.314 111.826 196.503 110.417 196.503H109.208V197.792C109.208 199.558 110.744 201.611 113.815 203.95C116.886 206.29 118.422 209.345 118.422 213.117C118.422 214.931 117.944 216.602 116.987 218.13C116.081 219.61 114.847 220.78 113.286 221.639C111.726 222.547 109.964 223 108 223Z" fill="#05728C"/>
</g>
</g>
<g clip-path="url(#clip2_19568_7243)">
<mask id="mask1_19568_7243" style="mask-type:luminance" maskUnits="userSpaceOnUse" x="157" y="175" width="40" height="38">
<path d="M197 175H157V213H197V175Z" fill="white"/>
</mask>
<g mask="url(#mask1_19568_7243)">
<path fill-rule="evenodd" clip-rule="evenodd" d="M157 213C157 212.968 157 212.937 157 212.905C157 208.081 160.747 204.088 165.627 203.411C160.754 202.776 157 198.804 157 194C157 188.753 161.477 184.5 167 184.5H167.1C161.555 184.5 157.054 180.255 157 175H197C196.946 180.255 192.445 184.5 186.9 184.5H187C192.523 184.5 197 188.753 197 194C197 198.804 193.246 202.776 188.373 203.411C193.253 204.088 197 208.081 197 212.905C197 212.937 197 212.968 197 213H157Z" fill="#140BA9"/>
</g>
</g>
<path d="M237.327 131.079C264.604 131.079 291.882 131.079 319.985 131.079C319.985 142.827 320 154.902 320 167.006C310.3 167.006 300.599 167.006 290.605 167.006C290.605 172.092 290.591 177.126 290.591 182.367C288.098 182.122 288.098 182.122 287.274 181.897C286.998 181.822 286.998 181.822 286.716 181.745C286.527 181.69 286.338 181.636 286.143 181.58C285.942 181.522 285.74 181.464 285.533 181.405C277.613 179.064 270.881 173.949 266.861 166.82C263.095 159.906 263.186 154.135 263.186 146.045C254.652 146.045 246.119 146.045 237.327 146.045C237.327 141.46 237.327 135.803 237.327 131.079Z" fill="#05728C"/>
<path d="M237.327 144.86C245.836 144.86 254.345 144.86 263.111 144.86C263.184 148.471 263.257 152.081 263.332 155.8C264.87 162.969 266.975 168.347 271.926 173.662C272.077 173.829 272.228 173.996 272.383 174.169C277.165 179.282 283.842 181.554 290.438 183.039C290.438 177.808 290.438 172.421 290.438 167.031C300.11 167.031 310.034 167.031 320 167.031C320 177.346 320 187.817 320 198.444C292.801 198.444 265.35 198.444 237.327 198.444C237.327 180.762 237.327 163.079 237.327 144.86Z" fill="#F6F06F"/>
<path d="M262.589 155.575C262.664 155.575 262.739 155.575 262.816 155.575C262.843 155.713 262.871 155.85 262.899 155.992C264.275 162.82 266.788 168.4 271.682 173.515C271.838 173.683 271.993 173.851 272.154 174.024C277.086 179.16 284.108 181.478 290.912 182.969C290.912 188.075 290.912 193.182 290.912 198.442C281.609 198.442 272.173 198.407 262.589 198.407C262.589 184.273 262.589 170.138 262.589 155.575Z" fill="#05728C"/>
<g clip-path="url(#clip3_19568_7243)">
<mask id="mask2_19568_7243" style="mask-type:luminance" maskUnits="userSpaceOnUse" x="23" y="190" width="22" height="23">
<path d="M45 190H23V213H45V190Z" fill="white"/>
</mask>
<g mask="url(#mask2_19568_7243)">
<path fill-rule="evenodd" clip-rule="evenodd" d="M29.7461 201.5C16.9812 211.33 24.6021 219.298 34.0021 205.95C43.3962 219.298 51.0171 211.33 38.258 201.5C51.0229 191.671 43.402 183.702 34.0021 197.051C24.5962 183.706 16.9753 191.671 29.7461 201.5ZM34 204.375C35.5188 204.375 36.75 203.088 36.75 201.5C36.75 199.912 35.5188 198.625 34 198.625C32.4812 198.625 31.25 199.912 31.25 201.5C31.25 203.088 32.4812 204.375 34 204.375Z" fill="#45EA97"/>
</g>
</g>
<path d="M267.179 167.825C267.88 168.459 268.438 169.115 268.989 169.87C269.948 171.14 270.994 172.292 272.125 173.426C272.3 173.602 272.475 173.778 272.656 173.959C273.811 175.089 275.03 176.078 276.365 177.011C275.489 177.011 275.296 176.799 274.627 176.283C274.348 176.068 274.348 176.068 274.063 175.85C273.89 175.715 273.717 175.581 273.538 175.443C273.3 175.272 273.062 175.101 272.817 174.925C272.666 174.8 272.516 174.675 272.36 174.547C272.36 174.399 272.36 174.251 272.36 174.098C272.219 174.039 272.078 173.98 271.932 173.918C271.399 173.64 271.122 173.389 270.738 172.946C270.618 172.806 270.497 172.667 270.373 172.523C269.78 171.812 269.202 171.091 268.636 170.36C268.521 170.214 268.406 170.068 268.287 169.918C268.177 169.777 268.067 169.635 267.954 169.489C267.856 169.363 267.758 169.237 267.656 169.107C267.391 168.684 267.28 168.306 267.179 167.825Z" fill="#05728C"/>
<g clip-path="url(#clip4_19568_7243)">
<mask id="mask3_19568_7243" style="mask-type:luminance" maskUnits="userSpaceOnUse" x="294" y="172" width="23" height="23">
<path d="M316.172 172.414H294.738V194.613H316.172V172.414Z" fill="white"/>
</mask>
<g mask="url(#mask3_19568_7243)">
<path fill-rule="evenodd" clip-rule="evenodd" d="M300.097 172.414H294.738V183.514H300.097C297.137 183.514 294.738 185.998 294.738 189.063V194.613H305.455V189.063C305.455 192.128 307.854 194.613 310.814 194.613H316.172V183.514H310.814C313.773 183.514 316.172 181.029 316.172 177.964V172.414H305.455V177.964C305.455 174.899 303.056 172.414 300.097 172.414ZM305.455 183.514H300.097C303.056 183.514 305.455 185.998 305.455 189.063V183.514ZM305.455 183.514V177.964C305.455 181.029 307.854 183.514 310.814 183.514H305.455Z" fill="#140BA9"/>
</g>
</g>
<path d="M280.96 180.071C281.777 180.149 282.495 180.273 283.256 180.454C283.181 180.58 283.105 180.707 283.027 180.837C282.582 180.789 282.582 180.789 282.108 180.709C282.032 180.625 281.957 180.541 281.879 180.454C281.415 180.309 281.415 180.309 280.96 180.199C280.96 180.157 280.96 180.115 280.96 180.071Z" fill="#05728C"/>
<rect x="246.511" y="198.442" width="28.323" height="27.5575" fill="#A8ADFD"/>
<path d="M258.761 144.86C269.327 144.86 279.893 144.86 290.78 144.86C290.78 157.355 290.911 170.261 290.911 183.135C287.999 182.885 287.868 182.473 286.904 182.244C286.582 182.167 286.582 182.167 286.253 182.089C286.032 182.033 285.811 181.978 285.583 181.92C285.348 181.862 285.112 181.803 284.87 181.742C275.617 179.355 267.752 174.137 263.055 166.865C258.655 159.813 258.761 153.112 258.761 144.86Z" fill="#8D5AC4"/>
</g>
<defs>
<clipPath id="clip0_19568_7243">
<rect width="320" height="225.5" fill="white"/>
</clipPath>
<clipPath id="clip1_19568_7243">
<rect width="58" height="55" fill="white" transform="translate(79 168)"/>
</clipPath>
<clipPath id="clip2_19568_7243">
<rect width="40" height="38" fill="white" transform="translate(157 175)"/>
</clipPath>
<clipPath id="clip3_19568_7243">
<rect width="22" height="23" fill="white" transform="translate(23 190)"/>
</clipPath>
<clipPath id="clip4_19568_7243">
<rect width="21.4336" height="22.1991" fill="white" transform="translate(294.738 172.414)"/>
</clipPath>
</defs>
</svg>
