<svg width="1920" height="672" viewBox="0 0 1920 672" fill="none" xmlns="http://www.w3.org/2000/svg">
<g clip-path="url(#clip0_19568_7171)">
<rect width="1920" height="672" fill="#FDEFD2"/>
<path d="M1601.84 0C1648.94 0 1696.04 0 1744.56 0C1744.56 41.212 1744.56 82.4239 1744.56 124.885C1697.46 124.885 1650.37 124.885 1601.84 124.885C1601.84 83.6728 1601.84 42.4608 1601.84 0Z" fill="#F9B0A6"/>
<path d="M1827.82 124.885C1858.24 124.885 1888.65 124.885 1919.99 124.885C1919.99 183.759 1919.99 242.633 1919.99 303.292C1889.58 303.292 1859.16 303.292 1827.82 303.292C1827.82 244.417 1827.82 185.543 1827.82 124.885Z" fill="#F9B0A6"/>
<path d="M1741.59 124.885C1770.04 124.885 1798.5 124.885 1827.82 124.885C1827.82 183.759 1827.82 242.633 1827.82 303.292C1799.36 303.292 1770.91 303.292 1741.59 303.292C1741.59 244.417 1741.59 185.543 1741.59 124.885Z" fill="#8D5AC4"/>
<path d="M1827.82 0C1858.24 0 1888.65 0 1919.99 0C1919.99 41.212 1919.99 82.4239 1919.99 124.885C1889.58 124.885 1859.16 124.885 1827.82 124.885C1827.82 83.6728 1827.82 42.4608 1827.82 0Z" fill="#A8ADFD"/>
<path d="M1827.82 124.856V0.255021C1783.39 0.226212 1786.01 -0.303657 1741.59 0.254345V124.885C1747.22 124.875 1752.39 124.875 1757.91 124.885L1759.91 124.875C1762.23 124.876 1764.56 124.875 1766.88 124.869C1768.4 124.865 1769.92 124.862 1771.44 124.86C1773.63 124.86 1773.65 124.86 1778.24 124.856L1778.34 124.856L1789.87 124.833C1802.35 124.815 1815.71 124.873 1827.82 124.856Z" fill="#D7C3F9"/>
<g clip-path="url(#clip1_19568_7171)">
<mask id="mask0_19568_7171" style="mask-type:luminance" maskUnits="userSpaceOnUse" x="1352" y="17" width="134" height="129">
<path d="M1485.88 17.8398H1352.07V145.698H1485.88V17.8398Z" fill="white"/>
</mask>
<g mask="url(#mask0_19568_7171)">
<path d="M1418.97 145.698C1414.56 145.698 1410.49 144.644 1406.78 142.535C1403.18 140.537 1400.27 137.818 1398.07 134.377C1395.98 130.826 1394.93 126.941 1394.93 122.723C1394.93 117.396 1396.21 112.957 1398.76 109.405C1401.32 105.854 1405.27 101.691 1410.61 96.9189C1414.56 93.4782 1416.53 90.2038 1416.53 87.0962V84.0998H1413.4C1409.8 84.0998 1404.86 87.5405 1398.59 94.4218C1392.43 101.303 1384.94 104.743 1376.11 104.743C1371.7 104.743 1367.63 103.745 1363.92 101.747C1360.32 99.6378 1357.41 96.8633 1355.21 93.4226C1353.12 89.8713 1352.07 85.9864 1352.07 81.7689C1352.07 77.5514 1353.12 73.7223 1355.21 70.2817C1357.41 66.7301 1360.32 63.9554 1363.92 61.9576C1367.63 59.8488 1371.7 58.7944 1376.11 58.7944C1384.82 58.7944 1392.26 62.1795 1398.41 68.9498C1404.57 75.7201 1409.56 79.1052 1413.4 79.1052H1416.53V76.4415C1416.53 73.3338 1414.56 70.0597 1410.61 66.6191L1406.6 63.1229C1403.7 60.5702 1401.03 57.5181 1398.59 53.9664C1396.15 50.3038 1394.93 45.9198 1394.93 40.8144C1394.93 36.5968 1395.98 32.7677 1398.07 29.3271C1400.27 25.7755 1403.18 23.0008 1406.78 21.003C1410.49 18.8942 1414.56 17.8398 1418.97 17.8398C1423.39 17.8398 1427.39 18.8942 1430.99 21.003C1434.71 23.1118 1437.62 25.8865 1439.71 29.3271C1441.91 32.7677 1443.02 36.5968 1443.02 40.8144C1443.02 49.1384 1439.47 56.2417 1432.39 62.124C1425.3 68.0064 1421.76 72.7789 1421.76 76.4415V79.1052H1424.55C1428.5 79.1052 1433.49 75.7201 1439.53 68.9498C1445.45 62.1795 1452.89 58.7944 1461.83 58.7944C1466.25 58.7944 1470.25 59.8488 1473.85 61.9576C1477.57 63.9554 1480.47 66.6746 1482.57 70.1152C1484.77 73.5558 1485.88 77.4404 1485.88 81.7689C1485.88 85.9864 1484.77 89.8713 1482.57 93.4226C1480.47 96.8633 1477.57 99.6378 1473.85 101.747C1470.25 103.745 1466.25 104.743 1461.83 104.743C1456.37 104.743 1451.67 103.467 1447.72 100.914C1443.89 98.3617 1439.59 94.6436 1434.83 89.7601C1431.23 85.9864 1427.8 84.0998 1424.55 84.0998H1421.76V87.0962C1421.76 91.203 1425.3 95.9753 1432.39 101.414C1439.47 106.852 1443.02 113.955 1443.02 122.723C1443.02 126.941 1441.91 130.826 1439.71 134.377C1437.62 137.818 1434.77 140.537 1431.17 142.535C1427.57 144.644 1423.5 145.698 1418.97 145.698Z" fill="#05728C"/>
</g>
</g>
<path d="M1741.59 124.883H1601.84V223.314V224.193V303.29H1741.59V124.883Z" fill="#CEB5F6"/>
<path d="M1485.87 169.488H1601.84V303.293H1485.87L1485.87 169.488Z" fill="#A8ADFD"/>
<g clip-path="url(#clip2_19568_7171)">
<mask id="mask1_19568_7171" style="mask-type:luminance" maskUnits="userSpaceOnUse" x="1273" y="485" width="194" height="188">
<path d="M1466.27 485H1273V672.327H1466.27V485Z" fill="white"/>
</mask>
<g mask="url(#mask1_19568_7171)">
<path fill-rule="evenodd" clip-rule="evenodd" d="M1273 672.327C1273 672.172 1273 672.015 1273 671.859C1273 648.079 1291.11 628.396 1314.69 625.058C1291.14 621.925 1273 602.347 1273 578.664C1273 552.799 1294.63 531.832 1321.32 531.832H1321.8C1295.01 531.832 1273.26 510.907 1273 485H1466.27C1466.01 510.907 1444.26 531.832 1417.47 531.832H1417.96C1444.64 531.832 1466.27 552.799 1466.27 578.664C1466.27 602.347 1448.14 621.925 1424.59 625.058C1448.17 628.396 1466.27 648.079 1466.27 671.859C1466.27 672.015 1466.27 672.172 1466.27 672.327H1273Z" fill="#140BA9"/>
</g>
</g>
<path d="M1598.87 303.293C1704.82 303.293 1810.78 303.293 1919.95 303.293C1919.95 348.928 1920 395.831 1920 442.848C1882.32 442.848 1844.64 442.848 1805.82 442.848C1805.82 462.605 1805.77 482.159 1805.77 502.514C1796.08 501.563 1796.08 501.563 1792.88 500.689C1791.81 500.397 1791.81 500.397 1790.71 500.099C1789.98 499.887 1789.25 499.675 1788.49 499.457C1787.71 499.233 1786.92 499.009 1786.12 498.778C1755.36 489.686 1729.21 469.816 1713.59 442.124C1698.96 415.266 1699.31 392.851 1699.31 361.426C1666.17 361.426 1633.02 361.426 1598.87 361.426C1598.87 343.617 1598.87 321.641 1598.87 303.293Z" fill="#05728C"/>
<path d="M1598.87 356.812C1631.92 356.812 1664.97 356.812 1699.02 356.812C1699.31 370.836 1699.59 384.86 1699.88 399.308C1705.86 427.155 1714.03 448.045 1733.27 468.688C1733.85 469.338 1734.44 469.987 1735.04 470.657C1753.61 490.518 1779.55 499.345 1805.17 505.113C1805.17 484.793 1805.17 463.869 1805.17 442.933C1842.74 442.933 1881.29 442.933 1920 442.933C1920 483 1920 523.672 1920 564.954C1814.35 564.954 1707.72 564.954 1598.87 564.954C1598.87 496.267 1598.87 427.581 1598.87 356.812Z" fill="#F6F06F"/>
<path d="M1696.99 398.445C1697.28 398.445 1697.57 398.445 1697.87 398.445C1697.98 398.979 1698.09 399.513 1698.19 400.063C1703.54 426.586 1713.3 448.26 1732.31 468.131C1732.92 468.784 1733.52 469.436 1734.14 470.108C1753.3 490.057 1780.58 499.06 1807.01 504.854C1807.01 524.688 1807.01 544.523 1807.01 564.958C1770.87 564.958 1734.22 564.821 1696.99 564.821C1696.99 509.917 1696.99 455.013 1696.99 398.445Z" fill="#05728C"/>
<path d="M1714.83 446.016C1717.56 448.477 1719.72 451.025 1721.86 453.957C1725.59 458.891 1729.65 463.367 1734.04 467.773C1734.72 468.456 1735.4 469.139 1736.11 469.843C1740.59 474.231 1745.33 478.071 1750.51 481.697C1747.11 481.697 1746.36 480.875 1743.76 478.869C1742.68 478.036 1742.68 478.036 1741.57 477.186C1740.9 476.664 1740.23 476.143 1739.53 475.605C1738.61 474.941 1737.68 474.277 1736.73 473.593C1736.15 473.108 1735.56 472.623 1734.96 472.124C1734.96 471.55 1734.96 470.975 1734.96 470.383C1734.41 470.153 1733.86 469.922 1733.29 469.684C1731.22 468.604 1730.15 467.628 1728.66 465.906C1728.19 465.365 1727.72 464.823 1727.24 464.266C1724.93 461.5 1722.69 458.702 1720.49 455.861C1720.04 455.295 1719.6 454.729 1719.13 454.146C1718.71 453.595 1718.28 453.045 1717.84 452.478C1717.46 451.988 1717.08 451.498 1716.69 450.994C1715.65 449.352 1715.22 447.883 1714.83 446.016Z" fill="#05728C"/>
<g clip-path="url(#clip3_19568_7171)">
<mask id="mask2_19568_7171" style="mask-type:luminance" maskUnits="userSpaceOnUse" x="1821" y="463" width="85" height="88">
<path d="M1905.13 463.855H1821.88V550.085H1905.13V463.855Z" fill="white"/>
</mask>
<g mask="url(#mask2_19568_7171)">
<path fill-rule="evenodd" clip-rule="evenodd" d="M1842.69 463.855H1821.88V506.97H1842.69C1831.19 506.97 1821.88 516.622 1821.88 528.528V550.085H1863.5V528.528C1863.5 540.434 1872.82 550.085 1884.32 550.085H1905.13V506.97H1884.32C1895.81 506.97 1905.13 497.319 1905.13 485.413V463.855H1863.5V485.413C1863.5 473.507 1854.18 463.855 1842.69 463.855ZM1863.5 506.97H1842.69C1854.18 506.97 1863.5 516.622 1863.5 528.528V506.97ZM1863.5 506.97V485.413C1863.5 497.319 1872.82 506.97 1884.32 506.97H1863.5Z" fill="#080033"/>
</g>
</g>
<path d="M1768.35 493.59C1771.52 493.892 1774.31 494.372 1777.27 495.077C1776.98 495.567 1776.68 496.058 1776.38 496.563C1774.65 496.377 1774.65 496.377 1772.81 496.068C1772.52 495.741 1772.22 495.414 1771.92 495.077C1770.12 494.515 1770.12 494.515 1768.35 494.085C1768.35 493.922 1768.35 493.758 1768.35 493.59Z" fill="#05728C"/>
<rect x="1634.54" y="564.957" width="110.018" height="107.044" fill="#A8ADFD"/>
<path d="M1682.12 356.812C1723.16 356.812 1764.21 356.812 1806.49 356.812C1806.49 405.347 1807 455.48 1807 505.485C1795.69 504.515 1795.18 502.916 1791.44 502.025C1790.19 501.727 1790.19 501.727 1788.91 501.423C1788.05 501.207 1787.19 500.991 1786.31 500.768C1785.39 500.54 1784.48 500.311 1783.54 500.076C1747.6 490.801 1717.04 470.534 1698.8 442.288C1681.71 414.893 1682.12 388.866 1682.12 356.812Z" fill="#8D5AC4"/>
</g>
<defs>
<clipPath id="clip0_19568_7171">
<rect width="1920" height="672" fill="white"/>
</clipPath>
<clipPath id="clip1_19568_7171">
<rect width="133.805" height="127.858" fill="white" transform="translate(1352.07 17.8398)"/>
</clipPath>
<clipPath id="clip2_19568_7171">
<rect width="193.274" height="187.327" fill="white" transform="translate(1273 485)"/>
</clipPath>
<clipPath id="clip3_19568_7171">
<rect width="83.2565" height="86.2299" fill="white" transform="translate(1821.88 463.855)"/>
</clipPath>
</defs>
</svg>
