<svg width="260" height="390" viewBox="0 0 260 390" fill="none" xmlns="http://www.w3.org/2000/svg">
<g opacity="0.99" clip-path="url(#clip0_19568_7209)">
<rect width="260" height="390" fill="#FFF1D4"/>
<mask id="mask0_19568_7209" style="mask-type:luminance" maskUnits="userSpaceOnUse" x="206" y="16" width="42" height="42">
<path d="M248 16H206V58H248V16Z" fill="white"/>
</mask>
<g mask="url(#mask0_19568_7209)">
<path fill-rule="evenodd" clip-rule="evenodd" d="M227.66 16C228.124 16 228.5 16.3761 228.5 16.84V24.9617C228.5 25.885 229.773 26.1324 230.119 25.2764L233.161 17.7461C233.335 17.3159 233.825 17.1081 234.255 17.2819L235.479 17.7764C235.909 17.9502 236.117 18.4397 235.943 18.8699L232.699 26.8979C232.356 27.7463 233.425 28.4536 234.072 27.8066L240.195 21.684C240.523 21.356 241.054 21.356 241.382 21.684L242.316 22.6174C242.644 22.9455 242.644 23.4773 242.316 23.8054L236.818 29.3034C236.162 29.9597 236.898 31.0387 237.748 30.6671L244.873 27.5541C245.298 27.3684 245.794 27.5624 245.979 27.9875L246.508 29.1971C246.693 29.6223 246.499 30.1174 246.074 30.3032L237.864 33.8903C237.03 34.2547 237.29 35.5 238.2 35.5H247.16C247.624 35.5 248 35.8761 248 36.34V37.66C248 38.1239 247.624 38.5 247.16 38.5H238.201C237.29 38.5 237.03 39.7453 237.864 40.1097L246.074 43.6969C246.499 43.8825 246.693 44.3777 246.508 44.8028L245.979 46.0124C245.794 46.4376 245.298 46.6316 244.873 46.4458L237.748 43.333C236.898 42.9613 236.162 44.0402 236.818 44.6967L242.316 50.1945C242.644 50.5227 242.644 51.0545 242.316 51.3825L241.382 52.3159C241.054 52.6439 240.523 52.6439 240.195 52.3159L234.072 46.1934C233.425 45.5464 232.356 46.2536 232.699 47.102L235.943 55.1301C236.117 55.5602 235.909 56.0497 235.479 56.2236L234.255 56.7182C233.825 56.8918 233.335 56.6841 233.161 56.2538L230.119 48.7237C229.773 47.8675 228.5 48.1151 228.5 49.0382V57.16C228.5 57.6239 228.124 58 227.66 58H226.34C225.876 58 225.5 57.6239 225.5 57.16V49.0382C225.5 48.1151 224.227 47.8675 223.881 48.7237L220.839 56.2538C220.665 56.6841 220.175 56.8918 219.745 56.7182L218.521 56.2236C218.091 56.0497 217.883 55.5602 218.057 55.1301L221.301 47.102C221.644 46.2536 220.575 45.5464 219.928 46.1934L213.805 52.3159C213.477 52.6439 212.945 52.6439 212.617 52.3159L211.684 51.3825C211.356 51.0545 211.356 50.5227 211.684 50.1945L217.182 44.6965C217.838 44.0402 217.102 42.9613 216.252 43.333L209.127 46.4458C208.702 46.6316 208.206 46.4376 208.021 46.0124L207.492 44.8028C207.307 44.3777 207.501 43.8825 207.926 43.6969L216.136 40.1097C216.97 39.7453 216.71 38.5 215.799 38.5H206.84C206.376 38.5 206 38.1239 206 37.66V36.34C206 35.8761 206.376 35.5 206.84 35.5H215.8C216.71 35.5 216.97 34.2547 216.136 33.8903L207.926 30.3032C207.501 30.1174 207.307 29.6223 207.492 29.1971L208.021 27.9875C208.206 27.5624 208.702 27.3684 209.127 27.5541L216.252 30.6671C217.102 31.0387 217.838 29.9597 217.182 29.3034L211.684 23.8054C211.356 23.4773 211.356 22.9455 211.684 22.6174L212.617 21.6841C212.945 21.356 213.477 21.356 213.805 21.6841L219.928 27.8066C220.575 28.4536 221.643 27.7464 221.301 26.8979L218.057 18.8699C217.883 18.4397 218.091 17.9502 218.521 17.7764L219.745 17.2819C220.175 17.1081 220.665 17.3159 220.839 17.7461L223.881 25.2764C224.227 26.1324 225.5 25.885 225.5 24.9617V16.84C225.5 16.3761 225.876 16 226.34 16H227.66ZM227 46C231.97 46 236 41.9705 236 37C236 32.0294 231.97 28 227 28C222.029 28 218 32.0294 218 37C218 41.9705 222.029 46 227 46Z" fill="#8D5AC4"/>
</g>
<path d="M164.725 188.767C178.829 188.767 192.933 188.767 207.464 188.767C207.464 201.108 207.464 213.449 207.464 226.164C193.36 226.164 179.256 226.164 164.725 226.164C164.725 213.823 164.725 201.482 164.725 188.767Z" fill="#F9B0A6"/>
<path d="M232.396 226.165C241.505 226.165 250.614 226.165 259.999 226.165C259.999 243.795 259.999 261.425 259.999 279.589C250.89 279.589 241.781 279.589 232.396 279.589C232.396 261.959 232.396 244.329 232.396 226.165Z" fill="#F9B0A6"/>
<path d="M206.574 226.165C215.095 226.165 223.617 226.165 232.396 226.165C232.396 243.795 232.396 261.425 232.396 279.589C223.875 279.589 215.354 279.589 206.574 279.589C206.574 261.959 206.574 244.329 206.574 226.165Z" fill="#8D5AC4"/>
<path d="M232.396 188.767C241.505 188.767 250.614 188.767 259.999 188.767C259.999 201.108 259.999 213.449 259.999 226.164C250.89 226.164 241.781 226.164 232.396 226.164C232.396 213.823 232.396 201.482 232.396 188.767Z" fill="#A8ADFD"/>
<path d="M232.395 226.154V188.842C219.091 188.833 219.877 188.675 206.573 188.842V226.163C208.26 226.16 209.807 226.16 211.46 226.163L212.061 226.16C212.756 226.16 213.451 226.16 214.147 226.158C214.602 226.157 215.057 226.156 215.513 226.156C216.166 226.155 216.174 226.155 217.531 226.154L217.579 226.154L221.032 226.147C224.768 226.142 228.769 226.159 232.395 226.154Z" fill="#D7C3F9"/>
<g clip-path="url(#clip1_19568_7209)">
<mask id="mask1_19568_7209" style="mask-type:luminance" maskUnits="userSpaceOnUse" x="85" y="334" width="45" height="43">
<path d="M130 334H85V377H130V334Z" fill="white"/>
</mask>
<g mask="url(#mask1_19568_7209)">
<path d="M107.5 377C106.016 377 104.648 376.645 103.398 375.936C102.188 375.264 101.211 374.35 100.469 373.193C99.7656 371.998 99.4141 370.692 99.4141 369.273C99.4141 367.482 99.8437 365.989 100.703 364.794C101.562 363.6 102.891 362.2 104.688 360.595C106.016 359.438 106.68 358.337 106.68 357.292V356.284H105.625C104.414 356.284 102.754 357.441 100.645 359.755C98.5742 362.07 96.0547 363.226 93.0859 363.226C91.6016 363.226 90.2344 362.891 88.9844 362.219C87.7734 361.509 86.7969 360.576 86.0547 359.419C85.3516 358.225 85 356.918 85 355.5C85 354.082 85.3516 352.794 86.0547 351.637C86.7969 350.442 87.7734 349.509 88.9844 348.837C90.2344 348.128 91.6016 347.773 93.0859 347.773C96.0156 347.773 98.5156 348.912 100.586 351.189C102.656 353.466 104.336 354.604 105.625 354.604H106.68V353.708C106.68 352.663 106.016 351.562 104.688 350.405L103.34 349.229C102.363 348.371 101.465 347.344 100.645 346.15C99.8242 344.918 99.4141 343.444 99.4141 341.727C99.4141 340.308 99.7656 339.02 100.469 337.863C101.211 336.669 102.188 335.736 103.398 335.064C104.648 334.355 106.016 334 107.5 334C108.984 334 110.332 334.355 111.543 335.064C112.793 335.773 113.77 336.706 114.473 337.863C115.215 339.02 115.586 340.308 115.586 341.727C115.586 344.526 114.394 346.915 112.012 348.893C109.629 350.872 108.438 352.477 108.438 353.708V354.604H109.375C110.703 354.604 112.383 353.466 114.414 351.189C116.406 348.912 118.906 347.773 121.914 347.773C123.398 347.773 124.746 348.128 125.957 348.837C127.207 349.509 128.184 350.424 128.887 351.581C129.629 352.738 130 354.044 130 355.5C130 356.918 129.629 358.225 128.887 359.419C128.184 360.576 127.207 361.509 125.957 362.219C124.746 362.891 123.398 363.226 121.914 363.226C120.078 363.226 118.496 362.797 117.168 361.939C115.879 361.08 114.434 359.83 112.832 358.188C111.621 356.918 110.469 356.284 109.375 356.284H108.438V357.292C108.438 358.673 109.629 360.278 112.012 362.107C114.394 363.936 115.586 366.325 115.586 369.273C115.586 370.692 115.215 371.998 114.473 373.193C113.77 374.35 112.812 375.264 111.602 375.936C110.391 376.645 109.023 377 107.5 377Z" fill="#05728C"/>
</g>
</g>
<path d="M206.575 226.164H164.726V255.64V255.903V279.589H206.575V226.164Z" fill="#CEB5F6"/>
<path d="M129.999 239.52H164.725V279.588H129.999L129.999 239.52Z" fill="#A8ADFD"/>
<g clip-path="url(#clip2_19568_7209)">
<mask id="mask2_19568_7209" style="mask-type:luminance" maskUnits="userSpaceOnUse" x="35" y="225" width="45" height="44">
<path d="M80 225H35V269H80V225Z" fill="white"/>
</mask>
<g mask="url(#mask2_19568_7209)">
<path fill-rule="evenodd" clip-rule="evenodd" d="M35.0005 269C35.0002 268.963 35 268.927 35 268.89C35 263.304 39.2157 258.681 44.7058 257.897C39.2233 257.161 35 252.563 35 247C35 240.925 40.0368 236 46.25 236H46.3625C40.1247 236 35.0609 231.085 35.0005 225H79.9995C79.939 231.085 74.8754 236 68.6375 236H68.75C74.9632 236 80 240.925 80 247C80 252.563 75.7767 257.161 70.2942 257.897C75.7842 258.681 80 263.304 80 268.89C80 268.927 79.9998 268.963 79.9995 269H35.0005Z" fill="#140BA9"/>
</g>
</g>
<path d="M163.835 279.59C195.564 279.59 227.293 279.59 259.983 279.59C259.983 293.255 259.999 307.301 259.999 321.38C248.716 321.38 237.433 321.38 225.808 321.38C225.808 327.296 225.791 333.152 225.791 339.247C222.892 338.963 222.892 338.963 221.933 338.701C221.612 338.613 221.612 338.613 221.284 338.524C221.064 338.461 220.844 338.397 220.617 338.332C220.383 338.265 220.149 338.198 219.907 338.129C210.696 335.406 202.865 329.456 198.188 321.163C193.808 313.121 193.913 306.408 193.913 296.998C183.987 296.998 174.062 296.998 163.835 296.998C163.835 291.665 163.835 285.084 163.835 279.59Z" fill="#05728C"/>
<path d="M163.835 295.617C173.732 295.617 183.63 295.617 193.827 295.617C193.911 299.817 193.996 304.016 194.083 308.343C195.872 316.682 198.322 322.937 204.08 329.119C204.256 329.313 204.431 329.508 204.612 329.708C210.174 335.656 217.941 338.299 225.613 340.026C225.613 333.942 225.613 327.676 225.613 321.406C236.864 321.406 248.408 321.406 259.999 321.406C259.999 333.405 259.999 345.584 259.999 357.946C228.362 357.946 196.431 357.946 163.835 357.946C163.835 337.377 163.835 316.809 163.835 295.617Z" fill="#F6F06F"/>
<path d="M193.218 308.082C193.305 308.082 193.392 308.082 193.482 308.082C193.514 308.242 193.546 308.402 193.578 308.567C195.179 316.509 198.102 322.999 203.795 328.95C203.976 329.145 204.157 329.341 204.344 329.542C210.081 335.516 218.249 338.212 226.163 339.947C226.163 345.886 226.163 351.826 226.163 357.945C215.342 357.945 204.366 357.904 193.218 357.904C193.218 341.463 193.218 325.021 193.218 308.082Z" fill="#05728C"/>
<g clip-path="url(#clip3_19568_7209)">
<mask id="mask3_19568_7209" style="mask-type:luminance" maskUnits="userSpaceOnUse" x="9" y="310" width="42" height="43">
<path d="M51 310H9V353H51V310Z" fill="white"/>
</mask>
<g mask="url(#mask3_19568_7209)">
<path fill-rule="evenodd" clip-rule="evenodd" d="M21.8789 331.499C-2.49053 349.878 12.0585 364.774 30.004 339.819C47.9382 364.774 62.4872 349.878 38.1289 331.499C62.4983 313.123 47.9493 298.225 30.004 323.182C12.0474 298.234 -2.50172 313.123 21.8789 331.499ZM30 336.875C32.8995 336.875 35.25 334.469 35.25 331.5C35.25 328.531 32.8995 326.125 30 326.125C27.1005 326.125 24.75 328.531 24.75 331.5C24.75 334.469 27.1005 336.875 30 336.875Z" fill="#45EA97"/>
</g>
</g>
<path d="M198.562 322.328C199.378 323.065 200.026 323.828 200.668 324.706C201.783 326.184 203 327.524 204.315 328.843C204.519 329.048 204.723 329.253 204.932 329.463C206.276 330.777 207.694 331.927 209.246 333.013C208.228 333.013 208.003 332.767 207.226 332.166C206.901 331.917 206.901 331.917 206.57 331.662C206.368 331.506 206.167 331.35 205.959 331.189C205.682 330.99 205.405 330.791 205.12 330.586C204.945 330.441 204.769 330.296 204.589 330.146C204.589 329.974 204.589 329.802 204.589 329.625C204.424 329.556 204.26 329.487 204.09 329.416C203.471 329.092 203.148 328.8 202.702 328.284C202.562 328.122 202.421 327.96 202.277 327.793C201.587 326.965 200.915 326.127 200.257 325.276C200.123 325.107 199.989 324.937 199.851 324.763C199.723 324.598 199.595 324.433 199.464 324.263C199.349 324.117 199.235 323.97 199.117 323.819C198.808 323.327 198.679 322.887 198.562 322.328Z" fill="#05728C"/>
<g clip-path="url(#clip4_19568_7209)">
<mask id="mask4_19568_7209" style="mask-type:luminance" maskUnits="userSpaceOnUse" x="230" y="327" width="26" height="27">
<path d="M255.549 327.672H230.617V353.494H255.549V327.672Z" fill="white"/>
</mask>
<g mask="url(#mask4_19568_7209)">
<path fill-rule="evenodd" clip-rule="evenodd" d="M236.85 327.672H230.617V340.583H236.85C233.408 340.583 230.617 343.473 230.617 347.038V353.494H243.083V347.038C243.083 350.604 245.874 353.494 249.316 353.494H255.549V340.583H249.316C252.758 340.583 255.549 337.693 255.549 334.127V327.672H243.083V334.127C243.083 330.562 240.292 327.672 236.85 327.672ZM243.083 340.583H236.85C240.292 340.583 243.083 343.473 243.083 347.038V340.583ZM243.083 340.583V334.127C243.083 337.693 245.874 340.583 249.316 340.583H243.083Z" fill="#080033"/>
</g>
</g>
<path d="M214.589 336.574C215.539 336.665 216.374 336.808 217.26 337.019C217.172 337.166 217.084 337.313 216.993 337.465C216.475 337.409 216.475 337.409 215.924 337.316C215.836 337.218 215.748 337.12 215.657 337.019C215.119 336.851 215.119 336.851 214.589 336.723C214.589 336.674 214.589 336.625 214.589 336.574Z" fill="#05728C"/>
<rect x="174.519" y="357.945" width="32.9452" height="32.0548" fill="#A8ADFD"/>
<path d="M188.765 295.617C201.055 295.617 213.346 295.617 226.009 295.617C226.009 310.151 226.162 325.164 226.162 340.138C222.775 339.847 222.622 339.369 221.501 339.102C221.126 339.012 221.126 339.012 220.743 338.921C220.486 338.857 220.229 338.792 219.964 338.725C219.691 338.657 219.417 338.588 219.135 338.518C208.372 335.741 199.223 329.672 193.759 321.213C188.642 313.01 188.765 305.216 188.765 295.617Z" fill="#8D5AC4"/>
</g>
<defs>
<clipPath id="clip0_19568_7209">
<rect width="260" height="390" fill="white"/>
</clipPath>
<clipPath id="clip1_19568_7209">
<rect width="45" height="43" fill="white" transform="translate(85 334)"/>
</clipPath>
<clipPath id="clip2_19568_7209">
<rect width="45" height="44" fill="white" transform="translate(35 225)"/>
</clipPath>
<clipPath id="clip3_19568_7209">
<rect width="42" height="43" fill="white" transform="translate(9 310)"/>
</clipPath>
<clipPath id="clip4_19568_7209">
<rect width="24.9315" height="25.8219" fill="white" transform="translate(230.617 327.672)"/>
</clipPath>
</defs>
</svg>
