<svg width="260" height="390" viewBox="0 0 260 390" fill="none" xmlns="http://www.w3.org/2000/svg">
<g opacity="0.99">
<rect width="260" height="390" fill="#DCF7FC"/>
<path d="M224.102 15.916C225.504 17.0442 226.121 18.8146 226.427 20.5355C226.461 20.9189 226.488 21.3029 226.512 21.687C226.525 21.9077 226.539 22.1283 226.554 22.3556C226.568 22.5872 226.582 22.8188 226.596 23.0504C226.623 23.5045 226.651 23.9584 226.68 24.4124C226.692 24.6134 226.704 24.8144 226.717 25.0214C226.761 25.5542 226.836 26.0709 226.932 26.5966C226.973 26.3434 226.973 26.3434 227.014 26.085C227.117 25.4499 227.222 24.8152 227.327 24.1806C227.372 23.9076 227.416 23.6344 227.46 23.3612C228.244 18.4712 228.244 18.4712 230.221 17.0241C231.655 16.1355 232.987 15.9086 234.663 16.2612C236.057 16.7072 237.2 17.5432 237.96 18.8097C238.522 20.0266 238.583 21.2862 238.129 22.5558C237.354 24.2706 236.024 25.4172 234.609 26.5939C234.041 27.0664 233.493 27.5573 232.951 28.0592C232.074 28.8703 231.189 29.6717 230.3 30.4689C230.439 30.3893 230.577 30.3096 230.721 30.2276C231.25 29.9243 231.78 29.6221 232.31 29.3201C232.536 29.1907 232.763 29.0611 232.989 28.9312C234.25 28.2086 235.517 27.5061 236.813 26.8491C236.924 26.7921 237.035 26.7352 237.15 26.6765C238.56 25.9723 240.244 25.8526 241.791 26.1691C242.075 26.2809 242.075 26.2809 242.59 26.5966C242.7 26.6584 242.81 26.7203 242.923 26.784C244.095 27.528 244.736 28.7426 245.055 30.0776C245.279 31.527 244.95 32.757 244.125 33.9632C243.261 35.002 242.385 35.6708 241.075 36.025C239.363 36.1609 237.719 35.943 236.035 35.6356C235.813 35.5968 235.592 35.5582 235.37 35.5197C234 35.2792 232.631 35.0289 231.266 34.7589C230.8 34.6635 230.8 34.6635 230.3 34.678C230.447 34.7212 230.595 34.7644 230.747 34.8089C239.424 37.4057 239.424 37.4057 241.086 40.1394C241.67 41.4564 241.645 43.0725 241.274 44.4491C240.716 45.7082 239.715 46.6253 238.505 47.2541C237.79 47.5039 237.206 47.5578 236.456 47.5474C236.329 47.5463 236.203 47.5453 236.073 47.5442C234.71 47.5056 233.848 47.0378 232.825 46.1268C232.508 45.7203 232.235 45.2903 231.962 44.8535C231.843 44.6663 231.843 44.6663 231.722 44.4752C230.903 43.1762 230.135 41.8485 229.376 40.514C229.049 39.9385 228.72 39.3639 228.392 38.7892C228.274 38.5825 228.156 38.3758 228.037 38.1691C227.907 37.9411 227.907 37.9411 227.774 37.7086C227.841 37.9207 227.907 38.1327 227.975 38.3512C228.223 39.1479 228.467 39.9458 228.709 40.7442C228.814 41.0877 228.92 41.4309 229.028 41.7738C229.852 44.4088 230.583 46.8613 229.29 49.4941C228.579 50.5921 227.699 51.2062 226.469 51.6118C225.196 51.8509 223.463 51.9536 222.342 51.2415C222.245 51.1649 222.149 51.0883 222.05 51.0094C221.933 50.9171 221.815 50.8249 221.695 50.7298C220.447 49.6214 220.014 48.3374 219.914 46.695C219.963 45.3483 220.431 44.2629 220.989 43.0639C221.255 42.4902 221.511 41.9127 221.768 41.335C223.24 38.023 223.24 38.023 223.565 37.3719C223.445 37.5331 223.324 37.6944 223.2 37.8605C222.27 39.1039 221.337 40.3449 220.398 41.581C220.311 41.6955 220.225 41.8101 220.136 41.9282C218.355 44.2646 218.355 44.2646 217.294 44.8535C217.154 44.9332 217.014 45.0128 216.87 45.0949C215.562 45.756 213.644 45.6652 212.246 45.3185C210.993 44.7534 210.174 43.6975 209.612 42.4649C209.105 41.0001 209.121 39.6371 209.759 38.2137C211.244 35.8248 214.142 35.2518 216.691 34.6549C218.195 34.3162 219.701 33.9922 221.208 33.6679C221.05 33.6675 221.05 33.6675 220.889 33.6671C219.786 33.6638 218.682 33.6546 217.579 33.6422C217.168 33.6383 216.757 33.6358 216.346 33.6349C215.752 33.6334 215.159 33.6264 214.566 33.6185C214.384 33.6192 214.203 33.6199 214.017 33.6205C212.165 33.5856 210.441 32.9368 209.086 31.6475C207.966 30.2033 207.898 28.6947 208.076 26.9333C208.215 26.3972 208.415 26.0239 208.749 25.5864C208.815 25.4857 208.88 25.385 208.948 25.2812C209.731 24.2065 210.965 23.5429 212.263 23.3115C214.307 23.2274 215.703 24.2914 217.214 25.5208C217.504 25.7545 217.796 25.9835 218.091 26.2112C219.442 27.2577 220.753 28.3454 222.05 29.4588C222.05 29.1066 221.616 28.7505 221.408 28.5012C221.117 28.147 220.826 27.7927 220.535 27.4384C220.46 27.3477 220.385 27.2569 220.308 27.1635C216.236 22.1938 216.236 22.1938 216.279 19.3043C216.404 18.0794 216.924 17.0742 217.83 16.2481C219.79 14.7898 222.034 14.5228 224.102 15.916Z" fill="#05728C"/>
<path d="M62.0801 265.877C66.4818 269.754 69.5848 275.488 70.0801 281.377C70.4603 287.999 68.7872 294.314 64.3301 299.377C60.4989 303.56 55.1947 307.065 49.3552 307.421C42.4149 307.554 42.4149 307.554 39.3301 306.377C39.0131 306.264 38.6961 306.151 38.379 306.038C35.2831 304.899 32.5612 303.304 30.0801 301.127C29.8929 300.963 29.7057 300.8 29.5128 300.632C25.3339 296.731 22.7335 290.817 22.4874 285.128C22.3669 278.833 23.8106 273.559 27.8301 268.627C28.0834 268.312 28.0834 268.312 28.3419 267.991C37.0283 257.767 52.0505 257.514 62.0801 265.877Z" fill="#8D5AC4"/>
<path d="M84.5801 315.627C84.9961 316.251 85.1947 316.638 85.4105 317.329C85.471 317.52 85.5315 317.712 85.5938 317.909C85.6583 318.117 85.7227 318.326 85.7891 318.54C85.9309 318.993 86.0727 319.445 86.2147 319.898C86.2892 320.137 86.3637 320.375 86.4405 320.621C86.6755 321.367 86.9168 322.11 87.1599 322.852C87.9316 325.224 88.6497 327.575 89.1885 330.012C90.0037 333.918 90.0037 333.918 92.3553 336.976C94.0958 337.955 96.065 338.363 98.0068 338.744C100.276 339.191 102.46 339.898 104.665 340.588C105.752 340.925 106.842 341.246 107.933 341.567C108.125 341.624 108.318 341.681 108.516 341.74C108.954 341.869 109.392 341.998 109.83 342.127C109.58 342.627 109.58 342.627 108.849 342.896C108.519 342.996 108.19 343.094 107.859 343.189C107.681 343.243 107.502 343.297 107.318 343.352C106.931 343.468 106.544 343.583 106.157 343.697C105.131 344 104.108 344.309 103.084 344.617C102.875 344.68 102.667 344.743 102.452 344.807C100.042 345.534 97.6509 346.315 95.2616 347.105C94.9626 347.203 94.6636 347.301 94.3555 347.402C94.0959 347.488 93.8364 347.574 93.569 347.663C92.8252 347.878 92.0958 348.015 91.3301 348.127C91.3024 348.263 91.2747 348.4 91.2462 348.54C90.9506 349.938 90.5633 351.277 90.1035 352.63C90.0332 352.84 89.9629 353.05 89.8905 353.266C89.6631 353.944 89.4341 354.621 89.2051 355.299C89.0477 355.767 88.8904 356.236 88.7333 356.704C88.4173 357.645 88.1009 358.586 87.7839 359.527C87.1934 361.282 86.6085 363.038 86.0241 364.794C85.7677 365.565 85.5108 366.335 85.2539 367.105C85.1302 367.477 85.1302 367.477 85.004 367.855C84.9466 368.027 84.8892 368.2 84.8301 368.377C84.2854 367.56 84.0037 366.751 83.6996 365.829C83.6386 365.646 83.5775 365.464 83.5146 365.276C83.3133 364.675 83.1137 364.072 82.9141 363.47C82.7747 363.052 82.6353 362.633 82.4958 362.215C82.2039 361.339 81.9127 360.463 81.6221 359.587C81.249 358.462 80.8742 357.338 80.4989 356.213C80.2109 355.35 79.9237 354.487 79.6367 353.624C79.4988 353.209 79.3606 352.794 79.2223 352.379C79.0294 351.801 78.8375 351.222 78.6459 350.643C78.5882 350.471 78.5306 350.298 78.4712 350.121C78.0801 348.934 78.0801 348.934 78.0801 348.377C77.9253 348.337 77.7705 348.297 77.611 348.256C75.569 347.715 73.5663 347.068 71.5615 346.405C71.2067 346.289 70.852 346.172 70.4971 346.055C69.5726 345.751 68.6484 345.447 67.7243 345.142C66.7774 344.83 65.8304 344.518 64.8833 344.207C63.032 343.597 61.1809 342.987 59.3301 342.377C60.0298 342.007 60.7145 341.734 61.4698 341.5C61.6946 341.43 61.9195 341.359 62.1511 341.287C62.5148 341.175 62.5148 341.175 62.8857 341.061C63.1394 340.982 63.3931 340.903 63.6544 340.821C64.468 340.568 65.2818 340.316 66.0957 340.064C66.8935 339.817 67.6912 339.569 68.4889 339.321C69.0123 339.158 69.5358 338.996 70.0594 338.834C71.2923 338.452 72.524 338.066 73.7528 337.671C73.9723 337.601 74.1919 337.531 74.4181 337.458C74.8265 337.327 75.2347 337.195 75.6425 337.062C76.3997 336.819 77.0294 336.627 77.8301 336.627C77.8744 336.31 77.8744 336.31 77.9197 335.987C78.0898 335.075 78.3482 334.242 78.6465 333.363C78.704 333.193 78.7614 333.022 78.8206 332.846C78.9452 332.476 79.0703 332.107 79.1958 331.738C79.5349 330.739 79.8704 329.74 80.2061 328.74C80.3118 328.426 80.3118 328.426 80.4197 328.105C81.332 325.385 82.2125 322.655 83.0932 319.925C83.231 319.498 83.369 319.071 83.5071 318.644C83.6327 318.256 83.758 317.867 83.8829 317.478C84.3019 316.183 84.3019 316.183 84.5801 315.627Z" fill="#140BA9"/>
<path d="M99.3301 215.377C99.9444 216.298 100.147 217.229 100.408 218.289C100.462 218.501 100.515 218.714 100.571 218.933C100.742 219.612 100.911 220.291 101.08 220.971C101.249 221.648 101.419 222.326 101.59 223.003C101.696 223.425 101.801 223.846 101.905 224.268C102.153 225.254 102.419 226.193 102.83 227.127C102.981 227.042 103.131 226.956 103.286 226.868C104.525 226.167 105.763 225.467 107.003 224.768C107.986 224.213 108.967 223.656 109.946 223.096C110.35 222.866 110.754 222.637 111.158 222.408C111.346 222.3 111.534 222.191 111.727 222.079C112.17 221.83 112.624 221.601 113.08 221.377C113.245 221.459 113.41 221.542 113.58 221.627C113.488 221.757 113.397 221.888 113.302 222.022C111.706 224.297 110.111 226.573 108.533 228.861C108.367 229.102 108.367 229.102 108.196 229.348C107.628 230.175 107.085 231.01 106.58 231.877C106.881 231.913 106.881 231.913 107.188 231.949C108.302 232.171 109.304 232.557 110.359 232.972C110.681 233.096 110.681 233.096 111.009 233.223C111.689 233.486 112.369 233.752 113.049 234.018C113.512 234.197 113.975 234.377 114.438 234.556C115.569 234.995 116.7 235.435 117.83 235.877C117.83 235.959 117.83 236.042 117.83 236.127C117.572 236.162 117.314 236.197 117.048 236.234C116.077 236.366 115.106 236.5 114.136 236.634C113.718 236.691 113.301 236.748 112.883 236.805C110.605 237.116 108.337 237.439 106.08 237.877C106.2 238.182 106.32 238.487 106.443 238.802C106.888 239.935 107.332 241.068 107.775 242.201C107.967 242.692 108.16 243.182 108.352 243.672C108.629 244.377 108.905 245.082 109.181 245.787C109.267 246.006 109.353 246.225 109.442 246.451C109.522 246.656 109.602 246.861 109.685 247.073C109.755 247.252 109.826 247.432 109.898 247.618C110.076 248.116 110.211 248.611 110.33 249.127C108.975 248.128 107.66 247.09 106.361 246.018C104.894 244.815 103.414 243.674 101.83 242.627C101.799 242.913 101.769 243.2 101.737 243.495C101.598 244.602 101.349 245.659 101.063 246.736C101.014 246.928 100.964 247.119 100.913 247.316C100.756 247.92 100.598 248.524 100.439 249.127C100.332 249.539 100.225 249.952 100.118 250.364C99.8565 251.369 99.5937 252.373 99.3301 253.377C98.7632 252.411 98.5462 251.352 98.2891 250.273C98.2152 249.969 98.2152 249.969 98.1399 249.659C98.0364 249.232 97.9334 248.804 97.8311 248.377C97.6739 247.721 97.5148 247.066 97.3555 246.41C97.2551 245.995 97.1548 245.579 97.0547 245.164C97.007 244.967 96.9594 244.771 96.9103 244.568C96.5801 243.185 96.5801 243.185 96.5801 242.627C94.3749 244.274 92.1761 245.929 89.998 247.612C89.4452 248.038 88.8897 248.46 88.3301 248.877C88.8156 247.379 89.3437 245.905 89.9189 244.438C89.9956 244.242 90.0722 244.045 90.1511 243.843C90.3926 243.224 90.6347 242.605 90.877 241.986C91.0422 241.563 91.2074 241.14 91.3726 240.716C91.7745 239.686 92.1771 238.657 92.5801 237.627C92.4311 237.609 92.282 237.592 92.1285 237.574C88.1782 237.106 84.2536 236.532 80.3301 235.877C80.9633 235.455 81.4264 235.225 82.1291 234.976C82.4443 234.863 82.4443 234.863 82.7659 234.749C83.1046 234.629 83.1046 234.629 83.4502 234.508C83.6822 234.425 83.9142 234.343 84.1532 234.258C84.8941 233.994 85.6355 233.733 86.377 233.471C86.8794 233.292 87.3819 233.114 87.8843 232.936C89.1158 232.498 90.3478 232.062 91.5801 231.627C91.5801 230.665 91.2732 230.338 90.7295 229.551C90.549 229.287 90.3685 229.024 90.1826 228.753C89.987 228.471 89.7914 228.19 89.5957 227.908C89.3998 227.624 89.204 227.339 89.0084 227.054C88.4509 226.244 87.8906 225.435 87.3301 224.627C87.0689 224.248 86.8078 223.87 86.5469 223.491C86.0599 222.785 85.5709 222.08 85.0801 221.377C86.0079 221.377 86.3872 221.65 87.1846 222.118C87.4553 222.276 87.7261 222.434 88.005 222.597C88.2957 222.768 88.5863 222.94 88.877 223.111C89.3187 223.37 89.7608 223.628 90.2029 223.885C90.4965 224.057 90.79 224.228 91.0834 224.4C92.294 225.108 93.5123 225.802 94.7363 226.486C94.9017 226.579 95.0671 226.672 95.2375 226.767C95.6015 226.971 95.9658 227.174 96.3301 227.377C96.3584 227.096 96.3868 226.815 96.416 226.526C96.5682 225.314 96.8747 224.167 97.2061 222.994C97.2667 222.775 97.3274 222.556 97.3899 222.33C97.5822 221.637 97.7764 220.944 97.9707 220.252C98.1022 219.779 98.2335 219.307 98.3647 218.834C98.685 217.681 99.0071 216.529 99.3301 215.377Z" fill="#5A278C"/>
<path d="M29.5801 346.627C29.9243 346.976 29.9243 346.976 30.3309 347.47C31.4284 348.76 32.617 349.945 33.8174 351.139C34.0536 351.374 34.2897 351.61 34.5257 351.846C35.1417 352.461 35.7584 353.075 36.3752 353.689C37.0027 354.314 37.6295 354.94 38.2563 355.565C39.3582 356.665 40.4606 357.764 41.5635 358.862C41.734 359.032 41.9044 359.202 42.0801 359.377C42.2672 359.554 42.4543 359.73 42.6471 359.912C43.0801 360.377 43.0801 360.377 43.0801 360.877C43.4513 361.001 43.4513 361.001 43.8301 361.127C43.8301 361.209 43.8301 361.292 43.8301 361.377C34.2601 361.377 24.6901 361.377 14.8301 361.377C15.7085 360.352 16.5294 359.397 17.4805 358.461C17.7879 358.156 17.7879 358.156 18.1016 357.846C18.311 357.639 18.5205 357.433 18.7363 357.221C19.1568 356.807 19.5768 356.392 19.9961 355.977C20.1803 355.795 20.3645 355.614 20.5543 355.427C21.1025 354.853 21.5884 354.249 22.0801 353.627C22.4914 353.205 22.9083 352.788 23.3301 352.377C24.1149 351.597 24.8927 350.81 25.6689 350.021C26.0716 349.613 26.4743 349.206 26.877 348.799C27.0818 348.59 27.2866 348.381 27.4976 348.166C27.7912 347.869 27.7912 347.869 28.0908 347.567C28.2688 347.387 28.4467 347.206 28.6301 347.02C29.0801 346.627 29.0801 346.627 29.5801 346.627Z" fill="#8D5AC4"/>
<path d="M15.0801 331.877C24.4851 331.877 33.8901 331.877 43.5801 331.877C41.893 333.845 41.893 333.845 41.1343 334.597C40.9649 334.766 40.7955 334.934 40.6209 335.108C40.4428 335.284 40.2646 335.46 40.0811 335.642C39.8931 335.829 39.7052 336.016 39.5115 336.208C38.7147 337.001 37.9163 337.792 37.1181 338.584C36.5323 339.165 35.9473 339.747 35.3623 340.329C35.1846 340.505 35.007 340.68 34.8239 340.861C33.8231 341.857 32.8691 342.878 31.9491 343.95C31.4855 344.486 31.0009 344.998 30.502 345.502C30.3379 345.67 30.1739 345.837 30.0049 346.01C29.5801 346.377 29.5801 346.377 29.0801 346.377C29.0801 346.212 29.0801 346.047 29.0801 345.877C28.9357 345.815 28.7913 345.753 28.6426 345.689C27.9977 345.331 27.5648 344.931 27.0801 344.377C27.0801 344.212 27.0801 344.047 27.0801 343.877C26.8326 343.794 26.5851 343.712 26.3301 343.627C25.918 343.2 25.918 343.2 25.4863 342.674C24.9928 342.09 24.5536 341.606 23.9551 341.127C23.4218 340.7 23.0586 340.324 22.626 339.806C21.2449 338.21 19.7207 336.75 18.2207 335.268C17.6266 334.68 17.0333 334.092 16.4404 333.503C16.3037 333.368 16.1671 333.234 16.0262 333.095C15.7061 332.777 15.3924 332.453 15.0801 332.127C15.0801 332.044 15.0801 331.962 15.0801 331.877Z" fill="#058C4E"/>
<path d="M62.0801 265.877C66.4818 269.754 69.5848 275.488 70.0801 281.377C70.4603 287.999 68.7872 294.314 64.3301 299.377C60.4989 303.56 55.1947 307.065 49.3552 307.421C42.4149 307.554 42.4149 307.554 39.3301 306.377C39.0131 306.264 38.6961 306.151 38.379 306.038C35.2831 304.899 32.5612 303.304 30.0801 301.127C29.8929 300.963 29.7057 300.8 29.5128 300.632C25.3339 296.731 22.7335 290.817 22.4874 285.128C22.3669 278.833 23.8106 273.559 27.8301 268.627C28.0834 268.312 28.0834 268.312 28.3419 267.991C37.0283 257.767 52.0505 257.514 62.0801 265.877Z" fill="#8D5AC4"/>
<path d="M120.745 355.006C121.167 355.007 121.589 355.009 122.011 355.01C123.113 355.014 124.214 355.023 125.316 355.035C126.444 355.045 127.572 355.049 128.7 355.054C130.907 355.065 133.113 355.082 135.32 355.103C135.339 356.842 135.352 358.581 135.361 360.32C135.365 360.911 135.37 361.502 135.376 362.093C135.385 362.945 135.39 363.797 135.393 364.649C135.397 364.911 135.401 365.173 135.405 365.443C135.405 368.631 134.216 371.176 132.07 373.525C129.333 376.142 125.868 376.95 122.185 376.96C121.653 376.963 121.123 376.975 120.592 376.988C116.906 377.031 113.966 375.676 111.273 373.181C108.797 370.612 107.962 367.479 108.002 364.003C108.208 361.254 109.603 359.123 111.659 357.343C114.512 355.211 117.3 354.96 120.745 355.006Z" fill="#058C4E"/>
<path d="M99.3301 215.377C99.9444 216.298 100.147 217.229 100.408 218.289C100.462 218.501 100.515 218.714 100.571 218.933C100.742 219.612 100.911 220.291 101.08 220.971C101.249 221.648 101.419 222.326 101.59 223.003C101.696 223.425 101.801 223.846 101.905 224.268C102.153 225.254 102.419 226.193 102.83 227.127C102.981 227.042 103.131 226.956 103.286 226.868C104.525 226.167 105.763 225.467 107.003 224.768C107.986 224.213 108.967 223.656 109.946 223.096C110.35 222.866 110.754 222.637 111.158 222.408C111.346 222.3 111.534 222.191 111.727 222.079C112.17 221.83 112.624 221.601 113.08 221.377C113.245 221.459 113.41 221.542 113.58 221.627C113.488 221.757 113.397 221.888 113.302 222.022C111.706 224.297 110.111 226.573 108.533 228.861C108.367 229.102 108.367 229.102 108.196 229.348C107.628 230.175 107.085 231.01 106.58 231.877C106.881 231.913 106.881 231.913 107.188 231.949C108.302 232.171 109.304 232.557 110.359 232.972C110.681 233.096 110.681 233.096 111.009 233.223C111.689 233.486 112.369 233.752 113.049 234.018C113.512 234.197 113.975 234.377 114.438 234.556C115.569 234.995 116.7 235.435 117.83 235.877C117.83 235.959 117.83 236.042 117.83 236.127C117.572 236.162 117.314 236.197 117.048 236.234C116.077 236.366 115.106 236.5 114.136 236.634C113.718 236.691 113.301 236.748 112.883 236.805C110.605 237.116 108.337 237.439 106.08 237.877C106.2 238.182 106.32 238.487 106.443 238.802C106.888 239.935 107.332 241.068 107.775 242.201C107.967 242.692 108.16 243.182 108.352 243.672C108.629 244.377 108.905 245.082 109.181 245.787C109.267 246.006 109.353 246.225 109.442 246.451C109.522 246.656 109.602 246.861 109.685 247.073C109.755 247.252 109.826 247.432 109.898 247.618C110.076 248.116 110.211 248.611 110.33 249.127C108.975 248.128 107.66 247.09 106.361 246.018C104.894 244.815 103.414 243.674 101.83 242.627C101.799 242.913 101.769 243.2 101.737 243.495C101.598 244.602 101.349 245.659 101.063 246.736C101.014 246.928 100.964 247.119 100.913 247.316C100.756 247.92 100.598 248.524 100.439 249.127C100.332 249.539 100.225 249.952 100.118 250.364C99.8565 251.369 99.5937 252.373 99.3301 253.377C98.7632 252.411 98.5462 251.352 98.2891 250.273C98.2152 249.969 98.2152 249.969 98.1399 249.659C98.0364 249.232 97.9334 248.804 97.8311 248.377C97.6739 247.721 97.5148 247.066 97.3555 246.41C97.2551 245.995 97.1548 245.579 97.0547 245.164C97.007 244.967 96.9594 244.771 96.9103 244.568C96.5801 243.185 96.5801 243.185 96.5801 242.627C94.3749 244.274 92.1761 245.929 89.998 247.612C89.4452 248.038 88.8897 248.46 88.3301 248.877C88.8156 247.379 89.3437 245.905 89.9189 244.438C89.9956 244.242 90.0722 244.045 90.1511 243.843C90.3926 243.224 90.6347 242.605 90.877 241.986C91.0422 241.563 91.2074 241.14 91.3726 240.716C91.7745 239.686 92.1771 238.657 92.5801 237.627C92.4311 237.609 92.282 237.592 92.1285 237.574C88.1782 237.106 84.2536 236.532 80.3301 235.877C80.9633 235.455 81.4264 235.225 82.1291 234.976C82.4443 234.863 82.4443 234.863 82.7659 234.749C83.1046 234.629 83.1046 234.629 83.4502 234.508C83.6822 234.425 83.9142 234.343 84.1532 234.258C84.8941 233.994 85.6355 233.733 86.377 233.471C86.8794 233.292 87.3819 233.114 87.8843 232.936C89.1158 232.498 90.3478 232.062 91.5801 231.627C91.5801 230.665 91.2732 230.338 90.7295 229.551C90.549 229.287 90.3685 229.024 90.1826 228.753C89.987 228.471 89.7914 228.19 89.5957 227.908C89.3998 227.624 89.204 227.339 89.0084 227.054C88.4509 226.244 87.8906 225.435 87.3301 224.627C87.0689 224.248 86.8078 223.87 86.5469 223.491C86.0599 222.785 85.5709 222.08 85.0801 221.377C86.0079 221.377 86.3872 221.65 87.1846 222.118C87.4553 222.276 87.7261 222.434 88.005 222.597C88.2957 222.768 88.5863 222.94 88.877 223.111C89.3187 223.37 89.7608 223.628 90.2029 223.885C90.4965 224.057 90.79 224.228 91.0834 224.4C92.294 225.108 93.5123 225.802 94.7363 226.486C94.9017 226.579 95.0671 226.672 95.2375 226.767C95.6015 226.971 95.9658 227.174 96.3301 227.377C96.3584 227.096 96.3868 226.815 96.416 226.526C96.5682 225.314 96.8747 224.167 97.2061 222.994C97.2667 222.775 97.3274 222.556 97.3899 222.33C97.5822 221.637 97.7764 220.944 97.9707 220.252C98.1022 219.779 98.2335 219.307 98.3647 218.834C98.685 217.681 99.0071 216.529 99.3301 215.377Z" fill="#05728C"/>
<path d="M29.5801 346.627C29.9243 346.976 29.9243 346.976 30.3309 347.47C31.4284 348.76 32.617 349.945 33.8174 351.139C34.0536 351.374 34.2897 351.61 34.5257 351.846C35.1417 352.461 35.7584 353.075 36.3752 353.689C37.0027 354.314 37.6295 354.94 38.2563 355.565C39.3582 356.665 40.4606 357.764 41.5635 358.862C41.734 359.032 41.9044 359.202 42.0801 359.377C42.2672 359.554 42.4543 359.73 42.6471 359.912C43.0801 360.377 43.0801 360.377 43.0801 360.877C43.4513 361.001 43.4513 361.001 43.8301 361.127C43.8301 361.209 43.8301 361.292 43.8301 361.377C34.2601 361.377 24.6901 361.377 14.8301 361.377C15.7085 360.352 16.5294 359.397 17.4805 358.461C17.7879 358.156 17.7879 358.156 18.1016 357.846C18.311 357.639 18.5205 357.433 18.7363 357.221C19.1568 356.807 19.5768 356.392 19.9961 355.977C20.1803 355.795 20.3645 355.614 20.5543 355.427C21.1025 354.853 21.5884 354.249 22.0801 353.627C22.4914 353.205 22.9083 352.788 23.3301 352.377C24.1149 351.597 24.8927 350.81 25.6689 350.021C26.0716 349.613 26.4743 349.206 26.877 348.799C27.0818 348.59 27.2866 348.381 27.4976 348.166C27.7912 347.869 27.7912 347.869 28.0908 347.567C28.2688 347.387 28.4467 347.206 28.6301 347.02C29.0801 346.627 29.0801 346.627 29.5801 346.627Z" fill="#8D5AC4"/>
<path d="M15.0801 331.877C24.4851 331.877 33.8901 331.877 43.5801 331.877C41.893 333.845 41.893 333.845 41.1343 334.597C40.9649 334.766 40.7955 334.934 40.6209 335.108C40.4428 335.284 40.2646 335.46 40.0811 335.642C39.8931 335.829 39.7052 336.016 39.5115 336.208C38.7147 337.001 37.9163 337.792 37.1181 338.584C36.5323 339.165 35.9473 339.747 35.3623 340.329C35.1846 340.505 35.007 340.68 34.8239 340.861C33.8231 341.857 32.8691 342.878 31.9491 343.95C31.4855 344.486 31.0009 344.998 30.502 345.502C30.3379 345.67 30.1739 345.837 30.0049 346.01C29.5801 346.377 29.5801 346.377 29.0801 346.377C29.0801 346.212 29.0801 346.047 29.0801 345.877C28.9357 345.815 28.7913 345.753 28.6426 345.689C27.9977 345.331 27.5648 344.931 27.0801 344.377C27.0801 344.212 27.0801 344.047 27.0801 343.877C26.8326 343.794 26.5851 343.712 26.3301 343.627C25.918 343.2 25.918 343.2 25.4863 342.674C24.9928 342.09 24.5536 341.606 23.9551 341.127C23.4218 340.7 23.0586 340.324 22.626 339.806C21.2449 338.21 19.7207 336.75 18.2207 335.268C17.6266 334.68 17.0333 334.092 16.4404 333.503C16.3037 333.368 16.1671 333.234 16.0262 333.095C15.7061 332.777 15.3924 332.453 15.0801 332.127C15.0801 332.044 15.0801 331.962 15.0801 331.877Z" fill="#058C4E"/>
<path d="M200.552 285C220.17 285 239.788 285 260 285C260 319.65 260 354.3 260 390C240.286 390 220.572 390 200.261 390C200.261 378.257 200.261 366.515 200.261 354.417C188.625 354.417 176.989 354.417 165 354.417C165 342.482 165 330.547 165 318.25C176.732 318.25 188.464 318.25 200.552 318.25C200.552 307.278 200.552 296.305 200.552 285Z" fill="#05728C"/>
<path d="M165 318C176.88 318 188.76 318 201 318C201 329.88 201 341.76 201 354C189.12 354 177.24 354 165 354C165 342.12 165 330.24 165 318Z" fill="#16A9C4"/>
<path d="M200.037 319C209.595 319 219.153 319 229 319C229 330.45 229 341.9 229 353.697C224.276 353.75 219.552 353.802 214.685 353.857C213.191 353.874 211.697 353.892 210.157 353.91C208.339 353.929 208.339 353.929 207.489 353.938C206.893 353.944 206.296 353.951 205.7 353.958C204.799 353.969 203.898 353.979 202.997 353.987C202.73 353.991 202.462 353.995 202.187 353.999C201.569 354.004 200.95 353.994 200.332 353.981C200.037 353.697 200.037 353.697 200 353.12C200.001 352.864 200.001 352.609 200.001 352.345C200.001 352.053 200 351.761 200 351.46C200.001 351.136 200.002 350.813 200.003 350.479C200.003 350.141 200.003 349.803 200.003 349.454C200.003 348.523 200.005 347.592 200.007 346.662C200.009 345.69 200.009 344.718 200.009 343.747C200.01 341.905 200.013 340.064 200.015 338.223C200.019 335.922 200.021 333.621 200.022 331.32C200.025 327.213 200.031 323.107 200.037 319Z" fill="#D7C3F9"/>
<path d="M230 285C239.9 285 249.8 285 260 285C260 295.89 260 306.78 260 318C250.1 318 240.2 318 230 318C230 307.11 230 296.22 230 285Z" fill="#16A9C4"/>
<path d="M201 285C220.47 285 239.94 285 260 285C260 285.096 260 285.192 260 285.291C250.074 285.291 240.148 285.291 229.922 285.291C229.922 307.965 229.922 330.639 229.922 354C229.826 354 229.731 354 229.632 354C229.632 342.183 229.632 330.365 229.632 318.19C220.184 318.19 210.735 318.19 201 318.19C201 307.237 201 296.285 201 285Z" fill="#05728C"/>
<path d="M99.3281 215.375C99.9424 216.296 100.145 217.227 100.406 218.287C100.46 218.499 100.513 218.712 100.569 218.931C100.74 219.61 100.909 220.289 101.078 220.969C101.247 221.646 101.417 222.324 101.588 223.001C101.694 223.423 101.799 223.844 101.903 224.266C102.151 225.252 102.417 226.191 102.828 227.125C102.979 227.04 103.129 226.954 103.285 226.866C104.523 226.165 105.761 225.465 107.001 224.766C107.984 224.211 108.965 223.654 109.944 223.094C110.348 222.865 110.752 222.635 111.156 222.406C111.344 222.298 111.532 222.189 111.725 222.077C112.168 221.828 112.622 221.599 113.078 221.375C113.243 221.457 113.408 221.54 113.578 221.625C113.486 221.756 113.395 221.886 113.3 222.021C111.704 224.295 110.109 226.571 108.531 228.859C108.365 229.1 108.365 229.1 108.195 229.346C107.626 230.173 107.083 231.008 106.578 231.875C106.879 231.911 106.879 231.911 107.186 231.947C108.3 232.169 109.302 232.555 110.357 232.97C110.679 233.094 110.679 233.094 111.007 233.221C111.687 233.484 112.367 233.75 113.047 234.016C113.51 234.195 113.973 234.375 114.436 234.554C115.567 234.993 116.698 235.434 117.828 235.875C117.828 235.958 117.828 236.04 117.828 236.125C117.57 236.16 117.312 236.195 117.046 236.232C116.075 236.364 115.104 236.498 114.134 236.632C113.716 236.689 113.299 236.746 112.881 236.803C110.603 237.114 108.335 237.437 106.078 237.875C106.198 238.18 106.318 238.486 106.441 238.8C106.886 239.933 107.33 241.066 107.773 242.199C107.965 242.69 108.158 243.18 108.35 243.67C108.627 244.375 108.903 245.08 109.179 245.785C109.265 246.004 109.351 246.223 109.44 246.449C109.52 246.654 109.6 246.859 109.683 247.071C109.753 247.25 109.824 247.43 109.896 247.616C110.074 248.114 110.209 248.609 110.328 249.125C108.973 248.126 107.658 247.088 106.359 246.016C104.892 244.813 103.412 243.672 101.828 242.625C101.798 242.911 101.767 243.198 101.735 243.493C101.596 244.6 101.347 245.657 101.062 246.734C101.012 246.926 100.962 247.117 100.911 247.314C100.755 247.918 100.596 248.522 100.438 249.125C100.33 249.537 100.223 249.95 100.116 250.362C99.8545 251.367 99.5917 252.371 99.3281 253.375C98.7612 252.409 98.5443 251.35 98.2871 250.271C98.2133 249.967 98.2133 249.967 98.1379 249.657C98.0344 249.23 97.9315 248.803 97.8291 248.375C97.6719 247.719 97.5129 247.064 97.3535 246.408C97.2531 245.993 97.1529 245.578 97.0527 245.162C97.0051 244.965 96.9574 244.769 96.9083 244.566C96.5781 243.183 96.5781 243.183 96.5781 242.625C94.3729 244.273 92.1741 245.927 89.9961 247.61C89.4432 248.036 88.8877 248.458 88.3281 248.875C88.8137 247.377 89.3418 245.903 89.917 244.437C89.9936 244.24 90.0702 244.043 90.1492 243.841C90.3906 243.222 90.6328 242.603 90.875 241.984C91.0403 241.561 91.2055 241.138 91.3706 240.714C91.7725 239.684 92.1751 238.655 92.5781 237.625C92.4291 237.608 92.2801 237.59 92.1265 237.572C88.1762 237.104 84.2516 236.53 80.3281 235.875C80.9613 235.453 81.4244 235.223 82.1271 234.974C82.4424 234.861 82.4424 234.861 82.764 234.747C83.1027 234.627 83.1027 234.627 83.4482 234.506C83.6802 234.423 83.9122 234.341 84.1513 234.256C84.8922 233.992 85.6336 233.731 86.375 233.469C86.8775 233.29 87.3799 233.112 87.8823 232.934C89.1139 232.496 90.3458 232.06 91.5781 231.625C91.5781 230.664 91.2712 230.337 90.7275 229.549C90.5471 229.286 90.3666 229.022 90.1806 228.751C89.985 228.469 89.7894 228.188 89.5938 227.906C89.3978 227.622 89.202 227.337 89.0064 227.052C88.4489 226.242 87.8886 225.433 87.3281 224.625C87.0669 224.247 86.8058 223.868 86.5449 223.489C86.0579 222.783 85.569 222.078 85.0781 221.375C86.0059 221.375 86.3853 221.648 87.1826 222.116C87.4534 222.274 87.7241 222.432 88.0031 222.595C88.2937 222.766 88.5844 222.938 88.875 223.109C89.3168 223.368 89.7588 223.626 90.2009 223.883C90.4945 224.055 90.788 224.226 91.0814 224.398C92.292 225.106 93.5103 225.8 94.7344 226.484C94.8998 226.577 95.0651 226.67 95.2355 226.765C95.5995 226.969 95.9638 227.172 96.3281 227.375C96.3565 227.094 96.3848 226.813 96.414 226.524C96.5662 225.312 96.8728 224.165 97.2041 222.992C97.2648 222.773 97.3255 222.554 97.388 222.328C97.5803 221.635 97.7745 220.943 97.9688 220.25C98.1002 219.777 98.2316 219.305 98.3628 218.832C98.6831 217.679 99.0051 216.527 99.3281 215.375Z" fill="#05728C"/>
<path d="M99.3281 215.375C99.9424 216.296 100.145 217.227 100.406 218.287C100.46 218.499 100.513 218.712 100.569 218.931C100.74 219.61 100.909 220.289 101.078 220.969C101.247 221.646 101.417 222.324 101.588 223.001C101.694 223.423 101.799 223.844 101.903 224.266C102.151 225.252 102.417 226.191 102.828 227.125C102.979 227.04 103.129 226.954 103.285 226.866C104.523 226.165 105.761 225.465 107.001 224.766C107.984 224.211 108.965 223.654 109.944 223.094C110.348 222.865 110.752 222.635 111.156 222.406C111.344 222.298 111.532 222.189 111.725 222.077C112.168 221.828 112.622 221.599 113.078 221.375C113.243 221.457 113.408 221.54 113.578 221.625C113.486 221.756 113.395 221.886 113.3 222.021C111.704 224.295 110.109 226.571 108.531 228.859C108.365 229.1 108.365 229.1 108.195 229.346C107.626 230.173 107.083 231.008 106.578 231.875C106.879 231.911 106.879 231.911 107.186 231.947C108.3 232.169 109.302 232.555 110.357 232.97C110.679 233.094 110.679 233.094 111.007 233.221C111.687 233.484 112.367 233.75 113.047 234.016C113.51 234.195 113.973 234.375 114.436 234.554C115.567 234.993 116.698 235.434 117.828 235.875C117.828 235.958 117.828 236.04 117.828 236.125C117.57 236.16 117.312 236.195 117.046 236.232C116.075 236.364 115.104 236.498 114.134 236.632C113.716 236.689 113.299 236.746 112.881 236.803C110.603 237.114 108.335 237.437 106.078 237.875C106.198 238.18 106.318 238.486 106.441 238.8C106.886 239.933 107.33 241.066 107.773 242.199C107.965 242.69 108.158 243.18 108.35 243.67C108.627 244.375 108.903 245.08 109.179 245.785C109.265 246.004 109.351 246.223 109.44 246.449C109.52 246.654 109.6 246.859 109.683 247.071C109.753 247.25 109.824 247.43 109.896 247.616C110.074 248.114 110.209 248.609 110.328 249.125C108.973 248.126 107.658 247.088 106.359 246.016C104.892 244.813 103.412 243.672 101.828 242.625C101.798 242.911 101.767 243.198 101.735 243.493C101.596 244.6 101.347 245.657 101.062 246.734C101.012 246.926 100.962 247.117 100.911 247.314C100.755 247.918 100.596 248.522 100.438 249.125C100.33 249.537 100.223 249.95 100.116 250.362C99.8545 251.367 99.5917 252.371 99.3281 253.375C98.7612 252.409 98.5443 251.35 98.2871 250.271C98.2133 249.967 98.2133 249.967 98.1379 249.657C98.0344 249.23 97.9315 248.803 97.8291 248.375C97.6719 247.719 97.5129 247.064 97.3535 246.408C97.2531 245.993 97.1529 245.578 97.0527 245.162C97.0051 244.965 96.9574 244.769 96.9083 244.566C96.5781 243.183 96.5781 243.183 96.5781 242.625C94.3729 244.273 92.1741 245.927 89.9961 247.61C89.4432 248.036 88.8877 248.458 88.3281 248.875C88.8137 247.377 89.3418 245.903 89.917 244.437C89.9936 244.24 90.0702 244.043 90.1492 243.841C90.3906 243.222 90.6328 242.603 90.875 241.984C91.0403 241.561 91.2055 241.138 91.3706 240.714C91.7725 239.684 92.1751 238.655 92.5781 237.625C92.4291 237.608 92.2801 237.59 92.1265 237.572C88.1762 237.104 84.2516 236.53 80.3281 235.875C80.9613 235.453 81.4244 235.223 82.1271 234.974C82.4424 234.861 82.4424 234.861 82.764 234.747C83.1027 234.627 83.1027 234.627 83.4482 234.506C83.6802 234.423 83.9122 234.341 84.1513 234.256C84.8922 233.992 85.6336 233.731 86.375 233.469C86.8775 233.29 87.3799 233.112 87.8823 232.934C89.1139 232.496 90.3458 232.06 91.5781 231.625C91.5781 230.664 91.2712 230.337 90.7275 229.549C90.5471 229.286 90.3666 229.022 90.1806 228.751C89.985 228.469 89.7894 228.188 89.5938 227.906C89.3978 227.622 89.202 227.337 89.0064 227.052C88.4489 226.242 87.8886 225.433 87.3281 224.625C87.0669 224.247 86.8058 223.868 86.5449 223.489C86.0579 222.783 85.569 222.078 85.0781 221.375C86.0059 221.375 86.3853 221.648 87.1826 222.116C87.4534 222.274 87.7241 222.432 88.0031 222.595C88.2937 222.766 88.5844 222.938 88.875 223.109C89.3168 223.368 89.7588 223.626 90.2009 223.883C90.4945 224.055 90.788 224.226 91.0814 224.398C92.292 225.106 93.5103 225.8 94.7344 226.484C94.8998 226.577 95.0651 226.67 95.2355 226.765C95.5995 226.969 95.9638 227.172 96.3281 227.375C96.3565 227.094 96.3848 226.813 96.414 226.524C96.5662 225.312 96.8728 224.165 97.2041 222.992C97.2648 222.773 97.3255 222.554 97.388 222.328C97.5803 221.635 97.7745 220.943 97.9688 220.25C98.1002 219.777 98.2316 219.305 98.3628 218.832C98.6831 217.679 99.0051 216.527 99.3281 215.375Z" fill="#5A278C"/>
<path d="M62.0801 265.875C66.4818 269.752 69.5848 275.486 70.0801 281.375C70.4603 287.997 68.7872 294.312 64.3301 299.375C60.4989 303.558 55.1947 307.063 49.3552 307.419C42.4149 307.552 42.4149 307.552 39.3301 306.375C39.0131 306.262 38.6961 306.149 38.379 306.036C35.2831 304.897 32.5612 303.302 30.0801 301.125C29.8929 300.961 29.7057 300.798 29.5128 300.63C25.3339 296.729 22.7335 290.815 22.4874 285.126C22.3669 278.831 23.8106 273.557 27.8301 268.625C28.0834 268.31 28.0834 268.31 28.3419 267.989C37.0283 257.765 52.0505 257.512 62.0801 265.875Z" fill="#8D5AC4"/>
<path d="M62.0801 265.875C66.4818 269.752 69.5848 275.486 70.0801 281.375C70.4603 287.997 68.7872 294.312 64.3301 299.375C60.4989 303.558 55.1947 307.063 49.3552 307.419C42.4149 307.552 42.4149 307.552 39.3301 306.375C39.0131 306.262 38.6961 306.149 38.379 306.036C35.2831 304.897 32.5612 303.302 30.0801 301.125C29.8929 300.961 29.7057 300.798 29.5128 300.63C25.3339 296.729 22.7335 290.815 22.4874 285.126C22.3669 278.831 23.8106 273.557 27.8301 268.625C28.0834 268.31 28.0834 268.31 28.3419 267.989C37.0283 257.765 52.0505 257.512 62.0801 265.875Z" fill="#8D5AC4"/>
<path d="M200.552 285C220.17 285 239.788 285 260 285C260 319.65 260 354.3 260 390C240.286 390 220.572 390 200.261 390C200.261 378.257 200.261 366.515 200.261 354.417C188.625 354.417 176.989 354.417 165 354.417C165 342.482 165 330.547 165 318.25C176.732 318.25 188.464 318.25 200.552 318.25C200.552 307.278 200.552 296.305 200.552 285Z" fill="#05728C"/>
<path d="M201 285C220.47 285 239.94 285 260 285C260 285.096 260 285.192 260 285.291C250.074 285.291 240.148 285.291 229.922 285.291C229.922 307.965 229.922 330.639 229.922 354C229.826 354 229.731 354 229.632 354C229.632 342.183 229.632 330.365 229.632 318.19C220.184 318.19 210.735 318.19 201 318.19C201 307.237 201 296.285 201 285Z" fill="#05728C"/>
<path d="M230 285C239.9 285 249.8 285 260 285C260 295.89 260 306.78 260 318C250.1 318 240.2 318 230 318C230 307.11 230 296.22 230 285Z" fill="#16A9C4"/>
<path d="M84.5781 315.625C84.9941 316.249 85.1927 316.636 85.4086 317.327C85.4691 317.519 85.5296 317.71 85.5919 317.907C85.6563 318.115 85.7207 318.324 85.7871 318.538C85.9289 318.991 86.0708 319.443 86.2127 319.896C86.2872 320.135 86.3617 320.373 86.4385 320.619C86.6736 321.365 86.9148 322.108 87.1579 322.851C87.9297 325.223 88.6477 327.573 89.1865 330.01C90.0017 333.916 90.0017 333.916 92.3534 336.974C94.0939 337.954 96.063 338.361 98.0049 338.742C100.275 339.189 102.458 339.896 104.664 340.586C105.75 340.923 106.84 341.244 107.931 341.565C108.123 341.622 108.316 341.679 108.514 341.738C108.952 341.867 109.39 341.996 109.828 342.125C109.578 342.625 109.578 342.625 108.847 342.895C108.517 342.994 108.188 343.092 107.857 343.188C107.679 343.241 107.5 343.295 107.316 343.35C106.929 343.466 106.542 343.581 106.155 343.696C105.129 343.998 104.106 344.307 103.082 344.615C102.873 344.678 102.665 344.741 102.45 344.805C100.04 345.532 97.6489 346.314 95.2596 347.104C94.9606 347.201 94.6616 347.299 94.3535 347.4C94.094 347.486 93.8344 347.572 93.567 347.661C92.8232 347.876 92.0939 348.013 91.3281 348.125C91.3005 348.261 91.2728 348.398 91.2443 348.538C90.9487 349.936 90.5613 351.276 90.1016 352.628C90.0313 352.838 89.961 353.048 89.8885 353.264C89.6611 353.942 89.4321 354.619 89.2031 355.297C89.0457 355.765 88.8885 356.234 88.7313 356.702C88.4154 357.643 88.0989 358.585 87.782 359.526C87.1915 361.28 86.6065 363.036 86.0222 364.792C85.7657 365.563 85.5088 366.333 85.252 367.104C85.1283 367.475 85.1283 367.475 85.0021 367.853C84.9447 368.025 84.8873 368.198 84.8281 368.375C84.2835 367.558 84.0018 366.749 83.6976 365.827C83.6366 365.644 83.5756 365.462 83.5127 365.275C83.3114 364.673 83.1117 364.07 82.9121 363.468C82.7728 363.05 82.6334 362.632 82.4939 362.213C82.2019 361.338 81.9107 360.461 81.6201 359.585C81.247 358.46 80.8722 357.336 80.4969 356.211C80.209 355.348 79.9218 354.485 79.6348 353.622C79.4968 353.207 79.3587 352.792 79.2203 352.377C79.0274 351.799 78.8355 351.22 78.6439 350.641C78.5863 350.469 78.5286 350.296 78.4692 350.119C78.0781 348.932 78.0781 348.932 78.0781 348.375C77.9233 348.335 77.7685 348.295 77.6091 348.254C75.5671 347.713 73.5643 347.066 71.5596 346.403C71.2048 346.287 70.85 346.17 70.4952 346.053C69.5707 345.749 68.6465 345.445 67.7223 345.14C66.7755 344.828 65.8284 344.516 64.8813 344.205C63.03 343.595 61.179 342.986 59.3281 342.375C60.0278 342.005 60.7125 341.732 61.4678 341.498C61.6927 341.428 61.9175 341.357 62.1492 341.285C62.5128 341.173 62.5128 341.173 62.8838 341.059C63.1375 340.98 63.3911 340.901 63.6525 340.819C64.466 340.566 65.2799 340.314 66.0938 340.062C66.8915 339.815 67.6892 339.567 68.4869 339.319C69.0103 339.156 69.5339 338.994 70.0575 338.832C71.2904 338.45 72.522 338.064 73.7509 337.669C73.9704 337.599 74.1899 337.529 74.4161 337.456C74.8246 337.325 75.2327 337.193 75.6406 337.06C76.3978 336.817 77.0275 336.625 77.8281 336.625C77.8725 336.308 77.8725 336.308 77.9177 335.985C78.0879 335.073 78.3462 334.24 78.6445 333.361C78.702 333.191 78.7595 333.02 78.8187 332.844C78.9433 332.474 79.0683 332.105 79.1938 331.736C79.533 330.737 79.8685 329.738 80.2041 328.738C80.3098 328.424 80.3098 328.424 80.4177 328.103C81.3301 325.383 82.2106 322.653 83.0913 319.923C83.2291 319.496 83.367 319.069 83.5052 318.642C83.6308 318.254 83.756 317.865 83.8809 317.476C84.3 316.181 84.3 316.181 84.5781 315.625Z" fill="#140BA9"/>
<path d="M165 318C176.88 318 188.76 318 201 318C201 329.88 201 341.76 201 354C189.12 354 177.24 354 165 354C165 342.12 165 330.24 165 318Z" fill="#16A9C4"/>
<path d="M200.037 319C209.595 319 219.153 319 229 319C229 330.45 229 341.9 229 353.697C224.276 353.75 219.552 353.802 214.685 353.857C213.191 353.874 211.697 353.892 210.157 353.91C208.339 353.929 208.339 353.929 207.489 353.938C206.893 353.944 206.296 353.951 205.7 353.958C204.799 353.969 203.898 353.979 202.997 353.987C202.73 353.991 202.462 353.995 202.187 353.999C201.569 354.004 200.95 353.994 200.332 353.981C200.037 353.697 200.037 353.697 200 353.12C200.001 352.864 200.001 352.609 200.001 352.345C200.001 352.053 200 351.761 200 351.46C200.001 351.136 200.002 350.813 200.003 350.479C200.003 350.141 200.003 349.803 200.003 349.454C200.003 348.523 200.005 347.592 200.007 346.662C200.009 345.69 200.009 344.718 200.009 343.747C200.01 341.905 200.013 340.064 200.015 338.223C200.019 335.922 200.021 333.621 200.022 331.32C200.025 327.213 200.031 323.107 200.037 319Z" fill="#D7C3F9"/>
<path d="M15.0781 331.875C24.4831 331.875 33.8881 331.875 43.5781 331.875C41.8911 333.843 41.8911 333.843 41.1324 334.595C40.963 334.764 40.7935 334.932 40.619 335.106C40.4408 335.282 40.2627 335.458 40.0791 335.64C39.8912 335.827 39.7032 336.014 39.5096 336.206C38.7127 336.999 37.9144 337.79 37.1161 338.582C36.5304 339.163 35.9453 339.745 35.3604 340.327C35.1827 340.503 35.005 340.678 34.822 340.859C33.8212 341.855 32.8671 342.876 31.9472 343.948C31.4836 344.484 30.999 344.996 30.5 345.5C30.336 345.668 30.1719 345.835 30.0029 346.008C29.5781 346.375 29.5781 346.375 29.0781 346.375C29.0781 346.21 29.0781 346.045 29.0781 345.875C28.9338 345.813 28.7894 345.751 28.6406 345.688C27.9958 345.329 27.5628 344.929 27.0781 344.375C27.0781 344.21 27.0781 344.045 27.0781 343.875C26.8306 343.792 26.5831 343.71 26.3281 343.625C25.916 343.198 25.916 343.198 25.4844 342.672C24.9909 342.089 24.5517 341.604 23.9531 341.125C23.4198 340.698 23.0567 340.322 22.624 339.804C21.243 338.208 19.7187 336.749 18.2188 335.266C17.6246 334.678 17.0313 334.09 16.4385 333.501C16.3018 333.366 16.1651 333.232 16.0243 333.093C15.7042 332.775 15.3904 332.451 15.0781 332.125C15.0781 332.042 15.0781 331.96 15.0781 331.875Z" fill="#058C4E"/>
<path d="M15.0781 331.875C24.4831 331.875 33.8881 331.875 43.5781 331.875C41.8911 333.843 41.8911 333.843 41.1324 334.595C40.963 334.764 40.7935 334.932 40.619 335.106C40.4408 335.282 40.2627 335.458 40.0791 335.64C39.8912 335.827 39.7032 336.014 39.5096 336.206C38.7127 336.999 37.9144 337.79 37.1161 338.582C36.5304 339.163 35.9453 339.745 35.3604 340.327C35.1827 340.503 35.005 340.678 34.822 340.859C33.8212 341.855 32.8671 342.876 31.9472 343.948C31.4836 344.484 30.999 344.996 30.5 345.5C30.336 345.668 30.1719 345.835 30.0029 346.008C29.5781 346.375 29.5781 346.375 29.0781 346.375C29.0781 346.21 29.0781 346.045 29.0781 345.875C28.9338 345.813 28.7894 345.751 28.6406 345.688C27.9958 345.329 27.5628 344.929 27.0781 344.375C27.0781 344.21 27.0781 344.045 27.0781 343.875C26.8306 343.792 26.5831 343.71 26.3281 343.625C25.916 343.198 25.916 343.198 25.4844 342.672C24.9909 342.089 24.5517 341.604 23.9531 341.125C23.4198 340.698 23.0567 340.322 22.624 339.804C21.243 338.208 19.7187 336.749 18.2188 335.266C17.6246 334.678 17.0313 334.09 16.4385 333.501C16.3018 333.366 16.1651 333.232 16.0243 333.093C15.7042 332.775 15.3904 332.451 15.0781 332.125C15.0781 332.042 15.0781 331.96 15.0781 331.875Z" fill="#058C4E"/>
<path d="M29.5781 346.625C29.9223 346.974 29.9223 346.974 30.3289 347.468C31.4265 348.758 32.615 349.943 33.8154 351.137C34.0516 351.372 34.2877 351.608 34.5238 351.844C35.1397 352.459 35.7564 353.073 36.3733 353.687C37.0008 354.312 37.6276 354.938 38.2544 355.563C39.3562 356.663 40.4586 357.762 41.5615 358.86C41.732 359.03 41.9025 359.2 42.0781 359.375C42.2652 359.552 42.4524 359.728 42.6452 359.911C43.0781 360.375 43.0781 360.375 43.0781 360.875C43.4494 360.999 43.4494 360.999 43.8281 361.125C43.8281 361.208 43.8281 361.29 43.8281 361.375C34.2581 361.375 24.6881 361.375 14.8281 361.375C15.7065 360.35 16.5274 359.395 17.4785 358.459C17.786 358.154 17.786 358.154 18.0996 357.844C18.3091 357.637 18.5186 357.431 18.7344 357.219C19.1549 356.805 19.5748 356.39 19.9941 355.975C20.1784 355.793 20.3626 355.612 20.5524 355.425C21.1006 354.852 21.5865 354.247 22.0781 353.625C22.4895 353.203 22.9063 352.786 23.3281 352.375C24.113 351.595 24.8908 350.808 25.667 350.019C26.0696 349.611 26.4723 349.204 26.875 348.797C27.0798 348.588 27.2846 348.379 27.4956 348.164C27.7893 347.867 27.7893 347.867 28.0889 347.565C28.2668 347.385 28.4448 347.204 28.6281 347.018C29.0781 346.625 29.0781 346.625 29.5781 346.625Z" fill="#8D5AC4"/>
<path d="M29.5781 346.625C29.9223 346.974 29.9223 346.974 30.3289 347.468C31.4265 348.758 32.615 349.943 33.8154 351.137C34.0516 351.372 34.2877 351.608 34.5238 351.844C35.1397 352.459 35.7564 353.073 36.3733 353.687C37.0008 354.312 37.6276 354.938 38.2544 355.563C39.3562 356.663 40.4586 357.762 41.5615 358.86C41.732 359.03 41.9025 359.2 42.0781 359.375C42.2652 359.552 42.4524 359.728 42.6452 359.911C43.0781 360.375 43.0781 360.375 43.0781 360.875C43.4494 360.999 43.4494 360.999 43.8281 361.125C43.8281 361.208 43.8281 361.29 43.8281 361.375C34.2581 361.375 24.6881 361.375 14.8281 361.375C15.7065 360.35 16.5274 359.395 17.4785 358.459C17.786 358.154 17.786 358.154 18.0996 357.844C18.3091 357.637 18.5186 357.431 18.7344 357.219C19.1549 356.805 19.5748 356.39 19.9941 355.975C20.1784 355.793 20.3626 355.612 20.5524 355.425C21.1006 354.852 21.5865 354.247 22.0781 353.625C22.4895 353.203 22.9063 352.786 23.3281 352.375C24.113 351.595 24.8908 350.808 25.667 350.019C26.0696 349.611 26.4723 349.204 26.875 348.797C27.0798 348.588 27.2846 348.379 27.4956 348.164C27.7893 347.867 27.7893 347.867 28.0889 347.565C28.2668 347.385 28.4448 347.204 28.6281 347.018C29.0781 346.625 29.0781 346.625 29.5781 346.625Z" fill="#8D5AC4"/>
<path d="M120.744 355.006C121.166 355.008 121.588 355.01 122.01 355.011C123.112 355.016 124.213 355.028 125.315 355.042C126.443 355.055 127.571 355.06 128.699 355.067C130.906 355.08 133.112 355.101 135.319 355.127C135.338 357.294 135.351 359.461 135.36 361.629C135.364 362.365 135.369 363.101 135.375 363.838C135.384 364.9 135.389 365.961 135.392 367.023C135.396 367.349 135.4 367.676 135.404 368.012C135.404 371.985 134.215 375.156 132.069 378.084C129.332 381.345 125.867 382.352 122.184 382.364C121.652 382.368 121.122 382.383 120.591 382.399C116.905 382.453 113.965 380.764 111.272 377.656C108.796 374.454 107.961 370.549 108.001 366.218C108.207 362.793 109.602 360.137 111.658 357.919C114.511 355.262 117.299 354.949 120.744 355.006Z" fill="#058C4E"/>
<path d="M197 176C206.818 176 216.635 176 226.75 176C226.75 210.568 226.75 245.135 226.75 280.75C206.372 280.75 185.995 280.75 165 280.75C165 266.643 165 252.535 165 238C180.716 237.876 180.716 237.876 196.75 237.75C196.833 217.372 196.915 196.995 197 176Z" fill="#9B99B9"/>
<path d="M136 237.75C145.405 237.75 154.81 237.75 164.5 237.75C164.712 238.812 164.781 239.663 164.78 240.735C164.78 240.906 164.78 241.078 164.781 241.254C164.781 241.827 164.78 242.401 164.778 242.974C164.778 243.393 164.778 243.811 164.778 244.229C164.779 245.348 164.777 246.467 164.775 247.587C164.774 248.637 164.774 249.688 164.774 250.738C164.772 253.81 164.769 256.881 164.766 259.953C164.76 266.816 164.755 273.679 164.75 280.75C185.21 280.75 205.67 280.75 226.75 280.75C226.75 280.833 226.75 280.915 226.75 281C206.372 281 185.995 281 165 281C165 305.255 165 329.51 165 354.5C155.43 354.5 145.86 354.5 136 354.5C136 315.973 136 277.445 136 237.75Z" fill="#A8FDF8"/>
<path d="M196.75 237.75C206.65 237.75 216.55 237.75 226.75 237.75C226.75 251.94 226.75 266.13 226.75 280.75C216.85 280.75 206.95 280.75 196.75 280.75C196.75 266.56 196.75 252.37 196.75 237.75Z" fill="#16A9C4"/>
<path d="M165 238C175.477 238 185.955 238 196.75 238C196.75 252.108 196.75 266.215 196.75 280.75C186.272 280.75 175.795 280.75 165 280.75C165 266.642 165 252.535 165 238Z" fill="#05728C"/>
</g>
</svg>
