<svg width="1920" height="672" viewBox="0 0 1920 672" fill="none" xmlns="http://www.w3.org/2000/svg">
<g clip-path="url(#clip0_19565_5582)">
<rect width="1920" height="672" fill="#DAF5FA"/>
<path d="M1416.69 125.13C1418.62 128.016 1419.25 130.931 1420.07 134.252C1420.24 134.917 1420.41 135.583 1420.58 136.268C1421.11 138.395 1421.64 140.524 1422.17 142.652C1422.7 144.775 1423.24 146.898 1423.77 149.02C1424.1 150.339 1424.43 151.66 1424.76 152.981C1425.53 156.071 1426.37 159.011 1427.66 161.937C1428.13 161.669 1428.6 161.402 1429.09 161.126C1432.96 158.929 1436.84 156.735 1440.73 154.546C1443.81 152.81 1446.88 151.065 1449.95 149.309C1451.21 148.591 1452.48 147.873 1453.74 147.155C1454.33 146.815 1454.92 146.475 1455.53 146.125C1456.91 145.343 1458.34 144.626 1459.76 143.925C1460.28 144.183 1460.8 144.442 1461.33 144.708C1461.04 145.117 1460.76 145.526 1460.46 145.947C1455.46 153.073 1450.46 160.202 1445.52 167.37C1445 168.124 1445 168.124 1444.47 168.895C1442.68 171.485 1440.99 174.099 1439.4 176.816C1440.34 176.928 1440.34 176.928 1441.31 177.042C1444.8 177.738 1447.94 178.947 1451.24 180.245C1452.25 180.635 1452.25 180.635 1453.28 181.032C1455.41 181.858 1457.54 182.69 1459.67 183.522C1461.12 184.084 1462.57 184.647 1464.02 185.209C1467.56 186.583 1471.1 187.963 1474.64 189.346C1474.64 189.604 1474.64 189.863 1474.64 190.129C1473.83 190.24 1473.03 190.35 1472.19 190.464C1469.15 190.879 1466.11 191.297 1463.07 191.716C1461.76 191.896 1460.45 192.075 1459.15 192.254C1452.01 193.227 1444.91 194.239 1437.84 195.611C1438.21 196.567 1438.59 197.524 1438.97 198.509C1440.37 202.057 1441.76 205.607 1443.15 209.157C1443.75 210.693 1444.35 212.229 1444.95 213.765C1445.82 215.972 1446.69 218.181 1447.55 220.39C1447.82 221.076 1448.09 221.762 1448.37 222.469C1448.62 223.111 1448.87 223.754 1449.13 224.416C1449.35 224.98 1449.57 225.543 1449.8 226.124C1450.35 227.686 1450.78 229.236 1451.15 230.852C1446.9 227.721 1442.79 224.469 1438.72 221.112C1434.12 217.344 1429.48 213.77 1424.52 210.49C1424.43 211.388 1424.33 212.285 1424.23 213.21C1423.8 216.678 1423.02 219.988 1422.12 223.363C1421.97 223.963 1421.81 224.562 1421.65 225.18C1421.16 227.071 1420.66 228.961 1420.17 230.852C1419.83 232.144 1419.5 233.435 1419.16 234.727C1418.34 237.874 1417.52 241.02 1416.69 244.165C1414.92 241.137 1414.24 237.822 1413.43 234.443C1413.2 233.491 1413.2 233.491 1412.96 232.519C1412.64 231.18 1412.32 229.842 1412 228.502C1411.5 226.448 1411.01 224.394 1410.51 222.341C1410.19 221.04 1409.88 219.739 1409.56 218.438C1409.42 217.822 1409.27 217.206 1409.11 216.572C1408.08 212.239 1408.08 212.239 1408.08 210.49C1401.17 215.651 1394.28 220.834 1387.46 226.107C1385.73 227.441 1383.99 228.762 1382.23 230.069C1383.76 225.375 1385.41 220.757 1387.21 216.165C1387.45 215.549 1387.69 214.933 1387.94 214.299C1388.7 212.36 1389.45 210.422 1390.21 208.484C1390.73 207.158 1391.25 205.831 1391.77 204.505C1393.02 201.279 1394.29 198.053 1395.55 194.828C1395.08 194.773 1394.61 194.718 1394.13 194.662C1381.76 193.197 1369.47 191.398 1357.17 189.346C1359.16 188.024 1360.61 187.304 1362.81 186.524C1363.8 186.171 1363.8 186.171 1364.81 185.811C1365.87 185.438 1365.87 185.438 1366.95 185.057C1367.68 184.799 1368.4 184.54 1369.15 184.274C1371.47 183.449 1373.79 182.629 1376.12 181.808C1377.69 181.25 1379.26 180.691 1380.84 180.132C1384.7 178.762 1388.56 177.396 1392.42 176.033C1392.42 173.021 1391.45 171.997 1389.75 169.529C1389.19 168.705 1388.62 167.88 1388.04 167.03C1387.43 166.148 1386.81 165.266 1386.2 164.384C1385.59 163.493 1384.97 162.601 1384.36 161.709C1382.61 159.17 1380.86 156.638 1379.1 154.105C1378.28 152.92 1377.47 151.734 1376.65 150.548C1375.12 148.336 1373.59 146.128 1372.05 143.925C1374.96 143.925 1376.15 144.779 1378.65 146.247C1379.49 146.741 1380.34 147.236 1381.22 147.745C1382.13 148.283 1383.04 148.82 1383.95 149.358C1385.33 150.167 1386.72 150.975 1388.1 151.783C1389.02 152.319 1389.94 152.857 1390.86 153.395C1394.65 155.613 1398.47 157.785 1402.3 159.93C1402.82 160.22 1403.34 160.51 1403.87 160.809C1405.01 161.447 1406.15 162.084 1407.29 162.72C1407.38 161.84 1407.47 160.96 1407.56 160.054C1408.04 156.259 1409 152.666 1410.04 148.991C1410.23 148.304 1410.42 147.618 1410.61 146.911C1411.22 144.74 1411.83 142.57 1412.43 140.401C1412.85 138.92 1413.26 137.44 1413.67 135.959C1414.67 132.348 1415.68 128.739 1416.69 125.13Z" fill="#05728C"/>
<path d="M1416.69 125.13C1418.62 128.016 1419.25 130.931 1420.07 134.252C1420.24 134.917 1420.41 135.583 1420.58 136.268C1421.11 138.395 1421.64 140.524 1422.17 142.652C1422.7 144.775 1423.24 146.898 1423.77 149.02C1424.1 150.339 1424.43 151.66 1424.76 152.981C1425.53 156.071 1426.37 159.011 1427.66 161.937C1428.13 161.669 1428.6 161.402 1429.09 161.126C1432.96 158.929 1436.84 156.735 1440.73 154.546C1443.81 152.81 1446.88 151.065 1449.95 149.309C1451.21 148.591 1452.48 147.873 1453.74 147.155C1454.33 146.815 1454.92 146.475 1455.53 146.125C1456.91 145.343 1458.34 144.626 1459.76 143.925C1460.28 144.183 1460.8 144.442 1461.33 144.708C1461.04 145.117 1460.76 145.526 1460.46 145.947C1455.46 153.073 1450.46 160.202 1445.52 167.37C1445 168.124 1445 168.124 1444.47 168.895C1442.68 171.485 1440.99 174.099 1439.4 176.816C1440.34 176.928 1440.34 176.928 1441.31 177.042C1444.8 177.738 1447.94 178.947 1451.24 180.245C1452.25 180.635 1452.25 180.635 1453.28 181.032C1455.41 181.858 1457.54 182.69 1459.67 183.522C1461.12 184.084 1462.57 184.647 1464.02 185.209C1467.56 186.583 1471.1 187.963 1474.64 189.346C1474.64 189.604 1474.64 189.863 1474.64 190.129C1473.83 190.24 1473.03 190.35 1472.19 190.464C1469.15 190.879 1466.11 191.297 1463.07 191.716C1461.76 191.896 1460.45 192.075 1459.15 192.254C1452.01 193.227 1444.91 194.239 1437.84 195.611C1438.21 196.567 1438.59 197.524 1438.97 198.509C1440.37 202.057 1441.76 205.607 1443.15 209.157C1443.75 210.693 1444.35 212.229 1444.95 213.765C1445.82 215.972 1446.69 218.181 1447.55 220.39C1447.82 221.076 1448.09 221.762 1448.37 222.469C1448.62 223.111 1448.87 223.754 1449.13 224.416C1449.35 224.98 1449.57 225.543 1449.8 226.124C1450.35 227.686 1450.78 229.236 1451.15 230.852C1446.9 227.721 1442.79 224.469 1438.72 221.112C1434.12 217.344 1429.48 213.77 1424.52 210.49C1424.43 211.388 1424.33 212.285 1424.23 213.21C1423.8 216.678 1423.02 219.988 1422.12 223.363C1421.97 223.963 1421.81 224.562 1421.65 225.18C1421.16 227.071 1420.66 228.961 1420.17 230.852C1419.83 232.144 1419.5 233.435 1419.16 234.727C1418.34 237.874 1417.52 241.02 1416.69 244.165C1414.92 241.137 1414.24 237.822 1413.43 234.443C1413.2 233.491 1413.2 233.491 1412.96 232.519C1412.64 231.18 1412.32 229.842 1412 228.502C1411.5 226.448 1411.01 224.394 1410.51 222.341C1410.19 221.04 1409.88 219.739 1409.56 218.438C1409.42 217.822 1409.27 217.206 1409.11 216.572C1408.08 212.239 1408.08 212.239 1408.08 210.49C1401.17 215.651 1394.28 220.834 1387.46 226.107C1385.73 227.441 1383.99 228.762 1382.23 230.069C1383.76 225.375 1385.41 220.757 1387.21 216.165C1387.45 215.549 1387.69 214.933 1387.94 214.299C1388.7 212.36 1389.45 210.422 1390.21 208.484C1390.73 207.158 1391.25 205.831 1391.77 204.505C1393.02 201.279 1394.29 198.053 1395.55 194.828C1395.08 194.773 1394.61 194.718 1394.13 194.662C1381.76 193.197 1369.47 191.398 1357.17 189.346C1359.16 188.024 1360.61 187.304 1362.81 186.524C1363.8 186.171 1363.8 186.171 1364.81 185.811C1365.87 185.438 1365.87 185.438 1366.95 185.057C1367.68 184.799 1368.4 184.54 1369.15 184.274C1371.47 183.449 1373.79 182.629 1376.12 181.808C1377.69 181.25 1379.26 180.691 1380.84 180.132C1384.7 178.762 1388.56 177.396 1392.42 176.033C1392.42 173.021 1391.45 171.997 1389.75 169.529C1389.19 168.705 1388.62 167.88 1388.04 167.03C1387.43 166.148 1386.81 165.266 1386.2 164.384C1385.59 163.493 1384.97 162.601 1384.36 161.709C1382.61 159.17 1380.86 156.638 1379.1 154.105C1378.28 152.92 1377.47 151.734 1376.65 150.548C1375.12 148.336 1373.59 146.128 1372.05 143.925C1374.96 143.925 1376.15 144.779 1378.65 146.247C1379.49 146.741 1380.34 147.236 1381.22 147.745C1382.13 148.283 1383.04 148.82 1383.95 149.358C1385.33 150.167 1386.72 150.975 1388.1 151.783C1389.02 152.319 1389.94 152.857 1390.86 153.395C1394.65 155.613 1398.47 157.785 1402.3 159.93C1402.82 160.22 1403.34 160.51 1403.87 160.809C1405.01 161.447 1406.15 162.084 1407.29 162.72C1407.38 161.84 1407.47 160.96 1407.56 160.054C1408.04 156.259 1409 152.666 1410.04 148.991C1410.23 148.304 1410.42 147.618 1410.61 146.911C1411.22 144.74 1411.83 142.57 1412.43 140.401C1412.85 138.92 1413.26 137.44 1413.67 135.959C1414.67 132.348 1415.68 128.739 1416.69 125.13Z" fill="#5A278C"/>
<path d="M1300.02 283.317C1313.81 295.463 1323.53 313.424 1325.08 331.871C1326.27 352.615 1321.03 372.398 1307.07 388.256C1295.07 401.36 1278.45 412.338 1260.16 413.454C1238.42 413.873 1238.42 413.873 1228.75 410.183C1227.76 409.829 1226.77 409.475 1225.77 409.122C1216.08 405.553 1207.55 400.559 1199.78 393.738C1199.19 393.226 1198.61 392.714 1198 392.187C1184.91 379.968 1176.77 361.443 1175.99 343.621C1175.62 323.903 1180.14 307.382 1192.73 291.932C1193.52 290.946 1193.52 290.946 1194.33 289.94C1221.54 257.914 1268.6 257.121 1300.02 283.317Z" fill="#8D5AC4"/>
<path d="M1300.02 283.317C1313.81 295.463 1323.53 313.424 1325.08 331.871C1326.27 352.615 1321.03 372.398 1307.07 388.256C1295.07 401.36 1278.45 412.338 1260.16 413.454C1238.42 413.873 1238.42 413.873 1228.75 410.183C1227.76 409.829 1226.77 409.475 1225.77 409.122C1216.08 405.553 1207.55 400.559 1199.78 393.738C1199.19 393.226 1198.61 392.714 1198 392.187C1184.91 379.968 1176.77 361.443 1175.99 343.621C1175.62 323.903 1180.14 307.382 1192.73 291.932C1193.52 290.946 1193.52 290.946 1194.33 289.94C1221.54 257.914 1268.6 257.121 1300.02 283.317Z" fill="#8D5AC4"/>
<path d="M1733.78 343.228C1795.23 343.228 1856.68 343.228 1920 343.228C1920 451.769 1920 560.31 1920 672.14C1858.24 672.14 1796.49 672.14 1732.87 672.14C1732.87 635.357 1732.87 598.573 1732.87 560.676C1696.42 560.676 1659.97 560.676 1622.41 560.676C1622.41 523.289 1622.41 485.903 1622.41 447.384C1659.16 447.384 1695.91 447.384 1733.78 447.384C1733.78 413.012 1733.78 378.641 1733.78 343.228Z" fill="#16A9C4"/>
<path d="M1735.18 343.228C1796.17 343.228 1857.16 343.228 1920 343.228C1920 343.529 1920 343.83 1920 344.14C1888.91 344.14 1857.81 344.14 1825.78 344.14C1825.78 415.166 1825.78 486.192 1825.78 559.37C1825.48 559.37 1825.18 559.37 1824.87 559.37C1824.87 522.353 1824.87 485.335 1824.87 447.195C1795.27 447.195 1765.68 447.195 1735.18 447.195C1735.18 412.886 1735.18 378.577 1735.18 343.228Z" fill="#05728C"/>
<path d="M1826.02 343.228C1857.04 343.228 1888.05 343.228 1920 343.228C1920 377.341 1920 411.454 1920 446.6C1888.99 446.6 1857.97 446.6 1826.02 446.6C1826.02 412.488 1826.02 378.375 1826.02 343.228Z" fill="#16A9C4"/>
<path d="M1370.49 439.161C1371.79 441.116 1372.42 442.328 1373.09 444.493C1373.28 445.093 1373.47 445.692 1373.67 446.31C1373.87 446.962 1374.07 447.614 1374.28 448.286C1374.72 449.704 1375.17 451.122 1375.61 452.54C1375.84 453.288 1376.08 454.036 1376.32 454.806C1377.05 457.141 1377.81 459.468 1378.57 461.795C1380.99 469.225 1383.24 476.59 1384.93 484.221C1387.48 496.457 1387.48 496.457 1394.85 506.038C1400.3 509.105 1406.47 510.381 1412.55 511.576C1419.66 512.975 1426.5 515.19 1433.41 517.351C1436.81 518.406 1440.23 519.414 1443.64 520.419C1444.25 520.598 1444.85 520.776 1445.47 520.959C1446.84 521.364 1448.21 521.768 1449.59 522.172C1448.8 523.739 1448.8 523.739 1446.51 524.583C1445.48 524.895 1444.45 525.2 1443.41 525.501C1442.85 525.668 1442.29 525.836 1441.72 526.009C1440.51 526.373 1439.29 526.734 1438.08 527.092C1434.87 528.04 1431.66 529.007 1428.45 529.973C1427.8 530.169 1427.15 530.366 1426.47 530.568C1418.93 532.845 1411.44 535.293 1403.95 537.767C1403.01 538.074 1402.08 538.381 1401.11 538.697C1400.3 538.967 1399.49 539.236 1398.65 539.513C1396.32 540.189 1394.03 540.618 1391.64 540.967C1391.55 541.394 1391.46 541.821 1391.37 542.261C1390.45 546.641 1389.23 550.836 1387.79 555.073C1387.57 555.73 1387.35 556.387 1387.13 557.065C1386.41 559.189 1385.7 561.311 1384.98 563.433C1384.49 564.9 1383.99 566.367 1383.5 567.835C1382.51 570.783 1381.52 573.732 1380.53 576.679C1378.68 582.175 1376.85 587.675 1375.01 593.177C1374.21 595.591 1373.41 598.004 1372.6 600.417C1372.21 601.58 1372.21 601.58 1371.82 602.766C1371.64 603.305 1371.46 603.845 1371.27 604.4C1369.57 601.841 1368.69 599.308 1367.73 596.417C1367.54 595.847 1367.35 595.276 1367.15 594.688C1366.52 592.803 1365.9 590.916 1365.27 589.028C1364.84 587.719 1364.4 586.409 1363.96 585.099C1363.05 582.355 1362.14 579.611 1361.23 576.866C1360.06 573.342 1358.88 569.819 1357.71 566.298C1356.8 563.594 1355.9 560.89 1355.01 558.185C1354.57 556.886 1354.14 555.587 1353.71 554.288C1353.1 552.476 1352.5 550.662 1351.9 548.849C1351.72 548.309 1351.54 547.769 1351.35 547.213C1350.13 543.496 1350.13 543.496 1350.13 541.75C1349.64 541.625 1349.16 541.5 1348.66 541.371C1342.26 539.677 1335.99 537.65 1329.71 535.574C1328.6 535.209 1327.49 534.843 1326.38 534.478C1323.48 533.526 1320.59 532.571 1317.69 531.616C1314.72 530.638 1311.76 529.662 1308.79 528.687C1302.99 526.779 1297.19 524.868 1291.4 522.955C1293.59 521.798 1295.73 520.941 1298.1 520.208C1298.8 519.988 1299.51 519.768 1300.23 519.541C1301.37 519.19 1301.37 519.19 1302.53 518.832C1303.33 518.584 1304.12 518.337 1304.94 518.082C1307.49 517.289 1310.04 516.5 1312.59 515.712C1315.09 514.936 1317.59 514.159 1320.09 513.382C1321.73 512.873 1323.36 512.364 1325.01 511.856C1328.87 510.659 1332.73 509.452 1336.57 508.215C1337.26 507.995 1337.95 507.774 1338.66 507.547C1339.94 507.136 1341.22 506.723 1342.49 506.305C1344.87 505.544 1346.84 504.944 1349.35 504.944C1349.49 503.952 1349.49 503.952 1349.63 502.939C1350.16 500.081 1350.97 497.474 1351.9 494.72C1352.08 494.185 1352.26 493.651 1352.45 493.1C1352.84 491.942 1353.23 490.784 1353.62 489.627C1354.69 486.5 1355.74 483.369 1356.79 480.238C1357.12 479.253 1357.12 479.253 1357.46 478.248C1360.32 469.729 1363.07 461.177 1365.83 452.626C1366.27 451.288 1366.7 449.95 1367.13 448.612C1367.52 447.395 1367.92 446.178 1368.31 444.961C1369.62 440.904 1369.62 440.904 1370.49 439.161Z" fill="#140BA9"/>
<path d="M1622.41 446.604C1659.63 446.604 1696.84 446.604 1735.18 446.604C1735.18 483.819 1735.18 521.033 1735.18 559.374C1697.97 559.374 1660.75 559.374 1622.41 559.374C1622.41 522.16 1622.41 484.946 1622.41 446.604Z" fill="#16A9C4"/>
<path d="M1731.64 444.64C1763.64 444.64 1795.65 444.64 1828.62 444.64C1828.62 482.556 1828.62 520.473 1828.62 559.538C1812.8 559.713 1796.98 559.888 1780.69 560.068C1775.68 560.126 1770.68 560.183 1765.53 560.243C1759.44 560.307 1759.44 560.307 1756.59 560.336C1754.59 560.357 1752.6 560.38 1750.6 560.404C1747.58 560.441 1744.57 560.471 1741.55 560.5C1740.66 560.513 1739.76 560.525 1738.84 560.537C1736.77 560.554 1734.7 560.523 1732.63 560.48C1731.64 559.538 1731.64 559.538 1731.52 557.628C1731.52 556.781 1731.52 555.935 1731.52 555.063C1731.52 554.095 1731.52 553.127 1731.51 552.129C1731.52 551.058 1731.52 549.987 1731.52 548.884C1731.52 547.763 1731.52 546.642 1731.52 545.487C1731.52 542.405 1731.53 539.323 1731.54 536.241C1731.54 533.024 1731.54 529.806 1731.54 526.588C1731.55 520.491 1731.56 514.394 1731.57 508.297C1731.58 500.677 1731.58 493.056 1731.59 485.436C1731.6 471.838 1731.62 458.239 1731.64 444.64Z" fill="#D7C3F9"/>
<path d="M1152.78 490.067C1182.24 490.067 1211.7 490.067 1242.06 490.067C1236.77 496.233 1236.77 496.233 1234.4 498.588C1233.86 499.116 1233.33 499.644 1232.79 500.189C1232.23 500.74 1231.67 501.292 1231.1 501.86C1230.51 502.446 1229.92 503.032 1229.31 503.635C1226.82 506.119 1224.31 508.597 1221.81 511.077C1219.98 512.897 1218.15 514.72 1216.31 516.544C1215.76 517.094 1215.2 517.644 1214.63 518.21C1211.49 521.33 1208.5 524.529 1205.62 527.885C1204.17 529.567 1202.65 531.169 1201.09 532.748C1200.58 533.273 1200.06 533.798 1199.53 534.338C1198.2 535.489 1198.2 535.489 1196.64 535.489C1196.64 534.972 1196.64 534.455 1196.64 533.922C1196.18 533.729 1195.73 533.535 1195.26 533.335C1193.24 532.213 1191.89 530.959 1190.37 529.224C1190.37 528.707 1190.37 528.19 1190.37 527.657C1189.59 527.399 1188.82 527.14 1188.02 526.874C1186.73 525.537 1186.73 525.537 1185.38 523.889C1183.83 522.061 1182.46 520.543 1180.58 519.043C1178.91 517.707 1177.77 516.527 1176.42 514.904C1172.09 509.904 1167.32 505.334 1162.62 500.689C1160.76 498.848 1158.9 497.005 1157.04 495.161C1156.61 494.739 1156.19 494.317 1155.74 493.883C1154.74 492.887 1153.76 491.871 1152.78 490.851C1152.78 490.592 1152.78 490.334 1152.78 490.067Z" fill="#058C4E"/>
<path d="M1152.78 490.067C1182.24 490.067 1211.7 490.067 1242.06 490.067C1236.77 496.233 1236.77 496.233 1234.4 498.588C1233.86 499.116 1233.33 499.644 1232.79 500.189C1232.23 500.74 1231.67 501.292 1231.1 501.86C1230.51 502.446 1229.92 503.032 1229.31 503.635C1226.82 506.119 1224.31 508.597 1221.81 511.077C1219.98 512.897 1218.15 514.72 1216.31 516.544C1215.76 517.094 1215.2 517.644 1214.63 518.21C1211.49 521.33 1208.5 524.529 1205.62 527.885C1204.17 529.567 1202.65 531.169 1201.09 532.748C1200.58 533.273 1200.06 533.798 1199.53 534.338C1198.2 535.489 1198.2 535.489 1196.64 535.489C1196.64 534.972 1196.64 534.455 1196.64 533.922C1196.18 533.729 1195.73 533.535 1195.26 533.335C1193.24 532.213 1191.89 530.959 1190.37 529.224C1190.37 528.707 1190.37 528.19 1190.37 527.657C1189.59 527.399 1188.82 527.14 1188.02 526.874C1186.73 525.537 1186.73 525.537 1185.38 523.889C1183.83 522.061 1182.46 520.543 1180.58 519.043C1178.91 517.707 1177.77 516.527 1176.42 514.904C1172.09 509.904 1167.32 505.334 1162.62 500.689C1160.76 498.848 1158.9 497.005 1157.04 495.161C1156.61 494.739 1156.19 494.317 1155.74 493.883C1154.74 492.887 1153.76 491.871 1152.78 490.851C1152.78 490.592 1152.78 490.334 1152.78 490.067Z" fill="#058C4E"/>
<path d="M1198.2 536.27C1199.28 537.364 1199.28 537.364 1200.56 538.911C1203.99 542.951 1207.72 546.664 1211.48 550.403C1212.22 551.141 1212.96 551.88 1213.7 552.619C1215.63 554.545 1217.56 556.469 1219.49 558.393C1221.45 560.35 1223.42 562.31 1225.38 564.27C1228.83 567.714 1232.29 571.156 1235.74 574.596C1236.28 575.129 1236.81 575.661 1237.36 576.209C1237.95 576.763 1238.53 577.317 1239.14 577.887C1240.49 579.342 1240.49 579.342 1240.49 580.908C1241.65 581.296 1241.65 581.296 1242.84 581.691C1242.84 581.95 1242.84 582.208 1242.84 582.474C1212.86 582.474 1182.89 582.474 1152 582.474C1154.75 579.264 1157.32 576.272 1160.3 573.34C1161.26 572.386 1161.26 572.386 1162.25 571.413C1162.9 570.767 1163.56 570.121 1164.24 569.455C1165.55 568.158 1166.87 566.859 1168.18 565.558C1168.76 564.99 1169.34 564.422 1169.93 563.837C1171.65 562.04 1173.17 560.147 1174.71 558.197C1176 556.876 1177.3 555.571 1178.63 554.282C1181.08 551.837 1183.52 549.372 1185.95 546.9C1187.21 545.625 1188.47 544.349 1189.74 543.073C1190.38 542.419 1191.02 541.764 1191.68 541.09C1192.6 540.162 1192.6 540.162 1193.54 539.216C1194.1 538.65 1194.65 538.085 1195.23 537.502C1196.64 536.27 1196.64 536.27 1198.2 536.27Z" fill="#8D5AC4"/>
<path d="M1198.2 536.27C1199.28 537.364 1199.28 537.364 1200.56 538.911C1203.99 542.951 1207.72 546.664 1211.48 550.403C1212.22 551.141 1212.96 551.88 1213.7 552.619C1215.63 554.545 1217.56 556.469 1219.49 558.393C1221.45 560.35 1223.42 562.31 1225.38 564.27C1228.83 567.714 1232.29 571.156 1235.74 574.596C1236.28 575.129 1236.81 575.661 1237.36 576.209C1237.95 576.763 1238.53 577.317 1239.14 577.887C1240.49 579.342 1240.49 579.342 1240.49 580.908C1241.65 581.296 1241.65 581.296 1242.84 581.691C1242.84 581.95 1242.84 582.208 1242.84 582.474C1212.86 582.474 1182.89 582.474 1152 582.474C1154.75 579.264 1157.32 576.272 1160.3 573.34C1161.26 572.386 1161.26 572.386 1162.25 571.413C1162.9 570.767 1163.56 570.121 1164.24 569.455C1165.55 568.158 1166.87 566.859 1168.18 565.558C1168.76 564.99 1169.34 564.422 1169.93 563.837C1171.65 562.04 1173.17 560.147 1174.71 558.197C1176 556.876 1177.3 555.571 1178.63 554.282C1181.08 551.837 1183.52 549.372 1185.95 546.9C1187.21 545.625 1188.47 544.349 1189.74 543.073C1190.38 542.419 1191.02 541.764 1191.68 541.09C1192.6 540.162 1192.6 540.162 1193.54 539.216C1194.1 538.65 1194.65 538.085 1195.23 537.502C1196.64 536.27 1196.64 536.27 1198.2 536.27Z" fill="#8D5AC4"/>
<path d="M1483.78 562.52C1485.1 562.528 1486.43 562.533 1487.75 562.537C1491.2 562.552 1494.65 562.59 1498.1 562.634C1501.64 562.674 1505.17 562.691 1508.7 562.711C1515.61 562.753 1522.53 562.819 1529.44 562.902C1529.5 569.691 1529.54 576.48 1529.57 583.269C1529.58 585.576 1529.6 587.883 1529.62 590.19C1529.64 593.516 1529.66 596.842 1529.67 600.169C1529.68 601.191 1529.69 602.213 1529.7 603.266C1529.71 615.714 1525.98 625.649 1519.26 634.821C1510.68 645.036 1499.83 648.192 1488.29 648.23C1486.63 648.241 1484.97 648.289 1483.3 648.338C1471.76 648.509 1462.55 643.217 1454.11 633.479C1446.36 623.448 1443.74 611.216 1443.87 597.645C1444.51 586.916 1448.88 578.595 1455.32 571.648C1464.26 563.324 1472.99 562.344 1483.78 562.52Z" fill="#058C4E"/>
<path d="M1723.68 1.39502C1754.43 1.39502 1785.19 1.39502 1816.87 1.39502C1816.87 109.678 1816.87 217.96 1816.87 329.524C1753.04 329.524 1689.21 329.524 1623.44 329.524C1623.44 285.332 1623.44 241.141 1623.44 195.61C1672.67 195.222 1672.67 195.222 1722.9 194.827C1723.16 130.994 1723.41 67.1618 1723.68 1.39502Z" fill="#9B99B9"/>
<path d="M1532.6 194.825C1562.06 194.825 1591.52 194.825 1621.87 194.825C1622.54 198.153 1622.75 200.817 1622.75 204.176C1622.75 204.712 1622.75 205.248 1622.75 205.801C1622.76 207.597 1622.75 209.394 1622.75 211.19C1622.75 212.5 1622.75 213.81 1622.75 215.12C1622.75 218.626 1622.74 222.132 1622.74 225.638C1622.73 228.929 1622.73 232.219 1622.73 235.51C1622.73 245.132 1622.72 254.754 1622.71 264.376C1622.69 285.874 1622.67 307.372 1622.66 329.522C1686.75 329.522 1750.84 329.522 1816.87 329.522C1816.87 329.781 1816.87 330.039 1816.87 330.305C1753.04 330.305 1689.21 330.305 1623.44 330.305C1623.44 406.284 1623.44 482.263 1623.44 560.544C1593.46 560.544 1563.49 560.544 1532.6 560.544C1532.6 439.856 1532.6 319.169 1532.6 194.825Z" fill="#A8FDF8"/>
<path d="M1722.89 194.825C1753.91 194.825 1784.92 194.825 1816.87 194.825C1816.87 239.275 1816.87 283.725 1816.87 329.522C1785.86 329.522 1754.85 329.522 1722.89 329.522C1722.89 285.072 1722.89 240.622 1722.89 194.825Z" fill="#16A9C4"/>
<path d="M1623.44 195.606C1656.26 195.606 1689.08 195.606 1722.9 195.606C1722.9 239.798 1722.9 283.99 1722.9 329.521C1690.08 329.521 1657.26 329.521 1623.44 329.521C1623.44 285.329 1623.44 241.137 1623.44 195.606Z" fill="#05728C"/>
</g>
<defs>
<clipPath id="clip0_19565_5582">
<rect width="1920" height="672" fill="white"/>
</clipPath>
</defs>
</svg>
