<svg width="320" height="226" viewBox="0 0 320 226" fill="none" xmlns="http://www.w3.org/2000/svg">
<g clip-path="url(#clip0_19565_5659)">
<rect width="320" height="225.5" fill="#DCF7FC"/>
<path d="M26.7205 193.41C31.4691 197.593 34.8166 203.779 35.351 210.131C35.7611 217.275 33.9561 224.089 29.1478 229.55C25.0147 234.063 19.2924 237.844 12.9927 238.228C5.50543 238.372 5.50543 238.372 2.1776 237.102C1.83559 236.98 1.49354 236.858 1.15146 236.736C-2.18842 235.507 -5.12478 233.787 -7.80139 231.438C-8.00339 231.262 -8.20538 231.085 -8.41349 230.904C-12.9217 226.696 -15.7271 220.316 -15.9925 214.178C-16.1226 207.387 -14.5651 201.698 -10.2287 196.377C-9.95545 196.037 -9.95545 196.037 -9.67667 195.691C-0.30569 184.661 15.9004 184.388 26.7205 193.41Z" fill="#8D5AC4"/>
<path d="M192.24 162C192.689 162.674 192.903 163.091 193.136 163.837C193.201 164.043 193.266 164.25 193.334 164.463C193.403 164.687 193.473 164.912 193.544 165.143C193.697 165.632 193.85 166.12 194.003 166.608C194.084 166.866 194.164 167.123 194.247 167.388C194.501 168.193 194.761 168.994 195.023 169.795C195.856 172.354 196.63 174.891 197.212 177.519C198.091 181.733 198.091 181.733 200.628 185.033C202.506 186.089 204.63 186.528 206.725 186.94C209.173 187.421 211.529 188.184 213.908 188.929C215.08 189.292 216.256 189.639 217.433 189.985C217.641 190.047 217.848 190.108 218.062 190.171C218.535 190.311 219.007 190.45 219.48 190.589C219.21 191.128 219.21 191.128 218.421 191.419C218.066 191.527 217.71 191.632 217.354 191.735C217.161 191.793 216.969 191.851 216.77 191.91C216.353 192.036 215.935 192.16 215.517 192.283C214.411 192.61 213.307 192.943 212.202 193.275C211.977 193.343 211.752 193.411 211.52 193.48C208.921 194.265 206.341 195.108 203.763 195.96C203.441 196.065 203.118 196.171 202.786 196.28C202.506 196.373 202.226 196.465 201.937 196.561C201.135 196.794 200.348 196.941 199.522 197.062C199.492 197.209 199.462 197.356 199.431 197.507C199.113 199.016 198.695 200.461 198.199 201.92C198.123 202.146 198.047 202.372 197.969 202.606C197.724 203.337 197.476 204.068 197.229 204.799C197.06 205.304 196.89 205.809 196.72 206.315C196.38 207.33 196.038 208.346 195.696 209.361C195.059 211.253 194.428 213.148 193.798 215.042C193.521 215.874 193.244 216.705 192.967 217.536C192.833 217.936 192.833 217.936 192.697 218.345C192.635 218.53 192.573 218.716 192.51 218.908C191.922 218.026 191.618 217.154 191.29 216.158C191.224 215.962 191.158 215.765 191.091 215.563C190.873 214.914 190.658 214.264 190.443 213.614C190.292 213.163 190.142 212.712 189.991 212.261C189.676 211.316 189.362 210.37 189.049 209.425C188.646 208.211 188.242 206.998 187.837 205.785C187.526 204.854 187.217 203.923 186.907 202.992C186.758 202.544 186.609 202.097 186.46 201.649C186.252 201.025 186.045 200.401 185.838 199.776C185.776 199.59 185.714 199.404 185.65 199.213C185.228 197.933 185.228 197.933 185.228 197.332C185.061 197.288 184.894 197.245 184.722 197.201C182.519 196.617 180.358 195.919 178.195 195.204C177.813 195.079 177.43 194.953 177.047 194.827C176.05 194.499 175.053 194.17 174.056 193.841C173.034 193.504 172.013 193.168 170.991 192.832C168.994 192.175 166.997 191.517 165 190.859C165.755 190.46 166.493 190.165 167.308 189.912C167.551 189.837 167.793 189.761 168.043 189.683C168.436 189.562 168.436 189.562 168.836 189.438C169.11 189.353 169.383 189.268 169.665 189.18C170.543 188.907 171.421 188.636 172.299 188.364C173.159 188.097 174.02 187.829 174.881 187.562C175.445 187.386 176.01 187.211 176.575 187.036C177.905 186.624 179.234 186.208 180.559 185.782C180.796 185.706 181.033 185.63 181.277 185.552C181.718 185.411 182.158 185.268 182.598 185.124C183.415 184.862 184.094 184.655 184.958 184.655C185.006 184.314 185.006 184.314 185.055 183.965C185.238 182.981 185.517 182.083 185.839 181.135C185.901 180.95 185.963 180.766 186.027 180.577C186.161 180.178 186.296 179.779 186.431 179.381C186.797 178.304 187.159 177.225 187.521 176.147C187.635 175.808 187.635 175.808 187.752 175.462C188.736 172.528 189.686 169.583 190.636 166.638C190.785 166.177 190.933 165.716 191.082 165.255C191.218 164.836 191.353 164.417 191.488 163.998C191.94 162.601 191.94 162.601 192.24 162Z" fill="#140BA9"/>
<path d="M84.2734 173C94.4196 173 104.566 173 115.02 173C113.199 175.124 113.199 175.124 112.381 175.935C112.198 176.117 112.015 176.299 111.827 176.486C111.635 176.676 111.443 176.866 111.245 177.062C111.042 177.264 110.839 177.465 110.63 177.673C109.771 178.528 108.909 179.382 108.048 180.236C107.416 180.863 106.785 181.491 106.154 182.119C105.962 182.308 105.771 182.498 105.573 182.693C104.494 183.767 103.464 184.869 102.472 186.025C101.972 186.604 101.449 187.156 100.911 187.699C100.734 187.88 100.557 188.061 100.374 188.247C99.9162 188.643 99.9162 188.643 99.3768 188.643C99.3768 188.465 99.3768 188.287 99.3768 188.104C99.221 188.037 99.0653 187.97 98.9048 187.902C98.2091 187.515 97.742 187.083 97.2192 186.486C97.2192 186.308 97.2192 186.13 97.2192 185.946C96.9521 185.857 96.6851 185.768 96.41 185.677C95.9655 185.216 95.9655 185.216 95.4998 184.648C94.9674 184.019 94.4936 183.496 93.8479 182.979C93.2726 182.519 92.8808 182.113 92.414 181.554C90.9241 179.832 89.2797 178.258 87.6616 176.658C87.0206 176.025 86.3805 175.39 85.741 174.755C85.5935 174.609 85.4461 174.464 85.2941 174.315C84.9488 173.971 84.6103 173.622 84.2734 173.27C84.2734 173.181 84.2734 173.092 84.2734 173Z" fill="#058C4E"/>
<path d="M84.2734 173C94.4196 173 104.566 173 115.02 173C113.199 175.124 113.199 175.124 112.381 175.935C112.198 176.117 112.015 176.299 111.827 176.486C111.635 176.676 111.443 176.866 111.245 177.062C111.042 177.264 110.839 177.465 110.63 177.673C109.771 178.528 108.909 179.382 108.048 180.236C107.416 180.863 106.785 181.491 106.154 182.119C105.962 182.308 105.771 182.498 105.573 182.693C104.494 183.767 103.464 184.869 102.472 186.025C101.972 186.604 101.449 187.156 100.911 187.699C100.734 187.88 100.557 188.061 100.374 188.247C99.9162 188.643 99.9162 188.643 99.3768 188.643C99.3768 188.465 99.3768 188.287 99.3768 188.104C99.221 188.037 99.0653 187.97 98.9048 187.902C98.2091 187.515 97.742 187.083 97.2192 186.486C97.2192 186.308 97.2192 186.13 97.2192 185.946C96.9521 185.857 96.6851 185.768 96.41 185.677C95.9655 185.216 95.9655 185.216 95.4998 184.648C94.9674 184.019 94.4936 183.496 93.8479 182.979C93.2726 182.519 92.8808 182.113 92.414 181.554C90.9241 179.832 89.2797 178.258 87.6616 176.658C87.0206 176.025 86.3805 175.39 85.741 174.755C85.5935 174.609 85.4461 174.464 85.2941 174.315C84.9488 173.971 84.6103 173.622 84.2734 173.27C84.2734 173.181 84.2734 173.092 84.2734 173Z" fill="#058C4E"/>
<path d="M99.9124 188.911C100.284 189.287 100.284 189.287 100.722 189.82C101.906 191.211 103.189 192.49 104.484 193.778C104.738 194.032 104.993 194.287 105.248 194.541C105.912 195.204 106.578 195.867 107.243 196.53C107.92 197.204 108.596 197.879 109.272 198.554C110.461 199.74 111.65 200.925 112.84 202.11C113.024 202.293 113.208 202.477 113.398 202.665C113.599 202.856 113.801 203.047 114.009 203.243C114.476 203.744 114.476 203.744 114.476 204.284C114.877 204.417 114.877 204.417 115.285 204.553C115.285 204.642 115.285 204.731 115.285 204.823C104.961 204.823 94.6371 204.823 84 204.823C84.9477 203.717 85.8332 202.687 86.8593 201.677C87.1909 201.349 87.1909 201.349 87.5293 201.014C87.7553 200.791 87.9813 200.569 88.2141 200.339C88.6678 199.893 89.1208 199.445 89.5731 198.997C89.7719 198.801 89.9706 198.606 90.1754 198.404C90.7668 197.786 91.291 197.134 91.8214 196.462C92.2651 196.007 92.7149 195.558 93.1699 195.114C94.0166 194.272 94.8557 193.423 95.6931 192.572C96.1274 192.132 96.5618 191.693 96.9963 191.254C97.2172 191.028 97.4382 190.803 97.6658 190.57C97.9826 190.251 97.9826 190.251 98.3058 189.925C98.4978 189.73 98.6898 189.536 98.8876 189.335C99.373 188.911 99.373 188.911 99.9124 188.911Z" fill="#8D5AC4"/>
<path d="M99.9124 188.911C100.284 189.287 100.284 189.287 100.722 189.82C101.906 191.211 103.189 192.49 104.484 193.778C104.738 194.032 104.993 194.287 105.248 194.541C105.912 195.204 106.578 195.867 107.243 196.53C107.92 197.204 108.596 197.879 109.272 198.554C110.461 199.74 111.65 200.925 112.84 202.11C113.024 202.293 113.208 202.477 113.398 202.665C113.599 202.856 113.801 203.047 114.009 203.243C114.476 203.744 114.476 203.744 114.476 204.284C114.877 204.417 114.877 204.417 115.285 204.553C115.285 204.642 115.285 204.731 115.285 204.823C104.961 204.823 94.6371 204.823 84 204.823C84.9477 203.717 85.8332 202.687 86.8593 201.677C87.1909 201.349 87.1909 201.349 87.5293 201.014C87.7553 200.791 87.9813 200.569 88.2141 200.339C88.6678 199.893 89.1208 199.445 89.5731 198.997C89.7719 198.801 89.9706 198.606 90.1754 198.404C90.7668 197.786 91.291 197.134 91.8214 196.462C92.2651 196.007 92.7149 195.558 93.1699 195.114C94.0166 194.272 94.8557 193.423 95.6931 192.572C96.1274 192.132 96.5618 191.693 96.9963 191.254C97.2172 191.028 97.4382 190.803 97.6658 190.57C97.9826 190.251 97.9826 190.251 98.3058 189.925C98.4978 189.73 98.6898 189.536 98.8876 189.335C99.373 188.911 99.373 188.911 99.9124 188.911Z" fill="#8D5AC4"/>
<path d="M299.186 175.738C314.774 175.738 330.362 175.738 346.422 175.738C346.422 203.544 346.422 231.351 346.422 260C330.758 260 315.094 260 298.955 260C298.955 250.576 298.955 241.153 298.955 231.444C289.709 231.444 280.463 231.444 270.938 231.444C270.938 221.867 270.938 212.289 270.938 202.421C280.26 202.421 289.582 202.421 299.186 202.421C299.186 193.615 299.186 184.81 299.186 175.738Z" fill="#16A9C4"/>
<path d="M299.902 175.738C315.254 175.738 330.605 175.738 346.422 175.738C346.422 175.815 346.422 175.892 346.422 175.971C338.596 175.971 330.769 175.971 322.706 175.971C322.706 194.142 322.706 212.313 322.706 231.035C322.631 231.035 322.556 231.035 322.478 231.035C322.478 221.564 322.478 212.094 322.478 202.336C315.028 202.336 307.578 202.336 299.902 202.336C299.902 193.559 299.902 184.781 299.902 175.738Z" fill="#05728C"/>
<path d="M270.938 202.07C280.496 202.07 290.054 202.07 299.903 202.07C299.903 211.628 299.903 221.187 299.903 231.035C290.344 231.035 280.786 231.035 270.938 231.035C270.938 221.476 270.938 211.918 270.938 202.07Z" fill="#16A9C4"/>
<path d="M299.056 202.07C307.156 202.07 315.255 202.07 323.601 202.07C323.601 211.833 323.601 221.595 323.601 231.654C319.597 231.699 315.594 231.744 311.469 231.791C310.203 231.805 308.937 231.82 307.632 231.836C306.091 231.852 306.091 231.852 305.371 231.859C304.866 231.865 304.36 231.871 303.855 231.877C303.092 231.886 302.328 231.894 301.565 231.902C301.338 231.905 301.111 231.908 300.878 231.911C300.354 231.916 299.83 231.908 299.306 231.897C299.056 231.654 299.056 231.654 299.025 231.162C299.025 230.944 299.025 230.726 299.025 230.502C299.025 230.253 299.025 230.003 299.024 229.747C299.025 229.471 299.026 229.195 299.027 228.911C299.027 228.622 299.027 228.334 299.027 228.036C299.027 227.243 299.028 226.449 299.03 225.656C299.032 224.827 299.032 223.999 299.032 223.17C299.033 221.6 299.035 220.03 299.038 218.46C299.041 216.498 299.042 214.536 299.043 212.574C299.046 209.073 299.051 205.571 299.056 202.07Z" fill="#D7C3F9"/>
<path d="M296.864 59C304.819 59 312.773 59 320.968 59C320.968 96.3649 320.968 133.73 320.968 172.227C304.458 172.227 287.948 172.227 270.938 172.227C270.938 156.978 270.938 141.729 270.938 126.017C283.671 125.884 283.671 125.884 296.662 125.747C296.729 103.721 296.795 81.6941 296.864 59Z" fill="#9B99B9"/>
<path d="M248 138.198C255.518 138.198 263.035 138.198 270.781 138.198C270.951 139.047 271.006 139.727 271.005 140.584C271.005 140.721 271.005 140.858 271.005 140.999C271.006 141.457 271.005 141.915 271.004 142.374C271.003 142.708 271.004 143.042 271.004 143.377C271.004 144.271 271.003 145.166 271.001 146.061C271 146.9 271 147.74 271 148.58C270.999 151.035 270.996 153.49 270.993 155.945C270.989 161.431 270.985 166.917 270.981 172.569C287.335 172.569 303.69 172.569 320.54 172.569C320.54 172.635 320.54 172.701 320.54 172.769C304.251 172.769 287.963 172.769 271.181 172.769C271.181 192.157 271.181 211.545 271.181 231.52C263.531 231.52 255.881 231.52 248 231.52C248 200.724 248 169.927 248 138.198Z" fill="#A8FDF8"/>
<path d="M296.556 138.198C304.469 138.198 312.382 138.198 320.536 138.198C320.536 149.54 320.536 160.883 320.536 172.569C312.622 172.569 304.709 172.569 296.556 172.569C296.556 161.227 296.556 149.884 296.556 138.198Z" fill="#16A9C4"/>
<path d="M271.184 138.4C279.559 138.4 287.934 138.4 296.562 138.4C296.562 149.677 296.562 160.954 296.562 172.572C288.187 172.572 279.812 172.572 271.184 172.572C271.184 161.295 271.184 150.019 271.184 138.4Z" fill="#05728C"/>
</g>
<defs>
<clipPath id="clip0_19565_5659">
<rect width="320" height="225.5" fill="white"/>
</clipPath>
</defs>
</svg>
