<svg width="260" height="390" viewBox="0 0 260 390" fill="none" xmlns="http://www.w3.org/2000/svg">
<g opacity="0.99" clip-path="url(#clip0_19543_14706)">
<path d="M0 0C85.8 0 171.6 0 260 0C260 128.7 260 257.4 260 390C174.2 390 88.4 390 0 390C0 261.3 0 132.6 0 0Z" fill="#FBDDF0"/>
<path fill-rule="evenodd" clip-rule="evenodd" d="M221.95 22C222.751 22 223.4 22.6492 223.4 23.45V25.9982C223.4 27.29 224.962 27.9369 225.875 27.0235L227.677 25.2216C228.243 24.6554 229.161 24.6554 229.728 25.2216L231.778 27.2723C232.345 27.8385 232.345 28.7566 231.778 29.3229L229.976 31.1247C229.063 32.0381 229.71 33.6 231.002 33.6H233.55C234.351 33.6 235 34.2492 235 35.05V37.95C235 38.7508 234.351 39.4 233.55 39.4H231.002C229.71 39.4 229.063 40.9618 229.976 41.8753L231.778 43.6771C232.345 44.2434 232.345 45.1614 231.778 45.7278L229.728 47.7784C229.161 48.3446 228.243 48.3446 227.677 47.7784L225.875 45.9765C224.962 45.0631 223.4 45.71 223.4 47.0018V49.55C223.4 50.3508 222.751 51 221.95 51H219.05C218.249 51 217.6 50.3508 217.6 49.55V47.0018C217.6 45.71 216.038 45.0631 215.125 45.9765L213.323 47.7784C212.757 48.3446 211.839 48.3446 211.272 47.7784L209.222 45.7278C208.655 45.1614 208.655 44.2434 209.222 43.6771L211.023 41.8753C211.937 40.9618 211.29 39.4 209.998 39.4H207.45C206.649 39.4 206 38.7508 206 37.95V35.05C206 34.2492 206.649 33.6 207.45 33.6H209.998C211.29 33.6 211.937 32.0381 211.023 31.1247L209.222 29.3229C208.655 28.7566 208.655 27.8385 209.222 27.2723L211.272 25.2216C211.839 24.6554 212.757 24.6554 213.323 25.2216L215.125 27.0235C216.038 27.9369 217.6 27.29 217.6 25.9982V23.45C217.6 22.6492 218.249 22 219.05 22H221.95ZM220.5 43.75C224.504 43.75 227.75 40.504 227.75 36.5C227.75 32.4959 224.504 29.25 220.5 29.25C216.496 29.25 213.25 32.4959 213.25 36.5C213.25 40.504 216.496 43.75 220.5 43.75Z" fill="#05728C"/>
<path d="M264.5 168C273.06 168 280 161.06 280 152.5C280 143.94 273.06 137 264.5 137C255.94 137 249 143.94 249 152.5C249 143.94 242.06 137 233.5 137C224.94 137 218 143.94 218 152.5C218 161.06 224.94 168 233.5 168C224.94 168 218 174.94 218 183.5C218 192.06 224.94 199 233.5 199C242.06 199 249 192.06 249 183.5C249 192.06 255.94 199 264.5 199C273.06 199 280 192.06 280 183.5C280 174.94 273.06 168 264.5 168Z" fill="#16A9C4"/>
<path d="M112.058 245.027C112.218 245.027 112.377 245.026 112.542 245.025C113.075 245.023 113.607 245.024 114.139 245.025C114.523 245.024 114.906 245.023 115.289 245.022C116.327 245.019 117.366 245.019 118.404 245.019C119.272 245.02 120.141 245.019 121.009 245.018C123.058 245.016 125.106 245.016 127.155 245.017C129.266 245.018 131.377 245.016 133.487 245.012C135.302 245.008 137.117 245.007 138.932 245.008C140.014 245.008 141.097 245.007 142.18 245.005C143.199 245.002 144.217 245.003 145.236 245.005C145.609 245.006 145.981 245.005 146.354 245.004C151.219 244.984 151.219 244.984 153.033 246.548C154.657 248.376 154.955 250.397 154.93 252.757C154.932 253.048 154.934 253.339 154.937 253.63C154.943 254.391 154.941 255.151 154.938 255.911C154.936 256.673 154.941 257.434 154.946 258.196C154.953 259.496 154.953 260.796 154.948 262.096C154.947 262.909 154.954 263.722 154.969 264.536C154.971 264.723 154.974 264.91 154.977 265.103C154.982 265.435 154.989 265.767 154.999 266.099C155.01 266.972 154.92 267.524 154.377 268.217C153.545 268.772 152.672 268.792 151.712 268.6C151.251 268.356 150.811 268.105 150.367 267.835C148.597 266.775 146.776 266.78 144.799 267.248C142.689 267.861 141.515 269.639 140.404 271.415C139.641 272.983 139.763 274.737 140.295 276.355C140.86 277.789 141.721 278.783 142.954 279.692C143.085 279.789 143.215 279.887 143.349 279.987C144.868 280.934 146.75 280.887 148.475 280.648C149.199 280.428 149.761 280.122 150.379 279.692C150.665 279.516 150.95 279.341 151.236 279.166C151.356 279.088 151.475 279.01 151.599 278.93C152.193 278.549 152.692 278.489 153.393 278.425C153.927 278.579 154.21 278.863 154.553 279.294C154.994 280.148 154.888 281.132 154.878 282.072C154.878 282.304 154.879 282.535 154.879 282.773C154.879 283.261 154.876 283.75 154.872 284.238C154.865 284.981 154.868 285.723 154.871 286.465C154.87 286.941 154.868 287.417 154.866 287.893C154.867 288.113 154.868 288.333 154.869 288.559C154.839 290.633 154.328 292.522 152.859 294.041C151.233 295.587 149.65 295.964 147.431 295.98C147.293 295.982 147.155 295.983 147.013 295.984C146.715 295.987 146.418 295.989 146.12 295.991C145.649 295.994 145.177 295.999 144.706 296.003C143.366 296.017 142.027 296.028 140.687 296.038C139.866 296.044 139.045 296.052 138.224 296.061C137.912 296.064 137.6 296.067 137.288 296.068C136.851 296.071 136.415 296.075 135.978 296.08C135.73 296.082 135.482 296.084 135.227 296.086C134.601 296.136 134.173 296.215 133.626 296.521C133.324 297.431 133.241 298.198 133.641 299.076C133.928 299.565 134.23 300.04 134.542 300.513C135.978 302.711 136.541 304.572 136.291 307.23C135.848 309.219 134.667 311.142 133.055 312.394C130.728 313.793 128.484 314.323 125.773 313.806C123.378 313.098 121.579 311.55 120.388 309.373C119.439 307.279 119.358 304.769 120.026 302.569C120.347 301.737 120.768 300.979 121.204 300.202C121.755 299.207 122.043 298.605 121.822 297.477C121.41 296.797 121.034 296.421 120.299 296.138C119.666 296.081 119.666 296.081 118.95 296.089C118.815 296.089 118.681 296.088 118.542 296.087C118.251 296.086 117.959 296.086 117.668 296.086C117.205 296.086 116.742 296.084 116.279 296.08C114.964 296.071 113.648 296.067 112.332 296.065C111.526 296.065 110.721 296.06 109.915 296.053C109.609 296.051 109.304 296.051 108.998 296.052C106.671 296.059 104.648 295.813 102.869 294.138C101.521 292.7 101.042 290.896 101.044 288.967C101.043 288.749 101.043 288.749 101.043 288.527C101.041 288.041 101.041 287.554 101.04 287.068C101.039 286.719 101.039 286.37 101.037 286.022C101.035 285.074 101.034 284.126 101.033 283.178C101.032 282.585 101.032 281.992 101.031 281.399C101.028 279.543 101.026 277.687 101.026 275.831C101.025 273.691 101.021 271.551 101.016 269.412C101.012 267.756 101.01 266.101 101.01 264.445C101.009 263.457 101.008 262.469 101.005 261.481C101.002 260.551 101.001 259.62 101.003 258.69C101.003 258.35 101.002 258.01 101 257.67C100.981 254.028 101.686 250.842 104.307 248.137C106.523 246.164 109.087 245.013 112.058 245.027Z" fill="#FDC4BD"/>
<path d="M224.609 246.038C225.288 246.588 225.776 247.171 226.217 247.923C226.362 248.172 226.362 248.172 226.511 248.425C227.03 249.329 227.542 250.237 228.049 251.148C228.283 251.565 228.516 251.983 228.75 252.4C228.867 252.609 228.984 252.818 229.105 253.033C230.487 255.501 231.887 257.958 233.305 260.406C233.66 261.02 234.015 261.635 234.37 262.249C234.596 262.639 234.822 263.029 235.048 263.419C238.293 269.01 241.226 274.587 239.477 281.256C239.341 281.693 239.196 282.128 239.042 282.559C238.978 282.762 238.914 282.965 238.849 283.174C237.174 288.081 233.273 291.925 228.696 294.198C224.586 296.012 219.829 296.687 215.528 295.137C215.295 295.057 215.062 294.978 214.822 294.896C210.017 293.174 205.834 289.298 203.618 284.729C201.608 280.111 201.453 275.255 203.252 270.555C204.222 268.109 205.548 265.883 206.896 263.631C207.488 262.636 208.062 261.632 208.638 260.628C209.732 258.73 210.844 256.843 211.967 254.962C212.589 253.919 213.206 252.874 213.811 251.822C213.987 251.519 213.987 251.519 214.166 251.209C214.384 250.83 214.601 250.451 214.817 250.071C216.049 247.935 217.379 245.902 219.855 245.199C221.555 244.743 223.142 245.09 224.609 246.038Z" fill="#A8ADFD"/>
<path d="M193.883 251.462C197.963 254.908 200.407 259.41 201.526 264.489C201.57 264.684 201.613 264.879 201.658 265.08C202.378 268.857 201.935 272.917 200.568 276.51C200.524 276.63 200.479 276.749 200.433 276.872C199.662 278.921 198.652 280.677 197.31 282.428C197.179 282.599 197.049 282.77 196.914 282.946C193.359 287.395 188.383 290.263 182.745 291.489C182.569 291.531 182.392 291.573 182.21 291.616C176.423 292.784 170.328 291.192 165.452 288.142C162.592 286.284 160.346 284.056 158.407 281.318C157.101 279.5 157.101 279.5 155.06 278.598C153.119 278.384 151.589 278.344 149.975 279.469C149.697 279.64 149.417 279.81 149.137 279.977C148.957 280.09 148.957 280.09 148.773 280.206C147.519 280.918 145.624 280.736 144.226 280.578C143.41 280.326 142.794 279.972 142.118 279.469C141.975 279.367 141.832 279.264 141.685 279.159C140.13 277.953 139.241 276.376 139.004 274.458C138.93 272.22 139.917 270.647 141.412 268.991C143.066 267.329 144.611 267.014 146.943 266.965C148.214 266.99 149.06 267.403 150.129 268.027C151.121 268.597 151.908 268.811 153.041 268.558C153.624 268.351 153.624 268.351 154 268.003C154.177 267.489 154.208 267.171 154.227 266.639C154.76 260.751 158.487 255.049 163.022 251.236C172.176 244.185 184.88 244.25 193.883 251.462Z" fill="#F98C98"/>
<path d="M183.045 292.988C183.19 293.055 183.336 293.121 183.486 293.19C186.14 294.522 188.093 297.058 189.059 299.851C189.259 300.727 189.288 301.539 189.283 302.434C189.282 302.603 189.281 302.771 189.279 302.945C189.241 305.038 188.648 306.409 187.539 308.159C187.477 308.284 187.415 308.409 187.352 308.538C187.491 308.497 187.63 308.456 187.774 308.413C190.968 307.588 194.306 307.485 197.201 309.207C197.614 309.475 198.007 309.757 198.399 310.055C198.562 310.164 198.724 310.274 198.891 310.387C200.401 311.836 201.819 314.212 201.99 316.346C202.083 319.944 201.541 322.481 199.179 325.249C198.429 325.992 197.556 326.451 196.621 326.908C196.505 326.965 196.389 327.022 196.27 327.08C194.1 328.074 191.818 327.77 189.599 327.122C189.662 327.261 189.725 327.401 189.79 327.545C189.874 327.73 189.957 327.915 190.043 328.105C190.126 328.288 190.208 328.47 190.294 328.659C191.238 330.806 191.579 333.559 190.905 335.858C190.024 338.101 188.39 339.996 186.23 341.047C183.825 342.095 181.164 342.377 178.683 341.392C176.228 340.239 174.448 338.65 173.495 336.034C173.191 334.972 172.962 333.894 172.746 332.81C172.64 332.979 172.533 333.148 172.424 333.322C170.892 335.64 168.507 337.335 165.818 337.93C165.172 338.011 164.537 338.03 163.887 338.025C163.716 338.024 163.544 338.023 163.368 338.022C160.9 337.958 158.85 336.913 157.064 335.205C155.271 333.28 154.653 331.055 154.682 328.451C154.778 325.802 155.947 323.586 157.7 321.656C158.708 320.712 159.897 319.942 161.137 319.347C160.583 318.918 160.583 318.918 159.849 318.837C158.003 318.441 156.454 317.431 155.236 315.992C154.914 315.486 154.748 314.992 154.583 314.416C154.528 314.563 154.474 314.71 154.418 314.861C153.322 317.679 151.722 319.414 148.968 320.65C146.898 321.434 144.413 321.314 142.411 320.41C139.99 319.096 138.245 317.226 137.342 314.587C136.795 312.576 136.873 309.948 137.803 308.09C139.414 305.423 141.442 303.441 144.475 302.548C146.779 302.062 149.189 302.559 151.147 303.837C152.516 304.893 153.342 306.197 154.021 307.779C154.028 307.603 154.035 307.427 154.042 307.245C154.166 304.884 154.166 304.884 154.77 303.797C154.871 303.606 154.971 303.414 155.074 303.216C156.248 301.746 157.859 301.103 159.673 300.879C162.251 300.746 164.74 301.818 166.754 303.418C167.139 303.788 167.508 304.169 167.878 304.556C167.871 304.334 167.865 304.111 167.858 303.882C167.794 300.803 168.309 298.178 170.37 295.773C173.54 292.441 178.732 290.815 183.045 292.988Z" fill="#A8ADFD"/>
<path d="M222.646 298.442C225.142 300.379 226.562 302.891 227.501 305.842C227.553 305.999 227.604 306.156 227.657 306.317C228.531 309.497 227.636 313.011 226.104 315.838C224.378 318.625 221.616 320.598 218.468 321.496C218.256 321.561 218.256 321.561 218.038 321.626C214.525 322.506 210.963 321.779 207.88 320.007C204.868 318.122 203.031 314.988 202.209 311.606C201.607 308.317 202.331 305.053 204.054 302.215C204.531 301.543 205.043 300.92 205.592 300.306C205.698 300.184 205.805 300.063 205.915 299.938C206.824 298.965 207.903 298.299 209.051 297.633C209.237 297.521 209.237 297.521 209.427 297.407C213.59 295.101 218.848 295.759 222.646 298.442Z" fill="#8D5AC4"/>
<path d="M222.316 298.444C224.794 300.393 226.148 302.901 227.11 305.852C227.183 306.071 227.255 306.29 227.33 306.516C227.383 306.675 227.435 306.834 227.489 306.999C227.531 306.832 227.573 306.666 227.615 306.494C228.264 304.04 229.217 302.037 230.905 300.119C231.006 300 231.107 299.88 231.21 299.757C233.073 297.701 236.149 296.221 238.912 296.086C239.394 296.074 239.875 296.071 240.357 296.07C240.519 296.068 240.68 296.066 240.847 296.063C244.233 296.055 247.127 297.55 249.501 299.928C249.619 300.041 249.738 300.154 249.861 300.271C250.633 301.067 251.136 301.966 251.635 302.95C251.729 303.133 251.729 303.133 251.825 303.32C252.696 305.119 253.02 306.881 252.999 308.874C252.997 309.075 252.996 309.276 252.994 309.483C252.917 312.97 251.525 316.079 249.081 318.543C246.583 320.878 243.547 322.021 240.155 322C239.948 321.999 239.74 321.998 239.526 321.996C236.208 321.923 233.417 320.53 231.021 318.236C229.116 316.174 228.163 313.905 227.489 311.203C227.418 311.431 227.347 311.659 227.274 311.895C226.457 314.471 225.6 316.316 223.694 318.273C223.568 318.408 223.442 318.542 223.311 318.68C220.798 321.153 217.424 322.009 213.997 321.971C210.828 321.873 207.839 320.549 205.609 318.27C202.963 315.394 201.931 312.053 202.004 308.198C202.132 305.188 203.52 302.531 205.478 300.31C205.584 300.189 205.689 300.067 205.797 299.942C206.695 298.968 207.76 298.302 208.894 297.635C209.078 297.523 209.078 297.523 209.265 297.408C213.375 295.1 218.566 295.759 222.316 298.444Z" fill="#A8ADFD"/>
<path d="M183.183 311.34C184.687 312.35 185.785 313.787 186.456 315.453C186.524 315.615 186.591 315.776 186.661 315.943C187.214 317.947 187.119 320.476 186.166 322.33C184.743 324.646 182.977 326.064 180.363 326.924C177.503 327.186 175.33 326.815 173.021 325.057C171.552 323.827 170.234 322.031 170.036 320.089C169.885 317.171 170.148 314.969 172.131 312.68C175.195 309.623 179.45 309.188 183.183 311.34Z" fill="#FDA8B7"/>
<path d="M132.959 316.143C135.25 317.588 136.109 319.275 136.965 321.669C137.158 324.658 136.581 327.138 134.479 329.49C133.671 330.297 132.781 330.812 131.738 331.323C131.26 331.526 131.26 331.526 131.092 331.92C130.291 331.94 129.49 331.953 128.689 331.964C128.462 331.97 128.235 331.976 128.001 331.982C127.672 331.985 127.672 331.985 127.337 331.989C127.135 331.992 126.934 331.996 126.726 332C126.032 331.9 125.731 331.651 125.219 331.213C124.953 331.052 124.685 330.893 124.414 330.738C122.211 329.358 120.938 327.537 120.104 325.204C119.931 323.289 119.855 321.271 120.862 319.549C120.952 319.386 121.042 319.224 121.135 319.057C122.205 317.309 123.841 315.985 125.869 315.274C128.304 314.757 130.815 314.931 132.959 316.143Z" fill="#A8ADFD"/>
<path d="M231.055 320.001C231.222 320.089 231.389 320.177 231.561 320.268C233.703 321.496 235.089 323.597 235.782 326.052C236.313 328.755 235.875 331.547 234.478 333.857C232.851 336.191 230.992 337.295 228.362 337.929C225.607 338.23 223.186 337.588 220.993 335.73C220.119 334.861 219.507 333.844 218.938 332.736C218.854 332.573 218.77 332.409 218.683 332.241C217.761 330.076 217.819 327.216 218.577 325.004C219.027 323.965 219.56 323.074 220.284 322.224C220.432 322.042 220.432 322.042 220.582 321.855C223.105 318.944 227.746 318.138 231.055 320.001Z" fill="#FDA8B7"/>
<path d="M127.75 332.006C128.253 332.011 128.755 332.006 129.258 332C130.991 331.997 132.554 332.153 134.229 332.604C136.459 333.201 138.629 333.207 140.926 333.197C145.153 333.191 148.827 333.396 152.054 336.442C153.97 338.356 154.925 340.831 154.934 343.509C154.935 343.638 154.935 343.767 154.936 343.9C154.938 344.33 154.939 344.76 154.94 345.191C154.941 345.5 154.942 345.809 154.943 346.119C154.947 347.133 154.949 348.148 154.951 349.163C154.952 349.513 154.953 349.864 154.954 350.214C154.957 351.861 154.96 353.509 154.962 355.156C154.963 357.052 154.968 358.948 154.976 360.844C154.982 362.313 154.985 363.782 154.985 365.251C154.986 366.126 154.987 367.002 154.992 367.877C154.997 368.703 154.997 369.528 154.996 370.353C154.995 370.654 154.997 370.954 154.999 371.255C155.03 374.918 154.12 377.921 151.53 380.647C149.193 382.909 146.254 383.924 143.025 383.934C142.888 383.935 142.751 383.936 142.61 383.936C142.155 383.938 141.7 383.939 141.246 383.94C140.918 383.941 140.59 383.942 140.263 383.944C139.19 383.948 138.117 383.95 137.044 383.952C136.673 383.952 136.303 383.953 135.932 383.954C134.191 383.958 132.449 383.96 130.707 383.962C128.702 383.964 126.697 383.969 124.693 383.976C123.139 383.982 121.586 383.985 120.033 383.985C119.107 383.986 118.181 383.988 117.255 383.992C116.382 383.997 115.51 383.998 114.638 383.996C114.32 383.996 114.001 383.997 113.683 383.999C110.406 384.025 107.752 383.276 105.025 381.393C102.298 378.674 101.011 375.801 101.001 371.954C101.002 371.665 101.003 371.376 101.005 371.087C101.004 370.776 101.003 370.466 101.002 370.155C100.999 369.318 101 368.481 101.002 367.644C101.003 366.764 101.002 365.884 101.001 365.005C101 363.528 101.001 362.051 101.004 360.574C101.007 358.871 101.006 357.169 101.003 355.466C101 353.999 101 352.532 101.002 351.065C101.003 350.191 101.003 349.317 101.001 348.443C100.999 347.621 101 346.799 101.004 345.977C101.004 345.677 101.004 345.377 101.003 345.077C100.99 341.671 101.677 339.048 104.068 336.533C106.669 334.015 109.735 333.245 113.261 333.241C113.673 333.237 114.085 333.234 114.497 333.23C115.137 333.224 115.777 333.22 116.417 333.22C118.704 333.218 120.775 333.135 122.969 332.47C124.554 332.009 126.107 331.986 127.75 332.006Z" fill="#222121"/>
<path d="M219.948 335.98C222.671 338.1 224.387 340.64 224.946 344.092C225.249 347.545 224.269 350.921 222.167 353.668C220.1 356.076 217.422 357.731 214.229 357.973C210.665 358.155 207.79 357.439 205.023 355.062C203.42 353.541 202.404 351.869 201.668 349.784C201.601 349.605 201.535 349.427 201.467 349.242C200.589 346.24 200.985 342.919 202.36 340.155C204.03 337.28 206.793 335.269 209.94 334.345C213.408 333.591 216.979 334.046 219.948 335.98Z" fill="#A8ADFD"/>
<path d="M240.576 334.001C240.896 334.003 240.896 334.003 241.223 334.005C242.8 334.035 244.111 334.205 245.561 334.848C245.819 334.955 245.819 334.955 246.082 335.064C248.879 336.322 251.048 338.538 252.223 341.327C252.994 343.393 253.027 345.33 252.991 347.498C252.988 347.81 252.985 348.121 252.983 348.433C252.976 349.187 252.966 349.942 252.954 350.696C252.89 350.696 252.826 350.696 252.76 350.696C252.696 350.381 252.631 350.066 252.565 349.742C252.427 350.039 252.427 350.039 252.286 350.343C251.48 352.03 250.646 353.404 249.258 354.706C249.139 354.827 249.019 354.947 248.897 355.072C247.092 356.786 244.339 357.945 241.828 358C241.281 357.952 241.281 357.952 241.086 357.761C240.712 357.769 240.337 357.779 239.963 357.793C236.803 357.899 234.407 356.846 232.003 354.843C229.743 352.76 228.128 350.003 228.005 346.93C227.929 343.345 228.703 340.442 231.279 337.779C233.923 335.251 236.88 333.966 240.576 334.001Z" fill="#F98C98"/>
<path d="M175.328 344.398C175.805 344.814 176.26 345.243 176.709 345.689C176.869 345.842 176.869 345.842 177.033 345.998C178.11 347.121 178.865 348.739 179.356 350.206C179.396 350.094 179.435 349.982 179.475 349.867C180.568 346.94 182.43 344.704 185.218 343.242C188.449 341.836 191.527 341.721 194.862 342.866C197.877 344.073 200.163 346.748 201.48 349.641C201.542 349.269 201.605 348.896 201.669 348.512C202.029 349.049 202.222 349.511 202.449 350.112C203.643 352.984 205.799 355.068 208.663 356.275C210.26 356.873 211.73 357.052 213.428 357.064C217.454 357.165 220.761 358.231 223.638 361.167C225.424 363.229 227.004 366.249 226.818 369.027C226.943 369.027 227.067 369.027 227.196 369.027C227.176 368.837 227.157 368.647 227.137 368.451C227.147 365.532 229.017 362.504 231.01 360.494C233.625 358.046 236.465 357.108 239.995 357.088C243.932 357.018 246.847 356.228 249.698 353.406C249.802 353.308 249.907 353.211 250.014 353.11C250.85 352.254 251.322 351.18 251.832 350.114C252.311 349.11 252.311 349.11 252.723 348.7C252.935 349.888 252.943 351.055 252.946 352.259C252.947 352.593 252.947 352.593 252.949 352.934C252.953 353.669 252.955 354.404 252.957 355.139C252.958 355.394 252.959 355.649 252.959 355.904C252.963 357.103 252.966 358.301 252.967 359.5C252.969 360.875 252.974 362.25 252.982 363.625C252.988 364.693 252.99 365.762 252.991 366.83C252.991 367.465 252.993 368.101 252.998 368.736C253.027 373.17 252.812 377.097 249.568 380.468C246.674 383.223 243.304 384.017 239.402 383.994C239.104 383.995 238.806 383.996 238.509 383.998C237.71 384.001 236.912 384 236.113 383.998C235.272 383.996 234.43 383.997 233.589 383.999C232.176 384 230.764 383.998 229.352 383.995C227.727 383.99 226.101 383.992 224.476 383.996C223.072 383.999 221.668 384 220.265 383.998C219.43 383.997 218.595 383.996 217.76 383.999C216.975 384.001 216.19 384 215.405 383.995C215.119 383.994 214.833 383.995 214.547 383.996C210.782 384.016 207.635 382.96 204.883 380.32C202.935 378.09 202.004 375.504 201.669 372.604C201.639 372.81 201.609 373.017 201.578 373.231C201.319 374.905 201.003 376.381 200.156 377.874C200.007 378.137 200.007 378.137 199.854 378.407C198.286 381.005 196.073 382.646 193.169 383.578C191.625 383.927 190.075 383.925 188.501 383.927C188.267 383.928 188.033 383.929 187.792 383.93C187.154 383.932 186.517 383.933 185.88 383.934C185.48 383.935 185.081 383.935 184.681 383.936C183.427 383.939 182.172 383.941 180.918 383.941C179.477 383.942 178.037 383.946 176.597 383.951C175.478 383.955 174.359 383.957 173.241 383.957C172.575 383.957 171.909 383.958 171.244 383.962C170.499 383.966 169.755 383.965 169.011 383.963C168.687 383.966 168.687 383.966 168.357 383.969C164.878 383.951 161.897 382.93 159.431 380.475C156.295 377.121 156.009 373.218 156.017 368.866C156.016 368.43 156.015 367.993 156.014 367.557C156.012 366.646 156.012 365.735 156.014 364.824C156.016 363.664 156.013 362.505 156.007 361.345C156.003 360.445 156.004 359.545 156.005 358.645C156.005 358.218 156.004 357.791 156.001 357.364C155.987 354.37 156.078 351.35 157.528 348.641C157.592 348.519 157.656 348.397 157.722 348.271C159.239 345.509 161.802 343.466 164.797 342.489C168.401 341.448 172.374 342.062 175.328 344.398Z" fill="#222121"/>
<path fill-rule="evenodd" clip-rule="evenodd" d="M39.7801 389.56C61.7499 389.56 79.5602 371.75 79.5602 349.78C79.5602 327.81 61.7499 310 39.7801 310C17.8101 310 0 327.81 0 349.78C0 371.75 17.8101 389.56 39.7801 389.56ZM39.7801 384.787C59.1136 384.787 74.7866 369.114 74.7866 349.78C74.7866 330.447 59.1136 314.774 39.7801 314.774C20.4465 314.774 4.77361 330.447 4.77361 349.78C4.77361 369.114 20.4465 384.787 39.7801 384.787ZM39.7801 380.013C56.4774 380.013 70.013 366.477 70.013 349.78C70.013 333.083 56.4774 319.547 39.7801 319.547C23.083 319.547 9.54722 333.083 9.54722 349.78C9.54722 366.477 23.083 380.013 39.7801 380.013ZM39.7801 375.239C53.8408 375.239 65.2394 363.841 65.2394 349.78C65.2394 335.719 53.8408 324.321 39.7801 324.321C25.7193 324.321 14.3208 335.719 14.3208 349.78C14.3208 363.841 25.7193 375.239 39.7801 375.239ZM60.4658 349.78C60.4658 361.205 51.2045 370.466 39.7801 370.466C28.3557 370.466 19.0944 361.205 19.0944 349.78C19.0944 338.356 28.3557 329.094 39.7801 329.094C51.2045 329.094 60.4658 338.356 60.4658 349.78ZM55.6921 349.78C55.6921 358.568 48.5679 365.692 39.7801 365.692C30.9921 365.692 23.8681 358.568 23.8681 349.78C23.8681 340.992 30.9921 333.868 39.7801 333.868C48.5679 333.868 55.6921 340.992 55.6921 349.78Z" fill="#A8ADFD"/>
<path d="M189.414 22.0898C189.498 22.2574 189.582 22.425 189.668 22.5977C188.991 23.2747 188.314 23.9518 187.637 24.6289C187.385 24.5451 187.134 24.4613 186.875 24.375C187.202 24.041 187.53 23.7079 187.859 23.3752C188.133 23.0969 188.133 23.0969 188.412 22.8129C188.906 22.3437 188.906 22.3437 189.414 22.0898Z" fill="#406C01"/>
</g>
<defs>
<clipPath id="clip0_19543_14706">
<rect width="260" height="390" fill="white"/>
</clipPath>
</defs>
</svg>
