<svg width="320" height="226" viewBox="0 0 320 226" fill="none" xmlns="http://www.w3.org/2000/svg">
<g clip-path="url(#clip0_19543_14737)">
<rect width="320" height="225.5" fill="#FBDDF0"/>
<path d="M301.5 34C307.851 34 313 28.8513 313 22.5C313 16.1487 307.851 11 301.5 11C295.149 11 290 16.1487 290 22.5C290 16.1487 284.851 11 278.5 11C272.149 11 267 16.1487 267 22.5C267 28.8513 272.149 34 278.5 34C272.149 34 267 39.1487 267 45.5C267 51.8513 272.149 57 278.5 57C284.851 57 290 51.8513 290 45.5C290 51.8513 295.149 57 301.5 57C307.851 57 313 51.8513 313 45.5C313 39.1487 307.851 34 301.5 34Z" fill="#16A9C4"/>
<path d="M290.849 110.814C291.385 111.245 291.77 111.703 292.118 112.293C292.233 112.488 292.233 112.488 292.351 112.686C292.761 113.395 293.164 114.108 293.565 114.822C293.75 115.149 293.934 115.477 294.119 115.804C294.211 115.968 294.303 116.132 294.398 116.301C295.49 118.236 296.595 120.163 297.714 122.083C297.995 122.565 298.275 123.047 298.556 123.529C298.734 123.835 298.912 124.14 299.091 124.446C301.652 128.832 303.968 133.205 302.587 138.436C302.48 138.779 302.366 139.12 302.244 139.458C302.193 139.617 302.143 139.776 302.091 139.94C300.769 143.789 297.689 146.804 294.076 148.587C290.831 150.01 287.076 150.539 283.68 149.323C283.496 149.261 283.312 149.198 283.122 149.134C279.329 147.784 276.027 144.743 274.277 141.16C272.69 137.538 272.568 133.729 273.988 130.043C274.754 128.125 275.801 126.379 276.866 124.612C277.332 123.832 277.786 123.044 278.241 122.258C279.105 120.769 279.982 119.289 280.869 117.813C281.359 116.996 281.846 116.176 282.325 115.351C282.463 115.113 282.463 115.113 282.604 114.87C282.777 114.573 282.948 114.275 283.119 113.977C284.091 112.302 285.141 110.707 287.096 110.156C288.438 109.799 289.691 110.071 290.849 110.814Z" fill="#A8ADFD"/>
<path d="M266.687 115.275C269.86 117.971 271.761 121.495 272.631 125.47C272.665 125.623 272.699 125.775 272.734 125.932C273.294 128.888 272.95 132.066 271.886 134.877C271.852 134.971 271.817 135.064 271.781 135.161C271.181 136.764 270.396 138.138 269.352 139.509C269.251 139.643 269.149 139.777 269.044 139.915C266.28 143.396 262.409 145.641 258.024 146.6C257.887 146.633 257.75 146.666 257.608 146.699C253.107 147.614 248.366 146.367 244.573 143.981C242.349 142.526 240.602 140.783 239.095 138.64C238.078 137.217 238.078 137.217 236.491 136.511C234.981 136.344 233.792 136.313 232.536 137.193C232.32 137.327 232.102 137.46 231.884 137.591C231.744 137.679 231.744 137.679 231.601 137.77C230.626 138.327 229.152 138.185 228.065 138.061C227.43 137.864 226.951 137.587 226.425 137.193C226.314 137.113 226.203 137.033 226.088 136.95C224.879 136.006 224.187 134.772 224.003 133.271C223.946 131.52 224.713 130.289 225.876 128.993C227.163 127.693 228.364 127.446 230.178 127.408C231.166 127.427 231.825 127.75 232.656 128.239C233.428 128.685 234.039 128.852 234.921 128.654C235.374 128.492 235.374 128.492 235.666 128.22C235.805 127.817 235.829 127.568 235.843 127.153C236.258 122.545 239.157 118.082 242.683 115.098C249.804 109.58 259.684 109.631 266.687 115.275Z" fill="#F98C98"/>
<path d="M258.128 147.771C258.242 147.823 258.356 147.875 258.474 147.928C260.556 148.967 262.089 150.945 262.846 153.124C263.003 153.807 263.026 154.44 263.022 155.139C263.021 155.27 263.02 155.402 263.019 155.537C262.989 157.17 262.524 158.239 261.654 159.604C261.605 159.701 261.557 159.799 261.507 159.9C261.616 159.868 261.725 159.836 261.838 159.803C264.344 159.159 266.963 159.079 269.235 160.421C269.559 160.63 269.867 160.851 270.175 161.083C270.302 161.168 270.429 161.254 270.561 161.342C271.746 162.472 272.858 164.325 272.992 165.99C273.065 168.797 272.64 170.775 270.787 172.934C270.198 173.513 269.513 173.872 268.779 174.228C268.689 174.273 268.598 174.317 268.504 174.362C266.801 175.138 265.011 174.901 263.27 174.395C263.319 174.504 263.369 174.613 263.42 174.725C263.486 174.869 263.551 175.013 263.619 175.162C263.683 175.305 263.748 175.447 263.815 175.594C264.556 177.268 264.824 179.416 264.295 181.209C263.603 182.959 262.322 184.437 260.626 185.257C258.74 186.074 256.652 186.294 254.705 185.526C252.779 184.626 251.382 183.387 250.635 181.347C250.396 180.518 250.216 179.677 250.047 178.832C249.963 178.964 249.88 179.095 249.794 179.231C248.592 181.039 246.721 182.361 244.611 182.826C244.104 182.888 243.606 182.903 243.096 182.9C242.962 182.899 242.827 182.898 242.689 182.897C240.753 182.848 239.144 182.032 237.742 180.7C236.336 179.199 235.851 177.463 235.873 175.432C235.949 173.366 236.866 171.637 238.242 170.131C239.032 169.395 239.965 168.794 240.938 168.33C240.504 167.996 240.504 167.996 239.928 167.933C238.479 167.624 237.264 166.836 236.308 165.714C236.056 165.319 235.926 164.934 235.796 164.485C235.753 164.599 235.71 164.714 235.666 164.831C234.807 167.03 233.551 168.383 231.39 169.347C229.766 169.959 227.817 169.865 226.245 169.16C224.346 168.135 222.977 166.676 222.268 164.618C221.839 163.049 221.901 161 222.63 159.55C223.894 157.47 225.486 155.924 227.865 155.227C229.673 154.848 231.563 155.236 233.1 156.233C234.174 157.056 234.823 158.073 235.355 159.308C235.361 159.17 235.366 159.033 235.372 158.891C235.469 157.05 235.469 157.05 235.943 156.202C236.021 156.052 236.1 155.903 236.181 155.749C237.102 154.602 238.366 154.1 239.79 153.926C241.813 153.822 243.765 154.658 245.346 155.906C245.647 156.195 245.937 156.492 246.227 156.793C246.222 156.62 246.217 156.447 246.212 156.268C246.161 153.867 246.565 151.819 248.183 149.943C250.67 147.344 254.743 146.076 258.128 147.771Z" fill="#A8ADFD"/>
<path d="M288.882 151.972C290.802 153.537 291.894 155.566 292.616 157.949C292.656 158.076 292.695 158.203 292.736 158.333C293.408 160.901 292.72 163.739 291.542 166.023C290.214 168.274 288.089 169.867 285.668 170.593C285.504 170.645 285.504 170.645 285.337 170.698C282.635 171.409 279.895 170.821 277.523 169.391C275.206 167.868 273.793 165.337 273.161 162.605C272.697 159.948 273.254 157.312 274.58 155.02C274.947 154.477 275.341 153.974 275.763 153.478C275.845 153.38 275.927 153.282 276.011 153.18C276.711 152.395 277.541 151.857 278.424 151.319C278.567 151.229 278.567 151.229 278.713 151.136C281.915 149.274 285.96 149.805 288.882 151.972Z" fill="#8D5AC4"/>
<path d="M288.934 151.974C290.878 153.549 291.939 155.574 292.694 157.957C292.751 158.134 292.808 158.311 292.867 158.493C292.908 158.622 292.949 158.751 292.992 158.884C293.024 158.749 293.057 158.615 293.091 158.476C293.599 156.494 294.346 154.876 295.671 153.327C295.75 153.231 295.829 153.134 295.91 153.035C297.371 151.374 299.784 150.178 301.951 150.069C302.329 150.059 302.706 150.057 303.084 150.057C303.211 150.055 303.337 150.053 303.468 150.051C306.124 150.045 308.394 151.252 310.255 153.173C310.349 153.264 310.442 153.355 310.538 153.449C311.143 154.093 311.538 154.819 311.93 155.613C312.003 155.761 312.003 155.761 312.078 155.912C312.762 157.366 313.015 158.788 312.999 160.398C312.998 160.561 312.997 160.723 312.995 160.89C312.935 163.706 311.843 166.218 309.926 168.208C307.967 170.094 305.586 171.017 302.926 171C302.763 170.999 302.6 170.998 302.432 170.997C299.83 170.938 297.64 169.813 295.761 167.96C294.268 166.295 293.52 164.462 292.992 162.279C292.936 162.464 292.88 162.648 292.823 162.838C292.182 164.919 291.51 166.409 290.015 167.99C289.916 168.098 289.817 168.207 289.715 168.319C287.743 170.316 285.098 171.007 282.409 170.976C279.924 170.897 277.58 169.828 275.83 167.987C273.755 165.664 272.946 162.966 273.003 159.852C273.103 157.421 274.192 155.275 275.728 153.481C275.811 153.383 275.893 153.285 275.978 153.184C276.682 152.397 277.518 151.859 278.407 151.321C278.551 151.23 278.551 151.23 278.698 151.137C281.922 149.273 285.993 149.805 288.934 151.974Z" fill="#A8ADFD"/>
<path d="M258.081 162.024C259.231 162.797 260.071 163.896 260.584 165.17C260.636 165.294 260.687 165.417 260.741 165.544C261.163 167.077 261.091 169.011 260.362 170.429C259.274 172.2 257.924 173.284 255.925 173.942C253.737 174.142 252.076 173.859 250.31 172.514C249.187 171.574 248.179 170.2 248.027 168.715C247.912 166.484 248.113 164.8 249.63 163.05C251.973 160.712 255.226 160.379 258.081 162.024Z" fill="#FDA8B7"/>
<path d="M218.672 165.874C220.559 166.979 221.267 168.269 221.971 170.1C222.13 172.385 221.655 174.282 219.924 176.08C219.258 176.698 218.525 177.092 217.666 177.483C217.273 177.637 217.273 177.637 217.135 177.939C216.475 177.954 215.815 177.964 215.155 177.972C214.968 177.977 214.782 177.981 214.589 177.986C214.318 177.989 214.318 177.989 214.042 177.991C213.876 177.994 213.71 177.997 213.539 178C212.967 177.924 212.72 177.733 212.298 177.398C212.079 177.275 211.858 177.154 211.635 177.035C209.821 175.979 208.773 174.587 208.086 172.803C207.943 171.339 207.881 169.795 208.71 168.478C208.784 168.354 208.858 168.23 208.934 168.103C209.816 166.766 211.163 165.754 212.833 165.21C214.838 164.814 216.907 164.947 218.672 165.874Z" fill="#A8ADFD"/>
<path d="M295.429 168.843C295.549 168.917 295.67 168.991 295.794 169.068C297.341 170.102 298.342 171.871 298.842 173.939C299.226 176.214 298.909 178.566 297.901 180.511C296.726 182.477 295.383 183.407 293.484 183.94C291.494 184.194 289.745 183.653 288.162 182.089C287.53 181.357 287.089 180.5 286.677 179.567C286.617 179.43 286.556 179.292 286.493 179.15C285.828 177.327 285.869 174.919 286.417 173.056C286.742 172.181 287.127 171.43 287.65 170.715C287.756 170.561 287.756 170.561 287.865 170.404C289.687 167.953 293.039 167.274 295.429 168.843Z" fill="#FDA8B7"/>
<path d="M214.805 178.005C215.196 178.009 215.587 178.005 215.978 178C217.326 177.998 218.542 178.121 219.845 178.476C221.58 178.947 223.267 178.952 225.054 178.943C228.341 178.939 231.198 179.101 233.709 181.502C235.199 183.011 235.941 184.963 235.949 187.074C235.949 187.176 235.95 187.278 235.95 187.383C235.952 187.722 235.953 188.061 235.953 188.4C235.954 188.644 235.955 188.888 235.956 189.132C235.959 189.932 235.961 190.732 235.962 191.532C235.963 191.808 235.963 192.085 235.964 192.361C235.967 193.66 235.969 194.959 235.97 196.258C235.972 197.753 235.975 199.247 235.981 200.742C235.986 201.9 235.988 203.059 235.989 204.217C235.989 204.907 235.99 205.598 235.994 206.288C235.997 206.939 235.998 207.589 235.997 208.24C235.996 208.477 235.997 208.714 235.999 208.951C236.023 211.839 235.315 214.207 233.301 216.357C231.483 218.14 229.197 218.94 226.686 218.948C226.579 218.949 226.473 218.949 226.363 218.95C226.01 218.952 225.656 218.952 225.302 218.953C225.047 218.954 224.793 218.955 224.538 218.956C223.703 218.959 222.869 218.96 222.034 218.962C221.746 218.962 221.458 218.963 221.17 218.964C219.815 218.967 218.46 218.969 217.106 218.97C215.546 218.971 213.987 218.975 212.428 218.981C211.219 218.986 210.011 218.988 208.803 218.989C208.083 218.989 207.363 218.99 206.642 218.994C205.964 218.998 205.286 218.998 204.607 218.997C204.36 218.997 204.112 218.997 203.865 219C201.316 219.02 199.251 218.429 197.131 216.945C195.01 214.801 194.008 212.535 194.001 209.502C194.002 209.274 194.003 209.046 194.004 208.818C194.003 208.573 194.002 208.329 194.001 208.084C193.999 207.424 194 206.764 194.001 206.104C194.003 205.41 194.002 204.717 194.001 204.023C194 202.858 194.001 201.694 194.003 200.529C194.006 199.187 194.005 197.845 194.002 196.502C194 195.345 194 194.189 194.001 193.032C194.002 192.343 194.002 191.654 194.001 190.965C193.999 190.317 194 189.669 194.003 189.021C194.003 188.784 194.003 188.547 194.002 188.311C193.992 185.625 194.527 183.557 196.386 181.574C198.409 179.589 200.794 178.981 203.536 178.978C203.857 178.976 204.177 178.973 204.498 178.97C204.996 178.965 205.493 178.962 205.991 178.962C207.769 178.96 209.38 178.895 211.087 178.371C212.32 178.007 213.528 177.989 214.805 178.005Z" fill="#222121"/>
<path d="M287.79 182.485C290.059 184.075 291.489 185.98 291.955 188.569C292.208 191.158 291.391 193.691 289.639 195.751C287.917 197.557 285.685 198.798 283.024 198.98C280.054 199.117 277.659 198.579 275.353 196.796C274.017 195.655 273.17 194.402 272.556 192.838C272.501 192.704 272.446 192.57 272.389 192.432C271.657 190.18 271.987 187.69 273.133 185.616C274.525 183.46 276.827 181.952 279.45 181.259C282.34 180.693 285.316 181.034 287.79 182.485Z" fill="#A8ADFD"/>
<path d="M303.061 181.001C303.317 181.002 303.317 181.002 303.579 181.003C304.84 181.026 305.889 181.154 307.049 181.636C307.255 181.716 307.255 181.716 307.465 181.798C309.703 182.742 311.438 184.403 312.378 186.495C312.995 188.045 313.021 189.497 312.993 191.124C312.99 191.357 312.988 191.591 312.986 191.824C312.981 192.39 312.973 192.956 312.963 193.522C312.912 193.522 312.861 193.522 312.808 193.522C312.756 193.286 312.705 193.05 312.652 192.806C312.542 193.029 312.542 193.029 312.429 193.257C311.784 194.522 311.117 195.553 310.006 196.53C309.911 196.62 309.816 196.711 309.717 196.804C308.274 198.09 306.072 198.959 304.063 199C303.625 198.964 303.625 198.964 303.469 198.821C303.169 198.827 302.87 198.834 302.57 198.845C300.043 198.924 298.126 198.135 296.203 196.633C294.394 195.07 293.102 193.002 293.004 190.698C292.943 188.008 293.562 185.832 295.623 183.834C297.738 181.938 300.104 180.974 303.061 181.001Z" fill="#F98C98"/>
<path d="M251.343 187.884C251.721 188.211 252.083 188.548 252.439 188.898C252.566 189.018 252.566 189.018 252.696 189.141C253.551 190.024 254.151 191.295 254.541 192.448C254.572 192.36 254.603 192.272 254.635 192.181C255.503 189.881 256.98 188.125 259.194 186.976C261.758 185.871 264.202 185.781 266.849 186.68C269.243 187.629 271.058 189.73 272.103 192.004C272.152 191.711 272.202 191.418 272.253 191.117C272.538 191.539 272.692 191.902 272.872 192.374C273.82 194.63 275.531 196.268 277.805 197.216C279.073 197.686 280.239 197.826 281.587 197.836C284.783 197.915 287.408 198.753 289.692 201.06C291.11 202.68 292.364 205.053 292.216 207.236C292.315 207.236 292.414 207.236 292.516 207.236C292.501 207.086 292.485 206.937 292.469 206.783C292.478 204.49 293.962 202.11 295.544 200.531C297.62 198.608 299.874 197.871 302.676 197.855C305.801 197.8 308.116 197.179 310.378 194.962C310.461 194.885 310.544 194.808 310.63 194.729C311.293 194.057 311.668 193.213 312.072 192.375C312.453 191.587 312.453 191.587 312.78 191.265C312.948 192.198 312.954 193.114 312.957 194.061C312.958 194.323 312.958 194.323 312.96 194.591C312.963 195.168 312.964 195.746 312.966 196.324C312.967 196.524 312.967 196.724 312.968 196.924C312.971 197.866 312.973 198.808 312.974 199.75C312.976 200.831 312.979 201.911 312.986 202.991C312.99 203.831 312.992 204.67 312.993 205.509C312.993 206.009 312.995 206.508 312.998 207.007C313.021 210.491 312.851 213.576 310.276 216.225C307.978 218.389 305.303 219.013 302.206 218.995C301.969 218.996 301.733 218.997 301.497 218.998C300.863 219.001 300.229 219 299.595 218.998C298.927 218.997 298.259 218.998 297.591 218.999C296.47 219 295.349 218.999 294.228 218.996C292.938 218.993 291.647 218.994 290.357 218.997C289.243 218.999 288.128 219 287.014 218.998C286.352 218.997 285.689 218.997 285.026 218.999C284.403 219.001 283.78 219 283.156 218.996C282.929 218.996 282.703 218.996 282.476 218.997C279.487 219.013 276.989 218.183 274.804 216.109C273.258 214.357 272.519 212.324 272.253 210.046C272.229 210.208 272.205 210.371 272.181 210.538C271.975 211.854 271.724 213.014 271.052 214.186C270.933 214.394 270.933 214.394 270.812 214.605C269.568 216.647 267.811 217.936 265.505 218.668C264.28 218.942 263.049 218.941 261.799 218.942C261.614 218.943 261.428 218.944 261.237 218.945C260.731 218.946 260.225 218.948 259.719 218.948C259.402 218.949 259.085 218.949 258.768 218.95C257.772 218.952 256.776 218.953 255.78 218.954C254.637 218.955 253.493 218.957 252.35 218.961C251.462 218.965 250.574 218.966 249.686 218.966C249.157 218.967 248.629 218.967 248.101 218.97C247.51 218.973 246.919 218.972 246.328 218.971C246.071 218.973 246.071 218.973 245.809 218.975C243.047 218.962 240.681 218.159 238.724 216.23C236.234 213.595 236.007 210.529 236.013 207.109C236.012 206.766 236.012 206.423 236.011 206.081C236.009 205.365 236.01 204.649 236.011 203.933C236.013 203.022 236.01 202.111 236.006 201.2C236.003 200.493 236.003 199.786 236.004 199.078C236.004 198.743 236.003 198.407 236.001 198.072C235.99 195.719 236.062 193.346 237.213 191.218C237.264 191.122 237.315 191.026 237.367 190.927C238.571 188.757 240.606 187.152 242.983 186.384C245.844 185.566 248.998 186.049 251.343 187.884Z" fill="#222121"/>
<path fill-rule="evenodd" clip-rule="evenodd" d="M110.78 224.56C126.122 224.56 138.56 212.122 138.56 196.78C138.56 181.438 126.122 169 110.78 169C95.4376 169 83 181.438 83 196.78C83 212.122 95.4376 224.56 110.78 224.56ZM110.78 221.227C124.282 221.227 135.227 210.282 135.227 196.78C135.227 183.279 124.282 172.334 110.78 172.334C97.2787 172.334 86.3336 183.279 86.3336 196.78C86.3336 210.282 97.2787 221.227 110.78 221.227ZM110.78 217.893C122.441 217.893 131.893 208.441 131.893 196.78C131.893 185.12 122.441 175.667 110.78 175.667C99.1198 175.667 89.6672 185.12 89.6672 196.78C89.6672 208.441 99.1198 217.893 110.78 217.893ZM110.78 214.559C120.599 214.559 128.559 206.599 128.559 196.78C128.559 186.961 120.599 179.001 110.78 179.001C100.961 179.001 93.0008 186.961 93.0008 196.78C93.0008 206.599 100.961 214.559 110.78 214.559ZM125.226 196.78C125.226 204.758 118.758 211.226 110.78 211.226C102.802 211.226 96.3344 204.758 96.3344 196.78C96.3344 188.802 102.802 182.334 110.78 182.334C118.758 182.334 125.226 188.802 125.226 196.78ZM121.892 196.78C121.892 202.917 116.917 207.892 110.78 207.892C104.643 207.892 99.6681 202.917 99.6681 196.78C99.6681 190.643 104.643 185.668 110.78 185.668C116.917 185.668 121.892 190.643 121.892 196.78Z" fill="#A8ADFD"/>
<path fill-rule="evenodd" clip-rule="evenodd" d="M2.95 191C4.85543 191 6.4 192.545 6.4 194.45V200.513C6.4 203.586 10.116 205.126 12.2895 202.952L16.5765 198.665C17.924 197.318 20.1082 197.318 21.4558 198.665L26.3348 203.544C27.682 204.892 27.682 207.076 26.3348 208.423L22.0475 212.71C19.8743 214.884 21.4134 218.6 24.487 218.6H30.55C32.4554 218.6 34 220.145 34 222.05V228.95C34 230.855 32.4554 232.4 30.55 232.4H24.487C21.4134 232.4 19.8743 236.116 22.0475 238.289L26.3348 242.576C27.682 243.924 27.682 246.108 26.3348 247.456L21.4558 252.335C20.1082 253.682 17.924 253.682 16.5765 252.335L12.2895 248.047C10.116 245.874 6.4 247.413 6.4 250.487V256.55C6.4 258.455 4.85543 260 2.95 260H-3.95C-5.8554 260 -7.4 258.455 -7.4 256.55V250.487C-7.4 247.413 -11.1161 245.874 -13.2895 248.047L-17.5766 252.335C-18.9239 253.682 -21.1084 253.682 -22.4557 252.335L-27.3347 247.456C-28.682 246.108 -28.682 243.924 -27.3347 242.576L-23.0476 238.289C-20.8742 236.116 -22.4135 232.4 -25.4871 232.4H-31.55C-33.4554 232.4 -35 230.855 -35 228.95V222.05C-35 220.145 -33.4554 218.6 -31.55 218.6H-25.4871C-22.4135 218.6 -20.8742 214.884 -23.0476 212.71L-27.3347 208.423C-28.682 207.076 -28.682 204.892 -27.3347 203.544L-22.4557 198.665C-21.1084 197.318 -18.9239 197.318 -17.5766 198.665L-13.2895 202.952C-11.1161 205.126 -7.4 203.586 -7.4 200.513V194.45C-7.4 192.545 -5.8554 191 -3.95 191H2.95ZM-0.5 242.75C9.02683 242.75 16.75 235.027 16.75 225.5C16.75 215.973 9.02683 208.25 -0.5 208.25C-10.0269 208.25 -17.75 215.973 -17.75 225.5C-17.75 235.027 -10.0269 242.75 -0.5 242.75Z" fill="#05728C"/>
</g>
<defs>
<clipPath id="clip0_19543_14737">
<rect width="320" height="225.5" fill="white"/>
</clipPath>
</defs>
</svg>
