<svg width="1920" height="672" viewBox="0 0 1920 672" fill="none" xmlns="http://www.w3.org/2000/svg">
<g clip-path="url(#clip0_19543_14666)">
<rect width="1920" height="672" fill="#FBDDF0"/>
<path d="M1544.15 441.507C1545.83 442.984 1547.43 444.506 1549.02 446.087C1549.58 446.629 1549.58 446.629 1550.16 447.182C1553.96 451.168 1556.62 456.909 1558.35 462.112C1558.49 461.715 1558.63 461.318 1558.77 460.909C1562.62 450.525 1569.19 442.594 1579.02 437.406C1590.41 432.419 1601.26 432.01 1613.02 436.071C1623.65 440.355 1631.71 449.842 1636.35 460.109C1636.57 458.787 1636.79 457.464 1637.02 456.102C1638.29 458.008 1638.97 459.647 1639.77 461.778C1643.98 471.967 1651.58 479.36 1661.68 483.641C1667.31 485.764 1672.49 486.398 1678.48 486.442C1692.67 486.799 1704.33 490.583 1714.48 500.998C1720.77 508.313 1726.34 519.027 1725.69 528.883C1726.13 528.883 1726.57 528.883 1727.02 528.883C1726.95 528.208 1726.88 527.533 1726.81 526.838C1726.85 516.484 1733.44 505.741 1740.47 498.609C1749.69 489.925 1759.7 486.598 1772.15 486.525C1786.03 486.28 1796.31 483.476 1806.36 473.463C1806.73 473.117 1807.09 472.771 1807.47 472.414C1810.42 469.377 1812.08 465.569 1813.88 461.784C1815.57 458.225 1815.57 458.225 1817.02 456.77C1817.77 460.984 1817.8 465.122 1817.81 469.395C1817.81 470.58 1817.81 470.58 1817.82 471.789C1817.83 474.397 1817.84 477.005 1817.85 479.613C1817.85 480.517 1817.85 481.421 1817.86 482.325C1817.87 486.578 1817.88 490.831 1817.88 495.084C1817.89 499.962 1817.91 504.84 1817.94 509.718C1817.96 513.508 1817.97 517.298 1817.97 521.088C1817.97 523.342 1817.98 525.596 1817.99 527.85C1818.09 543.58 1817.34 557.511 1805.9 569.47C1795.7 579.243 1783.81 582.06 1770.06 581.978C1769.01 581.982 1767.96 581.986 1766.91 581.992C1764.09 582.004 1761.28 582 1758.46 581.991C1755.49 581.984 1752.53 581.991 1749.56 581.995C1744.58 582 1739.6 581.993 1734.62 581.981C1728.89 581.966 1723.16 581.971 1717.43 581.986C1712.48 581.998 1707.53 581.999 1702.58 581.992C1699.64 581.988 1696.7 581.988 1693.75 581.996C1690.98 582.004 1688.22 581.999 1685.45 581.983C1684.44 581.98 1683.43 581.981 1682.42 581.987C1669.15 582.058 1658.05 578.31 1648.35 568.946C1641.48 561.035 1638.2 551.859 1637.02 541.57C1636.91 542.304 1636.81 543.038 1636.7 543.795C1635.79 549.736 1634.67 554.972 1631.68 560.266C1631.16 561.202 1631.16 561.202 1630.62 562.157C1625.09 571.375 1617.29 577.198 1607.05 580.503C1601.61 581.74 1596.14 581.735 1590.59 581.74C1589.76 581.743 1588.94 581.747 1588.09 581.75C1585.84 581.758 1583.6 581.763 1581.35 581.766C1579.94 581.768 1578.53 581.771 1577.12 581.774C1572.7 581.783 1568.28 581.789 1563.85 581.792C1558.78 581.795 1553.7 581.807 1548.62 581.826C1544.68 581.841 1540.73 581.847 1536.79 581.848C1534.44 581.849 1532.09 581.853 1529.75 581.865C1527.12 581.878 1524.5 581.875 1521.87 581.87C1520.73 581.88 1520.73 581.88 1519.57 581.889C1507.3 581.826 1496.79 578.203 1488.1 569.494C1477.04 557.595 1476.03 543.75 1476.06 528.309C1476.06 526.762 1476.05 525.215 1476.05 523.668C1476.04 520.435 1476.04 517.202 1476.05 513.97C1476.06 509.856 1476.04 505.743 1476.02 501.63C1476.01 498.437 1476.01 495.244 1476.02 492.051C1476.02 490.536 1476.01 489.021 1476 487.505C1475.95 476.885 1476.28 466.169 1481.39 456.561C1481.61 456.128 1481.84 455.694 1482.07 455.247C1487.42 445.448 1496.46 438.199 1507.01 434.736C1519.72 431.041 1533.73 433.221 1544.15 441.507Z" fill="#222121"/>
<path d="M1320.91 91.0954C1321.47 91.0928 1322.03 91.0903 1322.61 91.0877C1324.48 91.0808 1326.36 91.0834 1328.23 91.0861C1329.58 91.0832 1330.93 91.0797 1332.28 91.0757C1335.93 91.0668 1339.58 91.0664 1343.24 91.0681C1346.29 91.0688 1349.35 91.0655 1352.4 91.0623C1359.61 91.0549 1366.82 91.0546 1374.03 91.0587C1381.45 91.0627 1388.88 91.0545 1396.31 91.0403C1402.69 91.0285 1409.08 91.0245 1415.46 91.0267C1419.27 91.0279 1423.08 91.0261 1426.89 91.0168C1430.48 91.0084 1434.06 91.0097 1437.64 91.0184C1438.96 91.02 1440.27 91.0182 1441.58 91.0127C1458.7 90.9457 1458.7 90.9457 1465.08 96.407C1470.79 102.793 1471.84 109.849 1471.75 118.095C1471.76 119.111 1471.77 120.127 1471.78 121.144C1471.8 123.799 1471.79 126.454 1471.78 129.109C1471.77 131.77 1471.79 134.43 1471.81 137.091C1471.83 141.631 1471.83 146.171 1471.82 150.711C1471.81 153.553 1471.84 156.392 1471.89 159.234C1471.9 159.888 1471.91 160.542 1471.92 161.216C1471.94 162.375 1471.96 163.535 1472 164.694C1472.04 167.742 1471.72 169.672 1469.81 172.092C1466.88 174.031 1463.81 174.1 1460.43 173.428C1458.81 172.575 1457.26 171.702 1455.7 170.756C1449.47 167.055 1443.06 167.074 1436.11 168.708C1428.68 170.849 1424.55 177.057 1420.64 183.259C1417.96 188.739 1418.39 194.865 1420.26 200.514C1422.25 205.525 1425.28 208.997 1429.62 212.169C1430.08 212.51 1430.53 212.851 1431 213.203C1436.35 216.509 1442.97 216.344 1449.04 215.509C1451.59 214.742 1453.57 213.672 1455.74 212.169C1456.75 211.556 1457.75 210.943 1458.76 210.332C1459.18 210.06 1459.6 209.788 1460.03 209.508C1462.12 208.18 1463.88 207.97 1466.35 207.747C1468.23 208.284 1469.22 209.274 1470.43 210.779C1471.98 213.764 1471.61 217.201 1471.57 220.485C1471.57 221.292 1471.57 222.099 1471.57 222.931C1471.57 224.637 1471.56 226.343 1471.55 228.049C1471.53 230.643 1471.53 233.235 1471.55 235.828C1471.54 237.491 1471.54 239.153 1471.53 240.816C1471.53 241.583 1471.53 242.351 1471.54 243.142C1471.43 250.383 1469.63 256.982 1464.47 262.287C1458.75 267.689 1453.17 269.005 1445.37 269.061C1444.88 269.066 1444.4 269.07 1443.9 269.075C1442.85 269.084 1441.8 269.092 1440.76 269.099C1439.1 269.11 1437.44 269.126 1435.78 269.142C1431.07 269.189 1426.35 269.23 1421.64 269.264C1418.75 269.285 1415.86 269.313 1412.97 269.344C1411.88 269.355 1410.78 269.363 1409.68 269.369C1408.14 269.377 1406.61 269.393 1405.07 269.411C1404.2 269.418 1403.33 269.425 1402.43 269.432C1400.23 269.607 1398.72 269.882 1396.79 270.949C1395.73 274.128 1395.44 276.808 1396.85 279.875C1397.86 281.583 1398.92 283.241 1400.02 284.893C1405.07 292.57 1407.05 299.071 1406.17 308.355C1404.61 315.302 1400.46 322.018 1394.79 326.39C1386.6 331.277 1378.7 333.128 1369.16 331.321C1360.74 328.849 1354.41 323.441 1350.22 315.841C1346.88 308.527 1346.59 299.759 1348.94 292.073C1350.07 289.168 1351.55 286.519 1353.09 283.808C1355.03 280.331 1356.04 278.231 1355.26 274.289C1353.81 271.915 1352.49 270.602 1349.91 269.613C1347.68 269.412 1347.68 269.412 1345.16 269.443C1344.68 269.44 1344.21 269.438 1343.72 269.436C1342.7 269.431 1341.67 269.429 1340.65 269.43C1339.02 269.431 1337.39 269.422 1335.76 269.411C1331.13 269.38 1326.5 269.364 1321.87 269.359C1319.04 269.356 1316.2 269.339 1313.37 269.315C1312.29 269.309 1311.22 269.307 1310.14 269.311C1301.95 269.337 1294.84 268.479 1288.58 262.629C1283.83 257.606 1282.15 251.303 1282.16 244.566C1282.15 243.805 1282.15 243.805 1282.15 243.03C1282.14 241.331 1282.14 239.632 1282.14 237.933C1282.14 236.715 1282.14 235.497 1282.13 234.279C1282.12 230.968 1282.12 227.656 1282.12 224.345C1282.11 222.275 1282.11 220.204 1282.11 218.134C1282.1 211.651 1282.09 205.168 1282.09 198.685C1282.09 191.211 1282.08 183.737 1282.06 176.264C1282.04 170.482 1282.03 164.699 1282.03 158.917C1282.03 155.466 1282.03 152.016 1282.02 148.565C1282.01 145.315 1282 142.065 1282.01 138.815C1282.01 137.627 1282.01 136.439 1282 135.252C1281.93 122.534 1284.41 111.403 1293.64 101.957C1301.43 95.0642 1310.45 91.0443 1320.91 91.0954Z" fill="#FDC4BD"/>
<path d="M1376.12 399.021C1377.89 399.039 1379.66 399.021 1381.42 399C1387.52 398.989 1393.02 399.539 1398.92 401.125C1406.76 403.228 1414.4 403.249 1422.48 403.211C1437.35 403.193 1450.28 403.913 1461.63 414.633C1468.38 421.367 1471.73 430.079 1471.77 439.502C1471.77 439.957 1471.77 440.411 1471.78 440.879C1471.78 442.393 1471.79 443.907 1471.79 445.42C1471.79 446.51 1471.8 447.599 1471.8 448.688C1471.82 452.258 1471.82 455.829 1471.83 459.399C1471.83 460.633 1471.83 461.866 1471.84 463.099C1471.85 468.897 1471.86 474.695 1471.86 480.493C1471.87 487.164 1471.89 493.836 1471.92 500.508C1471.94 505.677 1471.95 510.847 1471.95 516.017C1471.95 519.098 1471.96 522.179 1471.97 525.261C1471.99 528.165 1471.99 531.069 1471.98 533.973C1471.98 535.031 1471.99 536.089 1472 537.147C1472.1 550.037 1468.9 560.607 1459.79 570.201C1451.57 578.161 1441.23 581.731 1429.86 581.769C1429.38 581.771 1428.9 581.774 1428.41 581.776C1426.81 581.784 1425.21 581.786 1423.6 581.789C1422.45 581.793 1421.3 581.797 1420.15 581.802C1416.37 581.816 1412.6 581.823 1408.82 581.83C1407.52 581.832 1406.21 581.835 1404.91 581.838C1398.78 581.851 1392.65 581.86 1386.53 581.866C1379.47 581.872 1372.42 581.89 1365.36 581.917C1359.9 581.937 1354.43 581.947 1348.97 581.949C1345.71 581.95 1342.45 581.956 1339.19 581.973C1336.12 581.989 1333.05 581.992 1329.98 581.985C1328.87 581.984 1327.75 581.989 1326.63 581.998C1315.09 582.087 1305.76 579.451 1296.16 572.827C1286.57 563.257 1282.04 553.145 1282 539.607C1282.01 538.59 1282.01 537.572 1282.02 536.555C1282.01 535.462 1282.01 534.369 1282.01 533.276C1282 530.331 1282 527.385 1282.01 524.44C1282.01 521.343 1282.01 518.247 1282 515.151C1282 509.953 1282 504.756 1282.01 499.558C1282.03 493.567 1282.02 487.575 1282.01 481.583C1282 476.42 1282 471.257 1282.01 466.094C1282.01 463.018 1282.01 459.943 1282 456.867C1282 453.974 1282 451.082 1282.01 448.189C1282.02 447.133 1282.01 446.078 1282.01 445.022C1281.96 433.034 1284.38 423.803 1292.79 414.954C1301.95 406.091 1312.73 403.38 1325.14 403.367C1326.59 403.355 1328.04 403.342 1329.49 403.328C1331.74 403.309 1333.99 403.294 1336.25 403.294C1344.29 403.286 1351.58 402.996 1359.3 400.656C1364.87 399.031 1370.34 398.952 1376.12 399.021Z" fill="#222121"/>
<path d="M1608.78 111.711C1622.97 124.146 1631.46 140.392 1635.35 158.723C1635.5 159.427 1635.65 160.13 1635.81 160.855C1638.32 174.483 1636.78 189.136 1632.02 202.101C1631.87 202.533 1631.71 202.964 1631.55 203.409C1628.87 210.802 1625.36 217.138 1620.7 223.457C1620.24 224.074 1619.79 224.692 1619.32 225.328C1606.96 241.383 1589.67 251.733 1570.07 256.157C1569.45 256.308 1568.84 256.458 1568.21 256.613C1548.09 260.83 1526.9 255.083 1509.95 244.077C1500.01 237.371 1492.2 229.333 1485.46 219.452C1480.92 212.89 1480.92 212.89 1473.83 209.635C1467.08 208.863 1461.76 208.72 1456.15 212.779C1455.18 213.396 1454.21 214.008 1453.24 214.614C1452.61 215.022 1452.61 215.022 1451.97 215.438C1447.61 218.007 1441.03 217.353 1436.17 216.783C1433.33 215.874 1431.19 214.595 1428.84 212.779C1428.34 212.41 1427.84 212.041 1427.33 211.661C1421.93 207.307 1418.84 201.617 1418.01 194.695C1417.76 186.618 1421.19 180.945 1426.38 174.966C1432.14 168.971 1437.5 167.835 1445.61 167.658C1450.03 167.745 1452.97 169.236 1456.69 171.489C1460.14 173.546 1462.87 174.318 1466.81 173.405C1468.83 172.66 1468.83 172.66 1470.14 171.403C1470.76 169.546 1470.87 168.399 1470.93 166.481C1472.78 145.233 1485.74 124.654 1501.5 110.895C1533.33 85.4511 1577.49 85.6857 1608.78 111.711Z" fill="#F98C98"/>
<path d="M1570.64 260.479C1571.15 260.713 1571.67 260.947 1572.2 261.188C1581.64 265.878 1588.58 274.804 1592.01 284.636C1592.72 287.718 1592.83 290.577 1592.8 293.728C1592.8 294.322 1592.8 294.916 1592.79 295.527C1592.66 302.894 1590.55 307.72 1586.61 313.878C1586.39 314.319 1586.17 314.76 1585.94 315.213C1586.44 315.069 1586.93 314.924 1587.44 314.775C1598.79 311.871 1610.66 311.508 1620.95 317.568C1622.41 318.51 1623.81 319.506 1625.2 320.553C1625.78 320.939 1626.36 321.324 1626.95 321.722C1632.32 326.822 1637.36 335.185 1637.97 342.698C1638.29 355.365 1636.37 364.293 1627.98 374.036C1625.31 376.65 1622.21 378.268 1618.88 379.877C1618.47 380.077 1618.06 380.276 1617.64 380.482C1609.92 383.982 1601.81 382.911 1593.93 380.628C1594.15 381.119 1594.38 381.611 1594.61 382.117C1594.91 382.768 1595.2 383.419 1595.51 384.091C1595.8 384.733 1596.09 385.376 1596.4 386.038C1599.75 393.596 1600.97 403.287 1598.57 411.38C1595.44 419.275 1589.63 425.947 1581.95 429.647C1573.41 433.335 1563.95 434.328 1555.13 430.86C1546.41 426.802 1540.08 421.208 1536.7 412C1535.62 408.262 1534.8 404.467 1534.04 400.653C1533.66 401.247 1533.28 401.84 1532.89 402.452C1527.45 410.614 1518.97 416.578 1509.41 418.675C1507.12 418.958 1504.86 419.026 1502.55 419.009C1501.94 419.006 1501.33 419.002 1500.71 418.999C1491.94 418.774 1484.65 415.093 1478.3 409.08C1471.93 402.307 1469.74 394.472 1469.84 385.308C1470.18 375.984 1474.33 368.183 1480.57 361.388C1484.15 358.066 1488.37 355.354 1492.78 353.261C1490.81 351.753 1490.81 351.753 1488.2 351.467C1481.64 350.071 1476.14 346.517 1471.81 341.452C1470.66 339.671 1470.08 337.933 1469.49 335.906C1469.29 336.422 1469.1 336.938 1468.9 337.47C1465.01 347.39 1459.32 353.496 1449.53 357.847C1442.18 360.609 1433.35 360.184 1426.23 357.002C1417.62 352.377 1411.42 345.796 1408.22 336.506C1406.27 329.427 1406.55 320.179 1409.85 313.636C1415.58 304.248 1422.79 297.272 1433.57 294.129C1441.75 292.418 1450.32 294.169 1457.27 298.667C1462.14 302.382 1465.08 306.972 1467.49 312.543C1467.52 311.923 1467.54 311.303 1467.57 310.664C1468.01 302.353 1468.01 302.353 1470.15 298.526C1470.51 297.851 1470.87 297.177 1471.23 296.482C1475.41 291.307 1481.13 289.041 1487.58 288.256C1496.74 287.786 1505.58 291.559 1512.74 297.191C1514.11 298.495 1515.42 299.836 1516.73 301.196C1516.71 300.414 1516.69 299.632 1516.66 298.826C1516.44 287.987 1518.27 278.748 1525.59 270.283C1536.86 258.551 1555.31 252.829 1570.64 260.479Z" fill="#A8ADFD"/>
<path d="M1718.32 94.6854C1720.73 96.6346 1722.47 98.7058 1724.03 101.374C1724.55 102.256 1724.55 102.256 1725.08 103.156C1726.92 106.364 1728.74 109.587 1730.54 112.818C1731.37 114.3 1732.2 115.782 1733.03 117.264C1733.45 118.005 1733.86 118.747 1734.29 119.511C1739.2 128.268 1744.18 136.988 1749.21 145.674C1750.48 147.856 1751.74 150.037 1753 152.219C1753.8 153.602 1754.6 154.986 1755.41 156.368C1766.94 176.213 1777.36 196.005 1771.14 219.674C1770.66 221.225 1770.15 222.767 1769.6 224.296C1769.37 225.017 1769.14 225.737 1768.91 226.48C1762.96 243.896 1749.1 257.537 1732.84 265.606C1718.24 272.044 1701.34 274.438 1686.06 268.937C1685.23 268.655 1684.4 268.372 1683.55 268.081C1666.48 261.971 1651.62 248.213 1643.75 232C1636.61 215.61 1636.06 198.375 1642.45 181.695C1645.89 173.015 1650.6 165.115 1655.39 157.12C1657.5 153.59 1659.54 150.026 1661.58 146.466C1665.47 139.729 1669.42 133.032 1673.41 126.356C1675.62 122.655 1677.81 118.946 1679.96 115.213C1680.58 114.135 1680.58 114.135 1681.22 113.036C1682 111.691 1682.77 110.345 1683.53 108.996C1687.91 101.417 1692.64 94.1997 1701.43 91.7053C1707.47 90.0894 1713.11 91.3195 1718.32 94.6854Z" fill="#A8ADFD"/>
<path d="M1710.31 279.461C1719 286.208 1723.75 294.887 1727.13 305.103C1727.39 305.861 1727.64 306.619 1727.9 307.4C1728.09 307.952 1728.27 308.504 1728.46 309.072C1728.61 308.496 1728.75 307.919 1728.91 307.326C1731.18 298.832 1734.53 291.898 1740.45 285.259C1740.8 284.845 1741.16 284.432 1741.52 284.006C1748.06 276.887 1758.86 271.764 1768.56 271.297C1770.25 271.255 1771.93 271.245 1773.63 271.243C1774.19 271.235 1774.76 271.227 1775.34 271.219C1787.23 271.192 1797.39 276.367 1805.72 284.597C1806.13 284.989 1806.55 285.38 1806.98 285.783C1809.69 288.541 1811.46 291.653 1813.21 295.057C1813.54 295.691 1813.54 295.691 1813.88 296.339C1816.93 302.567 1818.07 308.664 1818 315.563C1817.99 316.259 1817.98 316.955 1817.98 317.673C1817.71 329.741 1812.82 340.504 1804.25 349.033C1795.48 357.118 1784.82 361.071 1772.92 360.999C1772.19 360.995 1771.46 360.991 1770.71 360.988C1759.06 360.734 1749.27 355.913 1740.86 347.971C1734.17 340.835 1730.83 332.979 1728.46 323.625C1728.21 324.415 1727.96 325.206 1727.71 326.02C1724.84 334.939 1721.83 341.325 1715.14 348.1C1714.7 348.565 1714.26 349.029 1713.8 349.508C1704.98 358.07 1693.14 361.03 1681.11 360.898C1669.98 360.56 1659.49 355.978 1651.67 348.087C1642.38 338.132 1638.76 326.567 1639.01 313.225C1639.46 302.806 1644.33 293.606 1651.21 285.92C1651.58 285.499 1651.95 285.078 1652.33 284.644C1655.48 281.274 1659.22 278.967 1663.2 276.659C1663.84 276.271 1663.84 276.271 1664.5 275.874C1678.92 267.883 1697.14 270.164 1710.31 279.461Z" fill="#A8ADFD"/>
<path d="M1710.26 279.547C1719 286.326 1723.97 295.12 1727.25 305.448C1727.43 305.996 1727.61 306.545 1727.8 307.11C1730.86 318.239 1727.72 330.538 1722.36 340.433C1716.32 350.187 1706.65 357.092 1695.64 360.237C1694.89 360.462 1694.89 360.462 1694.13 360.692C1681.84 363.772 1669.37 361.226 1658.58 355.026C1648.04 348.429 1641.61 337.46 1638.73 325.622C1636.62 314.109 1639.16 302.686 1645.19 292.753C1646.86 290.402 1648.65 288.219 1650.57 286.071C1650.94 285.645 1651.32 285.22 1651.7 284.782C1654.89 281.377 1658.66 279.048 1662.68 276.717C1663.33 276.324 1663.33 276.324 1664 275.923C1678.56 267.852 1696.97 270.156 1710.26 279.547Z" fill="#8D5AC4"/>
<path d="M1775.26 403.002C1776.36 403.009 1776.36 403.009 1777.49 403.016C1782.91 403.124 1787.42 403.717 1792.41 405.968C1793.3 406.343 1793.3 406.343 1794.2 406.725C1803.82 411.128 1811.28 418.881 1815.33 428.643C1817.98 435.876 1818.09 442.654 1817.97 450.243C1817.96 451.334 1817.95 452.424 1817.94 453.514C1817.92 456.156 1817.88 458.796 1817.84 461.437C1817.62 461.437 1817.4 461.437 1817.17 461.437C1816.95 460.335 1816.73 459.232 1816.5 458.096C1816.03 459.137 1816.03 459.137 1815.54 460.2C1812.77 466.105 1809.9 470.915 1805.13 475.472C1804.72 475.894 1804.31 476.316 1803.88 476.751C1797.68 482.752 1788.21 486.807 1779.57 487C1777.69 486.833 1777.69 486.833 1777.02 486.165C1775.73 486.193 1774.44 486.225 1773.15 486.277C1762.28 486.646 1754.04 482.962 1745.77 475.952C1738 468.662 1732.44 459.009 1732.02 448.257C1731.76 435.706 1734.42 425.548 1743.28 416.225C1752.37 407.379 1762.55 402.88 1775.26 403.002Z" fill="#F98C98"/>
<path d="M1702.11 409.013C1711.75 416.52 1717.83 425.517 1719.81 437.742C1720.88 449.971 1717.41 461.928 1709.97 471.658C1702.65 480.186 1693.16 486.048 1681.85 486.904C1669.23 487.55 1659.05 485.013 1649.25 476.593C1643.57 471.206 1639.97 465.287 1637.36 457.902C1637.13 457.269 1636.9 456.636 1636.65 455.984C1633.54 445.352 1634.95 433.59 1639.82 423.798C1645.73 413.617 1655.52 406.496 1666.66 403.221C1678.95 400.552 1691.59 402.162 1702.11 409.013Z" fill="#A8ADFD"/>
<path d="M1739.69 356.319C1740.28 356.611 1740.86 356.903 1741.46 357.204C1748.96 361.275 1753.81 368.243 1756.24 376.384C1758.09 385.345 1756.56 394.602 1751.67 402.264C1745.98 410.003 1739.47 413.664 1730.27 415.764C1720.62 416.764 1712.15 414.635 1704.48 408.475C1701.42 405.592 1699.28 402.219 1697.28 398.546C1696.99 398.004 1696.69 397.463 1696.39 396.904C1693.16 389.724 1693.37 380.243 1696.02 372.908C1697.59 369.463 1699.46 366.507 1701.99 363.692C1702.51 363.085 1702.51 363.085 1703.04 362.466C1711.87 352.814 1728.11 350.14 1739.69 356.319Z" fill="#FDA8B7"/>
<path d="M1393.74 339.304C1401.82 344.742 1404.86 351.094 1407.88 360.108C1408.56 371.359 1406.52 380.696 1399.1 389.55C1396.25 392.589 1393.11 394.528 1389.43 396.452C1387.74 397.215 1387.74 397.215 1387.15 398.698C1384.32 398.775 1381.49 398.822 1378.67 398.864C1377.86 398.887 1377.06 398.909 1376.24 398.932C1375.08 398.945 1375.08 398.945 1373.89 398.958C1373.18 398.972 1372.47 398.986 1371.74 399C1369.29 398.625 1368.23 397.684 1366.42 396.037C1365.48 395.43 1364.53 394.834 1363.58 394.248C1355.8 389.052 1351.31 382.198 1348.37 373.415C1347.76 366.205 1347.49 358.609 1351.04 352.124C1351.36 351.514 1351.68 350.903 1352 350.274C1355.78 343.693 1361.56 338.71 1368.71 336.032C1377.31 334.086 1386.17 334.74 1393.74 339.304Z" fill="#A8ADFD"/>
<path d="M1570.75 323.728C1575.97 327.296 1579.78 332.367 1582.11 338.247C1582.35 338.817 1582.58 339.387 1582.82 339.974C1584.74 347.048 1584.41 355.974 1581.11 362.517C1576.17 370.692 1570.04 375.696 1560.97 378.733C1551.04 379.657 1543.5 378.348 1535.48 372.143C1530.39 367.801 1525.81 361.463 1525.12 354.61C1524.6 344.311 1525.51 336.539 1532.4 328.46C1543.03 317.669 1557.8 316.135 1570.75 323.728Z" fill="#FDA8B7"/>
<path d="M1067.45 19.4006C1098.57 6.31286 1113.19 -29.5263 1100.1 -60.6484C1087.02 -91.7705 1051.18 -106.39 1020.05 -93.3025C988.933 -80.2148 974.313 -44.3756 987.401 -13.2535C974.313 -44.3756 938.474 -58.9954 907.352 -45.9076C876.229 -32.8199 861.61 3.01926 874.697 34.1414C887.785 65.2635 923.624 79.8832 954.746 66.7955C923.624 79.8832 909.005 115.722 922.092 146.845C935.18 177.967 971.019 192.586 1002.14 179.499C1033.26 166.411 1047.88 130.572 1034.8 99.4496C1047.88 130.572 1083.72 145.191 1114.84 132.104C1145.97 119.016 1160.59 83.1768 1147.5 52.0547C1134.41 20.9326 1098.57 6.31286 1067.45 19.4006Z" fill="#16A9C4"/>
<path fill-rule="evenodd" clip-rule="evenodd" d="M1060 644C1115.23 644 1160 599.228 1160 544C1160 488.771 1115.23 444 1060 444C1004.77 444 960 488.771 960 544C960 599.228 1004.77 644 1060 644ZM1060 632C1108.6 632 1148 592.601 1148 544C1148 495.399 1108.6 456 1060 456C1011.4 456 972 495.399 972 544C972 592.601 1011.4 632 1060 632ZM1060 620C1101.97 620 1136 585.974 1136 544C1136 502.026 1101.97 468 1060 468C1018.03 468 984 502.026 984 544C984 585.974 1018.03 620 1060 620ZM1060 608C1095.35 608 1124 579.346 1124 544C1124 508.654 1095.35 480 1060 480C1024.65 480 996 508.654 996 544C996 579.346 1024.65 608 1060 608ZM1112 544C1112 572.719 1088.72 596 1060 596C1031.28 596 1008 572.719 1008 544C1008 515.281 1031.28 492 1060 492C1088.72 492 1112 515.281 1112 544ZM1100 544C1100 566.091 1082.09 584 1060 584C1037.91 584 1020 566.091 1020 544C1020 521.909 1037.91 504 1060 504C1082.09 504 1100 521.909 1100 544Z" fill="#A8ADFD"/>
<g clip-path="url(#clip1_19543_14666)">
<mask id="mask0_19543_14666" style="mask-type:luminance" maskUnits="userSpaceOnUse" x="1791" y="-96" width="227" height="227">
<path d="M2018 -96H1791V131H2018V-96Z" fill="white"/>
</mask>
<g mask="url(#mask0_19543_14666)">
<path fill-rule="evenodd" clip-rule="evenodd" d="M1915.85 -96C1922.12 -96 1927.2 -90.9184 1927.2 -84.65V-64.704C1927.2 -54.5922 1939.43 -49.5282 1946.58 -56.6784L1960.68 -70.7823C1965.11 -75.2147 1972.3 -75.2147 1976.73 -70.7823L1992.78 -54.7309C1997.21 -50.2985 1997.21 -43.1121 1992.78 -38.6797L1978.68 -24.5757C1971.53 -17.4255 1976.59 -5.2 1986.7 -5.2H2006.65C2012.92 -5.2 2018 -0.118492 2018 6.15V28.85C2018 35.1186 2012.92 40.2 2006.65 40.2H1986.7C1976.59 40.2 1971.53 52.4251 1978.68 59.5756L1992.78 73.6791C1997.21 78.1124 1997.21 85.2981 1992.78 89.7314L1976.73 105.783C1972.3 110.215 1965.11 110.215 1960.68 105.783L1946.58 91.6779C1939.43 84.5285 1927.2 89.5918 1927.2 99.7035V119.65C1927.2 125.919 1922.12 131 1915.85 131H1893.15C1886.88 131 1881.8 125.919 1881.8 119.65V99.7035C1881.8 89.5918 1869.57 84.5285 1862.42 91.6779L1848.32 105.783C1843.89 110.215 1836.7 110.215 1832.27 105.783L1816.22 89.7314C1811.79 85.2981 1811.79 78.1124 1816.22 73.6791L1830.32 59.5756C1837.47 52.4251 1832.41 40.2 1822.3 40.2H1802.35C1796.08 40.2 1791 35.1186 1791 28.85V6.15C1791 -0.118492 1796.08 -5.2 1802.35 -5.2H1822.3C1832.41 -5.2 1837.47 -17.4255 1830.32 -24.5757L1816.22 -38.6797C1811.79 -43.1122 1811.79 -50.2985 1816.22 -54.7309L1832.27 -70.7823C1836.7 -75.2147 1843.89 -75.2147 1848.32 -70.7823L1862.42 -56.6784C1869.57 -49.5282 1881.8 -54.5922 1881.8 -64.704V-84.65C1881.8 -90.9184 1886.88 -96 1893.15 -96H1915.85ZM1904.5 74.25C1935.84 74.25 1961.25 48.8419 1961.25 17.5C1961.25 -13.8421 1935.84 -39.25 1904.5 -39.25C1873.16 -39.25 1847.75 -13.8421 1847.75 17.5C1847.75 48.8419 1873.16 74.25 1904.5 74.25Z" fill="#05728C"/>
</g>
</g>
</g>
<defs>
<clipPath id="clip0_19543_14666">
<rect width="1920" height="672" fill="white"/>
</clipPath>
<clipPath id="clip1_19543_14666">
<rect width="227" height="227" fill="white" transform="translate(1791 -96)"/>
</clipPath>
</defs>
</svg>
