<svg width="260" height="390" viewBox="0 0 260 390" fill="none" xmlns="http://www.w3.org/2000/svg">
<g opacity="0.99" clip-path="url(#clip0_19575_8051)">
<rect width="260" height="390" fill="#F1FBE0"/>
<path d="M183.539 202.871C185.219 202.871 186.828 202.933 188.493 203.087C188.621 203.099 188.75 203.111 188.882 203.123C191.858 203.398 194.806 203.827 197.752 204.329C197.921 204.357 198.091 204.385 198.265 204.415C202.221 205.096 206.189 206.363 209.778 208.155C210.056 208.289 210.056 208.289 210.338 208.425C212.904 209.732 214.908 211.618 216.52 213.986C216.611 213.856 216.701 213.727 216.794 213.593C221.299 207.242 229.93 205.29 237.217 203.997C239.135 203.681 241.066 203.473 242.999 203.281C243.229 203.258 243.459 203.234 243.696 203.21C245.653 203.031 247.511 203.053 249.502 203.053C249.502 213.877 249.502 224.701 249.502 235.852C246.886 236.033 246.886 236.033 244.217 236.217C235.607 237.022 224.446 238.576 218.16 245.145C217.642 245.793 217.161 246.459 216.703 247.15C216.199 246.688 215.847 246.162 215.461 245.601C211.67 240.417 203.881 238.634 197.934 237.492C197.796 237.465 197.657 237.437 197.514 237.409C192.88 236.488 188.269 236.158 183.539 235.852C183.539 224.969 183.539 214.085 183.539 202.871Z" fill="#0BA960"/>
<path d="M125.124 245.533C127.666 247.498 129.076 249.859 129.679 253.004C129.679 253.846 129.679 254.688 129.679 255.555C123.185 255.555 116.691 255.555 110 255.555C110 252.054 110.463 249.385 112.881 246.82C116.2 243.691 121.226 243.026 125.124 245.533Z" fill="#0BA960"/>
<path d="M121.04 351.677C122.844 352.993 124.272 354.669 125.087 356.755C125.176 356.98 125.264 357.206 125.355 357.438C126.044 359.868 125.825 362.584 124.724 364.843C123.206 367.442 121.289 369.172 118.474 370.276C115.876 370.948 112.936 370.871 110.587 369.505C110.296 369.342 110.296 369.342 109.999 369.175C107.332 367.543 105.825 365.259 105.087 362.255C104.823 359.275 105.087 356.786 106.899 354.318C110.57 349.972 116.009 348.568 121.04 351.677Z" fill="#05728C"/>
<path d="M73.25 293.999C73.5122 294.072 73.5122 294.072 73.7797 294.146C77.9465 295.324 81.6638 297.233 85 299.999C85.215 300.176 85.4299 300.353 85.6514 300.535C88.2884 302.804 90.2963 305.479 92 308.499C92.1334 308.735 92.2668 308.97 92.4043 309.213C93.9238 312.067 94.9208 315.161 95.4688 318.343C95.4988 318.515 95.5288 318.687 95.5598 318.864C95.8017 320.446 95.75 321.85 95.75 323.499C75.62 323.499 55.49 323.499 34.75 323.499C34.75 316.075 37.1987 309.185 42 303.499C42.1979 303.26 42.3957 303.021 42.5996 302.775C49.7766 294.472 62.7594 291.024 73.25 293.999Z" fill="#80C416"/>
<path d="M21 347.25C28.1775 347.25 35.355 347.25 42.75 347.25C42.75 354.51 42.75 361.77 42.75 369.25C35.5725 369.25 28.395 369.25 21 369.25C21 361.99 21 354.73 21 347.25Z" fill="#80C416"/>
<path d="M215.609 48C223.006 48 230.402 48 238.022 48C238.022 51.5051 237.264 54.3126 234.786 56.8902C234.651 57.0231 234.517 57.1561 234.378 57.2931C234.204 57.4699 234.204 57.4699 234.026 57.6504C232.16 59.4238 229.469 60.3956 226.918 60.4819C223.481 60.3627 220.655 58.8366 218.343 56.382C216.24 53.8703 215.609 51.2449 215.609 48Z" fill="#80C416"/>
<path d="M38.5 233C38.5825 233 38.665 233 38.75 233C38.7777 233.282 38.8053 233.564 38.8339 233.854C38.9386 234.921 39.0441 235.987 39.1498 237.053C39.195 237.51 39.2401 237.968 39.285 238.426C39.5379 241.003 39.8076 243.573 40.1593 246.139C40.2517 247.016 40.2656 247.869 40.25 248.75C41.5268 247.929 42.7139 247.016 43.9062 246.078C45.4437 244.874 46.9916 243.69 48.5605 242.527C49.5462 241.773 50.4896 240.972 51.4307 240.163C52 239.75 52 239.75 52.75 239.75C52.6108 239.901 52.4716 240.053 52.3281 240.209C51.2039 241.443 50.125 242.697 49.0918 244.008C48.3178 244.979 47.5257 245.934 46.7344 246.891C45.5486 248.326 44.3787 249.769 43.25 251.25C45.0311 251.644 46.7952 251.885 48.6104 252.055C49.148 252.108 49.6856 252.161 50.2231 252.214C51.0625 252.295 51.902 252.376 52.7415 252.456C53.5574 252.534 54.3729 252.614 55.1885 252.695C55.4418 252.719 55.6952 252.742 55.9562 252.766C56.1884 252.789 56.4205 252.812 56.6597 252.836C56.9674 252.866 56.9674 252.866 57.2812 252.896C57.4359 252.93 57.5906 252.965 57.75 253C57.8325 253.165 57.915 253.33 58 253.5C57.7308 253.526 57.4617 253.553 57.1843 253.58C50.1961 254.248 50.1961 254.248 43.25 255.25C44.9209 257.406 46.6279 259.521 48.4019 261.592C48.8812 262.154 49.3569 262.718 49.8327 263.282C50.9583 264.617 52.0928 265.943 53.25 267.25C53.1675 267.415 53.085 267.58 53 267.75C52.8129 267.577 52.8129 267.577 52.6221 267.4C51.2786 266.18 49.8775 265.058 48.4326 263.961C47.5506 263.291 46.6779 262.61 45.8055 261.927C43.9782 260.499 42.1422 259.092 40.25 257.75C40.2568 258.058 40.2635 258.366 40.2705 258.684C40.2696 260.158 40.0977 261.602 39.9219 263.063C39.8886 263.349 39.8553 263.634 39.821 263.928C39.7152 264.833 39.6076 265.737 39.5 266.641C39.4276 267.257 39.3553 267.873 39.2832 268.489C39.1068 269.993 38.929 271.496 38.75 273C38.6675 273 38.585 273 38.5 273C38.2845 271.19 38.0711 269.38 37.8591 267.569C37.7868 266.954 37.7141 266.339 37.6409 265.724C37.5354 264.837 37.4316 263.95 37.3281 263.063C37.2953 262.791 37.2625 262.518 37.2287 262.237C37.0546 260.729 36.9667 259.268 37 257.75C35.0443 258.979 33.2773 260.408 31.4855 261.859C30.7253 262.471 29.9564 263.071 29.1875 263.672C27.876 264.698 26.5835 265.743 25.3018 266.806C24.75 267.25 24.75 267.25 24 267.75C24.3594 266.94 24.8058 266.367 25.4062 265.719C26.1167 264.936 26.7977 264.142 27.4531 263.312C28.2245 262.336 29.0196 261.383 29.8281 260.438C31.2701 258.748 32.6395 257.005 34 255.25C30.8038 254.801 27.5987 254.446 24.3906 254.094C23.8657 254.036 23.3408 253.978 22.8159 253.92C21.544 253.78 20.272 253.64 19 253.5C19 253.335 19 253.17 19 253C19.1437 252.985 19.2874 252.971 19.4354 252.956C20.9444 252.803 22.4533 252.649 23.9622 252.493C24.5236 252.436 25.0852 252.379 25.6467 252.322C26.4586 252.24 27.2703 252.156 28.082 252.072C28.329 252.048 28.576 252.023 28.8305 251.997C30.5669 251.816 32.2811 251.554 34 251.25C33.8276 251.047 33.6552 250.845 33.4775 250.636C32.1824 249.111 30.8965 247.579 29.6348 246.026C29.1276 245.403 28.6141 244.786 28.0996 244.169C27.9415 243.979 27.7833 243.789 27.6204 243.593C27.3057 243.214 26.9903 242.836 26.674 242.459C26.5293 242.285 26.3845 242.11 26.2354 241.931C26.1057 241.775 25.976 241.62 25.8423 241.46C25.4948 240.993 25.2436 240.528 25 240C25.9207 240.409 26.6597 240.977 27.4531 241.594C27.5938 241.703 27.7344 241.812 27.8793 241.924C28.9752 242.777 30.0583 243.646 31.1406 244.516C33.9232 246.858 33.9232 246.858 37 248.75C36.9943 248.534 36.9943 248.534 36.9885 248.314C36.9629 246.557 37.1216 244.851 37.3281 243.107C37.3614 242.817 37.3947 242.526 37.429 242.227C37.5347 241.307 37.6423 240.388 37.75 239.469C37.8224 238.842 37.8947 238.215 37.9668 237.588C38.143 236.058 38.3209 234.529 38.5 233Z" fill="#05728C"/>
<g clip-path="url(#clip1_19575_8051)">
<rect width="107" height="107" transform="translate(260 390) rotate(180)" fill="#80C416"/>
<path fill-rule="evenodd" clip-rule="evenodd" d="M250.642 359.094C263.119 346.616 263.119 326.387 250.642 313.909L229.092 292.359C216.615 279.882 196.385 279.882 183.908 292.359L162.358 313.909C149.881 326.387 149.881 346.616 162.358 359.094L183.908 380.643C196.385 393.121 216.615 393.121 229.092 380.643L250.642 359.094ZM220.919 350.919C228.881 342.956 228.881 330.046 220.919 322.083C212.956 314.121 200.046 314.121 192.083 322.083C184.12 330.046 184.12 342.956 192.083 350.919C200.046 358.882 212.956 358.882 220.919 350.919Z" fill="#E7FDA8"/>
<rect x="206.562" y="283.063" width="53.5" height="107" fill="white"/>
<rect width="53.4679" height="107.092" transform="translate(260.026 390.06) rotate(180)" fill="#E7FDA8"/>
<path d="M227.205 298.636L244.344 315.774L227.205 332.913L210.066 315.774L227.205 298.636Z" fill="#406C01"/>
<path d="M206.557 282.968H218.694V307.242H206.557V282.968Z" fill="#406C01"/>
<path d="M235.786 324.34H260.024V348.578H235.786V324.34Z" fill="#406C01"/>
<path d="M227.24 340.12L210.102 357.258L227.24 374.397L244.379 357.258L227.24 340.12Z" fill="#406C01"/>
<path d="M218.693 365.787H206.556V390.061H218.693V365.787Z" fill="#406C01"/>
</g>
<circle cx="216.337" cy="205.239" r="25.6926" stroke="#05728C" stroke-width="1.0933" stroke-dasharray="2.19 2.92"/>
</g>
<defs>
<clipPath id="clip0_19575_8051">
<rect width="260" height="390" fill="white"/>
</clipPath>
<clipPath id="clip1_19575_8051">
<rect width="107" height="107" fill="white" transform="translate(260 390) rotate(180)"/>
</clipPath>
</defs>
</svg>
