<svg width="1920" height="672" viewBox="0 0 1920 672" fill="none" xmlns="http://www.w3.org/2000/svg">
<g clip-path="url(#clip0_19575_8016)">
<rect width="1920" height="672" fill="#F1FBE0"/>
<path d="M1655.4 118.438C1660.81 118.438 1665.99 118.636 1671.35 119.134C1671.76 119.172 1672.17 119.209 1672.6 119.248C1682.18 120.134 1691.66 121.515 1701.14 123.129C1701.69 123.22 1702.23 123.311 1702.8 123.405C1715.53 125.598 1728.3 129.675 1739.85 135.444C1740.74 135.874 1740.74 135.874 1741.65 136.312C1749.91 140.518 1756.36 146.588 1761.55 154.21C1761.84 153.792 1762.13 153.374 1762.43 152.943C1776.93 132.503 1804.7 126.221 1828.16 122.06C1834.33 121.045 1840.54 120.374 1846.76 119.757C1847.5 119.682 1848.24 119.607 1849 119.529C1855.31 118.953 1861.28 119.024 1867.69 119.024C1867.69 153.858 1867.69 188.692 1867.69 224.582C1859.27 225.162 1859.27 225.162 1850.68 225.754C1822.97 228.344 1787.05 233.347 1766.82 254.489C1765.16 256.575 1763.61 258.715 1762.13 260.94C1760.51 259.455 1759.38 257.762 1758.14 255.956C1745.94 239.272 1720.87 233.534 1701.73 229.859C1701.28 229.77 1700.84 229.681 1700.38 229.59C1685.46 226.627 1670.62 225.564 1655.4 224.582C1655.4 189.554 1655.4 154.526 1655.4 118.438Z" fill="#0BA960"/>
<path d="M1587.54 268.347C1597.76 276.246 1603.43 285.738 1605.85 298.381C1605.85 301.765 1605.85 305.15 1605.85 308.636C1579.75 308.636 1553.64 308.636 1526.74 308.636C1526.74 294.561 1528.6 283.833 1538.32 273.52C1551.66 260.943 1571.87 258.266 1587.54 268.347Z" fill="#0BA960"/>
<path d="M1518.59 585.691C1523.88 589.548 1528.06 594.457 1530.45 600.571C1530.71 601.231 1530.97 601.891 1531.24 602.571C1533.25 609.691 1532.62 617.651 1529.39 624.27C1524.94 631.884 1519.32 636.954 1511.07 640.189C1503.46 642.158 1494.85 641.932 1487.96 637.931C1487.11 637.452 1487.11 637.452 1486.24 636.964C1478.43 632.181 1474.01 625.49 1471.85 616.687C1471.08 607.955 1471.85 600.662 1477.16 593.429C1487.91 580.695 1503.85 576.582 1518.59 585.691Z" fill="#05728C"/>
<path d="M1314.82 482.775C1315.59 482.988 1315.59 482.988 1316.38 483.204C1328.58 486.659 1339.48 492.25 1349.25 500.356C1349.88 500.875 1350.51 501.393 1351.16 501.927C1358.89 508.576 1364.77 516.413 1369.76 525.263C1370.15 525.953 1370.55 526.643 1370.95 527.354C1375.4 535.717 1378.32 544.784 1379.93 554.106C1380.02 554.61 1380.1 555.114 1380.19 555.633C1380.9 560.268 1380.75 564.384 1380.75 569.215C1321.77 569.215 1262.78 569.215 1202.01 569.215C1202.01 547.461 1209.19 527.272 1223.26 510.612C1223.84 509.912 1224.42 509.212 1225.01 508.491C1246.04 484.161 1284.08 474.059 1314.82 482.775Z" fill="#80C416"/>
<path d="M1440.96 390.848C1461.99 390.848 1483.02 390.848 1504.69 390.848C1504.69 412.121 1504.69 433.394 1504.69 455.311C1483.66 455.311 1462.63 455.311 1440.96 455.311C1440.96 434.038 1440.96 412.765 1440.96 390.848Z" fill="#80C416"/>
<path d="M1050.37 461.305C1050.75 461.305 1051.14 461.305 1051.53 461.305C1051.66 462.644 1051.79 463.983 1051.92 465.362C1052.4 470.424 1052.89 475.486 1053.38 480.548C1053.59 482.722 1053.8 484.895 1054.01 487.068C1055.18 499.305 1056.43 511.509 1058.06 523.691C1058.49 527.856 1058.55 531.906 1058.48 536.091C1064.4 532.194 1069.9 527.859 1075.43 523.404C1082.55 517.687 1089.72 512.064 1097 506.544C1101.56 502.964 1105.94 499.156 1110.3 495.317C1112.94 493.356 1112.94 493.356 1116.41 493.356C1115.77 494.075 1115.12 494.794 1114.46 495.535C1109.25 501.396 1104.25 507.347 1099.46 513.573C1095.87 518.183 1092.2 522.719 1088.53 527.262C1083.04 534.076 1077.62 540.931 1072.38 547.962C1080.64 549.831 1088.82 550.979 1097.23 551.783C1099.72 552.034 1102.21 552.286 1104.7 552.538C1108.59 552.925 1112.48 553.309 1116.37 553.687C1120.15 554.056 1123.93 554.44 1127.71 554.824C1128.89 554.935 1130.06 555.045 1131.27 555.158C1132.35 555.269 1133.42 555.38 1134.53 555.495C1135.96 555.634 1135.96 555.634 1137.41 555.776C1138.13 555.94 1138.85 556.103 1139.58 556.271C1139.97 557.055 1140.35 557.838 1140.74 558.645C1139.5 558.771 1138.25 558.896 1136.96 559.025C1104.58 562.196 1104.58 562.196 1072.38 566.955C1080.13 577.191 1088.04 587.233 1096.26 597.07C1098.48 599.736 1100.69 602.416 1102.89 605.096C1108.11 611.432 1113.37 617.728 1118.73 623.935C1118.35 624.718 1117.96 625.502 1117.57 626.309C1116.7 625.487 1116.7 625.487 1115.82 624.649C1109.59 618.854 1103.1 613.526 1096.4 608.317C1092.32 605.137 1088.27 601.902 1084.23 598.662C1075.76 591.878 1067.25 585.198 1058.48 578.826C1058.51 580.289 1058.54 581.751 1058.58 583.259C1058.57 590.258 1057.78 597.114 1056.96 604.056C1056.81 605.411 1056.65 606.766 1056.49 608.162C1056 612.456 1055.5 616.749 1055.01 621.041C1054.67 623.967 1054.34 626.892 1054 629.817C1053.18 636.958 1052.36 644.098 1051.53 651.238C1051.15 651.238 1050.77 651.238 1050.37 651.238C1049.37 642.643 1048.38 634.048 1047.4 625.452C1047.07 622.53 1046.73 619.609 1046.39 616.689C1045.9 612.478 1045.42 608.267 1044.94 604.056C1044.79 602.761 1044.64 601.466 1044.48 600.131C1043.67 592.972 1043.27 586.033 1043.42 578.826C1034.36 584.66 1026.17 591.449 1017.86 598.338C1014.34 601.243 1010.78 604.093 1007.21 606.945C1001.14 611.815 995.145 616.779 989.205 621.825C986.648 623.935 986.648 623.935 983.172 626.309C984.838 622.465 986.907 619.742 989.689 616.664C992.982 612.946 996.138 609.178 999.175 605.238C1002.75 600.602 1006.44 596.077 1010.18 591.587C1016.87 583.566 1023.21 575.289 1029.52 566.955C1014.7 564.823 999.85 563.136 984.982 561.465C982.55 561.19 980.117 560.915 977.685 560.639C971.79 559.973 965.895 559.308 960 558.645C960 557.862 960 557.078 960 556.271C960.666 556.202 961.332 556.133 962.018 556.062C969.011 555.335 976.004 554.602 982.997 553.866C985.599 553.593 988.201 553.321 990.804 553.051C994.566 552.66 998.328 552.264 1002.09 551.866C1003.23 551.748 1004.38 551.631 1005.56 551.51C1013.61 550.651 1021.55 549.407 1029.52 547.962C1028.72 546.999 1027.92 546.037 1027.1 545.045C1021.09 537.803 1015.13 530.532 1009.29 523.158C1006.94 520.2 1004.56 517.268 1002.17 514.339C1001.44 513.435 1000.71 512.532 999.951 511.601C998.492 509.805 997.03 508.011 995.565 506.22C994.894 505.392 994.223 504.564 993.532 503.71C992.931 502.973 992.33 502.235 991.71 501.476C990.1 499.258 988.936 497.048 987.807 494.543C992.073 496.484 995.498 499.182 999.175 502.111C999.827 502.629 1000.48 503.146 1001.15 503.68C1006.23 507.73 1011.25 511.854 1016.26 515.985C1029.16 527.109 1029.16 527.109 1043.42 536.091C1043.39 535.065 1043.39 535.065 1043.37 534.019C1043.25 525.676 1043.98 517.576 1044.94 509.298C1045.09 507.918 1045.25 506.539 1045.41 505.117C1045.9 500.751 1046.4 496.386 1046.9 492.02C1047.23 489.044 1047.57 486.067 1047.9 483.089C1048.72 475.827 1049.54 468.566 1050.37 461.305Z" fill="#05728C"/>
<g clip-path="url(#clip1_19575_8016)">
<rect width="313.528" height="313.528" transform="translate(1919.9 672) rotate(180)" fill="#80C416"/>
<path fill-rule="evenodd" clip-rule="evenodd" d="M1892.48 581.435C1929.04 544.874 1929.04 485.598 1892.48 449.037L1829.33 385.893C1792.77 349.332 1733.5 349.332 1696.94 385.893L1633.79 449.037C1597.23 485.598 1597.23 544.874 1633.79 581.435L1696.94 644.579C1733.5 681.14 1792.77 681.14 1829.33 644.579L1892.48 581.435ZM1805.38 557.482C1828.72 534.15 1828.72 496.321 1805.38 472.989C1782.05 449.657 1744.22 449.657 1720.89 472.989C1697.56 496.321 1697.56 534.15 1720.89 557.482C1744.22 580.815 1782.05 580.815 1805.38 557.482Z" fill="#E7FDA8"/>
<rect x="1763.32" y="358.654" width="156.764" height="313.528" fill="white"/>
<rect width="156.67" height="313.798" transform="translate(1919.98 672.168) rotate(180)" fill="#E7FDA8"/>
<path d="M1823.81 404.276L1874.03 454.496L1823.81 504.715L1773.59 454.496L1823.81 404.276Z" fill="#406C01"/>
<path d="M1763.32 358.377H1798.88V429.504H1763.32V358.377Z" fill="#406C01"/>
<path d="M1848.96 479.6H1919.98V550.621H1848.96V479.6Z" fill="#406C01"/>
<path d="M1823.92 525.834L1773.7 576.054L1823.92 626.273L1874.14 576.054L1823.92 525.834Z" fill="#406C01"/>
<path d="M1798.86 601.049H1763.3V672.177H1798.86V601.049Z" fill="#406C01"/>
</g>
<circle cx="1760.96" cy="126.059" r="82.6868" stroke="#05728C" stroke-width="3.51859" stroke-dasharray="7.04 9.38"/>
</g>
<defs>
<clipPath id="clip0_19575_8016">
<rect width="1920" height="672" fill="white"/>
</clipPath>
<clipPath id="clip1_19575_8016">
<rect width="313.528" height="313.528" fill="white" transform="translate(1919.9 672) rotate(180)"/>
</clipPath>
</defs>
</svg>
