<svg width="320" height="226" viewBox="0 0 320 226" fill="none" xmlns="http://www.w3.org/2000/svg">
<g clip-path="url(#clip0_19575_8076)">
<rect width="320" height="225.5" fill="#F1FBE0"/>
<path d="M259.594 30.6445C260.836 30.6445 262.025 30.6902 263.255 30.8045C263.35 30.8131 263.445 30.8218 263.543 30.8307C265.743 31.0342 267.921 31.3513 270.099 31.722C270.224 31.7429 270.349 31.7639 270.478 31.7855C273.402 32.289 276.335 33.2255 278.988 34.5503C279.193 34.649 279.193 34.649 279.402 34.7497C281.299 35.7156 282.78 37.1098 283.971 38.8602C284.038 38.7641 284.105 38.6681 284.174 38.5692C287.503 33.8749 293.883 32.4321 299.269 31.4766C300.686 31.2433 302.113 31.0892 303.542 30.9476C303.712 30.9303 303.882 30.9131 304.057 30.8953C305.504 30.763 306.878 30.7792 308.349 30.7792C308.349 38.7793 308.349 46.7795 308.349 55.022C306.415 55.1554 306.415 55.1554 304.443 55.2914C298.079 55.8862 289.829 57.0352 285.183 61.8909C284.8 62.3698 284.445 62.8614 284.106 63.3724C283.734 63.0312 283.474 62.6425 283.188 62.2276C280.386 58.396 274.629 57.0781 270.234 56.2342C270.131 56.2137 270.029 56.1933 269.923 56.1722C266.498 55.4918 263.09 55.2476 259.594 55.022C259.594 46.9775 259.594 38.9329 259.594 30.6445Z" fill="#0BA960"/>
<path d="M244.007 133.072C246.354 134.886 247.656 137.066 248.213 139.969C248.213 140.747 248.213 141.524 248.213 142.325C242.217 142.325 236.221 142.325 230.043 142.325C230.043 139.092 230.47 136.628 232.703 134.26C235.767 131.371 240.407 130.757 244.007 133.072Z" fill="#0BA960"/>
<path d="M228.173 205.957C229.387 206.843 230.348 207.97 230.897 209.374C230.956 209.526 231.016 209.677 231.077 209.833C231.54 211.469 231.393 213.297 230.652 214.817C229.631 216.566 228.341 217.73 226.446 218.473C224.698 218.925 222.72 218.873 221.139 217.954C220.943 217.844 220.943 217.844 220.743 217.732C218.948 216.634 217.934 215.097 217.437 213.075C217.26 211.07 217.437 209.395 218.657 207.734C221.127 204.809 224.787 203.865 228.173 205.957Z" fill="#05728C"/>
<path d="M130.825 171.008C131.076 171.077 131.076 171.077 131.332 171.148C135.317 172.276 138.873 174.101 142.064 176.747C142.27 176.916 142.475 177.085 142.687 177.26C145.209 179.43 147.13 181.988 148.759 184.877C148.887 185.102 149.015 185.328 149.146 185.56C150.6 188.29 151.553 191.249 152.077 194.293C152.106 194.457 152.135 194.622 152.164 194.791C152.396 196.304 152.346 197.647 152.346 199.225C133.092 199.225 113.838 199.225 94 199.225C94 192.123 96.3422 185.533 100.935 180.095C101.124 179.866 101.313 179.638 101.508 179.402C108.373 171.46 120.791 168.163 130.825 171.008Z" fill="#80C416"/>
<path d="M210.344 161.207C215.174 161.207 220.004 161.207 224.981 161.207C224.981 166.093 224.981 170.978 224.981 176.012C220.15 176.012 215.32 176.012 210.344 176.012C210.344 171.126 210.344 166.241 210.344 161.207Z" fill="#80C416"/>
<path d="M36.5 162C36.6248 162 36.7496 162 36.8782 162C36.9201 162.437 36.9619 162.874 37.0051 163.324C37.1636 164.977 37.3231 166.629 37.483 168.282C37.5515 168.991 37.6197 169.701 37.6876 170.41C38.0702 174.404 38.4782 178.388 39.0102 182.365C39.1499 183.724 39.1711 185.047 39.1474 186.412C41.0789 185.14 42.8749 183.725 44.6787 182.271C47.0046 180.405 49.3462 178.569 51.7198 176.767C53.2108 175.599 54.638 174.356 56.0618 173.103C56.9231 172.462 56.9231 172.462 58.0577 172.462C57.8471 172.697 57.6365 172.932 57.4195 173.174C55.7187 175.087 54.0865 177.03 52.5235 179.062C51.3525 180.567 50.1543 182.048 48.9571 183.53C47.1632 185.755 45.3935 187.992 43.6859 190.287C46.3803 190.898 49.0492 191.272 51.7951 191.535C52.6084 191.617 53.4217 191.699 54.235 191.781C55.5048 191.908 56.7748 192.033 58.0449 192.156C59.2791 192.277 60.5129 192.402 61.7467 192.528C62.1299 192.564 62.5132 192.6 62.9081 192.637C63.2593 192.673 63.6105 192.709 63.9724 192.746C64.4378 192.792 64.4378 192.792 64.9126 192.838C65.1466 192.892 65.3807 192.945 65.6218 193C65.7466 193.256 65.8714 193.511 66 193.775C65.5928 193.816 65.1856 193.857 64.766 193.899C54.194 194.934 54.194 194.934 43.6859 196.487C46.2137 199.829 48.796 203.107 51.4797 206.318C52.2049 207.188 52.9245 208.063 53.6443 208.938C55.3471 211.006 57.0635 213.061 58.8141 215.087C58.6893 215.343 58.5645 215.599 58.4359 215.862C58.1529 215.594 58.1529 215.594 57.8642 215.321C55.8318 213.429 53.7121 211.69 51.5263 209.989C50.1919 208.951 48.8717 207.895 47.5519 206.838C44.7876 204.623 42.0101 202.443 39.1474 200.362C39.1577 200.84 39.1679 201.318 39.1785 201.809C39.1772 204.094 38.9171 206.332 38.651 208.598C38.6007 209.041 38.5503 209.483 38.4984 209.939C38.3384 211.34 38.1756 212.742 38.0128 214.143C37.9033 215.098 37.794 216.053 37.6848 217.008C37.418 219.339 37.149 221.669 36.8782 224C36.7534 224 36.6286 224 36.5 224C36.1741 221.195 35.8512 218.389 35.5305 215.583C35.4211 214.629 35.3111 213.676 35.2003 212.722C35.0407 211.348 34.8837 209.973 34.7272 208.598C34.6775 208.176 34.6279 207.753 34.5767 207.317C34.3134 204.98 34.1803 202.715 34.2308 200.362C31.2722 202.267 28.599 204.483 25.8883 206.732C24.7383 207.68 23.5751 208.611 22.4119 209.541C20.4278 211.131 18.4725 212.752 16.5334 214.399C15.6987 215.087 15.6987 215.087 14.5641 215.862C15.1078 214.608 15.7832 213.719 16.6915 212.714C17.7662 211.5 18.7966 210.27 19.7881 208.984C20.9551 207.471 22.1579 205.994 23.381 204.528C25.5625 201.91 27.6341 199.208 29.6923 196.487C24.8571 195.792 20.0083 195.241 15.155 194.695C14.361 194.606 13.5669 194.516 12.7728 194.426C10.8486 194.208 8.92433 193.991 7 193.775C7 193.519 7 193.263 7 193C7.21735 192.977 7.43471 192.955 7.65865 192.932C9.94157 192.694 12.2243 192.455 14.5069 192.215C15.3563 192.126 16.2058 192.037 17.0553 191.949C18.2835 191.821 19.5115 191.692 20.7395 191.562C21.1132 191.524 21.4868 191.485 21.8718 191.446C24.4987 191.166 27.0919 190.759 29.6923 190.287C29.4315 189.973 29.1707 189.659 28.9019 189.335C26.9426 186.971 24.9972 184.598 23.0885 182.191C22.3212 181.225 21.5445 180.268 20.7661 179.312C20.5269 179.017 20.2876 178.722 20.0412 178.418C19.5651 177.832 19.0878 177.246 18.6094 176.662C18.3904 176.391 18.1714 176.121 17.9458 175.843C17.7496 175.602 17.5534 175.361 17.3512 175.113C16.8255 174.389 16.4455 173.668 16.0769 172.85C17.4698 173.484 18.5877 174.364 19.7881 175.32C20.0008 175.489 20.2136 175.658 20.4328 175.833C22.0907 177.155 23.7292 178.501 25.3666 179.849C29.5761 183.481 29.5761 183.481 34.2308 186.412C34.2221 186.078 34.2221 186.078 34.2133 185.736C34.1747 183.013 34.4147 180.369 34.7272 177.667C34.7775 177.216 34.8279 176.766 34.8798 176.302C35.0397 174.876 35.2025 173.452 35.3654 172.027C35.4749 171.055 35.5842 170.083 35.6934 169.111C35.96 166.741 36.2291 164.37 36.5 162Z" fill="#05728C"/>
<g clip-path="url(#clip1_19575_8076)">
<rect width="72.0063" height="72.0063" transform="translate(320.34 225.777) rotate(180)" fill="#80C416"/>
<path fill-rule="evenodd" clip-rule="evenodd" d="M314.042 204.978C322.439 196.581 322.439 182.967 314.042 174.571L299.54 160.069C291.144 151.672 277.53 151.672 269.133 160.069L254.631 174.571C246.234 182.967 246.234 196.581 254.631 204.978L269.133 219.48C277.53 227.877 291.144 227.877 299.54 219.48L314.042 204.978ZM294.04 199.477C299.398 194.118 299.398 185.43 294.04 180.072C288.681 174.713 279.993 174.713 274.635 180.072C269.276 185.43 269.276 194.118 274.635 199.477C279.993 204.835 288.681 204.835 294.04 199.477Z" fill="#E7FDA8"/>
<rect x="284.379" y="153.813" width="36.0031" height="72.0063" fill="white"/>
<rect width="35.9816" height="72.0682" transform="translate(320.359 225.816) rotate(180)" fill="#E7FDA8"/>
<path d="M298.273 164.29L309.807 175.824L298.273 187.357L286.739 175.824L298.273 164.29Z" fill="#406C01"/>
<path d="M284.379 153.75H292.547V170.085H284.379V153.75Z" fill="#406C01"/>
<path d="M304.049 181.59H320.36V197.901H304.049V181.59Z" fill="#406C01"/>
<path d="M298.298 192.207L286.765 203.741L298.298 215.274L309.832 203.741L298.298 192.207Z" fill="#406C01"/>
<path d="M292.545 209.482H284.377V225.817H292.545V209.482Z" fill="#406C01"/>
</g>
<circle cx="283.836" cy="32.3943" r="18.9902" stroke="#05728C" stroke-width="0.808095" stroke-dasharray="1.62 2.15"/>
</g>
<defs>
<clipPath id="clip0_19575_8076">
<rect width="320" height="225.5" fill="white"/>
</clipPath>
<clipPath id="clip1_19575_8076">
<rect width="72.0063" height="72.0063" fill="white" transform="translate(320.34 225.777) rotate(180)"/>
</clipPath>
</defs>
</svg>
