<svg width="1920" height="672" viewBox="0 0 1920 672" fill="none" xmlns="http://www.w3.org/2000/svg">
<g clip-path="url(#clip0_19428_22575)">
<rect width="1920" height="672" fill="#ECC98E"/>
<path d="M1583.73 370.086C1618.41 370.086 1653.1 370.086 1688.84 370.086C1689.14 384.639 1689.43 399.192 1689.74 414.186C1696.01 443.084 1704.59 464.763 1724.77 486.186C1725.39 486.86 1726 487.534 1726.64 488.229C1746.13 508.84 1773.35 518 1800.24 523.986C1800.24 502.899 1800.24 481.812 1800.24 460.086C1839.67 460.086 1879.1 460.086 1919.73 460.086C1919.73 501.666 1919.73 543.246 1919.73 586.086C1808.85 586.086 1697.97 586.086 1583.73 586.086C1583.73 514.806 1583.73 443.526 1583.73 370.086Z" fill="#05728C"/>
<path d="M1583.73 313.086C1694.61 313.086 1805.49 313.086 1919.73 313.086C1919.73 361.448 1919.73 409.811 1919.73 459.639C1880.3 459.639 1840.87 459.639 1800.24 459.639C1800.24 480.577 1800.24 501.514 1800.24 523.086C1790.11 522.078 1790.11 522.078 1786.76 521.152C1785.63 520.842 1785.63 520.842 1784.49 520.526C1783.72 520.302 1782.95 520.078 1782.16 519.847C1781.34 519.609 1780.52 519.372 1779.68 519.127C1747.49 509.491 1720.12 488.433 1703.78 459.086C1688.47 430.623 1688.84 403.581 1688.84 370.277C1654.15 370.277 1619.46 370.277 1583.73 370.277C1583.73 351.404 1583.73 332.531 1583.73 313.086Z" fill="#EECB8F"/>
<path d="M1735.73 128.086H1583.73V230.155V231.066V313.086H1735.73V128.086Z" fill="#D7C3F9"/>
<path d="M1583.73 370.086C1618.38 370.086 1653.03 370.086 1688.73 370.086C1688.73 441.366 1688.73 512.646 1688.73 586.086C1654.08 586.086 1619.43 586.086 1583.73 586.086C1583.73 514.806 1583.73 443.526 1583.73 370.086Z" fill="#05728C"/>
<path d="M1349.29 54.0994C1351.1 54.0689 1352.91 54.0468 1354.71 54.0293C1355.22 54.0199 1355.73 54.0105 1356.25 54.0008C1360.79 53.968 1364.37 54.9192 1368.44 56.9696C1369.46 57.4677 1369.46 57.4677 1370.49 57.9759C1385.92 66.3127 1394.83 81.1927 1400.34 97.5228C1401.55 101.653 1402.42 105.835 1403.2 110.069C1403.44 109.191 1403.68 108.313 1403.93 107.409C1409.27 88.4273 1416.22 70.5229 1433.7 59.8398C1440.01 56.2961 1445.46 53.8781 1452.8 54.0097C1453.29 54.0161 1453.77 54.0226 1454.27 54.0293C1455.45 54.046 1456.63 54.0717 1457.81 54.0994C1457.88 62.4522 1457.92 70.8042 1457.9 79.1573C1457.9 83.037 1457.9 86.9156 1457.94 90.7951C1457.98 94.5456 1457.98 98.2946 1457.95 102.045C1457.95 103.469 1457.96 104.894 1457.98 106.318C1458.11 114.835 1457.63 120.389 1451.84 126.833C1450.93 127.77 1450.93 127.77 1450.01 128.725C1448.95 130.031 1447.9 131.345 1446.86 132.672C1444.85 135.141 1442.82 137.583 1440.76 140.014C1436.96 144.52 1433.33 149.131 1429.8 153.856C1428.57 155.489 1427.33 157.111 1426.09 158.734C1420.17 166.495 1414.53 174.387 1409.14 182.527C1407.67 184.713 1406.15 186.857 1404.62 189C1401.68 187.917 1400.36 185.827 1398.68 183.304C1398.05 182.389 1397.42 181.474 1396.79 180.56C1396.45 180.069 1396.11 179.577 1395.76 179.071C1387.17 166.695 1377.99 154.714 1368.44 143.076C1367.26 141.622 1366.07 140.168 1364.88 138.712C1364.08 137.727 1363.27 136.743 1362.47 135.759C1361.65 134.753 1360.84 133.737 1360.04 132.712C1358.85 131.278 1357.66 130.018 1356.33 128.718C1349.87 122.037 1348.94 116.243 1349 107.062C1349.04 105.433 1349.08 103.804 1349.12 102.176C1349.13 100.493 1349.13 98.8108 1349.13 97.1284C1349.14 93.7411 1349.17 90.3554 1349.23 86.9686C1349.3 82.4349 1349.3 77.9038 1349.28 73.3697C1349.25 66.9458 1349.26 60.5232 1349.29 54.0994Z" fill="#7C9E75"/>
<path d="M1688.73 370.086C1725.69 370.086 1762.65 370.086 1800.73 370.086C1800.73 420.576 1800.73 471.066 1800.73 523.086C1790.54 522.077 1790.54 522.077 1787.17 521.15C1786.04 520.839 1786.04 520.839 1784.89 520.523C1784.12 520.298 1783.35 520.074 1782.55 519.843C1781.73 519.605 1780.9 519.367 1780.05 519.122C1747.69 509.474 1720.18 488.39 1703.75 459.006C1688.36 430.507 1688.73 403.431 1688.73 370.086Z" fill="#D96043"/>
<path d="M1821.73 130.086V-2.64241C1775.35 -2.67309 1778.1 -3.23753 1731.73 -2.64313V128.999C1737.61 128.99 1743 128.989 1748.76 128.999L1750.85 128.99C1753.28 128.99 1755.7 128.989 1758.12 128.983C1759.71 128.978 1761.3 128.975 1762.89 128.974C1765.16 128.973 1765.19 128.973 1769.9 128.969L1770.09 128.969L1782.12 128.944C1795.14 128.925 1809.09 130.104 1821.73 130.086Z" fill="#8D5AC4"/>
<path d="M1688.73 414.086C1689.02 414.086 1689.32 414.086 1689.63 414.086C1689.74 414.638 1689.85 415.19 1689.96 415.759C1695.42 443.177 1705.41 465.585 1724.86 486.128C1725.47 486.802 1726.09 487.477 1726.73 488.172C1746.33 508.795 1773.69 517.96 1800.73 523.95C1800.73 544.455 1800.73 564.96 1800.73 586.086C1763.77 586.086 1726.81 586.086 1688.73 586.086C1688.73 529.326 1688.73 472.566 1688.73 414.086Z" fill="#18465E"/>
<path d="M1583.88 -3.84583C1632.69 -3.84583 1681.49 -3.84583 1731.78 -3.84583C1731.78 39.9332 1731.78 83.7122 1731.78 128.818C1682.97 128.818 1634.17 128.818 1583.88 128.818C1583.88 85.0388 1583.88 41.2598 1583.88 -3.84583Z" fill="#17465E"/>
<path d="M1822.32 128.825C1854.26 128.825 1886.21 128.825 1919.12 128.825C1919.12 189.465 1919.12 250.105 1919.12 312.582C1887.18 312.582 1855.23 312.582 1822.32 312.582C1822.32 251.943 1822.32 191.303 1822.32 128.825Z" fill="#7C9E75"/>
<path d="M1732.68 128.825C1762.26 128.825 1791.84 128.825 1822.32 128.825C1822.32 189.465 1822.32 250.105 1822.32 312.582C1792.73 312.582 1763.15 312.582 1732.68 312.582C1732.68 251.943 1732.68 191.303 1732.68 128.825Z" fill="#18465E"/>
<path d="M1822.32 -3.84583C1854.26 -3.84583 1886.21 -3.84583 1919.12 -3.84583C1919.12 39.9332 1919.12 83.7122 1919.12 128.818C1887.18 128.818 1855.23 128.818 1822.32 128.818C1822.32 85.0388 1822.32 41.2598 1822.32 -3.84583Z" fill="#17465E"/>
<path d="M1705.73 463.086C1708.4 465.638 1710.52 468.28 1712.63 471.321C1716.28 476.437 1720.27 481.079 1724.57 485.647C1725.24 486.355 1725.91 487.064 1726.6 487.794C1731 492.344 1735.64 496.326 1740.73 500.086C1737.39 500.086 1736.65 499.233 1734.11 497.153C1733.04 496.289 1733.04 496.289 1731.96 495.408C1731.3 494.867 1730.64 494.326 1729.96 493.769C1729.05 493.08 1728.14 492.392 1727.21 491.682C1726.64 491.179 1726.06 490.677 1725.47 490.159C1725.47 489.563 1725.47 488.968 1725.47 488.354C1724.93 488.115 1724.39 487.876 1723.84 487.629C1721.81 486.509 1720.75 485.497 1719.29 483.712C1718.83 483.15 1718.37 482.589 1717.9 482.01C1715.64 479.143 1713.44 476.242 1711.28 473.295C1710.84 472.708 1710.4 472.121 1709.95 471.516C1709.53 470.946 1709.11 470.375 1708.68 469.787C1708.31 469.279 1707.93 468.771 1707.55 468.248C1706.53 466.546 1706.11 465.022 1705.73 463.086Z" fill="#144069"/>
<path d="M1760.73 512.086C1763.57 512.696 1766.07 513.664 1768.73 515.086C1768.46 516.076 1768.2 517.066 1767.93 518.086C1766.38 517.711 1766.38 517.711 1764.73 517.086C1764.46 516.426 1764.2 515.766 1763.93 515.086C1762.31 513.952 1762.31 513.952 1760.73 513.086C1760.73 512.756 1760.73 512.426 1760.73 512.086Z" fill="#114268"/>
<path d="M1547.73 529.086C1547.73 531.711 1547.73 531.711 1546.23 534.062C1545.73 534.73 1545.24 535.398 1544.73 536.086C1544.88 533.57 1544.88 533.57 1545.33 530.836C1546.56 529.633 1546.56 529.633 1547.73 529.086Z" fill="#80C416"/>
<rect width="135" height="138" transform="translate(1448.73 232.086)" fill="#406C01"/>
<path d="M1516.23 236.984C1520.06 236.984 1523.16 240.087 1523.16 243.914V260.928L1528.87 244.901C1530.15 241.295 1534.11 239.413 1537.72 240.697C1541.33 241.98 1543.21 245.944 1541.92 249.55L1535.94 266.353L1547.31 252.608C1549.75 249.658 1554.11 249.244 1557.06 251.683C1560.01 254.121 1560.43 258.49 1557.99 261.44L1546.88 274.869L1561.88 265.991C1565.17 264.041 1569.42 265.13 1571.37 268.423C1573.32 271.716 1572.23 275.967 1568.94 277.917L1553.33 287.157L1571.18 283.85C1574.94 283.153 1578.56 285.638 1579.25 289.401C1579.95 293.164 1577.47 296.78 1573.7 297.478L1555.47 300.858L1573.74 304.027C1577.51 304.681 1580.04 308.268 1579.39 312.039C1578.73 315.81 1575.14 318.336 1571.37 317.682L1553.29 314.546L1569.17 323.741C1572.48 325.659 1573.61 329.899 1571.69 333.211C1569.77 336.523 1565.53 337.653 1562.22 335.735L1545.84 326.25L1557.85 340.878C1560.28 343.837 1559.85 348.203 1556.89 350.632C1553.94 353.06 1549.57 352.631 1547.14 349.672L1536.03 336.137L1541.89 352.638C1543.18 356.244 1541.29 360.207 1537.68 361.488C1534.08 362.77 1530.12 360.885 1528.83 357.279L1523.16 341.317V358.258C1523.16 362.085 1520.06 365.188 1516.23 365.188C1512.4 365.188 1509.3 362.085 1509.3 358.258V341.181L1503.57 357.27C1502.29 360.876 1498.33 362.758 1494.72 361.474C1491.12 360.19 1489.23 356.227 1490.52 352.622L1496.51 335.799L1485.13 349.562C1482.69 352.511 1478.32 352.926 1475.37 350.487C1472.42 348.048 1472.01 343.68 1474.44 340.73L1485.55 327.296L1470.55 336.179C1467.26 338.129 1463.01 337.041 1461.06 333.748C1459.11 330.454 1460.2 326.204 1463.49 324.254L1479.08 315.018L1461.27 318.32C1457.51 319.018 1453.9 316.533 1453.2 312.769C1452.5 309.006 1454.98 305.39 1458.75 304.692L1476.98 301.312L1458.71 298.144C1454.94 297.49 1452.41 293.903 1453.07 290.132C1453.72 286.361 1457.31 283.834 1461.08 284.488L1479.14 287.619L1463.27 278.432C1459.96 276.514 1458.83 272.274 1460.75 268.962C1462.67 265.65 1466.91 264.52 1470.22 266.438L1486.6 275.926L1474.59 261.294C1472.16 258.335 1472.59 253.969 1475.55 251.54C1478.51 249.112 1482.87 249.541 1485.3 252.499L1496.4 266.02L1490.54 249.537C1489.26 245.931 1491.15 241.968 1494.75 240.686C1498.36 239.405 1502.32 241.289 1503.6 244.896L1509.3 260.928V243.914C1509.3 240.087 1512.4 236.984 1516.23 236.984Z" fill="#C4BB16"/>
<path d="M1284.28 266.726H1361.54L1284.28 343.984L1207.03 266.726H1284.28Z" fill="#8D5AC4"/>
<path d="M1284.28 422.106L1207.03 422.106L1284.28 344.848L1361.54 422.106L1284.28 422.106Z" fill="#080033"/>
<path d="M1267.73 672.086C1216.58 672.086 1165.43 672.086 1112.73 672.086C1112.73 642.056 1112.73 612.026 1112.73 581.086C1163.88 581.086 1215.03 581.086 1267.73 581.086C1267.73 611.116 1267.73 641.146 1267.73 672.086Z" fill="#0BA960"/>
<path d="M1112.73 672.086L1267.73 672.086L1112.73 581.086L1112.73 672.086Z" fill="#D96043"/>
<path d="M1389.95 617.838C1349.81 599.169 1332.6 551.585 1351.51 511.555C1366.92 478.918 1401.59 461.382 1435.63 466.134L1392.86 556.66L1483.69 598.901C1460.58 624.351 1422.69 633.064 1389.95 617.838Z" fill="#D96043"/>
<path d="M1157.37 24.0625C1165.26 30.141 1169.53 38.522 1171.14 48.2729C1172.81 63.9575 1167.55 79.9045 1161.74 94.3087C1160.43 97.7631 1159.68 101.214 1159.17 104.863C1163.78 102.093 1168.13 99.2271 1172.23 95.7471C1182.72 87.021 1193.94 80.5798 1207.74 80.4537C1208.78 80.4406 1208.78 80.4406 1209.84 80.4273C1214.84 80.5382 1218.61 81.8022 1223.01 84.1401C1223.68 84.4956 1224.36 84.8511 1225.05 85.2173C1233.18 90.3933 1238.33 97.8937 1240.56 107.255C1241.71 115.699 1240.76 123.731 1235.93 130.914C1228.87 140.131 1221.01 145.3 1209.44 147.107C1196.86 148.192 1184.33 145.832 1171.93 143.919C1173.81 146.382 1175.54 148.41 1178.1 150.161C1178.93 150.74 1178.93 150.74 1179.79 151.331C1180.37 151.729 1180.96 152.127 1181.56 152.537C1182.78 153.386 1184.01 154.235 1185.23 155.084C1186.38 155.879 1187.54 156.674 1188.69 157.469C1199.31 164.792 1208.35 172.772 1211.53 185.814C1212.66 196.109 1211.2 204.352 1204.85 212.814C1199.09 219.447 1192.37 223.053 1183.62 223.876C1174.03 224.2 1166.69 221.504 1159.17 215.653C1158.44 215.109 1158.44 215.109 1157.71 214.554C1147.65 205.871 1144.67 190.222 1142.31 177.893C1141.99 176.26 1141.68 174.627 1141.36 172.995C1141.07 171.527 1140.79 170.058 1140.51 168.589C1140.06 166.205 1140.06 166.205 1139.22 163.845C1139.04 164.547 1139.04 164.547 1138.85 165.262C1137.4 170.907 1135.92 176.543 1134.43 182.177C1134.22 182.955 1134.02 183.733 1133.81 184.534C1130.31 197.752 1126.57 210.588 1114.63 218.742C1106.77 223.083 1098.69 224.839 1089.74 223.624C1080.7 220.861 1073.95 214.339 1069.34 206.238C1065.5 198.88 1065.44 189.957 1067.8 182.078C1072.1 170.742 1080.12 162.723 1090.09 156.223C1099 151.128 1099 151.128 1105.7 143.919C1105.26 143.987 1104.83 144.055 1104.38 144.126C1087.22 146.788 1087.22 146.788 1080.96 147.107C1080.06 147.168 1079.16 147.228 1078.23 147.291C1065.76 147.77 1054.17 143.895 1044.86 135.45C1037.48 127.727 1035.82 118.94 1036.02 108.752C1036.41 100.315 1040.27 94.4273 1046.05 88.4585C1055.15 80.4903 1064.91 79.3934 1076.51 79.9649C1091.28 81.3274 1103.31 93.0564 1113.61 102.671C1115.26 104.221 1115.26 104.221 1117.67 104.863C1116.49 96.8435 1114.04 89.3605 1111.51 81.6804C1108.43 72.099 1107.01 62.9591 1107 52.9057C1106.98 52.1069 1106.96 51.308 1106.94 50.485C1106.9 41.072 1110.47 34.1841 1116.87 27.4717C1128.75 16.1397 1143.82 14.9416 1157.37 24.0625Z" fill="#0BA960"/>
</g>
<defs>
<clipPath id="clip0_19428_22575">
<rect width="1920" height="672" fill="white"/>
</clipPath>
</defs>
</svg>
