<svg width="1920" height="672" viewBox="0 0 1920 672" fill="none" xmlns="http://www.w3.org/2000/svg">
<g clip-path="url(#clip0_19425_22554)">
<rect width="1920" height="672" fill="#F3F3F1"/>
<path d="M1579.95 216.98C1581.91 218.579 1583.79 220.25 1585.66 221.955C1586.18 222.421 1586.69 222.888 1587.22 223.369C1598.24 233.818 1605.64 246.925 1610.73 261.086C1611.11 262.163 1611.11 262.163 1611.51 263.262C1619.31 286.848 1616.66 313.558 1605.83 335.68C1605 337.173 1604.16 338.643 1603.24 340.084C1602.63 341.535 1602.92 342.14 1603.39 343.628C1603.79 344.525 1604.21 345.412 1604.66 346.289C1616.62 370.419 1618.92 395.622 1610.54 421.332C1605.46 436.133 1596.66 448.815 1585.66 459.799C1585.11 460.351 1584.57 460.902 1584.01 461.471C1564.24 480.486 1538.19 486.889 1511.6 486.907C1510.19 486.911 1508.77 486.915 1507.35 486.919C1504.39 486.927 1501.43 486.929 1498.47 486.928C1494.72 486.928 1490.97 486.945 1487.22 486.966C1484.3 486.98 1481.37 486.982 1478.44 486.981C1477.06 486.983 1475.68 486.988 1474.3 486.997C1445.32 487.18 1420.15 477.377 1399.43 457.062C1397.49 455.095 1395.73 453.034 1394.03 450.857C1393.73 450.495 1393.44 450.132 1393.13 449.759C1391.67 447.916 1390.5 446.226 1389.64 444.026C1388.58 441.516 1387.88 440.112 1385.73 438.399C1381.33 437.518 1376.74 438.089 1372.3 438.344C1360.16 438.703 1347.99 432.336 1339.27 424.336C1328.55 413.889 1322.19 399.92 1322 384.937C1321.98 378.648 1322.12 372.914 1323.98 366.862C1324.21 366.136 1324.43 365.409 1324.66 364.66C1326.16 360.122 1327.98 356.114 1330.71 352.188C1331.15 351.552 1331.59 350.916 1332.04 350.261C1340.13 338.996 1351.46 332.723 1364.82 329.804C1379.28 328.045 1393.4 330.652 1405.3 339.348C1407.44 341.083 1409.45 342.917 1411.41 344.851C1411.88 345.316 1412.36 345.781 1412.84 346.26C1418.08 351.727 1421.43 357.932 1423.87 365.028C1424.01 365.448 1424.16 365.867 1424.31 366.3C1426.51 373.156 1425.59 380.442 1425.61 387.591C1425.62 388.773 1425.62 388.773 1425.62 389.98C1425.64 392.112 1425.65 394.243 1425.66 396.375C1425.67 398.614 1425.68 400.854 1425.7 403.093C1425.73 407.319 1425.75 411.546 1425.77 415.772C1425.79 420.59 1425.82 425.408 1425.86 430.225C1425.92 440.123 1427.26 449.901 1427.31 459.799C1427.43 459.168 1427.55 458.537 1427.68 457.887C1427.85 457.051 1428.01 456.216 1428.18 455.38C1428.26 454.965 1428.34 454.55 1428.42 454.122C1430.73 442.434 1436.73 431.504 1444.43 422.502C1444.7 422.184 1444.97 421.867 1445.24 421.54C1449.07 417.087 1453.18 413.201 1457.88 409.662C1458.2 409.415 1458.53 409.167 1458.87 408.912C1473.35 398.041 1489.43 391.683 1507.4 389.485C1507.06 389.43 1506.71 389.375 1506.36 389.319C1479.99 385.024 1455.79 373.941 1439.57 351.844C1438.51 350.346 1437.49 348.828 1436.48 347.297C1436.24 346.936 1435.99 346.574 1435.74 346.202C1422.09 325.7 1417.66 297.28 1422.42 273.314C1425.95 255.794 1433.35 239.488 1445.61 226.371C1446.74 225.149 1447.8 223.892 1448.86 222.604C1458.02 212.236 1470.71 205.269 1483.56 200.555C1484.53 200.182 1484.53 200.182 1485.53 199.802C1516.5 189.124 1554.6 196.863 1579.95 216.98Z" fill="#0BA960"/>
<path d="M1580.04 216.943C1581.99 218.54 1583.87 220.208 1585.73 221.909C1586.25 222.375 1586.76 222.841 1587.29 223.321C1598.28 233.753 1605.67 246.837 1610.74 260.975C1611.13 262.05 1611.13 262.05 1611.52 263.147C1619.32 286.737 1616.61 313.309 1605.86 335.444C1604.9 337.306 1603.9 339.139 1602.81 340.937C1600.35 340.117 1600.09 339.046 1598.81 336.817C1592.68 326.185 1592.68 326.185 1583.9 318.353C1583.9 317.95 1583.9 317.547 1583.9 317.132C1583.58 316.993 1583.25 316.855 1582.91 316.712C1581.38 315.868 1580.11 314.845 1578.77 313.726C1562.08 299.865 1542.29 295.665 1521.06 294.547C1521.06 325.567 1521.06 356.588 1521.06 388.549C1497.98 391.114 1474.14 382.528 1456.05 368.291C1448.68 361.979 1442.24 355.135 1436.87 347.041C1436.63 346.68 1436.39 346.318 1436.14 345.946C1422.52 325.479 1418.1 297.106 1422.84 273.183C1426.36 255.692 1433.75 239.413 1445.99 226.318C1447.12 225.099 1448.17 223.844 1449.23 222.558C1458.37 212.207 1471.03 205.252 1483.85 200.545C1484.5 200.298 1485.15 200.05 1485.82 199.794C1516.72 189.134 1554.74 196.86 1580.04 216.943Z" fill="#0BA960"/>
<path d="M1521 295C1543.42 295 1563.63 300.533 1580.84 315.293C1582.18 316.481 1582.18 316.481 1583.98 317.624C1583.98 318.028 1583.98 318.431 1583.98 318.847C1584.33 318.995 1584.68 319.144 1585.04 319.296C1590.6 322.41 1594.5 329.552 1598.04 334.745C1598.62 335.586 1598.62 335.586 1599.2 336.443C1613.07 357.398 1618.99 382.673 1614.55 407.51C1610.35 427.87 1600.49 445.449 1585.81 460.096C1585.27 460.647 1584.72 461.199 1584.16 461.768C1567.67 477.63 1543.75 487 1521 487C1521 423.64 1521 360.28 1521 295Z" fill="#05728C"/>
<path d="M1521 81C1557.96 81 1594.92 81 1633 81C1633 118.95 1633 156.9 1633 196C1596.04 196 1559.08 196 1521 196C1521 158.05 1521 120.1 1521 81Z" fill="#080033"/>
<path d="M1521 196.083C1521 228.395 1521 260.708 1521 294C1488 294 1455 294 1421 294C1421 268.942 1427.96 245.225 1445.5 226.627C1446.64 225.412 1447.7 224.162 1448.76 222.881C1457.96 212.567 1470.69 205.638 1483.58 200.948C1484.23 200.701 1484.88 200.454 1485.56 200.2C1489.77 198.761 1494.12 197.942 1498.49 197.147C1499.04 197.04 1499.59 196.933 1500.15 196.823C1507.2 195.635 1513.6 196.083 1521 196.083Z" fill="#D96043"/>
<path d="M1421 294C1454 294 1487 294 1521 294C1521 325.201 1521 356.402 1521 388.549C1497.79 391.113 1473.81 382.533 1455.63 368.305C1448.21 361.997 1441.73 355.158 1436.34 347.069C1436.09 346.708 1435.85 346.347 1435.6 345.975C1427.87 334.43 1423.77 321.084 1421.73 307.458C1421.65 306.953 1421.58 306.448 1421.5 305.928C1420.95 301.86 1421 298.198 1421 294Z" fill="#8D5AC4"/>
<path d="M1405.17 339.085C1407.31 340.824 1409.31 342.662 1411.27 344.6C1411.74 345.066 1412.22 345.532 1412.7 346.013C1420.69 354.391 1426.01 366.377 1426 378.063C1426 379.27 1426 379.27 1426 380.5C1426 381.384 1426 382.268 1425.99 383.152C1425.99 384.088 1425.99 385.024 1425.99 385.961C1425.99 388.497 1425.99 391.032 1425.99 393.568C1425.98 396.22 1425.98 398.873 1425.98 401.525C1425.98 406.545 1425.97 411.565 1425.97 416.584C1425.96 422.301 1425.96 428.017 1425.95 433.733C1425.95 445.488 1425.94 457.244 1425.92 469C1425.72 469 1425.52 469 1425.31 469C1425.31 441.497 1425.31 413.994 1425.31 385.658C1408.59 385.658 1391.87 385.658 1374.64 385.658C1375.3 402.26 1376.5 415.864 1382.58 431.006C1382.83 431.658 1383.09 432.309 1383.35 432.981C1383.9 434.368 1384.46 435.753 1385.02 437.134C1383.12 439.043 1377.75 438.457 1375.25 438.513C1360.84 438.383 1347.93 432.772 1337.62 422.692C1325.9 410.331 1321.83 395.52 1322.01 378.901C1322.11 374.619 1322.71 370.769 1323.97 366.661C1324.19 365.933 1324.41 365.205 1324.64 364.454C1326.14 359.906 1327.96 355.889 1330.68 351.954C1331.34 350.998 1331.34 350.998 1332.02 350.022C1340.09 338.732 1351.4 332.445 1364.74 329.52C1379.18 327.756 1393.29 330.37 1405.17 339.085Z" fill="#080033"/>
<path d="M1521 295C1543.35 295 1563.48 300.522 1580.63 315.253C1581.98 316.438 1581.98 316.438 1583.76 317.579C1583.76 317.982 1583.76 318.385 1583.76 318.8C1584.11 318.948 1584.46 319.095 1584.83 319.248C1590.37 322.359 1594.24 329.484 1597.78 334.666C1598.23 335.31 1598.67 335.955 1599.13 336.618C1599.53 337.208 1599.92 337.797 1600.33 338.404C1600.68 338.922 1601.03 339.439 1601.39 339.972C1602.04 341.379 1602.04 341.379 1601.96 342.59C1594.54 359.86 1577.11 372.81 1560.61 380.435C1560.01 380.716 1559.41 380.997 1558.8 381.286C1551.27 384.623 1543.2 386.958 1535.09 388.292C1534.66 388.365 1534.22 388.438 1533.78 388.514C1529.44 389.152 1525.51 388.978 1521 388.978C1521 357.965 1521 326.953 1521 295Z" fill="#080033"/>
<path d="M1375.05 386.109C1391.79 386.109 1408.66 386 1425.91 386C1425.94 391.878 1425.85 397.865 1425.89 403.922C1425.91 407.653 1425.94 411.384 1425.97 415.115C1426.01 421.034 1426.05 426.952 1426.08 432.87C1426.11 437.181 1426.14 441.492 1426.17 445.803C1426.18 448.083 1426.2 450.363 1426.21 452.643C1426.22 454.795 1426.24 456.946 1426.25 459.098C1426.26 460.253 1426.27 461.408 1426.27 462.563C1426.31 467.068 1426.55 471.516 1427 476C1410.53 471.122 1395.7 454.415 1387.25 440.288C1386.17 438.367 1386.17 438.367 1384.83 437.128C1383.83 435.012 1383.01 432.817 1382.16 430.637C1381.91 430.005 1381.66 429.374 1381.41 428.723C1379.55 423.89 1378.02 419.104 1376.89 414.048C1376.76 413.497 1376.63 412.947 1376.49 412.38C1374.58 403.668 1375.05 395.025 1375.05 386.109Z" fill="#05728C"/>
<path d="M1578 138C1596.15 138 1614.3 138 1633 138C1633 157.14 1633 176.28 1633 196C1614.85 196 1596.7 196 1578 196C1578 176.86 1578 157.72 1578 138Z" fill="#8D5AC4"/>
<path d="M1522 82C1540.15 82 1558.3 82 1577 82C1577 100.48 1577 118.96 1577 138C1558.85 138 1540.7 138 1522 138C1522 119.52 1522 101.04 1522 82Z" fill="#0BA960"/>
<path d="M1111.31 127.165L1082.38 127.391V212.539H1083.29H1171.49L1171.77 184.685C1171.83 180.585 1171.89 176.484 1171.92 172.383L1171.93 169.017L1172 165.452C1172.01 154.649 1169.26 146.083 1161.63 138.229C1152.12 129.61 1142.14 126.821 1129.43 127.009L1127.58 127.037C1125.18 127.045 1122.78 127.054 1120.38 127.065L1111.31 127.165Z" fill="#080033"/>
<path d="M1054.7 299.093L1083.62 298.867L1083.62 213.719L1082.71 213.719L994.517 213.719L994.232 241.573C994.173 245.674 994.11 249.774 994.086 253.875L994.073 257.241L994.002 260.806C993.997 271.609 996.746 280.175 1004.37 288.029C1013.88 296.648 1023.86 299.437 1036.58 299.249L1038.43 299.221C1040.82 299.213 1043.22 299.204 1045.62 299.193L1054.7 299.093Z" fill="#0BA960"/>
<path fill-rule="evenodd" clip-rule="evenodd" d="M1259.63 469.221C1278.45 451.234 1308.59 448.902 1329.92 463.756C1341.08 472.296 1348.81 482.953 1351.21 497.008C1351.61 502.562 1351.45 508.138 1351.37 513.701C1351.36 515.208 1351.34 516.716 1351.33 518.223C1351.31 521.881 1351.26 525.54 1351.21 529.198C1351.74 529.186 1352.26 529.175 1352.81 529.162C1353.51 529.153 1354.21 529.143 1354.92 529.134C1355.62 529.122 1356.31 529.11 1357.02 529.098C1362.45 529.368 1366.64 532.438 1370.37 536.158C1373.12 540.558 1374.82 544.876 1374.85 550.097C1374.86 551.128 1374.86 551.128 1374.87 552.181C1374.87 552.927 1374.87 553.674 1374.88 554.443C1374.88 555.236 1374.89 556.028 1374.89 556.845C1374.91 559.467 1374.92 562.09 1374.93 564.713C1374.93 565.611 1374.94 566.509 1374.94 567.434C1374.96 572.188 1374.97 576.942 1374.98 581.696C1374.99 586.593 1375.02 591.491 1375.05 596.388C1375.07 600.164 1375.08 603.941 1375.08 607.718C1375.09 609.522 1375.1 611.327 1375.12 613.131C1375.14 615.665 1375.14 618.198 1375.13 620.731C1375.15 621.836 1375.15 621.836 1375.16 622.962C1375.11 629.045 1373.73 634.939 1369.78 639.719C1362.3 646.783 1354.12 648.04 1344.16 647.972C1342.5 647.981 1342.49 647.981 1340.8 647.99C1337.78 648.006 1334.77 648 1331.75 647.989C1328.58 647.98 1325.41 647.989 1322.24 647.994C1316.91 648.001 1311.59 647.992 1306.27 647.976C1300.13 647.957 1294 647.962 1287.86 647.981C1282.57 647.997 1277.28 647.999 1272 647.99C1268.85 647.985 1265.7 647.985 1262.55 647.996C1259.03 648.008 1255.52 647.991 1252.01 647.972C1250.98 647.979 1249.95 647.986 1248.88 647.993C1240.46 647.908 1233.36 646.099 1227.08 640.252C1223.29 636.015 1221.35 631.38 1221.31 625.715C1221.31 625.019 1221.3 624.322 1221.3 623.605C1221.29 622.849 1221.29 622.092 1221.29 621.314C1221.28 620.511 1221.28 619.708 1221.27 618.881C1221.25 616.226 1221.24 613.571 1221.24 610.916C1221.23 610.008 1221.23 609.099 1221.22 608.163C1221.21 603.354 1221.19 598.544 1221.19 593.734C1221.18 588.777 1221.15 583.819 1221.11 578.861C1221.09 575.041 1221.08 571.22 1221.08 567.399C1221.07 565.573 1221.06 563.745 1221.05 561.918C1221.03 559.355 1221.03 556.793 1221.03 554.23C1221.02 553.482 1221.01 552.735 1221 551.965C1221.05 545.62 1223.11 540.864 1226.4 535.506C1230.76 531.261 1234.73 529.085 1240.87 529.079C1242.23 529.11 1243.59 529.146 1244.96 529.198C1244.94 528.287 1244.92 527.376 1244.9 526.437C1244.84 522.996 1244.8 519.555 1244.77 516.114C1244.75 514.636 1244.72 513.158 1244.69 511.68C1244.35 494.781 1247.8 481.946 1259.63 469.221ZM1314.13 479.891C1301.82 473.209 1286.68 474.66 1276.12 483.907C1267.59 492.769 1267.59 492.77 1267.59 529.2H1328.56V498.749C1325.81 490.52 1321.51 484.512 1314.13 479.891Z" fill="#8D5AC4"/>
<path d="M1305.36 562.21C1309.7 564.81 1312.99 567.806 1314.62 572.701C1315.2 579.186 1315.19 583.99 1311.14 589.231C1310.39 589.743 1309.65 590.254 1308.88 590.78C1306.56 592.553 1306.56 592.553 1306.21 595.343C1306.2 596.345 1306.18 597.348 1306.17 598.38C1306.13 600.012 1306.13 600.012 1306.09 601.677C1306.09 602.81 1306.08 603.942 1306.08 605.109C1306.06 606.256 1306.04 607.402 1306.01 608.583C1305.96 611.412 1305.94 614.242 1305.92 617.072C1300.46 617.072 1294.99 617.072 1289.37 617.072C1289.36 615.364 1289.34 613.656 1289.33 611.896C1289.29 609.652 1289.25 607.408 1289.21 605.164C1289.2 604.038 1289.2 602.913 1289.19 601.753C1289.16 600.668 1289.14 599.583 1289.11 598.465C1289.1 597.467 1289.09 596.47 1289.07 595.442C1288.33 591.932 1286.81 590.682 1284.14 588.361C1280.55 583.488 1280.78 578.539 1281.53 572.701C1283.37 567.716 1286.45 564.793 1291.11 562.261C1295.68 560.738 1300.82 560.401 1305.36 562.21Z" fill="#080033"/>
<path d="M1894.25 -138.592C1918.2 -121.91 1927.12 -96.6223 1932.23 -69.1384C1932.81 -65.4324 1933.32 -61.7264 1933.82 -58.0079C1934.07 -59.8157 1934.32 -61.6236 1934.58 -63.4862C1938.52 -90.1331 1944.97 -117.32 1966.95 -135.127C1983.22 -146.289 1998.82 -148.835 2018.18 -147.052C2033.16 -143.634 2045.72 -134.331 2054.38 -121.785C2062.77 -107.694 2063.56 -91.167 2060.05 -75.2937C2053.67 -56.1111 2039.72 -41.6955 2022.06 -32.1691C2004.38 -23.9022 1984.87 -20.7544 1965.65 -18.2559C1966.56 -18.1531 1967.46 -18.0502 1968.39 -17.9442C1986.54 -15.8098 2003.17 -13.5193 2019.77 -5.53531C2021.07 -4.93063 2022.36 -4.32597 2023.7 -3.70299C2040.54 4.85507 2053.06 17.5187 2059.26 35.4092C2063.16 49.9135 2062.56 64.9745 2056.38 78.7388C2048.88 91.5999 2037.27 102.87 2023.1 107.894C2005.06 111.763 1986.39 110.761 1970.43 101C1950.54 87.4764 1941.99 65.829 1937.51 42.9807C1936.74 38.4757 1936.03 33.9738 1935.41 29.4464C1933.32 35.5851 1931.42 41.7561 1929.61 47.9835C1922.59 71.5964 1912.07 91.1139 1890.19 103.876C1875.39 110.679 1856.28 112.113 1840.81 106.466C1824.54 98.6292 1814.66 87.7854 1807.86 71.1238C1806.18 64.8997 1805.87 59.219 1805.89 52.8007C1805.89 51.0057 1805.89 51.0057 1805.9 49.1745C1806.1 39.8167 1807.78 32.659 1812.85 24.6762C1813.8 23.0364 1814.76 21.3966 1815.74 19.7072C1833.47 -3.56908 1859.54 -13.0761 1887.66 -17.1628C1890.84 -17.5493 1894.02 -17.9226 1897.21 -18.2559C1896.25 -18.4551 1895.29 -18.6543 1894.3 -18.8596C1862.6 -25.514 1834.84 -32.4483 1814.44 -59.5979C1805.88 -74.6986 1803.19 -93.3154 1807.69 -110.226C1809.19 -113.683 1810.86 -116.819 1812.85 -120.021C1813.77 -121.661 1814.69 -123.3 1815.64 -124.99C1834.91 -149.595 1867.64 -155.017 1894.25 -138.592Z" fill="#080033"/>
<path d="M1803.33 505.713C1810.66 509.747 1814.1 516.279 1817.09 523.878C1817.39 523.205 1817.69 522.532 1817.99 521.839C1822 513.248 1826.1 507.766 1834.93 504.163C1841.44 501.975 1848.34 503.059 1854.48 505.877C1860.92 509.446 1865 514.596 1867.49 521.528C1869.07 527.83 1868.87 534.113 1865.94 539.958C1863.19 544.154 1859.7 547.759 1856.18 551.309C1857.13 550.884 1858.07 550.46 1859.05 550.023C1865.17 547.737 1871.21 548.114 1877.28 550.411C1884.64 553.995 1889.24 559.355 1892.07 567.02C1894.1 574.169 1892.63 580.778 1889.32 587.311C1885.44 592.978 1880.56 597.105 1874.03 599.312C1863.79 600.615 1857.21 598.678 1848.53 593.312C1847.79 592.865 1847.05 592.419 1846.28 591.959C1844.74 591.013 1843.23 590.025 1841.73 589.026C1842.1 589.369 1842.47 589.713 1842.85 590.067C1848.39 595.396 1853.66 601.302 1853.9 609.331C1853.83 614.899 1852.16 618.797 1848.27 622.724C1843.04 626.034 1838.52 627.671 1832.38 626.743C1825.95 624.86 1822.75 620.373 1819.5 614.742C1818.79 613.027 1818.79 613.027 1818.79 609.599C1818.23 609.599 1817.66 609.599 1817.09 609.599C1816.99 610.226 1816.9 610.854 1816.8 611.5C1815.58 616.654 1812.22 621.069 1808 624.171C1803.37 626.996 1799.45 627.299 1794.14 626.743C1788.86 625.188 1785.25 621.884 1782.24 617.313C1779.98 612.328 1779.84 608.106 1781.71 602.955C1784.38 597.961 1788.57 593.938 1792.44 589.883C1791.71 590.338 1790.98 590.793 1790.23 591.262C1781.91 596.324 1772.72 601.495 1762.7 600.169C1754.68 597.851 1748.31 593.847 1744.01 586.561C1740.83 579.811 1740.11 572.391 1742.13 565.151C1745.24 558.182 1750.63 553.169 1757.49 550.023C1764.9 547.417 1771.72 548.326 1778.84 551.309C1778.22 550.84 1777.59 550.372 1776.95 549.889C1774.52 547.82 1772.83 545.757 1770.98 543.165C1770.4 542.361 1769.82 541.557 1769.22 540.728C1765.68 535.06 1766.51 527.78 1766.95 521.307C1768.45 515.028 1773.68 509.754 1779.01 506.43C1787 502.317 1795.08 501.892 1803.33 505.713Z" fill="#080033"/>
<path d="M1787.79 231.476C1792.03 234.549 1794.82 238.065 1796.44 243.076C1797.75 255.674 1793.6 266.809 1788.78 278.155C1789.36 277.607 1789.93 277.059 1790.53 276.494C1807.98 260.188 1807.98 260.188 1819.89 259.76C1826.74 260.017 1830.73 261.838 1835.42 266.819C1839.82 272.311 1841.21 277.373 1840.98 284.421C1840.26 290.037 1837.5 294.104 1833.11 297.566C1823.92 303.333 1812.93 304.106 1802.39 303.822C1801.27 303.822 1800.15 303.822 1798.99 303.822C1799.75 304.289 1800.51 304.756 1801.3 305.236C1820.72 317.33 1820.72 317.33 1823.67 327.779C1824.38 333.229 1824.72 338.89 1821.45 343.56C1816.69 348.891 1811.96 352.916 1804.75 353.774C1798.74 354.072 1794.33 353.753 1789.54 349.927C1781.36 341.719 1778.21 330.319 1776.02 319.223C1775.71 320.556 1775.71 320.556 1775.39 321.917C1772.5 334.135 1769.55 344.505 1758.84 352.27C1754.17 354.535 1748.68 354.169 1743.68 353.446C1736.51 350.854 1732.2 347.016 1728.53 340.399C1726.66 334.466 1726.72 329.738 1729.43 324.089C1732.37 318.576 1735.93 314.979 1740.97 311.469C1741.48 311.109 1741.98 310.749 1742.5 310.378C1751.76 303.822 1751.76 303.822 1755.6 303.822C1755.32 303.54 1755.03 303.258 1754.75 302.967C1754.29 303.086 1753.83 303.205 1753.36 303.328C1742.7 305.945 1729.42 303.401 1719.97 298.224C1716.1 295.559 1713.1 291.95 1711.35 287.566C1710.4 280.159 1711.23 274.004 1715.61 267.888C1719.47 263.537 1724.01 260.593 1729.86 259.917C1741.44 259.455 1748.85 264.944 1757.3 272.166C1758.75 273.562 1760.15 274.991 1761.55 276.444C1761.2 275.545 1760.85 274.646 1760.5 273.72C1752.05 251.73 1752.05 251.73 1756.07 240.189C1758.45 234.948 1761.96 232.39 1766.76 229.494C1773.75 226.873 1781.43 227.804 1787.79 231.476Z" fill="#080033"/>
<path d="M1279.33 82.0525C1289.62 89.397 1294.39 99.2172 1296.77 111.335C1297.07 113.321 1297.36 115.309 1297.63 117.298C1297.78 116.06 1297.78 116.06 1297.95 114.796C1299.57 103.74 1303.32 92.2764 1311.94 84.5981C1320.54 78.5417 1328.3 76.454 1338.72 77.2607C1348.75 79.3052 1356.76 84.5755 1362.89 92.7042C1367.87 100.777 1370.1 109.089 1368.08 118.34C1366.45 124.313 1364.41 128.99 1360.12 133.484C1359.56 134.07 1359.01 134.657 1358.44 135.261C1353.59 139.948 1348.5 142.412 1342.14 144.558C1341.53 144.768 1340.92 144.978 1340.3 145.194C1335.55 146.598 1330.77 146.423 1325.88 146.262C1325.88 146.824 1325.88 147.386 1325.88 147.966C1326.62 147.921 1326.62 147.921 1327.39 147.876C1338.72 147.503 1348.45 151.337 1357.82 157.496C1364.57 164.531 1368.66 172.71 1369 182.466C1368.63 193.482 1363.38 202.599 1355.47 210.112C1347.33 216.567 1338.65 218.566 1328.44 217.819C1319.05 216.173 1311.69 210.988 1306.19 203.337C1300.83 194.951 1298.71 184.986 1297.63 175.225C1297.42 176.616 1297.42 176.616 1297.21 178.034C1295.3 190.349 1292.03 202.607 1281.95 210.844C1273.71 216.81 1265.77 218.627 1255.68 217.819C1246.83 215.799 1238.5 210.941 1233.42 203.337C1227.79 193.326 1225.39 183.649 1228.14 172.27C1231.75 162.937 1238.07 156.466 1247.12 152.225C1253.51 149.719 1259.78 147.808 1266.7 147.912C1267.7 147.924 1267.7 147.924 1268.73 147.936C1269.22 147.946 1269.72 147.955 1270.23 147.966C1270.23 147.403 1270.23 146.841 1270.23 146.262C1269.67 146.292 1269.11 146.321 1268.53 146.352C1256.59 146.704 1245.06 143.107 1236.04 135.028C1228.46 126.772 1226.81 117.006 1227.28 106.311C1228.02 97.5001 1233.36 90.5951 1239.63 84.7146C1251 75.4994 1266.89 74.4495 1279.33 82.0525Z" fill="#D96043"/>
<path d="M994.59 599.864C998.925 599.788 1003.26 599.732 1007.59 599.696C1009.07 599.681 1010.54 599.66 1012.01 599.633C1014.14 599.596 1016.26 599.579 1018.39 599.565C1019.04 599.55 1019.69 599.534 1020.36 599.518C1027.25 599.515 1032.57 602.144 1037.58 606.783C1042.55 612.347 1043.08 618.755 1042.92 625.943C1042.47 632.409 1039.85 637.167 1035.37 641.8C1029.2 647.118 1022.99 648.771 1015.04 648.287C1008.15 647.467 1003.07 644.682 998.41 639.549C994.62 634.402 994.478 629.477 994.516 623.34C994.517 622.668 994.518 621.996 994.519 621.303C994.523 619.165 994.533 617.027 994.543 614.889C994.546 613.435 994.55 611.982 994.553 610.529C994.561 606.974 994.575 603.419 994.59 599.864Z" fill="#080033"/>
<path d="M981.461 551.529C986.037 554.325 990.372 557.832 991.96 563.133C992.314 564.843 992.389 566.373 992.384 568.118C992.383 568.775 992.383 569.432 992.383 570.108C992.379 570.81 992.375 571.512 992.371 572.236C992.37 572.96 992.369 573.684 992.368 574.43C992.364 576.739 992.354 579.049 992.345 581.358C992.341 582.925 992.337 584.492 992.334 586.059C992.326 589.898 992.313 593.737 992.297 597.576C988.316 597.652 984.336 597.707 980.356 597.743C979.005 597.759 977.654 597.779 976.304 597.806C965.838 598.007 957.373 597.678 949.423 590.063C944.278 584.164 943.672 577.671 944.168 570.101C945.21 563.524 948.353 558.404 953.524 554.209C961.577 548.605 972.407 547.227 981.461 551.529Z" fill="#080033"/>
<path d="M964.108 599.779C964.735 599.78 965.362 599.78 966.008 599.78C967.017 599.786 967.017 599.786 968.048 599.792C969.086 599.793 969.086 599.793 970.145 599.795C972.355 599.799 974.566 599.809 976.776 599.818C978.275 599.822 979.774 599.826 981.272 599.829C984.946 599.837 988.62 599.85 992.294 599.866C992.37 604.291 992.425 608.716 992.462 613.142C992.477 614.644 992.498 616.147 992.525 617.649C992.562 619.82 992.579 621.991 992.593 624.163C992.608 624.824 992.624 625.486 992.64 626.168C992.642 631.653 991.483 636.887 987.874 641.171C982.616 646.353 976.273 648.091 969.042 648.423C961.939 648.214 956.336 645.633 951.089 640.887C945.911 635.196 943.892 628.547 944.004 620.994C944.485 614.89 946.605 609.502 951.041 605.208C955.092 602.315 959.017 599.764 964.108 599.779Z" fill="#080033"/>
<path d="M1029.34 551.356C1035.38 554.855 1039.92 559.75 1042.23 566.388C1043.82 573.646 1043.52 581.188 1039.66 587.655C1037.79 589.849 1037.79 589.849 1035.84 591.471C1035.03 592.25 1035.03 592.25 1034.21 593.045C1026.21 598.43 1017.81 597.95 1008.57 597.767C1007.21 597.752 1005.85 597.738 1004.49 597.726C1001.19 597.692 997.885 597.64 994.582 597.577C994.525 593.477 994.484 589.379 994.456 585.279C994.445 583.888 994.429 582.496 994.409 581.105C994.145 562.223 994.145 562.223 1000.61 555.417C1008.47 548.86 1020 547.043 1029.34 551.356Z" fill="#080033"/>
<path d="M786 0C823.257 0 860.514 0 898.9 0C898.9 37.62 898.9 75.24 898.9 114C861.643 114 824.386 114 786 114C786 76.38 786 38.76 786 0Z" fill="#0BA960"/>
<path d="M898.9 0H786L898.9 114V0Z" fill="#D96043"/>
</g>
<defs>
<clipPath id="clip0_19425_22554">
<rect width="1920" height="672" fill="white"/>
</clipPath>
</defs>
</svg>
