<svg width="1920" height="672" viewBox="0 0 1920 672" fill="none" xmlns="http://www.w3.org/2000/svg">
<g clip-path="url(#clip0_19425_14754)">
<rect width="1920" height="672" fill="#E2EFFF"/>
<path d="M957.25 500.25H1034.5L957.25 577.5L880 500.25H957.25Z" fill="#8D5AC4"/>
<path d="M957.25 655.615L880 655.615L957.25 578.365L1034.5 655.615L957.25 655.615Z" fill="#080033"/>
<path d="M970.019 -229.141L879.743 -27.6215L1091.05 -91.7271L884.718 -13.0668L1079.46 91.0198L877.944 0.743947L942.05 212.05L863.39 5.71927L759.302 200.464L849.579 -1.05477L638.272 63.0503L844.603 -15.6094L649.858 -119.697L851.377 -29.4201L787.272 -240.727L865.932 -34.3956L970.019 -229.141Z" fill="#16A9C4"/>
<path fill-rule="evenodd" clip-rule="evenodd" d="M146.451 651.967C146.451 611.481 119.879 581.025 87.1021 581.025C70.0057 581.025 42.8261 581 40 581C40 598.731 40 632.598 40 651.967H146.451Z" fill="#D96043"/>
<path fill-rule="evenodd" clip-rule="evenodd" d="M1639.5 81.75L1639.5 33L1579.48 33C1546.34 33 1518 76.6522 1518 130.5C1518 184.347 1546.34 228 1579.48 228L1639.5 228L1639.5 179.25C1639.5 152.326 1618.01 130.5 1601.44 130.5C1618.01 130.5 1639.5 108.674 1639.5 81.75Z" fill="#D96043"/>
<rect x="1630.5" y="319.5" width="108.816" height="108.816" fill="#16A9C4"/>
<rect x="1739.31" y="319.5" width="108.816" height="108.816" fill="#D93529"/>
<rect x="1630.5" y="428.316" width="108.816" height="108.816" fill="#8D5AC4"/>
<rect x="1739.32" y="428.316" width="108.816" height="108.816" fill="#0BA960"/>
<path fill-rule="evenodd" clip-rule="evenodd" d="M1244.09 277.402C1202.83 277.402 1169.38 311.427 1169.38 353.397C1169.38 395.368 1202.83 429.392 1244.09 429.392L1244.09 277.402Z" fill="#D96043"/>
<path fill-rule="evenodd" clip-rule="evenodd" d="M1316.68 429.392C1359.11 429.392 1393.5 395.367 1393.5 353.397C1393.5 311.426 1359.11 277.402 1316.68 277.402L1244.09 277.402L1244.09 429.392L1316.68 429.392Z" fill="#16A9C4"/>
<path d="M1246.9 513.157C1232.94 531.141 1207.05 534.406 1189.06 520.45C1171.08 506.493 1167.81 480.601 1181.77 462.617C1195.73 444.634 1257.93 430.163 1258.1 431.487C1258.1 431.487 1260.85 495.174 1246.9 513.157Z" fill="#0BA960"/>
<circle cx="1258.25" cy="183.375" r="88.8751" fill="#D93529"/>
</g>
<defs>
<clipPath id="clip0_19425_14754">
<rect width="1920" height="672" fill="white"/>
</clipPath>
</defs>
</svg>
