<svg preserveAspectRatio="none" width="100%" height="100%" overflow="visible" style="display: block;" viewBox="0 0 172 171" fill="none" xmlns="http://www.w3.org/2000/svg">
<path id="Vector" d="M172 85.5L0 0L43.043 85.5L0 171L172 85.5ZM86.0861 67.7374C89.5979 67.7585 93.025 68.811 95.9358 70.7624C98.8467 72.7139 101.111 75.4769 102.444 78.7039C103.777 81.9308 104.12 85.4773 103.428 88.8969C102.736 92.3165 101.041 95.4564 98.556 97.9213C96.0712 100.386 92.9078 102.066 89.4639 102.749C86.02 103.432 82.4496 103.088 79.2022 101.76C75.9547 100.432 73.1754 98.1797 71.2141 95.2863C69.2528 92.3929 68.1972 88.988 68.1802 85.5C68.1688 83.1624 68.6243 80.8458 69.5203 78.6842C70.4164 76.5226 71.7353 74.559 73.4005 72.907C75.0658 71.2551 77.0445 69.9476 79.2219 69.0602C81.3994 68.1728 83.7325 67.7232 86.0861 67.7374Z" fill="var(--fill-0, #FEFCC9)"/>
</svg>
