<svg viewBox="0 0 1034 1034" fill="none" xmlns="http://www.w3.org/2000/svg">
<path d="M951.501 516.639C967.326 555.506 974.393 598.69 971.709 643.453C966.784 725.587 929.434 806.314 867.874 867.874C806.314 929.434 725.587 966.784 643.453 971.709C598.689 974.393 555.506 967.326 516.639 951.501L951.501 516.639Z" fill="#F6F06F"/>
<path d="M516.639 81.7771C477.772 65.9523 434.589 58.885 389.825 61.569C307.691 66.4938 226.964 103.845 165.404 165.404C103.844 226.964 66.4938 307.691 61.5691 389.825C58.8851 434.589 65.9523 477.772 81.7771 516.639L516.639 81.7771Z" fill="#F6F06F"/>
<path d="M315.933 14.8753C288.815 3.70934 258.726 -1.3766 227.574 0.319692C170.415 3.43212 114.36 29.1235 71.7418 71.7419C29.1234 114.36 3.43208 170.415 0.319627 227.574C-1.37667 258.726 3.70932 288.815 14.8753 315.934L315.933 14.8753Z" fill="#F6F06F"/>
<path d="M717.345 1018.4C744.463 1029.57 774.552 1034.65 805.704 1032.96C862.863 1029.85 918.918 1004.15 961.536 961.536C1004.15 918.918 1029.85 862.863 1032.96 805.704C1034.65 774.552 1029.57 744.463 1018.4 717.345L717.345 1018.4Z" fill="#F6F06F"/>
<path d="M1018.4 315.933C1029.57 288.815 1034.65 258.726 1032.96 227.574C1029.85 170.415 1004.15 114.36 961.536 71.7419C918.918 29.1234 862.863 3.43221 805.704 0.319667C774.552 -1.37662 744.463 3.70932 717.345 14.8753L1018.4 315.933Z" fill="#F6F06F"/>
<path d="M14.8752 717.344C3.70926 744.463 -1.37673 774.552 0.319568 805.704C3.43205 862.863 29.1234 918.918 71.7418 961.536C114.36 1004.15 170.415 1029.85 227.574 1032.96C258.726 1034.65 288.815 1029.57 315.934 1018.4L14.8752 717.344Z" fill="#F6F06F"/>
<path d="M516.639 951.501C477.772 967.326 434.589 974.393 389.825 971.709C307.691 966.784 226.964 929.434 165.404 867.874C103.844 806.314 66.4938 725.587 61.569 643.453C58.8851 598.689 65.9523 555.506 81.7771 516.639L516.639 951.501Z" fill="#F6F06F"/>
<path d="M951.501 516.639C967.326 477.772 974.393 434.589 971.709 389.825C966.784 307.691 929.434 226.964 867.874 165.404C806.314 103.845 725.587 66.4939 643.453 61.5691C598.689 58.8852 555.506 65.9523 516.639 81.7771L951.501 516.639Z" fill="#F6F06F"/>
<path d="M734.07 299.208C854.154 419.292 854.154 613.986 734.07 734.07C613.986 854.154 419.292 854.154 299.208 734.07C179.124 613.986 179.124 419.292 299.208 299.208C419.292 179.124 613.986 179.124 734.07 299.208Z" fill="#F6F06F"/>
</svg>
