<svg width="98" height="98" viewBox="0 0 98 98" fill="none" xmlns="http://www.w3.org/2000/svg">
<g clip-path="url(#clip0_22851_36745)">
<mask id="mask0_22851_36745" style="mask-type:luminance" maskUnits="userSpaceOnUse" x="0" y="0" width="98" height="98">
<path d="M97.6332 20.6323L20.6323 0L3.90632e-06 77.0009L77.0009 97.6332L97.6332 20.6323Z" fill="white"/>
</mask>
<g mask="url(#mask0_22851_36745)">
<path d="M48.9495 90.1168C38.4982 87.3164 41.8589 74.7742 31.4078 71.9738C19.3787 68.7506 4.29297 60.9793 7.51708 48.9468C10.3174 38.496 22.8561 41.8557 25.6563 31.4052C28.8781 19.3813 36.6504 4.29202 48.6838 7.51637C59.1351 10.3168 55.7743 22.8592 66.2253 25.6595C78.2501 28.8816 93.3402 36.6539 90.1161 48.6866C87.3158 59.1374 74.7727 55.7765 71.9725 66.227C68.7402 78.2718 60.9785 93.34 48.9495 90.1168Z" fill="#CEE8AB"/>
</g>
</g>
<defs>
<clipPath id="clip0_22851_36745">
<rect width="79.7172" height="79.7172" fill="white" transform="translate(20.6323) rotate(15)"/>
</clipPath>
</defs>
</svg>
