<svg width="98" height="98" viewBox="0 0 98 98" fill="none" xmlns="http://www.w3.org/2000/svg">
<g clip-path="url(#clip0_22851_36731)">
<mask id="mask0_22851_36731" style="mask-type:luminance" maskUnits="userSpaceOnUse" x="0" y="0" width="98" height="98">
<path d="M97.6332 20.6323L20.6323 0L3.90632e-06 77.0009L77.0009 97.6332L97.6332 20.6323Z" fill="white"/>
</mask>
<g mask="url(#mask0_22851_36731)">
<path opacity="0.5" fill-rule="evenodd" clip-rule="evenodd" d="M65.3591 17.8794C66.173 14.8419 64.3704 11.7196 61.3327 10.9056L56.9327 9.72666C53.8951 8.91274 50.7729 10.7154 49.9589 13.753L49.6555 14.8854C48.3426 19.7854 41.7607 20.6519 39.2243 16.2587L38.6381 15.2434C37.0657 12.52 33.5832 11.5869 30.8598 13.1592L26.9148 15.4369C24.1914 17.0092 23.2583 20.4917 24.8306 23.2151L25.4168 24.2304C27.9533 28.6237 23.9119 33.8905 19.0119 32.5775L17.8795 32.2741C14.8419 31.4602 11.7196 33.2628 10.9057 36.3004L9.7267 40.7003C8.91275 43.738 10.7154 46.8603 13.753 47.6743L14.8854 47.9777C19.7854 49.2906 20.6519 55.8726 16.2587 58.4089L15.2434 58.9951C12.52 60.5675 11.5869 64.0499 13.1592 66.7734L15.4369 70.7183C17.0093 73.4417 20.4917 74.3749 23.2152 72.8024L24.2305 72.2162C28.6236 69.6799 33.8905 73.7214 32.5775 78.6213L32.2741 79.7536C31.4602 82.7913 33.2628 85.9136 36.3004 86.7275L40.7003 87.9065C43.738 88.7204 46.8603 86.9178 47.6743 83.8801L47.9777 82.7478C49.2906 77.8478 55.8726 76.9813 58.4089 81.3743L58.9952 82.3897C60.5676 85.1131 64.0499 86.0462 66.7734 84.4738L70.7183 82.1963C73.4417 80.6239 74.3748 77.1415 72.8024 74.418L72.2166 73.4027C69.6799 69.0096 73.7214 63.7427 78.6213 65.0557L79.7536 65.3591C82.7913 66.173 85.9136 64.3703 86.7276 61.3327L87.9065 56.9327C88.7204 53.8951 86.9178 50.7728 83.8801 49.9589L82.7478 49.6555C77.8478 48.3426 76.9812 41.7607 81.3743 39.2242L82.3897 38.638C85.1131 37.0656 86.0463 33.5832 84.4739 30.8597L82.1963 26.9148C80.6239 24.1913 77.1415 23.2582 74.418 24.8306L73.4027 25.4167C69.0096 27.9532 63.7427 23.9118 65.0557 19.0118L65.3591 17.8794Z" fill="url(#paint0_linear_22851_36731)"/>
</g>
</g>
<defs>
<linearGradient id="paint0_linear_22851_36731" x1="23.3402" y1="11.4544" x2="71.0306" y2="87.5742" gradientUnits="userSpaceOnUse">
<stop stop-color="#E9B8FF"/>
<stop offset="1" stop-color="#F9ECFF"/>
</linearGradient>
<clipPath id="clip0_22851_36731">
<rect width="79.7172" height="79.7172" fill="white" transform="translate(20.6323) rotate(15)"/>
</clipPath>
</defs>
</svg>
