<svg width="98" height="98" viewBox="0 0 98 98" fill="none" xmlns="http://www.w3.org/2000/svg">
<g clip-path="url(#clip0_22851_36759)">
<mask id="mask0_22851_36759" style="mask-type:luminance" maskUnits="userSpaceOnUse" x="0" y="0" width="98" height="98">
<path d="M97.6332 20.6323L20.6323 0L3.90632e-06 77.0009L77.0009 97.6332L97.6332 20.6323Z" fill="white"/>
</mask>
<g mask="url(#mask0_22851_36759)">
<path fill-rule="evenodd" clip-rule="evenodd" d="M61.4702 12.5931C61.6981 11.7425 61.1933 10.8683 60.3428 10.6404L57.9227 9.99193C57.0722 9.76404 56.198 10.2688 55.9701 11.1193L51.9803 26.0093C51.5267 27.702 49.0714 27.5303 48.8578 25.791L46.9792 10.4906C46.8719 9.61663 46.0764 8.99512 45.2024 9.10244L42.7157 9.40776C41.8417 9.51508 41.2202 10.3106 41.3275 11.1845L43.3304 27.4962C43.542 29.2201 41.2356 29.9918 40.3671 28.4877L32.1501 14.2553C31.7098 13.4927 30.7347 13.2314 29.9722 13.6717L27.8024 14.9244C27.0399 15.3646 26.7786 16.3397 27.2189 17.1023L34.5978 29.8829C35.4786 31.4086 33.5991 33.0253 32.2223 31.9261L20.6889 22.7188C20.0008 22.1694 18.9976 22.282 18.4482 22.9701L16.8851 24.9281C16.3358 25.6162 16.4483 26.6194 17.1364 27.1688L30.4264 37.7784C31.7765 38.8562 30.6878 41.0115 29.019 40.5644L12.5931 36.163C11.7425 35.9351 10.8683 36.4399 10.6404 37.2904L9.99193 39.7105C9.76404 40.561 10.2688 41.4353 11.1193 41.6632L27.5452 46.0645C29.2139 46.5116 29.0792 48.9225 27.3711 49.1807L10.5569 51.7242C9.68627 51.8557 9.08724 52.6682 9.21897 53.5387L9.59365 56.016C9.72526 56.8868 10.5378 57.4858 11.4085 57.3539L26.0003 55.1471C27.7422 54.8835 28.5616 57.2233 27.0359 58.1044L14.2553 65.4829C13.4927 65.9235 13.2315 66.8984 13.6717 67.6609L14.9244 69.8307C15.3647 70.5933 16.3398 70.8545 17.1023 70.4143L31.3347 62.1972C32.8389 61.3288 34.4504 63.1504 33.4052 64.5375L23.5148 77.6624C22.985 78.3655 23.1255 79.3651 23.8286 79.8952L25.8295 81.4031C26.5328 81.9328 27.5324 81.7925 28.0624 81.089L37.3395 68.7781C38.3942 67.3784 40.6063 68.4576 40.1528 70.1501L36.163 85.0401C35.9352 85.8906 36.4399 86.7649 37.2904 86.9928L39.7105 87.6413C40.561 87.8691 41.4353 87.3644 41.6632 86.5139L45.6529 71.6238C46.1064 69.9314 48.562 70.1028 48.7755 71.8424L50.6539 87.1424C50.7613 88.0167 51.5567 88.6379 52.4309 88.5309L54.9176 88.2254C55.7915 88.1179 56.4132 87.3226 56.3057 86.4487L54.303 70.137C54.0911 68.4131 56.3974 67.6413 57.2662 69.1455L65.4829 83.3779C65.9235 84.1405 66.8984 84.4017 67.6609 83.9614L69.8308 82.7087C70.5933 82.2684 70.8545 81.2936 70.4144 80.5307L63.0353 67.7504C62.1547 66.2245 64.0342 64.6079 65.4108 65.7072L76.9441 74.9142C77.6324 75.4638 78.6356 75.3513 79.1848 74.6629L80.7481 72.7049C81.2973 72.0169 81.1848 71.0137 80.4967 70.4645L67.2068 59.8547C65.8569 58.7771 66.9453 56.6217 68.6143 57.0689L85.0401 61.4702C85.8906 61.6981 86.7649 61.1933 86.9928 60.3428L87.6413 57.9227C87.8691 57.0722 87.3644 56.1979 86.5139 55.9701L70.0881 51.5688C68.4191 51.1216 68.5538 48.7106 70.2621 48.4523L87.0763 45.9091C87.9468 45.7774 88.5458 44.9648 88.4143 44.0943L88.0395 41.617C87.9079 40.7464 87.0954 40.1474 86.2246 40.279L71.6329 42.4861C69.8911 42.7496 69.0717 40.4099 70.5973 39.529L83.3779 32.15C84.1404 31.7098 84.4017 30.7347 83.9615 29.9721L82.7087 27.8024C82.2684 27.0398 81.2936 26.7786 80.5307 27.2188L66.2986 35.4359C64.7942 36.3043 63.1827 34.4827 64.2282 33.0957L74.1184 19.9708C74.6484 19.2676 74.5078 18.2679 73.8047 17.738L71.8038 16.2302C71.1003 15.7003 70.1007 15.8408 69.5707 16.544L60.2938 28.8552C59.2392 30.2548 57.0269 29.1757 57.4804 27.4831L61.4702 12.5931Z" fill="url(#paint0_linear_22851_36759)"/>
</g>
</g>
<defs>
<linearGradient id="paint0_linear_22851_36759" x1="29.2599" y1="10.152" x2="59.9963" y2="82.5543" gradientUnits="userSpaceOnUse">
<stop stop-color="#FFD9A0"/>
<stop offset="1" stop-color="#FFF5F1"/>
</linearGradient>
<clipPath id="clip0_22851_36759">
<rect width="79.7172" height="79.7172" fill="white" transform="translate(20.6323) rotate(15)"/>
</clipPath>
</defs>
</svg>
