<svg preserveAspectRatio="xMidYMid meet" overflow="visible" style="display: block;" viewBox="0 0 48 48" fill="none" xmlns="http://www.w3.org/2000/svg">
<g id="Frame">
<g id="Vector">
<path fill-rule="evenodd" clip-rule="evenodd" d="M14 0C14.8609 0 15.6251 0.55086 15.8974 1.36754L18.5811 9.41886L26.6325 12.1026C27.4491 12.3749 28 13.1391 28 14C28 14.8609 27.4491 15.6251 26.6325 15.8974L18.5811 18.5811L15.8974 26.6325C15.6251 27.4491 14.8609 28 14 28C13.1391 28 12.3749 27.4491 12.1026 26.6325L9.41886 18.5811L1.36754 15.8974C0.55086 15.6251 0 14.8609 0 14C0 13.1391 0.55086 12.3749 1.36754 12.1026L9.41886 9.41886L12.1026 1.36754C12.3749 0.55086 13.1391 0 14 0ZM14 8.32456L12.8974 11.6325C12.6983 12.2297 12.2297 12.6983 11.6325 12.8974L8.32456 14L11.6325 15.1026C12.2297 15.3017 12.6983 15.7703 12.8974 16.3675L14 19.6754L15.1026 16.3675C15.3017 15.7703 15.7703 15.3017 16.3675 15.1026L19.6754 14L16.3675 12.8974C15.7703 12.6983 15.3017 12.2297 15.1026 11.6325L14 8.32456Z" fill="var(--fill-0, #A8ADFD)"/>
<path fill-rule="evenodd" clip-rule="evenodd" d="M39.5858 13.5858C40.9191 12.2525 43.0809 12.2525 44.4142 13.5858C45.7475 14.9191 45.7475 17.0809 44.4142 18.4142L30.4142 32.4142C29.0809 33.7476 26.9191 33.7475 25.5858 32.4142C24.2525 31.0809 24.2525 28.9191 25.5858 27.5858L39.5858 13.5858Z" fill="var(--fill-0, #A8ADFD)"/>
<path fill-rule="evenodd" clip-rule="evenodd" d="M14.4401 41.5878C15.5064 42.0159 16.625 42.0924 17.7449 41.6362C19.1062 41.0817 19.5819 40.1783 19.7019 39.1811C19.7694 38.6201 19.7102 38.043 19.5653 37.5535C19.4193 37.06 19.2444 36.8418 19.2296 36.8234V36.8234C18.7988 36.3895 18.5168 36.2284 18.3371 36.1528C18.1617 36.079 17.8807 36 17.3332 36C17.1948 36 16.9413 36.0219 16.6227 36.0946C16.3321 36.1608 16.0622 36.2523 15.8457 36.351C15.832 36.4548 15.8184 36.5592 15.8044 36.6678C15.7751 36.8943 15.7434 37.1385 15.7026 37.4303C15.6136 38.0671 15.4874 38.862 15.2513 39.6665C15.0622 40.3107 14.8011 40.9617 14.4401 41.5878ZM11.4066 44.5152C13.4852 45.7779 16.2214 46.5759 19.2539 45.3406C25 43 24.3549 36.3084 22.0674 34.0041C20.6478 32.5741 19.2539 32.0001 17.3333 32C15.4127 31.9999 12.3109 33.0512 12 35C11.9324 35.4235 11.8787 35.8361 11.8267 36.2352C11.5573 38.3037 11.3348 40.0115 9.48038 41.0095C8.83315 41.3578 8.54891 42.2089 9.08028 42.7167C9.69512 43.3043 10.4605 43.9332 11.3477 44.4792V44.4792C11.3672 44.4912 11.387 44.5033 11.4066 44.5152V44.5152Z" fill="var(--fill-0, #A8ADFD)"/>
</g>
</g>
</svg>
