<svg preserveAspectRatio="xMidYMid meet" overflow="visible" style="display: block;" viewBox="0 0 49.9755 46.7474" fill="none" xmlns="http://www.w3.org/2000/svg">
<g id="Group">
<path id="Vector" d="M40.7417 45.8942C40.5854 45.4255 40.6375 44.1755 40.95 43.0296C41.5229 40.8421 41.6792 40.9463 38.6583 41.8317C37.2521 42.1963 35.3771 41.3109 35.3771 40.2692C35.3771 38.9671 38.5542 37.3525 40.6896 37.5088L42.5646 37.665L43.1375 34.8525C43.9188 30.9463 43.9188 30.8942 42.1479 32.4046C40.325 33.915 37.7729 34.54 35.4813 34.0713C34.6479 33.863 32.0438 32.1963 29.7 30.2692C26.0021 27.3005 25.2208 26.9359 23.8667 27.1963C21.575 27.613 15.95 31.1025 11.0542 35.0088C8.71042 36.8838 6.47084 38.4463 6.05417 38.4463C4.38751 38.4463 3.97084 36.988 4.33542 32.4046C4.85626 25.3213 7.25209 19.4359 10.8458 16.4671L12.4083 15.113L11.0021 14.1234C9.90834 13.3942 8.60626 13.1859 5.22084 13.1859C-0.352076 13.1859 -0.664576 12.8213 0.637508 7.92546C1.62709 4.12337 3.91876 0.269207 5.32501 0.00879082C5.84584 -0.0953759 7.25209 0.737958 8.50209 1.88379C12.2 5.32129 13.5542 5.79004 19.1792 5.68587C25.95 5.58171 28.9708 6.51921 32.2521 9.69629C34.3875 11.7796 34.9083 12.7692 35.8979 16.0505C37.825 22.7692 38.5021 24.2796 40.3771 25.9463C43.1896 28.3942 43.9188 28.0817 43.3979 24.8005C43.1896 23.29 42.9813 21.1025 42.9813 19.9567C42.9292 17.9775 43.0333 17.8734 44.4917 17.8734C45.8458 17.8734 46.1583 18.1338 46.7313 19.9567C47.7729 23.0296 48.0854 30.113 47.4083 34.488L46.7833 38.29L48.3458 39.9046C51.2625 42.7692 49.9604 46.0505 46.8354 43.7588L45.3771 42.665L44.7521 44.2275C43.7625 46.5713 41.3667 47.613 40.7417 45.8942Z" fill="var(--fill-0, #A8FDF8)"/>
<path id="Vector_2" d="M17.2521 40.4254C16.8875 40.0609 16.6271 38.915 16.6271 37.8734C16.6271 35.7379 17.9292 34.3838 22.0958 32.3004C23.9188 31.415 24.3354 31.3629 25.1688 31.9359C26.6792 33.0296 25.8458 35.0609 22.5646 38.2379C19.7 41.0504 18.3979 41.5713 17.2521 40.4254Z" fill="var(--fill-0, #A8FDF8)"/>
</g>
</svg>
