<svg preserveAspectRatio="xMidYMid meet" overflow="visible" style="display: block;" viewBox="0 0 56 38.7335" fill="none" xmlns="http://www.w3.org/2000/svg">
<g id="Group 7059">
<path id="Vector" fill-rule="evenodd" clip-rule="evenodd" d="M16.3331 2.22193e-05C16.9357 2.22193e-05 17.4707 0.385624 17.6613 0.957303L19.1899 5.54322L23.7758 7.07186C24.3475 7.26242 24.7331 7.79742 24.7331 8.40002C24.7331 9.00262 24.3475 9.53762 23.7758 9.72818L19.1899 11.2568L17.6613 15.8427C17.4707 16.4144 16.9357 16.8 16.3331 16.8C15.7305 16.8 15.1955 16.4144 15.005 15.8427L13.4763 11.2568L8.89041 9.72818C8.31873 9.53762 7.93313 9.00262 7.93313 8.40002C7.93313 7.79742 8.31873 7.26242 8.89041 7.07186L13.4763 5.54322L15.005 0.957303C15.1955 0.385624 15.7305 2.22193e-05 16.3331 2.22193e-05Z" fill="var(--fill-0, #F9B0A6)"/>
<g id="Group">
<path id="Vector_2" d="M28 26.4835C31.8034 26.4835 35.1634 27.3935 37.8934 28.5835C40.4134 29.7035 42 32.2235 42 34.9535V38.7335H14V34.9768C14 32.2235 15.5867 29.7035 18.1067 28.6068C20.8367 27.3935 24.1967 26.4835 28 26.4835ZM9.33337 27.0668C11.9 27.0668 14 24.9668 14 22.4002C14 19.8335 11.9 17.7335 9.33337 17.7335C6.7667 17.7335 4.6667 19.8335 4.6667 22.4002C4.6667 24.9668 6.7667 27.0668 9.33337 27.0668ZM11.97 29.6335C11.1067 29.4935 10.2434 29.4002 9.33337 29.4002C7.02337 29.4002 4.83004 29.8902 2.8467 30.7535C1.12004 31.5002 3.75112e-05 33.1802 3.75112e-05 35.0702V38.7335H10.5V34.9768C10.5 33.0402 11.0367 31.2202 11.97 29.6335ZM46.6667 27.0668C49.2334 27.0668 51.3334 24.9668 51.3334 22.4002C51.3334 19.8335 49.2334 17.7335 46.6667 17.7335C44.1 17.7335 42 19.8335 42 22.4002C42 24.9668 44.1 27.0668 46.6667 27.0668ZM56 35.0702C56 33.1802 54.88 31.5002 53.1534 30.7535C51.17 29.8902 48.9767 29.4002 46.6667 29.4002C45.7567 29.4002 44.8934 29.4935 44.03 29.6335C44.9634 31.2202 45.5 33.0402 45.5 34.9768V38.7335H56V35.0702ZM28 10.7335C31.8734 10.7335 35 13.8602 35 17.7335C35 21.6068 31.8734 24.7335 28 24.7335C24.1267 24.7335 21 21.6068 21 17.7335C21 13.8602 24.1267 10.7335 28 10.7335Z" fill="var(--fill-0, #F9B0A6)"/>
</g>
</g>
</svg>
