<svg width="51" height="51" viewBox="0 0 51 51" fill="none" xmlns="http://www.w3.org/2000/svg">
<path fill-rule="evenodd" clip-rule="evenodd" d="M33.0164 2.21246C33.1604 1.67521 32.8415 1.12298 32.3043 0.979039L30.7757 0.569432C30.2384 0.42548 29.6862 0.744302 29.5422 1.28155L27.0221 10.687C26.7356 11.7561 25.1846 11.6477 25.0497 10.549L23.8631 0.884413C23.7953 0.332367 23.2928 -0.060214 22.7408 0.00757466L21.17 0.200434C20.618 0.268223 20.2254 0.770695 20.2931 1.32275L21.5583 11.6261C21.6919 12.715 20.2351 13.2025 19.6865 12.2524L14.4961 3.26241C14.218 2.78073 13.6021 2.61569 13.1204 2.89379L11.7499 3.68505C11.2682 3.96315 11.1032 4.57908 11.3813 5.06076L16.0422 13.1338C16.5986 14.0975 15.4114 15.1186 14.5418 14.4243L7.25658 8.60848C6.8219 8.26146 6.18824 8.33254 5.84123 8.7672L4.85388 10.004C4.50688 10.4387 4.57795 11.0723 5.01262 11.4194L13.4073 18.121C14.2601 18.8018 13.5724 20.1632 12.5184 19.8808L2.14275 17.1006C1.6055 16.9567 1.05328 17.2755 0.909328 17.8128L0.499721 19.3414C0.355776 19.8786 0.67459 20.4309 1.21183 20.5749L11.5874 23.355C12.6415 23.6374 12.5563 25.1603 11.4774 25.3234L0.856561 26.93C0.30665 27.0131 -0.0717307 27.5263 0.0114729 28.0762L0.248146 29.6409C0.331276 30.191 0.844536 30.5694 1.3945 30.4861L10.6115 29.0921C11.7119 28.9256 12.2294 30.4035 11.2657 30.9601L3.19274 35.6208C2.711 35.8991 2.54601 36.5149 2.82411 36.9966L3.61537 38.3672C3.89346 38.8488 4.50939 39.0139 4.99106 38.7358L13.9811 33.5453C14.9312 32.9969 15.9492 34.1475 15.2889 35.0236L9.04159 43.3141C8.70689 43.7583 8.79564 44.3896 9.23981 44.7244L10.5037 45.6769C10.9479 46.0115 11.5793 45.9229 11.9141 45.4785L17.774 37.7023C18.4402 36.8181 19.8376 37.4998 19.5511 38.5689L17.0309 47.9743C16.887 48.5115 17.2058 49.0638 17.7431 49.2077L19.2717 49.6173C19.8089 49.7613 20.3612 49.4424 20.5052 48.9052L23.0253 39.4998C23.3118 38.4307 24.8628 38.539 24.9977 39.6378L26.1842 49.3022C26.2521 49.8545 26.7545 50.2469 27.3067 50.1793L28.8775 49.9863C29.4295 49.9184 29.8221 49.4161 29.7542 48.864L28.4892 38.5606C28.3554 37.4717 29.8122 36.9842 30.3609 37.9343L35.5511 46.9243C35.8294 47.406 36.4452 47.571 36.9269 47.293L38.2975 46.5016C38.7791 46.2235 38.9441 45.6078 38.6661 45.1259L34.0051 37.0531C33.4488 36.0892 34.636 35.0681 35.5056 35.7625L42.7907 41.5782C43.2255 41.9253 43.8591 41.8543 44.2061 41.4194L45.1935 40.1827C45.5404 39.748 45.4693 39.1144 45.0347 38.7675L36.64 32.0657C35.7874 31.385 36.4748 30.0236 37.5291 30.306L47.9046 33.0861C48.4418 33.2301 48.9941 32.9112 49.138 32.374L49.5476 30.8454C49.6916 30.3081 49.3727 29.7559 48.8355 29.6119L38.46 26.8318C37.4058 26.5493 37.4909 25.0265 38.5699 24.8633L49.1908 23.2569C49.7406 23.1736 50.119 22.6604 50.0359 22.1105L49.7992 20.5457C49.7161 19.9958 49.2029 19.6174 48.6528 19.7006L39.4358 21.0947C38.3356 21.2611 37.818 19.7832 38.7816 19.2268L46.8547 14.5658C47.3363 14.2877 47.5013 13.6718 47.2233 13.1901L46.4319 11.8196C46.1538 11.3379 45.5381 11.1729 45.0562 11.4509L36.0664 16.6414C35.1161 17.1899 34.0982 16.0393 34.7586 15.1631L41.0058 6.87268C41.3406 6.4285 41.2518 5.79703 40.8076 5.46232L39.5437 4.50992C39.0994 4.17514 38.468 4.26391 38.1332 4.70808L32.2734 12.4846C31.6072 13.3686 30.2098 12.6871 30.4963 11.6179L33.0164 2.21246Z" fill="url(#paint0_linear_23186_7072)"/>
<defs>
<linearGradient id="paint0_linear_23186_7072" x1="12.6705" y1="0.670555" x2="32.0854" y2="46.4041" gradientUnits="userSpaceOnUse">
<stop stop-color="#FFD9A0"/>
<stop offset="1" stop-color="#FFF5F1"/>
</linearGradient>
</defs>
</svg>
