<svg width="54" height="54" viewBox="0 0 54 54" fill="none" xmlns="http://www.w3.org/2000/svg">
<path opacity="0.5" fill-rule="evenodd" clip-rule="evenodd" d="M38.1507 5.70485C38.7069 3.62907 37.475 1.49542 35.3992 0.939196L32.3924 0.133537C30.3166 -0.422669 28.183 0.809198 27.6268 2.88498L27.4194 3.6588C26.5222 7.0073 22.0244 7.59945 20.2911 4.59726L19.8905 3.90348C18.816 2.04239 16.4362 1.40473 14.5751 2.47922L11.8793 4.03567C10.0182 5.11017 9.38053 7.48994 10.455 9.35106L10.8556 10.0449C12.5889 13.0471 9.8272 16.6462 6.4787 15.749L5.70485 15.5416C3.62907 14.9854 1.49542 16.2173 0.939217 18.293L0.133558 21.2998C-0.422662 23.3756 0.809195 25.5093 2.88498 26.0655L3.6588 26.2729C7.00732 27.1701 7.59945 31.668 4.5973 33.4012L3.90348 33.8018C2.04238 34.8763 1.40473 37.256 2.47923 39.1171L4.03569 41.8129C5.11021 43.6741 7.48998 44.3117 9.35108 43.2372L10.0449 42.8366C13.047 41.1034 16.6462 43.8652 15.749 47.2136L15.5416 47.9874C14.9854 50.0632 16.2173 52.1969 18.293 52.7531L21.2998 53.5587C23.3756 54.115 25.5093 52.8831 26.0655 50.8072L26.2729 50.0335C27.1701 46.685 31.668 46.0929 33.4012 49.0949L33.8018 49.7887C34.8763 51.6499 37.256 52.2875 39.1172 51.213L41.8129 49.6566C43.6741 48.5821 44.3117 46.2023 43.2372 44.3412L42.8368 43.6474C41.1034 40.6453 43.8652 37.0461 47.2136 37.9433L47.9874 38.1507C50.0632 38.7069 52.1969 37.475 52.7531 35.3992L53.5588 32.3924C54.115 30.3166 52.8831 28.183 50.8072 27.6268L50.0335 27.4194C46.685 26.5222 46.0928 22.0244 49.0949 20.2911L49.7888 19.8905C51.6499 18.816 52.2875 16.4362 51.213 14.5751L49.6566 11.8793C48.5821 10.0182 46.2024 9.38051 44.3412 10.455L43.6474 10.8556C40.6453 12.5889 37.0461 9.82717 37.9433 6.47867L38.1507 5.70485Z" fill="url(#paint0_linear_23186_7063)"/>
<defs>
<linearGradient id="paint0_linear_23186_7063" x1="9.43651" y1="1.31419" x2="42.0264" y2="53.3317" gradientUnits="userSpaceOnUse">
<stop stop-color="#E9B8FF"/>
<stop offset="1" stop-color="#F9ECFF"/>
</linearGradient>
</defs>
</svg>
