<svg width="90" height="90" viewBox="0 0 90 90" fill="none" xmlns="http://www.w3.org/2000/svg">
<path d="M44.5449 24.94C49.8681 24.94 54.1835 20.4763 54.1835 14.97C54.1835 9.46372 49.8681 5 44.5449 5C39.2216 5 34.9062 9.46372 34.9062 14.97C34.9062 20.4763 39.2216 24.94 44.5449 24.94Z" fill="black"/>
<path d="M15.6386 54.8404C20.9619 54.8404 25.2772 50.3767 25.2772 44.8704C25.2772 39.3641 20.9619 34.9004 15.6386 34.9004C10.3154 34.9004 6 39.3641 6 44.8704C6 50.3767 10.3154 54.8404 15.6386 54.8404Z" fill="black"/>
<path d="M73.4667 54.8404C78.79 54.8404 83.1054 50.3767 83.1054 44.8704C83.1054 39.3641 78.79 34.9004 73.4667 34.9004C68.1435 34.9004 63.8281 39.3641 63.8281 44.8704C63.8281 50.3767 68.1435 54.8404 73.4667 54.8404Z" fill="black"/>
<path d="M18.5605 27.94C23.8837 27.94 28.1991 23.4763 28.1991 17.97C28.1991 12.4637 23.8837 8 18.5605 8C13.2372 8 8.92188 12.4637 8.92188 17.97C8.92188 23.4763 13.2372 27.94 18.5605 27.94Z" fill="black"/>
<path d="M70.6386 27.8599C75.9619 27.8599 80.2772 23.3962 80.2772 17.8899C80.2772 12.3836 75.9619 7.91992 70.6386 7.91992C65.3154 7.91992 61 12.3836 61 17.8899C61 23.3962 65.3154 27.8599 70.6386 27.8599Z" fill="black"/>
<path d="M44.5449 84.7505C49.8681 84.7505 54.1835 80.2868 54.1835 74.7805C54.1835 69.2743 49.8681 64.8105 44.5449 64.8105C39.2216 64.8105 34.9062 69.2743 34.9062 74.7805C34.9062 80.2868 39.2216 84.7505 44.5449 84.7505Z" fill="black"/>
<path d="M18.4667 81.8297C23.79 81.8297 28.1054 77.3659 28.1054 71.8596C28.1054 66.3534 23.79 61.8896 18.4667 61.8896C13.1435 61.8896 8.82812 66.3534 8.82812 71.8596C8.82812 77.3659 13.1435 81.8297 18.4667 81.8297Z" fill="black"/>
<path d="M70.6386 81.8297C75.9619 81.8297 80.2772 77.3659 80.2772 71.8596C80.2772 66.3534 75.9619 61.8896 70.6386 61.8896C65.3154 61.8896 61 66.3534 61 71.8596C61 77.3659 65.3154 81.8297 70.6386 81.8297Z" fill="black"/>
</svg>
