<svg width="90" height="90" viewBox="0 0 90 90" fill="none" xmlns="http://www.w3.org/2000/svg">
<path d="M23 7C24.6569 7 26 8.34315 26 10V80C26 81.6569 24.6569 83 23 83H9C7.34315 83 6 81.6569 6 80V10C6 8.34315 7.34315 7 9 7H23Z" fill="black"/>
<path d="M68 63C71.3137 63 74 65.6863 74 69C74 72.3137 71.3137 75 68 75C64.6863 75 62 72.3137 62 69C62 65.6863 64.6863 63 68 63Z" fill="black"/>
<path d="M51 17C52.6569 17 54 18.3431 54 20V70C54 71.6569 52.6569 73 51 73H37C35.3431 73 34 71.6569 34 70V20C34 18.3431 35.3431 17 37 17H51Z" fill="black"/>
<path d="M82 59C83.1046 59 84 59.8954 84 61C84 62.1046 83.1046 63 82 63C80.8954 63 80 62.1046 80 61C80 59.8954 80.8954 59 82 59Z" fill="black"/>
<path d="M68 47C71.3137 47 74 49.6863 74 53C74 56.3137 71.3137 59 68 59C64.6863 59 62 56.3137 62 53C62 49.6863 64.6863 47 68 47Z" fill="black"/>
<path d="M82 43C83.1046 43 84 43.8954 84 45C84 46.1046 83.1046 47 82 47C80.8954 47 80 46.1046 80 45C80 43.8954 80.8954 43 82 43Z" fill="black"/>
<path d="M68 31C71.3137 31 74 33.6863 74 37C74 40.3137 71.3137 43 68 43C64.6863 43 62 40.3137 62 37C62 33.6863 64.6863 31 68 31Z" fill="black"/>
<path d="M82 27C83.1046 27 84 27.8954 84 29C84 30.1046 83.1046 31 82 31C80.8954 31 80 30.1046 80 29C80 27.8954 80.8954 27 82 27Z" fill="black"/>
<path d="M68 15C71.3137 15 74 17.6863 74 21C74 24.3137 71.3137 27 68 27C64.6863 27 62 24.3137 62 21C62 17.6863 64.6863 15 68 15Z" fill="black"/>
</svg>
