<svg width="90" height="90" viewBox="0 0 90 90" fill="none" xmlns="http://www.w3.org/2000/svg">
<path d="M45.0455 25.2C50.4382 25.2 54.8098 20.6781 54.8098 15.1C54.8098 9.52192 50.4382 5 45.0455 5C39.6529 5 35.2812 9.52192 35.2812 15.1C35.2812 20.6781 39.6529 25.2 45.0455 25.2Z" fill="black"/>
<path d="M18.6237 28.16C24.0163 28.16 28.388 23.638 28.388 18.06C28.388 12.4819 24.0163 7.95996 18.6237 7.95996C13.231 7.95996 8.85938 12.4819 8.85938 18.06C8.85938 23.638 13.231 28.16 18.6237 28.16Z" fill="black"/>
<path d="M71.483 28.16C76.8757 28.16 81.2473 23.638 81.2473 18.06C81.2473 12.4819 76.8757 7.95996 71.483 7.95996C66.0904 7.95996 61.7188 12.4819 61.7188 18.06C61.7188 23.638 66.0904 28.16 71.483 28.16Z" fill="black"/>
<path d="M45.0455 85.7898C50.4382 85.7898 54.8098 81.2679 54.8098 75.6898C54.8098 70.1118 50.4382 65.5898 45.0455 65.5898C39.6529 65.5898 35.2812 70.1118 35.2812 75.6898C35.2812 81.2679 39.6529 85.7898 45.0455 85.7898Z" fill="black"/>
<path d="M18.6237 82.8299C24.0163 82.8299 28.388 78.308 28.388 72.7299C28.388 67.1518 24.0163 62.6299 18.6237 62.6299C13.231 62.6299 8.85938 67.1518 8.85938 72.7299C8.85938 78.308 13.231 82.8299 18.6237 82.8299Z" fill="black"/>
<path d="M71.483 82.8299C76.8757 82.8299 81.2473 78.308 81.2473 72.7299C81.2473 67.1518 76.8757 62.6299 71.483 62.6299C66.0904 62.6299 61.7188 67.1518 61.7188 72.7299C61.7188 78.308 66.0904 82.8299 71.483 82.8299Z" fill="black"/>
<path d="M6 32.3398V58.4498H32.4313L45.0572 45.3998L57.6734 58.4498H84.1047V32.3398H6Z" fill="black"/>
</svg>
