<svg width="90" height="90" viewBox="0 0 90 90" fill="none" xmlns="http://www.w3.org/2000/svg">
<path fill-rule="evenodd" clip-rule="evenodd" d="M62.1429 7C74.7665 7 85 17.2335 85 29.8571C85 40.9329 77.122 50.1672 66.6641 52.2656C67.4374 54.5597 67.8571 57.0165 67.8571 59.5714C67.8571 72.1951 57.6237 82.4286 45 82.4286C32.3763 82.4286 22.1429 72.1951 22.1429 59.5714C22.1429 57.0166 22.5616 54.5596 23.3348 52.2656C12.8774 50.1667 5 40.9325 5 29.8571C5 17.2335 15.2335 7 27.8571 7C34.6844 7 40.8117 9.9941 45 14.74C49.1883 9.9941 55.3156 7 62.1429 7ZM45 50.4286C39.9505 50.4286 35.8571 54.522 35.8571 59.5714C35.8571 64.6209 39.9505 68.7143 45 68.7143C50.0495 68.7143 54.1429 64.6209 54.1429 59.5714C54.1429 54.522 50.0495 50.4286 45 50.4286ZM27.8571 20.7143C22.8077 20.7143 18.7143 24.8077 18.7143 29.8571C18.7143 34.9066 22.8077 39 27.8571 39C32.9066 39 37 34.9066 37 29.8571C37 24.8077 32.9066 20.7143 27.8571 20.7143ZM62.1429 20.7143C57.0934 20.7143 53 24.8077 53 29.8571C53 34.9066 57.0934 39 62.1429 39C67.1923 39 71.2857 34.9066 71.2857 29.8571C71.2857 24.8077 67.1923 20.7143 62.1429 20.7143Z" fill="black"/>
</svg>
