<svg width="90" height="90" viewBox="0 0 90 90" fill="none" xmlns="http://www.w3.org/2000/svg">
<path d="M12 67C15.3137 67 18 69.6863 18 73C18 76.3137 15.3137 79 12 79C8.68629 79 6 76.3137 6 73C6 69.6863 8.68629 67 12 67Z" fill="black"/>
<path d="M38 49C43.5229 49 48 53.4772 48 59C48 64.5229 43.5229 69 38 69C35.3971 69 33.0272 68.0047 31.248 66.375L18 73L29.5459 64.3398C28.5679 62.7947 28 60.964 28 59C28 53.4772 32.4772 49 38 49Z" fill="black"/>
<path d="M70 31C77.732 31 84 37.268 84 45C84 52.732 77.732 59 70 59C65.2627 59 61.0753 56.6469 58.542 53.0459L48 57L57.4062 51.1201C56.506 49.2711 56 47.1948 56 45C56 42.8049 56.5058 40.7281 57.4062 38.8789L48 33L58.542 36.9531C61.0753 33.3525 65.263 31 70 31Z" fill="black"/>
<path d="M12 39C15.3137 39 18 41.6863 18 45C18 48.3137 15.3137 51 12 51C8.68629 51 6 48.3137 6 45C6 41.6863 8.68629 39 12 39Z" fill="black"/>
<path d="M31.248 23.624C33.0271 21.9946 35.3973 21 38 21C43.5229 21 48 25.4772 48 31C48 36.5228 43.5229 41 38 41C35.3971 41 33.0272 40.0047 31.248 38.375L18 45L29.5459 36.3398C28.5679 34.7947 28 32.964 28 31C28 29.0357 28.5676 27.2045 29.5459 25.6592L18 17L31.248 23.624Z" fill="black"/>
<path d="M12 11C15.3137 11 18 13.6863 18 17C18 20.3137 15.3137 23 12 23C8.68629 23 6 20.3137 6 17C6 13.6863 8.68629 11 12 11Z" fill="black"/>
</svg>
