<svg width="90" height="90" viewBox="0 0 90 90" fill="none" xmlns="http://www.w3.org/2000/svg">
<g clip-path="url(#clip0_17413_8953)">
<path d="M45.0475 24.2C50.4402 24.2 54.8118 19.6781 54.8118 14.1C54.8118 8.52192 50.4402 4 45.0475 4C39.6548 4 35.2832 8.52192 35.2832 14.1C35.2832 19.6781 39.6548 24.2 45.0475 24.2Z" fill="black"/>
<path d="M25.5286 44.4002C30.9213 44.4002 35.2929 39.8783 35.2929 34.3002C35.2929 28.7221 30.9213 24.2002 25.5286 24.2002C20.1359 24.2002 15.7643 28.7221 15.7643 34.3002C15.7643 39.8783 20.1359 44.4002 25.5286 44.4002Z" fill="black"/>
<path d="M45.0476 36L6 84.79H84.1048L45.0476 36ZM45.0476 74.66C43.1164 74.66 41.2285 74.0676 39.6228 72.9578C38.0171 71.848 36.7656 70.2706 36.0265 68.4251C35.2875 66.5796 35.0941 64.5488 35.4709 62.5896C35.8476 60.6304 36.7776 58.8307 38.1432 57.4182C39.5087 56.0057 41.2485 55.0438 43.1426 54.6541C45.0367 54.2644 47 54.4644 48.7842 55.2288C50.5684 55.9933 52.0934 57.2878 53.1663 58.9487C54.2392 60.6097 54.8119 62.5624 54.8119 64.56C54.8157 65.8889 54.5659 67.2055 54.0769 68.4343C53.5879 69.6632 52.8693 70.7801 51.9622 71.7212C51.0552 72.6622 49.9775 73.4089 48.7909 73.9183C47.6044 74.4278 46.3323 74.69 45.0476 74.69V74.66Z" fill="black"/>
<path d="M64.5762 44.4002C69.9689 44.4002 74.3405 39.8783 74.3405 34.3002C74.3405 28.7221 69.9689 24.2002 64.5762 24.2002C59.1835 24.2002 54.8119 28.7221 54.8119 34.3002C54.8119 39.8783 59.1835 44.4002 64.5762 44.4002Z" fill="black"/>
</g>
<defs>
<clipPath id="clip0_17413_8953">
<rect width="78.1048" height="80.79" fill="white" transform="translate(6 4)"/>
</clipPath>
</defs>
</svg>
