<svg width="90" height="90" viewBox="0 0 90 90" fill="none" xmlns="http://www.w3.org/2000/svg">
<path fill-rule="evenodd" clip-rule="evenodd" d="M85.585 65.29H65.2852L44.9951 85.5801L24.7051 65.29H4.41504V32.9102H85.585V65.29ZM27.3555 65.29L44.9951 82.9297L62.6348 65.29L44.9951 47.6504L27.3555 65.29Z" fill="black"/>
<path d="M17.5352 7.39062C23.1407 7.3907 27.6845 11.9344 27.6846 17.54C27.6846 23.1457 23.1408 27.6903 17.5352 27.6904C11.9295 27.6904 7.38477 23.1457 7.38477 17.54C7.38482 11.9344 11.9295 7.39062 17.5352 7.39062Z" fill="black"/>
<path d="M72.4648 7.39062C78.0705 7.39062 82.6152 11.9344 82.6152 17.54C82.6152 23.1457 78.0705 27.6904 72.4648 27.6904C66.8593 27.6903 62.3154 23.1457 62.3154 17.54C62.3155 11.9345 66.8593 7.39074 72.4648 7.39062Z" fill="black"/>
<path d="M44.9951 4.41992C50.6008 4.41997 55.1455 8.96465 55.1455 14.5703C55.1453 20.1758 50.6006 24.7197 44.9951 24.7197C39.3896 24.7197 34.8449 20.1758 34.8447 14.5703C34.8447 8.96462 39.3894 4.41992 44.9951 4.41992Z" fill="black"/>
</svg>
