<svg width="90" height="90" viewBox="0 0 90 90" fill="none" xmlns="http://www.w3.org/2000/svg">
<path d="M45 50C47.7614 50 50 47.7614 50 45C50 42.2386 47.7614 40 45 40C42.2386 40 40 42.2386 40 45C40 47.7614 42.2386 50 45 50Z" fill="black"/>
<path d="M45 23C49.4183 23 53 19.4183 53 15C53 10.5817 49.4183 7 45 7C40.5817 7 37 10.5817 37 15C37 19.4183 40.5817 23 45 23Z" fill="black"/>
<path d="M71 33C75.4183 33 79 29.4183 79 25C79 20.5817 75.4183 17 71 17C66.5817 17 63 20.5817 63 25C63 29.4183 66.5817 33 71 33Z" fill="black"/>
<path d="M71 73C75.4183 73 79 69.4183 79 65C79 60.5817 75.4183 57 71 57C66.5817 57 63 60.5817 63 65C63 69.4183 66.5817 73 71 73Z" fill="black"/>
<path d="M45 83C49.4183 83 53 79.4183 53 75C53 70.5817 49.4183 67 45 67C40.5817 67 37 70.5817 37 75C37 79.4183 40.5817 83 45 83Z" fill="black"/>
<path d="M19 73C23.4183 73 27 69.4183 27 65C27 60.5817 23.4183 57 19 57C14.5817 57 11 60.5817 11 65C11 69.4183 14.5817 73 19 73Z" fill="black"/>
<path d="M19 33C23.4183 33 27 29.4183 27 25C27 20.5817 23.4183 17 19 17C14.5817 17 11 20.5817 11 25C11 29.4183 14.5817 33 19 33Z" fill="black"/>
<path d="M45 45V23" stroke="black" stroke-width="2"/>
<path d="M45 45L65 29" stroke="black" stroke-width="2"/>
<path d="M45 45L65 61" stroke="black" stroke-width="2"/>
<path d="M45 45V67" stroke="black" stroke-width="2"/>
<path d="M45 45L25 61" stroke="black" stroke-width="2"/>
<path d="M45 45L25 29" stroke="black" stroke-width="2"/>
</svg>
