<svg width="90" height="90" viewBox="0 0 90 90" fill="none" xmlns="http://www.w3.org/2000/svg">
<path d="M73.535 62.3159C75.4141 62.5407 77.1923 63.2887 78.6668 64.4751C80.1414 65.6615 81.253 67.2383 81.8748 69.0259C82.4966 70.8135 82.6034 72.74 82.1834 74.5854C81.7635 76.4308 80.8338 78.121 79.4998 79.4634C78.1658 80.8057 76.4811 81.7467 74.6385 82.1782C72.7957 82.6097 70.8684 82.5145 69.077 81.9038C67.2855 81.2931 65.7013 80.1913 64.5057 78.7241C63.3103 77.257 62.5507 75.4836 62.3143 73.606H73.535V62.3159ZM16.4344 73.606H27.6844C27.4475 75.4822 26.6885 77.2541 25.494 78.7202C24.2994 80.1863 22.7173 81.2879 20.9276 81.8989C19.1379 82.51 17.2126 82.6057 15.3709 82.1763C13.5291 81.7468 11.8445 80.8089 10.5096 79.4692C9.17483 78.1296 8.24302 76.4423 7.82013 74.5991C7.39722 72.7558 7.50059 70.831 8.11798 69.0435C8.7354 67.2559 9.84193 65.6772 11.3123 64.4878C12.7826 63.2985 14.5574 62.5462 16.4344 62.3159V73.606ZM62.3143 16.436C62.1273 17.9555 62.2887 19.4979 62.7859 20.9458C63.2832 22.3937 64.1043 23.7095 65.1854 24.7935C66.2664 25.8773 67.5797 26.7015 69.0262 27.2026C70.4728 27.7038 72.015 27.869 73.535 27.686V62.3159C72.0176 62.1344 70.4785 62.2995 69.034 62.7983C67.5896 63.2971 66.2771 64.1168 65.1951 65.1958C64.1061 66.2854 63.2802 67.6095 62.7811 69.0669C62.2819 70.5245 62.1218 72.0774 62.3143 73.606H27.6844C27.879 72.0805 27.7223 70.5303 27.2264 69.0747C26.7304 67.6193 25.9083 66.2967 24.8231 65.2075C23.7376 64.1182 22.4175 63.2907 20.9637 62.7896C19.5099 62.2885 17.9604 62.1268 16.4344 62.3159V27.686C17.9567 27.8739 19.5025 27.7123 20.9529 27.2134C22.4033 26.7144 23.7209 25.8907 24.8055 24.8062C25.89 23.7216 26.7128 22.404 27.2117 20.9536C27.7106 19.5032 27.8722 17.9583 27.6844 16.436H62.3143ZM15.3885 7.81885C17.2331 7.39329 19.1603 7.49497 20.95 8.11182C22.7398 8.72874 24.3208 9.83627 25.5115 11.3081C26.7021 12.7799 27.4549 14.5569 27.6844 16.436H16.4344V27.686C14.5553 27.4565 12.7782 26.7029 11.3065 25.5122C9.83478 24.3215 8.72705 22.7414 8.11017 20.9517C7.49329 19.1619 7.39172 17.2347 7.8172 15.3901C8.24278 13.5454 9.17873 11.8567 10.5174 10.5181C11.856 9.17958 13.544 8.24441 15.3885 7.81885ZM69.0535 8.10596C70.845 7.48943 72.7742 7.38933 74.6199 7.81689C76.4656 8.24447 78.1541 9.18247 79.492 10.5239C80.8298 11.8653 81.7636 13.5561 82.1863 15.4028C82.609 17.2497 82.5029 19.1784 81.8817 20.9683C81.2604 22.758 80.1486 24.3372 78.6727 25.5249C77.1967 26.7126 75.4162 27.462 73.535 27.686V16.436H62.3143C62.5433 14.5553 63.2974 12.7761 64.4891 11.3032C65.6807 9.83059 67.2623 8.72246 69.0535 8.10596Z" fill="black"/>
</svg>
